<svg width="273" height="71" viewBox="0 0 273 71" fill="none" xmlns="http://www.w3.org/2000/svg">
<path d="M6.62725 8.83H2.37125L1.58725 11H0.24325L3.77125 1.298H5.24125L8.75525 11H7.41125L6.62725 8.83ZM6.26325 7.794L4.49925 2.866L2.73525 7.794H6.26325ZM13.0088 11.126C12.4208 11.126 11.8935 11.028 11.4268 10.832C10.9602 10.6267 10.5915 10.3467 10.3208 9.992C10.0502 9.628 9.90084 9.21267 9.87284 8.746H11.1888C11.2262 9.12867 11.4035 9.44133 11.7208 9.684C12.0475 9.92667 12.4722 10.048 12.9948 10.048C13.4802 10.048 13.8628 9.94067 14.1428 9.726C14.4228 9.51133 14.5628 9.24067 14.5628 8.914C14.5628 8.578 14.4135 8.33067 14.1148 8.172C13.8162 8.004 13.3542 7.84067 12.7288 7.682C12.1595 7.53267 11.6928 7.38333 11.3288 7.234C10.9742 7.07533 10.6662 6.84667 10.4048 6.548C10.1528 6.24 10.0268 5.83867 10.0268 5.344C10.0268 4.952 10.1435 4.59267 10.3768 4.266C10.6102 3.93933 10.9415 3.68267 11.3708 3.496C11.8002 3.3 12.2902 3.202 12.8408 3.202C13.6902 3.202 14.3762 3.41667 14.8988 3.846C15.4215 4.27533 15.7015 4.86333 15.7388 5.61H14.4648C14.4368 5.20867 14.2735 4.88667 13.9748 4.644C13.6855 4.40133 13.2935 4.28 12.7988 4.28C12.3415 4.28 11.9775 4.378 11.7068 4.574C11.4362 4.77 11.3008 5.02667 11.3008 5.344C11.3008 5.596 11.3802 5.806 11.5388 5.974C11.7068 6.13267 11.9122 6.26333 12.1548 6.366C12.4068 6.45933 12.7522 6.56667 13.1908 6.688C13.7415 6.83733 14.1895 6.98667 14.5348 7.136C14.8802 7.276 15.1742 7.49067 15.4168 7.78C15.6688 8.06933 15.7995 8.44733 15.8088 8.914C15.8088 9.334 15.6922 9.712 15.4588 10.048C15.2255 10.384 14.8942 10.65 14.4648 10.846C14.0448 11.0327 13.5595 11.126 13.0088 11.126ZM20.8637 7.136C20.8637 6.352 21.0224 5.666 21.3397 5.078C21.6571 4.48067 22.0911 4.01867 22.6417 3.692C23.2017 3.36533 23.8224 3.202 24.5037 3.202C25.1757 3.202 25.7591 3.34667 26.2537 3.636C26.7484 3.92533 27.1171 4.28933 27.3597 4.728V3.328H28.6477V11H27.3597V9.572C27.1077 10.02 26.7297 10.3933 26.2257 10.692C25.7311 10.9813 25.1524 11.126 24.4897 11.126C23.8084 11.126 23.1924 10.958 22.6417 10.622C22.0911 10.286 21.6571 9.81467 21.3397 9.208C21.0224 8.60133 20.8637 7.91067 20.8637 7.136ZM27.3597 7.15C27.3597 6.57133 27.2431 6.06733 27.0097 5.638C26.7764 5.20867 26.4591 4.882 26.0577 4.658C25.6657 4.42467 25.2317 4.308 24.7557 4.308C24.2797 4.308 23.8457 4.42 23.4537 4.644C23.0617 4.868 22.7491 5.19467 22.5157 5.624C22.2824 6.05333 22.1657 6.55733 22.1657 7.136C22.1657 7.724 22.2824 8.23733 22.5157 8.676C22.7491 9.10533 23.0617 9.43667 23.4537 9.67C23.8457 9.894 24.2797 10.006 24.7557 10.006C25.2317 10.006 25.6657 9.894 26.0577 9.67C26.4591 9.43667 26.7764 9.10533 27.0097 8.676C27.2431 8.23733 27.3597 7.72867 27.3597 7.15ZM35.8071 4.742C36.0591 4.30333 36.4324 3.93933 36.9271 3.65C37.4311 3.35133 38.0144 3.202 38.6771 3.202C39.3584 3.202 39.9744 3.36533 40.5251 3.692C41.0851 4.01867 41.5237 4.48067 41.8411 5.078C42.1584 5.666 42.3171 6.352 42.3171 7.136C42.3171 7.91067 42.1584 8.60133 41.8411 9.208C41.5237 9.81467 41.0851 10.286 40.5251 10.622C39.9744 10.958 39.3584 11.126 38.6771 11.126C38.0237 11.126 37.4451 10.9813 36.9411 10.692C36.4464 10.3933 36.0684 10.0247 35.8071 9.586V14.64H34.5331V3.328H35.8071V4.742ZM41.0151 7.136C41.0151 6.55733 40.8984 6.05333 40.6651 5.624C40.4317 5.19467 40.1144 4.868 39.7131 4.644C39.3211 4.42 38.8871 4.308 38.4111 4.308C37.9444 4.308 37.5104 4.42467 37.1091 4.658C36.7171 4.882 36.3997 5.21333 36.1571 5.652C35.9237 6.08133 35.8071 6.58067 35.8071 7.15C35.8071 7.72867 35.9237 8.23733 36.1571 8.676C36.3997 9.10533 36.7171 9.43667 37.1091 9.67C37.5104 9.894 37.9444 10.006 38.4111 10.006C38.8871 10.006 39.3211 9.894 39.7131 9.67C40.1144 9.43667 40.4317 9.10533 40.6651 8.676C40.8984 8.23733 41.0151 7.724 41.0151 7.136ZM43.518 7.136C43.518 6.352 43.6767 5.666 43.994 5.078C44.3113 4.48067 44.7453 4.01867 45.296 3.692C45.856 3.36533 46.4767 3.202 47.158 3.202C47.83 3.202 48.4133 3.34667 48.908 3.636C49.4027 3.92533 49.7713 4.28933 50.014 4.728V3.328H51.302V11H50.014V9.572C49.762 10.02 49.384 10.3933 48.88 10.692C48.3853 10.9813 47.8067 11.126 47.144 11.126C46.4627 11.126 45.8467 10.958 45.296 10.622C44.7453 10.286 44.3113 9.81467 43.994 9.208C43.6767 8.60133 43.518 7.91067 43.518 7.136ZM50.014 7.15C50.014 6.57133 49.8973 6.06733 49.664 5.638C49.4307 5.20867 49.1133 4.882 48.712 4.658C48.32 4.42467 47.886 4.308 47.41 4.308C46.934 4.308 46.5 4.42 46.108 4.644C45.716 4.868 45.4033 5.19467 45.17 5.624C44.9367 6.05333 44.82 6.55733 44.82 7.136C44.82 7.724 44.9367 8.23733 45.17 8.676C45.4033 9.10533 45.716 9.43667 46.108 9.67C46.5 9.894 46.934 10.006 47.41 10.006C47.886 10.006 48.32 9.894 48.712 9.67C49.1133 9.43667 49.4307 9.10533 49.664 8.676C49.8973 8.23733 50.014 7.72867 50.014 7.15ZM54.729 4.574C54.953 4.13533 55.2703 3.79467 55.681 3.552C56.101 3.30933 56.6096 3.188 57.207 3.188V4.504H56.871C55.443 4.504 54.729 5.27867 54.729 6.828V11H53.455V3.328H54.729V4.574ZM60.2316 4.378V8.9C60.2316 9.27333 60.3109 9.53933 60.4696 9.698C60.6283 9.84733 60.9036 9.922 61.2956 9.922H62.2336V11H61.0856C60.3763 11 59.8443 10.8367 59.4896 10.51C59.1349 10.1833 58.9576 9.64667 58.9576 8.9V4.378H57.9636V3.328H58.9576V1.396H60.2316V3.328H62.2336V4.378H60.2316ZM70.8556 11.126C70.137 11.126 69.4836 10.9627 68.8956 10.636C68.317 10.3093 67.8596 9.84733 67.5236 9.25C67.197 8.64333 67.0336 7.94333 67.0336 7.15C67.0336 6.366 67.2016 5.67533 67.5376 5.078C67.883 4.47133 68.3496 4.00933 68.9376 3.692C69.5256 3.36533 70.1836 3.202 70.9116 3.202C71.6396 3.202 72.2976 3.36533 72.8856 3.692C73.4736 4.00933 73.9356 4.46667 74.2716 5.064C74.617 5.66133 74.7896 6.35667 74.7896 7.15C74.7896 7.94333 74.6123 8.64333 74.2576 9.25C73.9123 9.84733 73.441 10.3093 72.8436 10.636C72.2463 10.9627 71.5836 11.126 70.8556 11.126ZM70.8556 10.006C71.313 10.006 71.7423 9.89867 72.1436 9.684C72.545 9.46933 72.867 9.14733 73.1096 8.718C73.3616 8.28867 73.4876 7.766 73.4876 7.15C73.4876 6.534 73.3663 6.01133 73.1236 5.582C72.881 5.15267 72.5636 4.83533 72.1716 4.63C71.7796 4.41533 71.355 4.308 70.8976 4.308C70.431 4.308 70.0016 4.41533 69.6096 4.63C69.227 4.83533 68.919 5.15267 68.6856 5.582C68.4523 6.01133 68.3356 6.534 68.3356 7.15C68.3356 7.77533 68.4476 8.30267 68.6716 8.732C68.905 9.16133 69.213 9.48333 69.5956 9.698C69.9783 9.90333 70.3983 10.006 70.8556 10.006ZM79.5867 4.378H77.9767V11H76.7027V4.378H75.7087V3.328H76.7027V2.782C76.7027 1.92333 76.9221 1.298 77.3607 0.906C77.8087 0.504666 78.5227 0.303999 79.5027 0.303999V1.368C78.9427 1.368 78.5461 1.48 78.3127 1.704C78.0887 1.91867 77.9767 2.278 77.9767 2.782V3.328H79.5867V4.378ZM94.0306 3.188C94.6279 3.188 95.1599 3.314 95.6266 3.566C96.0932 3.80867 96.4619 4.17733 96.7326 4.672C97.0032 5.16667 97.1386 5.76867 97.1386 6.478V11H95.8786V6.66C95.8786 5.89467 95.6872 5.31133 95.3046 4.91C94.9312 4.49933 94.4226 4.294 93.7786 4.294C93.1159 4.294 92.5886 4.50867 92.1966 4.938C91.8046 5.358 91.6086 5.96933 91.6086 6.772V11H90.3486V6.66C90.3486 5.89467 90.1572 5.31133 89.7746 4.91C89.4012 4.49933 88.8926 4.294 88.2486 4.294C87.5859 4.294 87.0586 4.50867 86.6666 4.938C86.2746 5.358 86.0786 5.96933 86.0786 6.772V11H84.8046V3.328H86.0786V4.434C86.3306 4.03267 86.6666 3.72467 87.0866 3.51C87.5159 3.29533 87.9872 3.188 88.5006 3.188C89.1446 3.188 89.7139 3.33267 90.2086 3.622C90.7032 3.91133 91.0719 4.336 91.3146 4.896C91.5292 4.35467 91.8839 3.93467 92.3786 3.636C92.8732 3.33733 93.4239 3.188 94.0306 3.188ZM105.836 3.328L101.216 14.612H99.9004L101.412 10.916L98.3184 3.328H99.7324L102.14 9.544L104.52 3.328H105.836ZM113.971 4.378H112.361V11H111.087V4.378H110.093V3.328H111.087V2.782C111.087 1.92333 111.307 1.298 111.745 0.906C112.193 0.504666 112.907 0.303999 113.887 0.303999V1.368C113.327 1.368 112.931 1.48 112.697 1.704C112.473 1.91867 112.361 2.278 112.361 2.782V3.328H113.971V4.378ZM118.803 11.126C118.084 11.126 117.431 10.9627 116.843 10.636C116.264 10.3093 115.807 9.84733 115.471 9.25C115.144 8.64333 114.981 7.94333 114.981 7.15C114.981 6.366 115.149 5.67533 115.485 5.078C115.83 4.47133 116.297 4.00933 116.885 3.692C117.473 3.36533 118.131 3.202 118.859 3.202C119.587 3.202 120.245 3.36533 120.833 3.692C121.421 4.00933 121.883 4.46667 122.219 5.064C122.564 5.66133 122.737 6.35667 122.737 7.15C122.737 7.94333 122.56 8.64333 122.205 9.25C121.86 9.84733 121.388 10.3093 120.791 10.636C120.194 10.9627 119.531 11.126 118.803 11.126ZM118.803 10.006C119.26 10.006 119.69 9.89867 120.091 9.684C120.492 9.46933 120.814 9.14733 121.057 8.718C121.309 8.28867 121.435 7.766 121.435 7.15C121.435 6.534 121.314 6.01133 121.071 5.582C120.828 5.15267 120.511 4.83533 120.119 4.63C119.727 4.41533 119.302 4.308 118.845 4.308C118.378 4.308 117.949 4.41533 117.557 4.63C117.174 4.83533 116.866 5.15267 116.633 5.582C116.4 6.01133 116.283 6.534 116.283 7.15C116.283 7.77533 116.395 8.30267 116.619 8.732C116.852 9.16133 117.16 9.48333 117.543 9.698C117.926 9.90333 118.346 10.006 118.803 10.006ZM123.936 7.15C123.936 6.35667 124.095 5.666 124.412 5.078C124.729 4.48067 125.168 4.01867 125.728 3.692C126.297 3.36533 126.946 3.202 127.674 3.202C128.617 3.202 129.391 3.43067 129.998 3.888C130.614 4.34533 131.02 4.98 131.216 5.792H129.844C129.713 5.32533 129.457 4.95667 129.074 4.686C128.701 4.41533 128.234 4.28 127.674 4.28C126.946 4.28 126.358 4.532 125.91 5.036C125.462 5.53067 125.238 6.23533 125.238 7.15C125.238 8.074 125.462 8.788 125.91 9.292C126.358 9.796 126.946 10.048 127.674 10.048C128.234 10.048 128.701 9.91733 129.074 9.656C129.447 9.39467 129.704 9.02133 129.844 8.536H131.216C131.011 9.32 130.6 9.95 129.984 10.426C129.368 10.8927 128.598 11.126 127.674 11.126C126.946 11.126 126.297 10.9627 125.728 10.636C125.168 10.3093 124.729 9.84733 124.412 9.25C124.095 8.65267 123.936 7.95267 123.936 7.15ZM139.72 3.328V11H138.446V9.866C138.203 10.258 137.863 10.566 137.424 10.79C136.995 11.0047 136.519 11.112 135.996 11.112C135.399 11.112 134.862 10.9907 134.386 10.748C133.91 10.496 133.532 10.1227 133.252 9.628C132.981 9.13333 132.846 8.53133 132.846 7.822V3.328H134.106V7.654C134.106 8.41 134.297 8.99333 134.68 9.404C135.063 9.80533 135.585 10.006 136.248 10.006C136.929 10.006 137.466 9.796 137.858 9.376C138.25 8.956 138.446 8.34467 138.446 7.542V3.328H139.72ZM144.587 11.126C143.999 11.126 143.472 11.028 143.005 10.832C142.538 10.6267 142.17 10.3467 141.899 9.992C141.628 9.628 141.479 9.21267 141.451 8.746H142.767C142.804 9.12867 142.982 9.44133 143.299 9.684C143.626 9.92667 144.05 10.048 144.573 10.048C145.058 10.048 145.441 9.94067 145.721 9.726C146.001 9.51133 146.141 9.24067 146.141 8.914C146.141 8.578 145.992 8.33067 145.693 8.172C145.394 8.004 144.932 7.84067 144.307 7.682C143.738 7.53267 143.271 7.38333 142.907 7.234C142.552 7.07533 142.244 6.84667 141.983 6.548C141.731 6.24 141.605 5.83867 141.605 5.344C141.605 4.952 141.722 4.59267 141.955 4.266C142.188 3.93933 142.52 3.68267 142.949 3.496C143.378 3.3 143.868 3.202 144.419 3.202C145.268 3.202 145.954 3.41667 146.477 3.846C147 4.27533 147.28 4.86333 147.317 5.61H146.043C146.015 5.20867 145.852 4.88667 145.553 4.644C145.264 4.40133 144.872 4.28 144.377 4.28C143.92 4.28 143.556 4.378 143.285 4.574C143.014 4.77 142.879 5.02667 142.879 5.344C142.879 5.596 142.958 5.806 143.117 5.974C143.285 6.13267 143.49 6.26333 143.733 6.366C143.985 6.45933 144.33 6.56667 144.769 6.688C145.32 6.83733 145.768 6.98667 146.113 7.136C146.458 7.276 146.752 7.49067 146.995 7.78C147.247 8.06933 147.378 8.44733 147.387 8.914C147.387 9.334 147.27 9.712 147.037 10.048C146.804 10.384 146.472 10.65 146.043 10.846C145.623 11.0327 145.138 11.126 144.587 11.126ZM156.264 11.126C155.545 11.126 154.892 10.9627 154.304 10.636C153.725 10.3093 153.268 9.84733 152.932 9.25C152.605 8.64333 152.442 7.94333 152.442 7.15C152.442 6.366 152.61 5.67533 152.946 5.078C153.291 4.47133 153.758 4.00933 154.346 3.692C154.934 3.36533 155.592 3.202 156.32 3.202C157.048 3.202 157.706 3.36533 158.294 3.692C158.882 4.00933 159.344 4.46667 159.68 5.064C160.025 5.66133 160.198 6.35667 160.198 7.15C160.198 7.94333 160.021 8.64333 159.666 9.25C159.321 9.84733 158.849 10.3093 158.252 10.636C157.655 10.9627 156.992 11.126 156.264 11.126ZM156.264 10.006C156.721 10.006 157.151 9.89867 157.552 9.684C157.953 9.46933 158.275 9.14733 158.518 8.718C158.77 8.28867 158.896 7.766 158.896 7.15C158.896 6.534 158.775 6.01133 158.532 5.582C158.289 5.15267 157.972 4.83533 157.58 4.63C157.188 4.41533 156.763 4.308 156.306 4.308C155.839 4.308 155.41 4.41533 155.018 4.63C154.635 4.83533 154.327 5.15267 154.094 5.582C153.861 6.01133 153.744 6.534 153.744 7.15C153.744 7.77533 153.856 8.30267 154.08 8.732C154.313 9.16133 154.621 9.48333 155.004 9.698C155.387 9.90333 155.807 10.006 156.264 10.006ZM165.611 3.188C166.544 3.188 167.3 3.47267 167.879 4.042C168.458 4.602 168.747 5.414 168.747 6.478V11H167.487V6.66C167.487 5.89467 167.296 5.31133 166.913 4.91C166.53 4.49933 166.008 4.294 165.345 4.294C164.673 4.294 164.136 4.504 163.735 4.924C163.343 5.344 163.147 5.95533 163.147 6.758V11H161.873V3.328H163.147V4.42C163.399 4.028 163.74 3.72467 164.169 3.51C164.608 3.29533 165.088 3.188 165.611 3.188ZM174.322 3.426C174.388 2.56733 174.719 1.89533 175.316 1.41C175.914 0.924666 176.688 0.681999 177.64 0.681999C178.275 0.681999 178.821 0.798666 179.278 1.032C179.745 1.256 180.095 1.564 180.328 1.956C180.571 2.348 180.692 2.79133 180.692 3.286C180.692 3.86467 180.524 4.364 180.188 4.784C179.862 5.204 179.432 5.47467 178.9 5.596V5.666C179.507 5.81533 179.988 6.10933 180.342 6.548C180.697 6.98667 180.874 7.56067 180.874 8.27C180.874 8.802 180.753 9.28267 180.51 9.712C180.268 10.132 179.904 10.4633 179.418 10.706C178.933 10.9487 178.35 11.07 177.668 11.07C176.679 11.07 175.867 10.8133 175.232 10.3C174.598 9.77733 174.243 9.04 174.168 8.088H175.4C175.466 8.648 175.694 9.10533 176.086 9.46C176.478 9.81467 177.001 9.992 177.654 9.992C178.308 9.992 178.802 9.824 179.138 9.488C179.484 9.14267 179.656 8.69933 179.656 8.158C179.656 7.458 179.423 6.954 178.956 6.646C178.49 6.338 177.785 6.184 176.842 6.184H176.52V5.12H176.856C177.715 5.11067 178.364 4.97067 178.802 4.7C179.241 4.42 179.46 3.99067 179.46 3.412C179.46 2.91733 179.297 2.52067 178.97 2.222C178.653 1.92333 178.196 1.774 177.598 1.774C177.02 1.774 176.553 1.92333 176.198 2.222C175.844 2.52067 175.634 2.922 175.568 3.426H174.322ZM185.843 1.242C186.907 1.242 187.826 1.44267 188.601 1.844C189.385 2.236 189.982 2.80067 190.393 3.538C190.813 4.27533 191.023 5.14333 191.023 6.142C191.023 7.14067 190.813 8.00867 190.393 8.746C189.982 9.474 189.385 10.034 188.601 10.426C187.826 10.8087 186.907 11 185.843 11H182.805V1.242H185.843ZM185.843 9.95C187.103 9.95 188.064 9.61867 188.727 8.956C189.389 8.284 189.721 7.346 189.721 6.142C189.721 4.92867 189.385 3.98133 188.713 3.3C188.05 2.61867 187.093 2.278 185.843 2.278H184.079V9.95H185.843ZM206.333 1.312V11H205.059V3.776L201.839 11H200.943L197.709 3.762V11H196.435V1.312H197.807L201.391 9.32L204.975 1.312H206.333ZM211.84 11.126C211.121 11.126 210.468 10.9627 209.88 10.636C209.301 10.3093 208.844 9.84733 208.508 9.25C208.181 8.64333 208.018 7.94333 208.018 7.15C208.018 6.366 208.186 5.67533 208.522 5.078C208.867 4.47133 209.334 4.00933 209.922 3.692C210.51 3.36533 211.168 3.202 211.896 3.202C212.624 3.202 213.282 3.36533 213.87 3.692C214.458 4.00933 214.92 4.46667 215.256 5.064C215.601 5.66133 215.774 6.35667 215.774 7.15C215.774 7.94333 215.597 8.64333 215.242 9.25C214.897 9.84733 214.425 10.3093 213.828 10.636C213.231 10.9627 212.568 11.126 211.84 11.126ZM211.84 10.006C212.297 10.006 212.727 9.89867 213.128 9.684C213.529 9.46933 213.851 9.14733 214.094 8.718C214.346 8.28867 214.472 7.766 214.472 7.15C214.472 6.534 214.351 6.01133 214.108 5.582C213.865 5.15267 213.548 4.83533 213.156 4.63C212.764 4.41533 212.339 4.308 211.882 4.308C211.415 4.308 210.986 4.41533 210.594 4.63C210.211 4.83533 209.903 5.15267 209.67 5.582C209.437 6.01133 209.32 6.534 209.32 7.15C209.32 7.77533 209.432 8.30267 209.656 8.732C209.889 9.16133 210.197 9.48333 210.58 9.698C210.963 9.90333 211.383 10.006 211.84 10.006ZM216.973 7.136C216.973 6.352 217.132 5.666 217.449 5.078C217.766 4.48067 218.2 4.01867 218.751 3.692C219.311 3.36533 219.936 3.202 220.627 3.202C221.224 3.202 221.78 3.342 222.293 3.622C222.806 3.89267 223.198 4.252 223.469 4.7V0.64H224.757V11H223.469V9.558C223.217 10.0153 222.844 10.3933 222.349 10.692C221.854 10.9813 221.276 11.126 220.613 11.126C219.932 11.126 219.311 10.958 218.751 10.622C218.2 10.286 217.766 9.81467 217.449 9.208C217.132 8.60133 216.973 7.91067 216.973 7.136ZM223.469 7.15C223.469 6.57133 223.352 6.06733 223.119 5.638C222.886 5.20867 222.568 4.882 222.167 4.658C221.775 4.42467 221.341 4.308 220.865 4.308C220.389 4.308 219.955 4.42 219.563 4.644C219.171 4.868 218.858 5.19467 218.625 5.624C218.392 6.05333 218.275 6.55733 218.275 7.136C218.275 7.724 218.392 8.23733 218.625 8.676C218.858 9.10533 219.171 9.43667 219.563 9.67C219.955 9.894 220.389 10.006 220.865 10.006C221.341 10.006 221.775 9.894 222.167 9.67C222.568 9.43667 222.886 9.10533 223.119 8.676C223.352 8.23733 223.469 7.72867 223.469 7.15ZM233.91 6.87C233.91 7.11267 233.896 7.36933 233.868 7.64H227.736C227.783 8.396 228.039 8.98867 228.506 9.418C228.982 9.838 229.556 10.048 230.228 10.048C230.779 10.048 231.236 9.922 231.6 9.67C231.973 9.40867 232.235 9.06333 232.384 8.634H233.756C233.551 9.37133 233.14 9.97333 232.524 10.44C231.908 10.8973 231.143 11.126 230.228 11.126C229.5 11.126 228.847 10.9627 228.268 10.636C227.699 10.3093 227.251 9.84733 226.924 9.25C226.597 8.64333 226.434 7.94333 226.434 7.15C226.434 6.35667 226.593 5.66133 226.91 5.064C227.227 4.46667 227.671 4.00933 228.24 3.692C228.819 3.36533 229.481 3.202 230.228 3.202C230.956 3.202 231.6 3.36067 232.16 3.678C232.72 3.99533 233.149 4.434 233.448 4.994C233.756 5.54467 233.91 6.17 233.91 6.87ZM232.594 6.604C232.594 6.11867 232.487 5.70333 232.272 5.358C232.057 5.00333 231.763 4.73733 231.39 4.56C231.026 4.37333 230.62 4.28 230.172 4.28C229.528 4.28 228.977 4.48533 228.52 4.896C228.072 5.30667 227.815 5.876 227.75 6.604H232.594ZM236.866 0.64V11H235.592V0.64H236.866ZM240.311 0.64V11H239.037V0.64H240.311ZM243.14 2.082C242.898 2.082 242.692 1.998 242.524 1.83C242.356 1.662 242.272 1.45667 242.272 1.214C242.272 0.971333 242.356 0.766 242.524 0.598C242.692 0.43 242.898 0.345999 243.14 0.345999C243.374 0.345999 243.57 0.43 243.728 0.598C243.896 0.766 243.98 0.971333 243.98 1.214C243.98 1.45667 243.896 1.662 243.728 1.83C243.57 1.998 243.374 2.082 243.14 2.082ZM243.756 3.328V11H242.482V3.328H243.756ZM249.666 3.188C250.599 3.188 251.355 3.47267 251.934 4.042C252.512 4.602 252.802 5.414 252.802 6.478V11H251.542V6.66C251.542 5.89467 251.35 5.31133 250.968 4.91C250.585 4.49933 250.062 4.294 249.4 4.294C248.728 4.294 248.191 4.504 247.79 4.924C247.398 5.344 247.202 5.95533 247.202 6.758V11H245.928V3.328H247.202V4.42C247.454 4.028 247.794 3.72467 248.224 3.51C248.662 3.29533 249.143 3.188 249.666 3.188ZM258.047 3.202C258.709 3.202 259.288 3.34667 259.783 3.636C260.287 3.92533 260.66 4.28933 260.903 4.728V3.328H262.191V11.168C262.191 11.868 262.041 12.4887 261.743 13.03C261.444 13.5807 261.015 14.01 260.455 14.318C259.904 14.626 259.26 14.78 258.523 14.78C257.515 14.78 256.675 14.542 256.003 14.066C255.331 13.59 254.934 12.9413 254.813 12.12H256.073C256.213 12.5867 256.502 12.96 256.941 13.24C257.379 13.5293 257.907 13.674 258.523 13.674C259.223 13.674 259.792 13.4547 260.231 13.016C260.679 12.5773 260.903 11.9613 260.903 11.168V9.558C260.651 10.006 260.277 10.3793 259.783 10.678C259.288 10.9767 258.709 11.126 258.047 11.126C257.365 11.126 256.745 10.958 256.185 10.622C255.634 10.286 255.2 9.81467 254.883 9.208C254.565 8.60133 254.407 7.91067 254.407 7.136C254.407 6.352 254.565 5.666 254.883 5.078C255.2 4.48067 255.634 4.01867 256.185 3.692C256.745 3.36533 257.365 3.202 258.047 3.202ZM260.903 7.15C260.903 6.57133 260.786 6.06733 260.553 5.638C260.319 5.20867 260.002 4.882 259.601 4.658C259.209 4.42467 258.775 4.308 258.299 4.308C257.823 4.308 257.389 4.42 256.997 4.644C256.605 4.868 256.292 5.19467 256.059 5.624C255.825 6.05333 255.709 6.55733 255.709 7.136C255.709 7.724 255.825 8.23733 256.059 8.676C256.292 9.10533 256.605 9.43667 256.997 9.67C257.389 9.894 257.823 10.006 258.299 10.006C258.775 10.006 259.209 9.894 259.601 9.67C260.002 9.43667 260.319 9.10533 260.553 8.676C260.786 8.23733 260.903 7.72867 260.903 7.15ZM265.66 9.236L264.092 13.002H263.238L264.26 9.236H265.66ZM272.125 1.242V11H270.851V1.242H272.125ZM8.10409 31.188C9.03742 31.188 9.79342 31.4727 10.3721 32.042C10.9508 32.602 11.2401 33.414 11.2401 34.478V39H9.98009V34.66C9.98009 33.8947 9.78875 33.3113 9.40609 32.91C9.02342 32.4993 8.50075 32.294 7.83809 32.294C7.16609 32.294 6.62942 32.504 6.22809 32.924C5.83609 33.344 5.64009 33.9553 5.64009 34.758V39H4.36609V31.328H5.64009V32.42C5.89209 32.028 6.23275 31.7247 6.66209 31.51C7.10075 31.2953 7.58142 31.188 8.10409 31.188ZM12.8452 35.136C12.8452 34.352 13.0038 33.666 13.3212 33.078C13.6385 32.4807 14.0725 32.0187 14.6232 31.692C15.1832 31.3653 15.8038 31.202 16.4852 31.202C17.1572 31.202 17.7405 31.3467 18.2352 31.636C18.7298 31.9253 19.0985 32.2893 19.3412 32.728V31.328H20.6292V39H19.3412V37.572C19.0892 38.02 18.7112 38.3933 18.2072 38.692C17.7125 38.9813 17.1338 39.126 16.4712 39.126C15.7898 39.126 15.1738 38.958 14.6232 38.622C14.0725 38.286 13.6385 37.8147 13.3212 37.208C13.0038 36.6013 12.8452 35.9107 12.8452 35.136ZM19.3412 35.15C19.3412 34.5713 19.2245 34.0673 18.9912 33.638C18.7578 33.2087 18.4405 32.882 18.0392 32.658C17.6472 32.4247 17.2132 32.308 16.7372 32.308C16.2612 32.308 15.8272 32.42 15.4352 32.644C15.0432 32.868 14.7305 33.1947 14.4972 33.624C14.2638 34.0533 14.1472 34.5573 14.1472 35.136C14.1472 35.724 14.2638 36.2373 14.4972 36.676C14.7305 37.1053 15.0432 37.4367 15.4352 37.67C15.8272 37.894 16.2612 38.006 16.7372 38.006C17.2132 38.006 17.6472 37.894 18.0392 37.67C18.4405 37.4367 18.7578 37.1053 18.9912 36.676C19.2245 36.2373 19.3412 35.7287 19.3412 35.15ZM24.3361 32.378V36.9C24.3361 37.2733 24.4154 37.5393 24.5741 37.698C24.7328 37.8473 25.0081 37.922 25.4001 37.922H26.3381V39H25.1901C24.4808 39 23.9488 38.8367 23.5941 38.51C23.2394 38.1833 23.0621 37.6467 23.0621 36.9V32.378H22.0681V31.328H23.0621V29.396H24.3361V31.328H26.3381V32.378H24.3361ZM34.6857 31.328V39H33.4117V37.866C33.169 38.258 32.8284 38.566 32.3897 38.79C31.9604 39.0047 31.4844 39.112 30.9617 39.112C30.3644 39.112 29.8277 38.9907 29.3517 38.748C28.8757 38.496 28.4977 38.1227 28.2177 37.628C27.947 37.1333 27.8117 36.5313 27.8117 35.822V31.328H29.0717V35.654C29.0717 36.41 29.263 36.9933 29.6457 37.404C30.0284 37.8053 30.551 38.006 31.2137 38.006C31.895 38.006 32.4317 37.796 32.8237 37.376C33.2157 36.956 33.4117 36.3447 33.4117 35.542V31.328H34.6857ZM38.1108 32.574C38.3348 32.1353 38.6521 31.7947 39.0628 31.552C39.4828 31.3093 39.9915 31.188 40.5888 31.188V32.504H40.2528C38.8248 32.504 38.1108 33.2787 38.1108 34.828V39H36.8368V31.328H38.1108V32.574ZM41.5834 35.136C41.5834 34.352 41.7421 33.666 42.0594 33.078C42.3768 32.4807 42.8108 32.0187 43.3614 31.692C43.9214 31.3653 44.5421 31.202 45.2234 31.202C45.8954 31.202 46.4788 31.3467 46.9734 31.636C47.4681 31.9253 47.8368 32.2893 48.0794 32.728V31.328H49.3674V39H48.0794V37.572C47.8274 38.02 47.4494 38.3933 46.9454 38.692C46.4508 38.9813 45.8721 39.126 45.2094 39.126C44.5281 39.126 43.9121 38.958 43.3614 38.622C42.8108 38.286 42.3768 37.8147 42.0594 37.208C41.7421 36.6013 41.5834 35.9107 41.5834 35.136ZM48.0794 35.15C48.0794 34.5713 47.9628 34.0673 47.7294 33.638C47.4961 33.2087 47.1788 32.882 46.7774 32.658C46.3854 32.4247 45.9514 32.308 45.4754 32.308C44.9994 32.308 44.5654 32.42 44.1734 32.644C43.7814 32.868 43.4688 33.1947 43.2354 33.624C43.0021 34.0533 42.8854 34.5573 42.8854 35.136C42.8854 35.724 43.0021 36.2373 43.2354 36.676C43.4688 37.1053 43.7814 37.4367 44.1734 37.67C44.5654 37.894 44.9994 38.006 45.4754 38.006C45.9514 38.006 46.3854 37.894 46.7774 37.67C47.1788 37.4367 47.4961 37.1053 47.7294 36.676C47.9628 36.2373 48.0794 35.7287 48.0794 35.15ZM52.7944 28.64V39H51.5204V28.64H52.7944ZM56.2397 28.64V39H54.9657V28.64H56.2397ZM65.019 31.328L60.399 42.612H59.083L60.595 38.916L57.501 31.328H58.915L61.323 37.544L63.703 31.328H65.019ZM69.5561 35.136C69.5561 34.352 69.7148 33.666 70.0321 33.078C70.3494 32.4807 70.7834 32.0187 71.3341 31.692C71.8941 31.3653 72.5148 31.202 73.1961 31.202C73.8681 31.202 74.4514 31.3467 74.9461 31.636C75.4408 31.9253 75.8094 32.2893 76.0521 32.728V31.328H77.3401V39H76.0521V37.572C75.8001 38.02 75.4221 38.3933 74.9181 38.692C74.4234 38.9813 73.8448 39.126 73.1821 39.126C72.5008 39.126 71.8848 38.958 71.3341 38.622C70.7834 38.286 70.3494 37.8147 70.0321 37.208C69.7148 36.6013 69.5561 35.9107 69.5561 35.136ZM76.0521 35.15C76.0521 34.5713 75.9354 34.0673 75.7021 33.638C75.4688 33.2087 75.1514 32.882 74.7501 32.658C74.3581 32.4247 73.9241 32.308 73.4481 32.308C72.9721 32.308 72.5381 32.42 72.1461 32.644C71.7541 32.868 71.4414 33.1947 71.2081 33.624C70.9748 34.0533 70.8581 34.5573 70.8581 35.136C70.8581 35.724 70.9748 36.2373 71.2081 36.676C71.4414 37.1053 71.7541 37.4367 72.1461 37.67C72.5381 37.894 72.9721 38.006 73.4481 38.006C73.9241 38.006 74.3581 37.894 74.7501 37.67C75.1514 37.4367 75.4688 37.1053 75.7021 36.676C75.9354 36.2373 76.0521 35.7287 76.0521 35.15ZM80.767 28.64V39H79.493V28.64H80.767ZM85.6544 39.126C85.0664 39.126 84.539 39.028 84.0724 38.832C83.6057 38.6267 83.237 38.3467 82.9664 37.992C82.6957 37.628 82.5464 37.2127 82.5184 36.746H83.8344C83.8717 37.1287 84.049 37.4413 84.3664 37.684C84.693 37.9267 85.1177 38.048 85.6404 38.048C86.1257 38.048 86.5084 37.9407 86.7884 37.726C87.0684 37.5113 87.2084 37.2407 87.2084 36.914C87.2084 36.578 87.059 36.3307 86.7604 36.172C86.4617 36.004 85.9997 35.8407 85.3744 35.682C84.805 35.5327 84.3384 35.3833 83.9744 35.234C83.6197 35.0753 83.3117 34.8467 83.0504 34.548C82.7984 34.24 82.6724 33.8387 82.6724 33.344C82.6724 32.952 82.789 32.5927 83.0224 32.266C83.2557 31.9393 83.587 31.6827 84.0164 31.496C84.4457 31.3 84.9357 31.202 85.4864 31.202C86.3357 31.202 87.0217 31.4167 87.5444 31.846C88.067 32.2753 88.347 32.8633 88.3844 33.61H87.1104C87.0824 33.2087 86.919 32.8867 86.6204 32.644C86.331 32.4013 85.939 32.28 85.4444 32.28C84.987 32.28 84.623 32.378 84.3524 32.574C84.0817 32.77 83.9464 33.0267 83.9464 33.344C83.9464 33.596 84.0257 33.806 84.1844 33.974C84.3524 34.1327 84.5577 34.2633 84.8004 34.366C85.0524 34.4593 85.3977 34.5667 85.8364 34.688C86.387 34.8373 86.835 34.9867 87.1804 35.136C87.5257 35.276 87.8197 35.4907 88.0624 35.78C88.3144 36.0693 88.445 36.4473 88.4544 36.914C88.4544 37.334 88.3377 37.712 88.1044 38.048C87.871 38.384 87.5397 38.65 87.1104 38.846C86.6904 39.0327 86.205 39.126 85.6544 39.126ZM93.5988 39.126C92.8801 39.126 92.2268 38.9627 91.6388 38.636C91.0601 38.3093 90.6028 37.8473 90.2668 37.25C89.9401 36.6433 89.7768 35.9433 89.7768 35.15C89.7768 34.366 89.9448 33.6753 90.2808 33.078C90.6261 32.4713 91.0928 32.0093 91.6808 31.692C92.2688 31.3653 92.9268 31.202 93.6548 31.202C94.3828 31.202 95.0408 31.3653 95.6288 31.692C96.2168 32.0093 96.6788 32.4667 97.0148 33.064C97.3601 33.6613 97.5328 34.3567 97.5328 35.15C97.5328 35.9433 97.3555 36.6433 97.0008 37.25C96.6555 37.8473 96.1841 38.3093 95.5868 38.636C94.9895 38.9627 94.3268 39.126 93.5988 39.126ZM93.5988 38.006C94.0561 38.006 94.4855 37.8987 94.8868 37.684C95.2881 37.4693 95.6101 37.1473 95.8528 36.718C96.1048 36.2887 96.2308 35.766 96.2308 35.15C96.2308 34.534 96.1095 34.0113 95.8668 33.582C95.6241 33.1527 95.3068 32.8353 94.9148 32.63C94.5228 32.4153 94.0981 32.308 93.6408 32.308C93.1741 32.308 92.7448 32.4153 92.3528 32.63C91.9701 32.8353 91.6621 33.1527 91.4288 33.582C91.1955 34.0113 91.0788 34.534 91.0788 35.15C91.0788 35.7753 91.1908 36.3027 91.4148 36.732C91.6481 37.1613 91.9561 37.4833 92.3388 37.698C92.7215 37.9033 93.1415 38.006 93.5988 38.006ZM106.104 31.202C106.767 31.202 107.346 31.3467 107.84 31.636C108.344 31.9253 108.718 32.2893 108.96 32.728V31.328H110.248V39.168C110.248 39.868 110.099 40.4887 109.8 41.03C109.502 41.5807 109.072 42.01 108.512 42.318C107.962 42.626 107.318 42.78 106.58 42.78C105.572 42.78 104.732 42.542 104.06 42.066C103.388 41.59 102.992 40.9413 102.87 40.12H104.13C104.27 40.5867 104.56 40.96 104.998 41.24C105.437 41.5293 105.964 41.674 106.58 41.674C107.28 41.674 107.85 41.4547 108.288 41.016C108.736 40.5773 108.96 39.9613 108.96 39.168V37.558C108.708 38.006 108.335 38.3793 107.84 38.678C107.346 38.9767 106.767 39.126 106.104 39.126C105.423 39.126 104.802 38.958 104.242 38.622C103.692 38.286 103.258 37.8147 102.94 37.208C102.623 36.6013 102.464 35.9107 102.464 35.136C102.464 34.352 102.623 33.666 102.94 33.078C103.258 32.4807 103.692 32.0187 104.242 31.692C104.802 31.3653 105.423 31.202 106.104 31.202ZM108.96 35.15C108.96 34.5713 108.844 34.0673 108.61 33.638C108.377 33.2087 108.06 32.882 107.658 32.658C107.266 32.4247 106.832 32.308 106.356 32.308C105.88 32.308 105.446 32.42 105.054 32.644C104.662 32.868 104.35 33.1947 104.116 33.624C103.883 34.0533 103.766 34.5573 103.766 35.136C103.766 35.724 103.883 36.2373 104.116 36.676C104.35 37.1053 104.662 37.4367 105.054 37.67C105.446 37.894 105.88 38.006 106.356 38.006C106.832 38.006 107.266 37.894 107.658 37.67C108.06 37.4367 108.377 37.1053 108.61 36.676C108.844 36.2373 108.96 35.7287 108.96 35.15ZM115.747 39.126C115.029 39.126 114.375 38.9627 113.787 38.636C113.209 38.3093 112.751 37.8473 112.415 37.25C112.089 36.6433 111.925 35.9433 111.925 35.15C111.925 34.366 112.093 33.6753 112.429 33.078C112.775 32.4713 113.241 32.0093 113.829 31.692C114.417 31.3653 115.075 31.202 115.803 31.202C116.531 31.202 117.189 31.3653 117.777 31.692C118.365 32.0093 118.827 32.4667 119.163 33.064C119.509 33.6613 119.681 34.3567 119.681 35.15C119.681 35.9433 119.504 36.6433 119.149 37.25C118.804 37.8473 118.333 38.3093 117.735 38.636C117.138 38.9627 116.475 39.126 115.747 39.126ZM115.747 38.006C116.205 38.006 116.634 37.8987 117.035 37.684C117.437 37.4693 117.759 37.1473 118.001 36.718C118.253 36.2887 118.379 35.766 118.379 35.15C118.379 34.534 118.258 34.0113 118.015 33.582C117.773 33.1527 117.455 32.8353 117.063 32.63C116.671 32.4153 116.247 32.308 115.789 32.308C115.323 32.308 114.893 32.4153 114.501 32.63C114.119 32.8353 113.811 33.1527 113.577 33.582C113.344 34.0113 113.227 34.534 113.227 35.15C113.227 35.7753 113.339 36.3027 113.563 36.732C113.797 37.1613 114.105 37.4833 114.487 37.698C114.87 37.9033 115.29 38.006 115.747 38.006ZM122.91 32.378V36.9C122.91 37.2733 122.99 37.5393 123.148 37.698C123.307 37.8473 123.582 37.922 123.974 37.922H124.912V39H123.764C123.055 39 122.523 38.8367 122.168 38.51C121.814 38.1833 121.636 37.6467 121.636 36.9V32.378H120.642V31.328H121.636V29.396H122.91V31.328H124.912V32.378H122.91ZM130.846 30.082C130.604 30.082 130.398 29.998 130.23 29.83C130.062 29.662 129.978 29.4567 129.978 29.214C129.978 28.9713 130.062 28.766 130.23 28.598C130.398 28.43 130.604 28.346 130.846 28.346C131.08 28.346 131.276 28.43 131.434 28.598C131.602 28.766 131.686 28.9713 131.686 29.214C131.686 29.4567 131.602 29.662 131.434 29.83C131.276 29.998 131.08 30.082 130.846 30.082ZM131.462 31.328V39H130.188V31.328H131.462ZM137.372 31.188C138.305 31.188 139.061 31.4727 139.64 32.042C140.218 32.602 140.508 33.414 140.508 34.478V39H139.248V34.66C139.248 33.8947 139.056 33.3113 138.674 32.91C138.291 32.4993 137.768 32.294 137.106 32.294C136.434 32.294 135.897 32.504 135.496 32.924C135.104 33.344 134.908 33.9553 134.908 34.758V39H133.634V31.328H134.908V32.42C135.16 32.028 135.5 31.7247 135.93 31.51C136.368 31.2953 136.849 31.188 137.372 31.188ZM144.143 32.378V36.9C144.143 37.2733 144.222 37.5393 144.381 37.698C144.539 37.8473 144.815 37.922 145.207 37.922H146.145V39H144.997C144.287 39 143.755 38.8367 143.401 38.51C143.046 38.1833 142.869 37.6467 142.869 36.9V32.378H141.875V31.328H142.869V29.396H144.143V31.328H146.145V32.378H144.143ZM151.034 39.126C150.316 39.126 149.662 38.9627 149.074 38.636C148.496 38.3093 148.038 37.8473 147.702 37.25C147.376 36.6433 147.212 35.9433 147.212 35.15C147.212 34.366 147.38 33.6753 147.716 33.078C148.062 32.4713 148.528 32.0093 149.116 31.692C149.704 31.3653 150.362 31.202 151.09 31.202C151.818 31.202 152.476 31.3653 153.064 31.692C153.652 32.0093 154.114 32.4667 154.45 33.064C154.796 33.6613 154.968 34.3567 154.968 35.15C154.968 35.9433 154.791 36.6433 154.436 37.25C154.091 37.8473 153.62 38.3093 153.022 38.636C152.425 38.9627 151.762 39.126 151.034 39.126ZM151.034 38.006C151.492 38.006 151.921 37.8987 152.322 37.684C152.724 37.4693 153.046 37.1473 153.288 36.718C153.54 36.2887 153.666 35.766 153.666 35.15C153.666 34.534 153.545 34.0113 153.302 33.582C153.06 33.1527 152.742 32.8353 152.35 32.63C151.958 32.4153 151.534 32.308 151.076 32.308C150.61 32.308 150.18 32.4153 149.788 32.63C149.406 32.8353 149.098 33.1527 148.864 33.582C148.631 34.0113 148.514 34.534 148.514 35.15C148.514 35.7753 148.626 36.3027 148.85 36.732C149.084 37.1613 149.392 37.4833 149.774 37.698C150.157 37.9033 150.577 38.006 151.034 38.006ZM161.93 32.378V36.9C161.93 37.2733 162.009 37.5393 162.168 37.698C162.327 37.8473 162.602 37.922 162.994 37.922H163.932V39H162.784C162.075 39 161.543 38.8367 161.188 38.51C160.833 38.1833 160.656 37.6467 160.656 36.9V32.378H159.662V31.328H160.656V29.396H161.93V31.328H163.932V32.378H161.93ZM172.475 34.87C172.475 35.1127 172.461 35.3693 172.433 35.64H166.301C166.348 36.396 166.605 36.9887 167.071 37.418C167.547 37.838 168.121 38.048 168.793 38.048C169.344 38.048 169.801 37.922 170.165 37.67C170.539 37.4087 170.8 37.0633 170.949 36.634H172.321C172.116 37.3713 171.705 37.9733 171.089 38.44C170.473 38.8973 169.708 39.126 168.793 39.126C168.065 39.126 167.412 38.9627 166.833 38.636C166.264 38.3093 165.816 37.8473 165.489 37.25C165.163 36.6433 164.999 35.9433 164.999 35.15C164.999 34.3567 165.158 33.6613 165.475 33.064C165.793 32.4667 166.236 32.0093 166.805 31.692C167.384 31.3653 168.047 31.202 168.793 31.202C169.521 31.202 170.165 31.3607 170.725 31.678C171.285 31.9953 171.715 32.434 172.013 32.994C172.321 33.5447 172.475 34.17 172.475 34.87ZM171.159 34.604C171.159 34.1187 171.052 33.7033 170.837 33.358C170.623 33.0033 170.329 32.7373 169.955 32.56C169.591 32.3733 169.185 32.28 168.737 32.28C168.093 32.28 167.543 32.4853 167.085 32.896C166.637 33.3067 166.381 33.876 166.315 34.604H171.159ZM178.161 39L176.341 36.144L174.591 39H173.261L175.739 35.192L173.261 31.328H174.703L176.523 34.17L178.259 31.328H179.589L177.125 35.122L179.603 39H178.161ZM182.41 32.378V36.9C182.41 37.2733 182.49 37.5393 182.648 37.698C182.807 37.8473 183.082 37.922 183.474 37.922H184.412V39H183.264C182.555 39 182.023 38.8367 181.668 38.51C181.314 38.1833 181.136 37.6467 181.136 36.9V32.378H180.142V31.328H181.136V29.396H182.41V31.328H184.412V32.378H182.41ZM192.76 31.328V39H191.486V37.866C191.243 38.258 190.903 38.566 190.464 38.79C190.035 39.0047 189.559 39.112 189.036 39.112C188.439 39.112 187.902 38.9907 187.426 38.748C186.95 38.496 186.572 38.1227 186.292 37.628C186.021 37.1333 185.886 36.5313 185.886 35.822V31.328H187.146V35.654C187.146 36.41 187.337 36.9933 187.72 37.404C188.103 37.8053 188.625 38.006 189.288 38.006C189.969 38.006 190.506 37.796 190.898 37.376C191.29 36.956 191.486 36.3447 191.486 35.542V31.328H192.76ZM196.185 32.574C196.409 32.1353 196.726 31.7947 197.137 31.552C197.557 31.3093 198.066 31.188 198.663 31.188V32.504H198.327C196.899 32.504 196.185 33.2787 196.185 34.828V39H194.911V31.328H196.185V32.574ZM200.792 30.082C200.549 30.082 200.344 29.998 200.176 29.83C200.008 29.662 199.924 29.4567 199.924 29.214C199.924 28.9713 200.008 28.766 200.176 28.598C200.344 28.43 200.549 28.346 200.792 28.346C201.025 28.346 201.221 28.43 201.38 28.598C201.548 28.766 201.632 28.9713 201.632 29.214C201.632 29.4567 201.548 29.662 201.38 29.83C201.221 29.998 201.025 30.082 200.792 30.082ZM201.408 31.328V39H200.134V31.328H201.408ZM207.317 31.188C208.25 31.188 209.006 31.4727 209.585 32.042C210.164 32.602 210.453 33.414 210.453 34.478V39H209.193V34.66C209.193 33.8947 209.002 33.3113 208.619 32.91C208.236 32.4993 207.714 32.294 207.051 32.294C206.379 32.294 205.842 32.504 205.441 32.924C205.049 33.344 204.853 33.9553 204.853 34.758V39H203.579V31.328H204.853V32.42C205.105 32.028 205.446 31.7247 205.875 31.51C206.314 31.2953 206.794 31.188 207.317 31.188ZM215.698 31.202C216.361 31.202 216.939 31.3467 217.434 31.636C217.938 31.9253 218.311 32.2893 218.554 32.728V31.328H219.842V39.168C219.842 39.868 219.693 40.4887 219.394 41.03C219.095 41.5807 218.666 42.01 218.106 42.318C217.555 42.626 216.911 42.78 216.174 42.78C215.166 42.78 214.326 42.542 213.654 42.066C212.982 41.59 212.585 40.9413 212.464 40.12H213.724C213.864 40.5867 214.153 40.96 214.592 41.24C215.031 41.5293 215.558 41.674 216.174 41.674C216.874 41.674 217.443 41.4547 217.882 41.016C218.33 40.5773 218.554 39.9613 218.554 39.168V37.558C218.302 38.006 217.929 38.3793 217.434 38.678C216.939 38.9767 216.361 39.126 215.698 39.126C215.017 39.126 214.396 38.958 213.836 38.622C213.285 38.286 212.851 37.8147 212.534 37.208C212.217 36.6013 212.058 35.9107 212.058 35.136C212.058 34.352 212.217 33.666 212.534 33.078C212.851 32.4807 213.285 32.0187 213.836 31.692C214.396 31.3653 215.017 31.202 215.698 31.202ZM218.554 35.15C218.554 34.5713 218.437 34.0673 218.204 33.638C217.971 33.2087 217.653 32.882 217.252 32.658C216.86 32.4247 216.426 32.308 215.95 32.308C215.474 32.308 215.04 32.42 214.648 32.644C214.256 32.868 213.943 33.1947 213.71 33.624C213.477 34.0533 213.36 34.5573 213.36 35.136C213.36 35.724 213.477 36.2373 213.71 36.676C213.943 37.1053 214.256 37.4367 214.648 37.67C215.04 37.894 215.474 38.006 215.95 38.006C216.426 38.006 216.86 37.894 217.252 37.67C217.653 37.4367 217.971 37.1053 218.204 36.676C218.437 36.2373 218.554 35.7287 218.554 35.15ZM222.401 39.084C222.158 39.084 221.953 39 221.785 38.832C221.617 38.664 221.533 38.4587 221.533 38.216C221.533 37.9733 221.617 37.768 221.785 37.6C221.953 37.432 222.158 37.348 222.401 37.348C222.634 37.348 222.83 37.432 222.989 37.6C223.157 37.768 223.241 37.9733 223.241 38.216C223.241 38.4587 223.157 38.664 222.989 38.832C222.83 39 222.634 39.084 222.401 39.084ZM229.941 29.242V39H228.667V29.242H229.941ZM239.653 31.188C240.231 31.188 240.754 31.314 241.221 31.566C241.687 31.8087 242.051 32.1773 242.313 32.672C242.583 33.1667 242.719 33.7687 242.719 34.478V39H241.459V34.66C241.459 33.8947 241.267 33.3113 240.885 32.91C240.502 32.4993 239.979 32.294 239.317 32.294C238.645 32.294 238.108 32.504 237.707 32.924C237.315 33.344 237.119 33.9553 237.119 34.758V39H235.845V28.64H237.119V32.42C237.371 32.028 237.716 31.7247 238.155 31.51C238.603 31.2953 239.102 31.188 239.653 31.188ZM244.324 35.136C244.324 34.352 244.482 33.666 244.8 33.078C245.117 32.4807 245.551 32.0187 246.102 31.692C246.662 31.3653 247.282 31.202 247.964 31.202C248.636 31.202 249.219 31.3467 249.714 31.636C250.208 31.9253 250.577 32.2893 250.82 32.728V31.328H252.108V39H250.82V37.572C250.568 38.02 250.19 38.3933 249.686 38.692C249.191 38.9813 248.612 39.126 247.95 39.126C247.268 39.126 246.652 38.958 246.102 38.622C245.551 38.286 245.117 37.8147 244.8 37.208C244.482 36.6013 244.324 35.9107 244.324 35.136ZM250.82 35.15C250.82 34.5713 250.703 34.0673 250.47 33.638C250.236 33.2087 249.919 32.882 249.518 32.658C249.126 32.4247 248.692 32.308 248.216 32.308C247.74 32.308 247.306 32.42 246.914 32.644C246.522 32.868 246.209 33.1947 245.976 33.624C245.742 34.0533 245.626 34.5573 245.626 35.136C245.626 35.724 245.742 36.2373 245.976 36.676C246.209 37.1053 246.522 37.4367 246.914 37.67C247.306 37.894 247.74 38.006 248.216 38.006C248.692 38.006 249.126 37.894 249.518 37.67C249.919 37.4367 250.236 37.1053 250.47 36.676C250.703 36.2373 250.82 35.7287 250.82 35.15ZM257.117 37.824L259.497 31.328H260.855L257.845 39H256.361L253.351 31.328H254.723L257.117 37.824ZM269.108 34.87C269.108 35.1127 269.094 35.3693 269.066 35.64H262.934C262.981 36.396 263.238 36.9887 263.704 37.418C264.18 37.838 264.754 38.048 265.426 38.048C265.977 38.048 266.434 37.922 266.798 37.67C267.172 37.4087 267.433 37.0633 267.582 36.634H268.954C268.749 37.3713 268.338 37.9733 267.722 38.44C267.106 38.8973 266.341 39.126 265.426 39.126C264.698 39.126 264.045 38.9627 263.466 38.636C262.897 38.3093 262.449 37.8473 262.122 37.25C261.796 36.6433 261.632 35.9433 261.632 35.15C261.632 34.3567 261.791 33.6613 262.108 33.064C262.426 32.4667 262.869 32.0093 263.438 31.692C264.017 31.3653 264.68 31.202 265.426 31.202C266.154 31.202 266.798 31.3607 267.358 31.678C267.918 31.9953 268.348 32.434 268.646 32.994C268.954 33.5447 269.108 34.17 269.108 34.87ZM267.792 34.604C267.792 34.1187 267.685 33.7033 267.47 33.358C267.256 33.0033 266.962 32.7373 266.588 32.56C266.224 32.3733 265.818 32.28 265.37 32.28C264.726 32.28 264.176 32.4853 263.718 32.896C263.27 33.3067 263.014 33.876 262.948 34.604H267.792ZM7.2397 60.742C7.4917 60.3033 7.86503 59.9393 8.3597 59.65C8.8637 59.3513 9.44703 59.202 10.1097 59.202C10.791 59.202 11.407 59.3653 11.9577 59.692C12.5177 60.0187 12.9564 60.4807 13.2737 61.078C13.591 61.666 13.7497 62.352 13.7497 63.136C13.7497 63.9107 13.591 64.6013 13.2737 65.208C12.9564 65.8147 12.5177 66.286 11.9577 66.622C11.407 66.958 10.791 67.126 10.1097 67.126C9.45636 67.126 8.8777 66.9813 8.3737 66.692C7.87903 66.3933 7.50103 66.0247 7.2397 65.586V70.64H5.9657V59.328H7.2397V60.742ZM12.4477 63.136C12.4477 62.5573 12.331 62.0533 12.0977 61.624C11.8644 61.1947 11.547 60.868 11.1457 60.644C10.7537 60.42 10.3197 60.308 9.8437 60.308C9.37703 60.308 8.94303 60.4247 8.5417 60.658C8.1497 60.882 7.83236 61.2133 7.5897 61.652C7.35636 62.0813 7.2397 62.5807 7.2397 63.15C7.2397 63.7287 7.35636 64.2373 7.5897 64.676C7.83236 65.1053 8.1497 65.4367 8.5417 65.67C8.94303 65.894 9.37703 66.006 9.8437 66.006C10.3197 66.006 10.7537 65.894 11.1457 65.67C11.547 65.4367 11.8644 65.1053 12.0977 64.676C12.331 64.2373 12.4477 63.724 12.4477 63.136ZM16.7006 60.574C16.9246 60.1353 17.242 59.7947 17.6526 59.552C18.0726 59.3093 18.5813 59.188 19.1786 59.188V60.504H18.8426C17.4146 60.504 16.7006 61.2787 16.7006 62.828V67H15.4266V59.328H16.7006V60.574ZM27.6493 62.87C27.6493 63.1127 27.6353 63.3693 27.6073 63.64H21.4753C21.522 64.396 21.7786 64.9887 22.2453 65.418C22.7213 65.838 23.2953 66.048 23.9673 66.048C24.518 66.048 24.9753 65.922 25.3393 65.67C25.7126 65.4087 25.974 65.0633 26.1233 64.634H27.4953C27.29 65.3713 26.8793 65.9733 26.2633 66.44C25.6473 66.8973 24.882 67.126 23.9673 67.126C23.2393 67.126 22.586 66.9627 22.0073 66.636C21.438 66.3093 20.99 65.8473 20.6633 65.25C20.3366 64.6433 20.1733 63.9433 20.1733 63.15C20.1733 62.3567 20.332 61.6613 20.6493 61.064C20.9666 60.4667 21.41 60.0093 21.9793 59.692C22.558 59.3653 23.2206 59.202 23.9673 59.202C24.6953 59.202 25.3393 59.3607 25.8993 59.678C26.4593 59.9953 26.8886 60.434 27.1873 60.994C27.4953 61.5447 27.6493 62.17 27.6493 62.87ZM26.3333 62.604C26.3333 62.1187 26.226 61.7033 26.0113 61.358C25.7966 61.0033 25.5026 60.7373 25.1293 60.56C24.7653 60.3733 24.3593 60.28 23.9113 60.28C23.2673 60.28 22.7166 60.4853 22.2593 60.896C21.8113 61.3067 21.5546 61.876 21.4893 62.604H26.3333ZM32.4529 60.378H30.8429V67H29.5689V60.378H28.5749V59.328H29.5689V58.782C29.5689 57.9233 29.7883 57.298 30.2269 56.906C30.6749 56.5047 31.3889 56.304 32.3689 56.304V57.368C31.8089 57.368 31.4123 57.48 31.1789 57.704C30.9549 57.9187 30.8429 58.278 30.8429 58.782V59.328H32.4529V60.378ZM40.9384 62.87C40.9384 63.1127 40.9244 63.3693 40.8964 63.64H34.7644C34.811 64.396 35.0677 64.9887 35.5344 65.418C36.0104 65.838 36.5844 66.048 37.2564 66.048C37.807 66.048 38.2644 65.922 38.6284 65.67C39.0017 65.4087 39.263 65.0633 39.4124 64.634H40.7844C40.579 65.3713 40.1684 65.9733 39.5524 66.44C38.9364 66.8973 38.171 67.126 37.2564 67.126C36.5284 67.126 35.875 66.9627 35.2964 66.636C34.727 66.3093 34.279 65.8473 33.9524 65.25C33.6257 64.6433 33.4624 63.9433 33.4624 63.15C33.4624 62.3567 33.621 61.6613 33.9384 61.064C34.2557 60.4667 34.699 60.0093 35.2684 59.692C35.847 59.3653 36.5097 59.202 37.2564 59.202C37.9844 59.202 38.6284 59.3607 39.1884 59.678C39.7484 59.9953 40.1777 60.434 40.4764 60.994C40.7844 61.5447 40.9384 62.17 40.9384 62.87ZM39.6224 62.604C39.6224 62.1187 39.515 61.7033 39.3004 61.358C39.0857 61.0033 38.7917 60.7373 38.4184 60.56C38.0544 60.3733 37.6484 60.28 37.2004 60.28C36.5564 60.28 36.0057 60.4853 35.5484 60.896C35.1004 61.3067 34.8437 61.876 34.7784 62.604H39.6224ZM43.894 60.574C44.118 60.1353 44.4353 59.7947 44.846 59.552C45.266 59.3093 45.7747 59.188 46.372 59.188V60.504H46.036C44.608 60.504 43.894 61.2787 43.894 62.828V67H42.62V59.328H43.894V60.574ZM53.1291 60.378V64.9C53.1291 65.2733 53.2084 65.5393 53.3671 65.698C53.5257 65.8473 53.8011 65.922 54.1931 65.922H55.1311V67H53.9831C53.2737 67 52.7417 66.8367 52.3871 66.51C52.0324 66.1833 51.8551 65.6467 51.8551 64.9V60.378H50.8611V59.328H51.8551V57.396H53.1291V59.328H55.1311V60.378H53.1291ZM60.0207 67.126C59.302 67.126 58.6487 66.9627 58.0607 66.636C57.482 66.3093 57.0247 65.8473 56.6887 65.25C56.362 64.6433 56.1987 63.9433 56.1987 63.15C56.1987 62.366 56.3667 61.6753 56.7027 61.078C57.048 60.4713 57.5147 60.0093 58.1027 59.692C58.6907 59.3653 59.3487 59.202 60.0767 59.202C60.8047 59.202 61.4627 59.3653 62.0507 59.692C62.6387 60.0093 63.1007 60.4667 63.4367 61.064C63.782 61.6613 63.9547 62.3567 63.9547 63.15C63.9547 63.9433 63.7773 64.6433 63.4227 65.25C63.0773 65.8473 62.606 66.3093 62.0087 66.636C61.4113 66.9627 60.7487 67.126 60.0207 67.126ZM60.0207 66.006C60.478 66.006 60.9073 65.8987 61.3087 65.684C61.71 65.4693 62.032 65.1473 62.2747 64.718C62.5267 64.2887 62.6527 63.766 62.6527 63.15C62.6527 62.534 62.5313 62.0113 62.2887 61.582C62.046 61.1527 61.7287 60.8353 61.3367 60.63C60.9447 60.4153 60.52 60.308 60.0627 60.308C59.596 60.308 59.1667 60.4153 58.7747 60.63C58.392 60.8353 58.084 61.1527 57.8507 61.582C57.6173 62.0113 57.5007 62.534 57.5007 63.15C57.5007 63.7753 57.6127 64.3027 57.8367 64.732C58.07 65.1613 58.378 65.4833 58.7607 65.698C59.1433 65.9033 59.5633 66.006 60.0207 66.006ZM70.9162 60.378V64.9C70.9162 65.2733 70.9955 65.5393 71.1542 65.698C71.3128 65.8473 71.5882 65.922 71.9802 65.922H72.9182V67H71.7702C71.0608 67 70.5288 66.8367 70.1742 66.51C69.8195 66.1833 69.6422 65.6467 69.6422 64.9V60.378H68.6482V59.328H69.6422V57.396H70.9162V59.328H72.9182V60.378H70.9162ZM81.4618 62.87C81.4618 63.1127 81.4478 63.3693 81.4198 63.64H75.2878C75.3345 64.396 75.5911 64.9887 76.0578 65.418C76.5338 65.838 77.1078 66.048 77.7798 66.048C78.3305 66.048 78.7878 65.922 79.1518 65.67C79.5251 65.4087 79.7865 65.0633 79.9358 64.634H81.3078C81.1025 65.3713 80.6918 65.9733 80.0758 66.44C79.4598 66.8973 78.6945 67.126 77.7798 67.126C77.0518 67.126 76.3985 66.9627 75.8198 66.636C75.2505 66.3093 74.8025 65.8473 74.4758 65.25C74.1491 64.6433 73.9858 63.9433 73.9858 63.15C73.9858 62.3567 74.1445 61.6613 74.4618 61.064C74.7791 60.4667 75.2225 60.0093 75.7918 59.692C76.3705 59.3653 77.0331 59.202 77.7798 59.202C78.5078 59.202 79.1518 59.3607 79.7118 59.678C80.2718 59.9953 80.7011 60.434 80.9998 60.994C81.3078 61.5447 81.4618 62.17 81.4618 62.87ZM80.1458 62.604C80.1458 62.1187 80.0385 61.7033 79.8238 61.358C79.6091 61.0033 79.3151 60.7373 78.9418 60.56C78.5778 60.3733 78.1718 60.28 77.7238 60.28C77.0798 60.28 76.5291 60.4853 76.0718 60.896C75.6238 61.3067 75.3671 61.876 75.3018 62.604H80.1458ZM87.1474 67L85.3274 64.144L83.5774 67H82.2474L84.7254 63.192L82.2474 59.328H83.6894L85.5094 62.17L87.2454 59.328H88.5754L86.1114 63.122L88.5894 67H87.1474ZM91.3966 60.378V64.9C91.3966 65.2733 91.476 65.5393 91.6346 65.698C91.7933 65.8473 92.0686 65.922 92.4606 65.922H93.3986V67H92.2506C91.5413 67 91.0093 66.8367 90.6546 66.51C90.3 66.1833 90.1226 65.6467 90.1226 64.9V60.378H89.1286V59.328H90.1226V57.396H91.3966V59.328H93.3986V60.378H91.3966ZM101.746 59.328V67H100.472V65.866C100.23 66.258 99.8889 66.566 99.4503 66.79C99.0209 67.0047 98.5449 67.112 98.0223 67.112C97.4249 67.112 96.8883 66.9907 96.4123 66.748C95.9363 66.496 95.5583 66.1227 95.2783 65.628C95.0076 65.1333 94.8723 64.5313 94.8723 63.822V59.328H96.1323V63.654C96.1323 64.41 96.3236 64.9933 96.7063 65.404C97.0889 65.8053 97.6116 66.006 98.2743 66.006C98.9556 66.006 99.4923 65.796 99.8843 65.376C100.276 64.956 100.472 64.3447 100.472 63.542V59.328H101.746ZM105.171 60.574C105.395 60.1353 105.713 59.7947 106.123 59.552C106.543 59.3093 107.052 59.188 107.649 59.188V60.504H107.313C105.885 60.504 105.171 61.2787 105.171 62.828V67H103.897V59.328H105.171V60.574ZM116.12 62.87C116.12 63.1127 116.106 63.3693 116.078 63.64H109.946C109.993 64.396 110.249 64.9887 110.716 65.418C111.192 65.838 111.766 66.048 112.438 66.048C112.989 66.048 113.446 65.922 113.81 65.67C114.183 65.4087 114.445 65.0633 114.594 64.634H115.966C115.761 65.3713 115.35 65.9733 114.734 66.44C114.118 66.8973 113.353 67.126 112.438 67.126C111.71 67.126 111.057 66.9627 110.478 66.636C109.909 66.3093 109.461 65.8473 109.134 65.25C108.807 64.6433 108.644 63.9433 108.644 63.15C108.644 62.3567 108.803 61.6613 109.12 61.064C109.437 60.4667 109.881 60.0093 110.45 59.692C111.029 59.3653 111.691 59.202 112.438 59.202C113.166 59.202 113.81 59.3607 114.37 59.678C114.93 59.9953 115.359 60.434 115.658 60.994C115.966 61.5447 116.12 62.17 116.12 62.87ZM114.804 62.604C114.804 62.1187 114.697 61.7033 114.482 61.358C114.267 61.0033 113.973 60.7373 113.6 60.56C113.236 60.3733 112.83 60.28 112.382 60.28C111.738 60.28 111.187 60.4853 110.73 60.896C110.282 61.3067 110.025 61.876 109.96 62.604H114.804ZM122.192 58.082C121.949 58.082 121.744 57.998 121.576 57.83C121.408 57.662 121.324 57.4567 121.324 57.214C121.324 56.9713 121.408 56.766 121.576 56.598C121.744 56.43 121.949 56.346 122.192 56.346C122.425 56.346 122.621 56.43 122.78 56.598C122.948 56.766 123.032 56.9713 123.032 57.214C123.032 57.4567 122.948 57.662 122.78 57.83C122.621 57.998 122.425 58.082 122.192 58.082ZM122.808 59.328V67H121.534V59.328H122.808ZM128.717 59.188C129.651 59.188 130.407 59.4727 130.985 60.042C131.564 60.602 131.853 61.414 131.853 62.478V67H130.593V62.66C130.593 61.8947 130.402 61.3113 130.019 60.91C129.637 60.4993 129.114 60.294 128.451 60.294C127.779 60.294 127.243 60.504 126.841 60.924C126.449 61.344 126.253 61.9553 126.253 62.758V67H124.979V59.328H126.253V60.42C126.505 60.028 126.846 59.7247 127.275 59.51C127.714 59.2953 128.195 59.188 128.717 59.188ZM140.761 67.098C140.117 67.098 139.538 66.986 139.025 66.762C138.521 66.5287 138.124 66.2113 137.835 65.81C137.546 65.3993 137.396 64.928 137.387 64.396H138.745C138.792 64.8533 138.978 65.2407 139.305 65.558C139.641 65.866 140.126 66.02 140.761 66.02C141.368 66.02 141.844 65.8707 142.189 65.572C142.544 65.264 142.721 64.872 142.721 64.396C142.721 64.0227 142.618 63.7193 142.413 63.486C142.208 63.2527 141.951 63.0753 141.643 62.954C141.335 62.8327 140.92 62.702 140.397 62.562C139.753 62.394 139.235 62.226 138.843 62.058C138.46 61.89 138.129 61.6287 137.849 61.274C137.578 60.91 137.443 60.4247 137.443 59.818C137.443 59.286 137.578 58.8147 137.849 58.404C138.12 57.9933 138.498 57.676 138.983 57.452C139.478 57.228 140.042 57.116 140.677 57.116C141.592 57.116 142.338 57.3447 142.917 57.802C143.505 58.2593 143.836 58.866 143.911 59.622H142.511C142.464 59.2487 142.268 58.922 141.923 58.642C141.578 58.3527 141.12 58.208 140.551 58.208C140.019 58.208 139.585 58.348 139.249 58.628C138.913 58.8987 138.745 59.2813 138.745 59.776C138.745 60.1307 138.843 60.42 139.039 60.644C139.244 60.868 139.492 61.0407 139.781 61.162C140.08 61.274 140.495 61.4047 141.027 61.554C141.671 61.7313 142.189 61.9087 142.581 62.086C142.973 62.254 143.309 62.52 143.589 62.884C143.869 63.2387 144.009 63.724 144.009 64.34C144.009 64.816 143.883 65.264 143.631 65.684C143.379 66.104 143.006 66.4447 142.511 66.706C142.016 66.9673 141.433 67.098 140.761 67.098ZM152.688 59.328V67H151.414V65.866C151.171 66.258 150.83 66.566 150.392 66.79C149.962 67.0047 149.486 67.112 148.964 67.112C148.366 67.112 147.83 66.9907 147.354 66.748C146.878 66.496 146.5 66.1227 146.22 65.628C145.949 65.1333 145.814 64.5313 145.814 63.822V59.328H147.074V63.654C147.074 64.41 147.265 64.9933 147.648 65.404C148.03 65.8053 148.553 66.006 149.216 66.006C149.897 66.006 150.434 65.796 150.826 65.376C151.218 64.956 151.414 64.3447 151.414 63.542V59.328H152.688ZM156.113 60.756C156.374 60.2987 156.757 59.9253 157.261 59.636C157.765 59.3467 158.339 59.202 158.983 59.202C159.673 59.202 160.294 59.3653 160.845 59.692C161.395 60.0187 161.829 60.4807 162.147 61.078C162.464 61.666 162.623 62.352 162.623 63.136C162.623 63.9107 162.464 64.6013 162.147 65.208C161.829 65.8147 161.391 66.286 160.831 66.622C160.28 66.958 159.664 67.126 158.983 67.126C158.32 67.126 157.737 66.9813 157.233 66.692C156.738 66.4027 156.365 66.034 156.113 65.586V67H154.839V56.64H156.113V60.756ZM161.321 63.136C161.321 62.5573 161.204 62.0533 160.971 61.624C160.737 61.1947 160.42 60.868 160.019 60.644C159.627 60.42 159.193 60.308 158.717 60.308C158.25 60.308 157.816 60.4247 157.415 60.658C157.023 60.882 156.705 61.2133 156.463 61.652C156.229 62.0813 156.113 62.5807 156.113 63.15C156.113 63.7287 156.229 64.2373 156.463 64.676C156.705 65.1053 157.023 65.4367 157.415 65.67C157.816 65.894 158.25 66.006 158.717 66.006C159.193 66.006 159.627 65.894 160.019 65.67C160.42 65.4367 160.737 65.1053 160.971 64.676C161.204 64.2373 161.321 63.724 161.321 63.136ZM167.016 67.126C166.428 67.126 165.9 67.028 165.434 66.832C164.967 66.6267 164.598 66.3467 164.328 65.992C164.057 65.628 163.908 65.2127 163.88 64.746H165.196C165.233 65.1287 165.41 65.4413 165.728 65.684C166.054 65.9267 166.479 66.048 167.002 66.048C167.487 66.048 167.87 65.9407 168.15 65.726C168.43 65.5113 168.57 65.2407 168.57 64.914C168.57 64.578 168.42 64.3307 168.122 64.172C167.823 64.004 167.361 63.8407 166.736 63.682C166.166 63.5327 165.7 63.3833 165.336 63.234C164.981 63.0753 164.673 62.8467 164.412 62.548C164.16 62.24 164.034 61.8387 164.034 61.344C164.034 60.952 164.15 60.5927 164.384 60.266C164.617 59.9393 164.948 59.6827 165.378 59.496C165.807 59.3 166.297 59.202 166.848 59.202C167.697 59.202 168.383 59.4167 168.906 59.846C169.428 60.2753 169.708 60.8633 169.746 61.61H168.472C168.444 61.2087 168.28 60.8867 167.982 60.644C167.692 60.4013 167.3 60.28 166.806 60.28C166.348 60.28 165.984 60.378 165.714 60.574C165.443 60.77 165.308 61.0267 165.308 61.344C165.308 61.596 165.387 61.806 165.546 61.974C165.714 62.1327 165.919 62.2633 166.162 62.366C166.414 62.4593 166.759 62.5667 167.198 62.688C167.748 62.8373 168.196 62.9867 168.542 63.136C168.887 63.276 169.181 63.4907 169.424 63.78C169.676 64.0693 169.806 64.4473 169.816 64.914C169.816 65.334 169.699 65.712 169.466 66.048C169.232 66.384 168.901 66.65 168.472 66.846C168.052 67.0327 167.566 67.126 167.016 67.126ZM173.168 60.378V64.9C173.168 65.2733 173.247 65.5393 173.406 65.698C173.565 65.8473 173.84 65.922 174.232 65.922H175.17V67H174.022C173.313 67 172.781 66.8367 172.426 66.51C172.071 66.1833 171.894 65.6467 171.894 64.9V60.378H170.9V59.328H171.894V57.396H173.168V59.328H175.17V60.378H173.168ZM176.238 63.136C176.238 62.352 176.396 61.666 176.714 61.078C177.031 60.4807 177.465 60.0187 178.016 59.692C178.576 59.3653 179.196 59.202 179.878 59.202C180.55 59.202 181.133 59.3467 181.628 59.636C182.122 59.9253 182.491 60.2893 182.734 60.728V59.328H184.022V67H182.734V65.572C182.482 66.02 182.104 66.3933 181.6 66.692C181.105 66.9813 180.526 67.126 179.864 67.126C179.182 67.126 178.566 66.958 178.016 66.622C177.465 66.286 177.031 65.8147 176.714 65.208C176.396 64.6013 176.238 63.9107 176.238 63.136ZM182.734 63.15C182.734 62.5713 182.617 62.0673 182.384 61.638C182.15 61.2087 181.833 60.882 181.432 60.658C181.04 60.4247 180.606 60.308 180.13 60.308C179.654 60.308 179.22 60.42 178.828 60.644C178.436 60.868 178.123 61.1947 177.89 61.624C177.656 62.0533 177.54 62.5573 177.54 63.136C177.54 63.724 177.656 64.2373 177.89 64.676C178.123 65.1053 178.436 65.4367 178.828 65.67C179.22 65.894 179.654 66.006 180.13 66.006C180.606 66.006 181.04 65.894 181.432 65.67C181.833 65.4367 182.15 65.1053 182.384 64.676C182.617 64.2373 182.734 63.7287 182.734 63.15ZM189.913 59.188C190.846 59.188 191.602 59.4727 192.181 60.042C192.759 60.602 193.049 61.414 193.049 62.478V67H191.789V62.66C191.789 61.8947 191.597 61.3113 191.215 60.91C190.832 60.4993 190.309 60.294 189.647 60.294C188.975 60.294 188.438 60.504 188.037 60.924C187.645 61.344 187.449 61.9553 187.449 62.758V67H186.175V59.328H187.449V60.42C187.701 60.028 188.041 59.7247 188.471 59.51C188.909 59.2953 189.39 59.188 189.913 59.188ZM194.654 63.15C194.654 62.3567 194.812 61.666 195.13 61.078C195.447 60.4807 195.886 60.0187 196.446 59.692C197.015 59.3653 197.664 59.202 198.392 59.202C199.334 59.202 200.109 59.4307 200.716 59.888C201.332 60.3453 201.738 60.98 201.934 61.792H200.562C200.431 61.3253 200.174 60.9567 199.792 60.686C199.418 60.4153 198.952 60.28 198.392 60.28C197.664 60.28 197.076 60.532 196.628 61.036C196.18 61.5307 195.956 62.2353 195.956 63.15C195.956 64.074 196.18 64.788 196.628 65.292C197.076 65.796 197.664 66.048 198.392 66.048C198.952 66.048 199.418 65.9173 199.792 65.656C200.165 65.3947 200.422 65.0213 200.562 64.536H201.934C201.728 65.32 201.318 65.95 200.702 66.426C200.086 66.8927 199.316 67.126 198.392 67.126C197.664 67.126 197.015 66.9627 196.446 66.636C195.886 66.3093 195.447 65.8473 195.13 65.25C194.812 64.6527 194.654 63.9527 194.654 63.15ZM210.634 62.87C210.634 63.1127 210.62 63.3693 210.592 63.64H204.46C204.506 64.396 204.763 64.9887 205.23 65.418C205.706 65.838 206.28 66.048 206.952 66.048C207.502 66.048 207.96 65.922 208.324 65.67C208.697 65.4087 208.958 65.0633 209.108 64.634H210.48C210.274 65.3713 209.864 65.9733 209.248 66.44C208.632 66.8973 207.866 67.126 206.952 67.126C206.224 67.126 205.57 66.9627 204.992 66.636C204.422 66.3093 203.974 65.8473 203.648 65.25C203.321 64.6433 203.158 63.9433 203.158 63.15C203.158 62.3567 203.316 61.6613 203.634 61.064C203.951 60.4667 204.394 60.0093 204.964 59.692C205.542 59.3653 206.205 59.202 206.952 59.202C207.68 59.202 208.324 59.3607 208.884 59.678C209.444 59.9953 209.873 60.434 210.172 60.994C210.48 61.5447 210.634 62.17 210.634 62.87ZM209.318 62.604C209.318 62.1187 209.21 61.7033 208.996 61.358C208.781 61.0033 208.487 60.7373 208.114 60.56C207.75 60.3733 207.344 60.28 206.896 60.28C206.252 60.28 205.701 60.4853 205.244 60.896C204.796 61.3067 204.539 61.876 204.474 62.604H209.318ZM222.572 60.098C222.572 60.91 222.292 61.5867 221.732 62.128C221.181 62.66 220.336 62.926 219.198 62.926H217.322V67H216.048V57.242H219.198C220.299 57.242 221.134 57.508 221.704 58.04C222.282 58.572 222.572 59.258 222.572 60.098ZM219.198 61.876C219.907 61.876 220.43 61.722 220.766 61.414C221.102 61.106 221.27 60.6673 221.27 60.098C221.27 58.894 220.579 58.292 219.198 58.292H217.322V61.876H219.198ZM223.679 63.136C223.679 62.352 223.838 61.666 224.155 61.078C224.472 60.4807 224.906 60.0187 225.457 59.692C226.017 59.3653 226.638 59.202 227.319 59.202C227.991 59.202 228.574 59.3467 229.069 59.636C229.564 59.9253 229.932 60.2893 230.175 60.728V59.328H231.463V67H230.175V65.572C229.923 66.02 229.545 66.3933 229.041 66.692C228.546 66.9813 227.968 67.126 227.305 67.126C226.624 67.126 226.008 66.958 225.457 66.622C224.906 66.286 224.472 65.8147 224.155 65.208C223.838 64.6013 223.679 63.9107 223.679 63.136ZM230.175 63.15C230.175 62.5713 230.058 62.0673 229.825 61.638C229.592 61.2087 229.274 60.882 228.873 60.658C228.481 60.4247 228.047 60.308 227.571 60.308C227.095 60.308 226.661 60.42 226.269 60.644C225.877 60.868 225.564 61.1947 225.331 61.624C225.098 62.0533 224.981 62.5573 224.981 63.136C224.981 63.724 225.098 64.2373 225.331 64.676C225.564 65.1053 225.877 65.4367 226.269 65.67C226.661 65.894 227.095 66.006 227.571 66.006C228.047 66.006 228.481 65.894 228.873 65.67C229.274 65.4367 229.592 65.1053 229.825 64.676C230.058 64.2373 230.175 63.7287 230.175 63.15ZM234.274 58.082C234.031 58.082 233.826 57.998 233.658 57.83C233.49 57.662 233.406 57.4567 233.406 57.214C233.406 56.9713 233.49 56.766 233.658 56.598C233.826 56.43 234.031 56.346 234.274 56.346C234.507 56.346 234.703 56.43 234.862 56.598C235.03 56.766 235.114 56.9713 235.114 57.214C235.114 57.4567 235.03 57.662 234.862 57.83C234.703 57.998 234.507 58.082 234.274 58.082ZM234.89 59.328V67H233.616V59.328H234.89ZM240.799 59.188C241.733 59.188 242.489 59.4727 243.067 60.042C243.646 60.602 243.935 61.414 243.935 62.478V67H242.675V62.66C242.675 61.8947 242.484 61.3113 242.101 60.91C241.719 60.4993 241.196 60.294 240.533 60.294C239.861 60.294 239.325 60.504 238.923 60.924C238.531 61.344 238.335 61.9553 238.335 62.758V67H237.061V59.328H238.335V60.42C238.587 60.028 238.928 59.7247 239.357 59.51C239.796 59.2953 240.277 59.188 240.799 59.188ZM247.57 60.378V64.9C247.57 65.2733 247.65 65.5393 247.808 65.698C247.967 65.8473 248.242 65.922 248.634 65.922H249.572V67H248.424C247.715 67 247.183 66.8367 246.828 66.51C246.474 66.1833 246.296 65.6467 246.296 64.9V60.378H245.302V59.328H246.296V57.396H247.57V59.328H249.572V60.378H247.57ZM258.116 62.87C258.116 63.1127 258.102 63.3693 258.074 63.64H251.942C251.989 64.396 252.245 64.9887 252.712 65.418C253.188 65.838 253.762 66.048 254.434 66.048C254.985 66.048 255.442 65.922 255.806 65.67C256.179 65.4087 256.441 65.0633 256.59 64.634H257.962C257.757 65.3713 257.346 65.9733 256.73 66.44C256.114 66.8973 255.349 67.126 254.434 67.126C253.706 67.126 253.053 66.9627 252.474 66.636C251.905 66.3093 251.457 65.8473 251.13 65.25C250.803 64.6433 250.64 63.9433 250.64 63.15C250.64 62.3567 250.799 61.6613 251.116 61.064C251.433 60.4667 251.877 60.0093 252.446 59.692C253.025 59.3653 253.687 59.202 254.434 59.202C255.162 59.202 255.806 59.3607 256.366 59.678C256.926 59.9953 257.355 60.434 257.654 60.994C257.962 61.5447 258.116 62.17 258.116 62.87ZM256.8 62.604C256.8 62.1187 256.693 61.7033 256.478 61.358C256.263 61.0033 255.969 60.7373 255.596 60.56C255.232 60.3733 254.826 60.28 254.378 60.28C253.734 60.28 253.183 60.4853 252.726 60.896C252.278 61.3067 252.021 61.876 251.956 62.604H256.8ZM261.072 60.574C261.296 60.1353 261.613 59.7947 262.024 59.552C262.444 59.3093 262.952 59.188 263.55 59.188V60.504H263.214C261.786 60.504 261.072 61.2787 261.072 62.828V67H259.798V59.328H261.072V60.574ZM266.672 57.242L266.518 64.242H265.454L265.3 57.242H266.672ZM266.042 67.084C265.8 67.084 265.594 67 265.426 66.832C265.258 66.664 265.174 66.4587 265.174 66.216C265.174 65.9733 265.258 65.768 265.426 65.6C265.594 65.432 265.8 65.348 266.042 65.348C266.276 65.348 266.472 65.432 266.63 65.6C266.798 65.768 266.882 65.9733 266.882 66.216C266.882 66.4587 266.798 66.664 266.63 66.832C266.472 67 266.276 67.084 266.042 67.084Z" fill="#9E9E9E"/>
</svg>
