<svg width="295" height="71" viewBox="0 0 295 71" fill="none" xmlns="http://www.w3.org/2000/svg">
<path d="M1.81294 1.242V11H0.538938V1.242H1.81294ZM11.5247 3.188C12.1033 3.188 12.626 3.314 13.0927 3.566C13.5593 3.80867 13.9233 4.17733 14.1847 4.672C14.4553 5.16667 14.5907 5.76867 14.5907 6.478V11H13.3307V6.66C13.3307 5.89467 13.1393 5.31133 12.7567 4.91C12.374 4.49933 11.8513 4.294 11.1887 4.294C10.5167 4.294 9.98001 4.504 9.57867 4.924C9.18667 5.344 8.99067 5.95533 8.99067 6.758V11H7.71667V0.64H8.99067V4.42C9.24267 4.028 9.58801 3.72467 10.0267 3.51C10.4747 3.29533 10.974 3.188 11.5247 3.188ZM16.1958 7.136C16.1958 6.352 16.3544 5.666 16.6718 5.078C16.9891 4.48067 17.4231 4.01867 17.9738 3.692C18.5338 3.36533 19.1544 3.202 19.8358 3.202C20.5078 3.202 21.0911 3.34667 21.5858 3.636C22.0804 3.92533 22.4491 4.28933 22.6918 4.728V3.328H23.9798V11H22.6918V9.572C22.4398 10.02 22.0618 10.3933 21.5578 10.692C21.0631 10.9813 20.4844 11.126 19.8218 11.126C19.1404 11.126 18.5244 10.958 17.9738 10.622C17.4231 10.286 16.9891 9.81467 16.6718 9.208C16.3544 8.60133 16.1958 7.91067 16.1958 7.136ZM22.6918 7.15C22.6918 6.57133 22.5751 6.06733 22.3418 5.638C22.1084 5.20867 21.7911 4.882 21.3898 4.658C20.9978 4.42467 20.5638 4.308 20.0878 4.308C19.6118 4.308 19.1778 4.42 18.7858 4.644C18.3938 4.868 18.0811 5.19467 17.8478 5.624C17.6144 6.05333 17.4978 6.55733 17.4978 7.136C17.4978 7.724 17.6144 8.23733 17.8478 8.676C18.0811 9.10533 18.3938 9.43667 18.7858 9.67C19.1778 9.894 19.6118 10.006 20.0878 10.006C20.5638 10.006 20.9978 9.894 21.3898 9.67C21.7911 9.43667 22.1084 9.10533 22.3418 8.676C22.5751 8.23733 22.6918 7.72867 22.6918 7.15ZM28.9887 9.824L31.3687 3.328H32.7267L29.7167 11H28.2327L25.2227 3.328H26.5947L28.9887 9.824ZM40.9803 6.87C40.9803 7.11267 40.9663 7.36933 40.9383 7.64H34.8063C34.853 8.396 35.1097 8.98867 35.5763 9.418C36.0523 9.838 36.6263 10.048 37.2983 10.048C37.849 10.048 38.3063 9.922 38.6703 9.67C39.0437 9.40867 39.305 9.06333 39.4543 8.634H40.8263C40.621 9.37133 40.2103 9.97333 39.5943 10.44C38.9783 10.8973 38.213 11.126 37.2983 11.126C36.5703 11.126 35.917 10.9627 35.3383 10.636C34.769 10.3093 34.321 9.84733 33.9943 9.25C33.6677 8.64333 33.5043 7.94333 33.5043 7.15C33.5043 6.35667 33.663 5.66133 33.9803 5.064C34.2977 4.46667 34.741 4.00933 35.3103 3.692C35.889 3.36533 36.5517 3.202 37.2983 3.202C38.0263 3.202 38.6703 3.36067 39.2303 3.678C39.7903 3.99533 40.2197 4.434 40.5183 4.994C40.8263 5.54467 40.9803 6.17 40.9803 6.87ZM39.6643 6.604C39.6643 6.11867 39.557 5.70333 39.3423 5.358C39.1277 5.00333 38.8337 4.73733 38.4603 4.56C38.0963 4.37333 37.6903 4.28 37.2423 4.28C36.5983 4.28 36.0477 4.48533 35.5903 4.896C35.1423 5.30667 34.8857 5.876 34.8203 6.604H39.6643ZM47.6684 4.756C47.9297 4.29867 48.3124 3.92533 48.8164 3.636C49.3204 3.34667 49.8944 3.202 50.5384 3.202C51.2291 3.202 51.8497 3.36533 52.4004 3.692C52.9511 4.01867 53.3851 4.48067 53.7024 5.078C54.0197 5.666 54.1784 6.352 54.1784 7.136C54.1784 7.91067 54.0197 8.60133 53.7024 9.208C53.3851 9.81467 52.9464 10.286 52.3864 10.622C51.8357 10.958 51.2197 11.126 50.5384 11.126C49.8757 11.126 49.2924 10.9813 48.7884 10.692C48.2937 10.4027 47.9204 10.034 47.6684 9.586V11H46.3944V0.64H47.6684V4.756ZM52.8764 7.136C52.8764 6.55733 52.7597 6.05333 52.5264 5.624C52.2931 5.19467 51.9757 4.868 51.5744 4.644C51.1824 4.42 50.7484 4.308 50.2724 4.308C49.8057 4.308 49.3717 4.42467 48.9704 4.658C48.5784 4.882 48.2611 5.21333 48.0184 5.652C47.7851 6.08133 47.6684 6.58067 47.6684 7.15C47.6684 7.72867 47.7851 8.23733 48.0184 8.676C48.2611 9.10533 48.5784 9.43667 48.9704 9.67C49.3717 9.894 49.8057 10.006 50.2724 10.006C50.7484 10.006 51.1824 9.894 51.5744 9.67C51.9757 9.43667 52.2931 9.10533 52.5264 8.676C52.7597 8.23733 52.8764 7.724 52.8764 7.136ZM62.8553 6.87C62.8553 7.11267 62.8413 7.36933 62.8133 7.64H56.6813C56.728 8.396 56.9847 8.98867 57.4513 9.418C57.9273 9.838 58.5013 10.048 59.1733 10.048C59.724 10.048 60.1813 9.922 60.5453 9.67C60.9187 9.40867 61.18 9.06333 61.3293 8.634H62.7013C62.496 9.37133 62.0853 9.97333 61.4693 10.44C60.8533 10.8973 60.088 11.126 59.1733 11.126C58.4453 11.126 57.792 10.9627 57.2133 10.636C56.644 10.3093 56.196 9.84733 55.8693 9.25C55.5427 8.64333 55.3793 7.94333 55.3793 7.15C55.3793 6.35667 55.538 5.66133 55.8553 5.064C56.1727 4.46667 56.616 4.00933 57.1853 3.692C57.764 3.36533 58.4267 3.202 59.1733 3.202C59.9013 3.202 60.5453 3.36067 61.1053 3.678C61.6653 3.99533 62.0947 4.434 62.3933 4.994C62.7013 5.54467 62.8553 6.17 62.8553 6.87ZM61.5393 6.604C61.5393 6.11867 61.432 5.70333 61.2173 5.358C61.0027 5.00333 60.7087 4.73733 60.3353 4.56C59.9713 4.37333 59.5653 4.28 59.1173 4.28C58.4733 4.28 57.9227 4.48533 57.4653 4.896C57.0173 5.30667 56.7607 5.876 56.6953 6.604H61.5393ZM71.537 6.87C71.537 7.11267 71.523 7.36933 71.495 7.64H65.363C65.4097 8.396 65.6663 8.98867 66.133 9.418C66.609 9.838 67.183 10.048 67.855 10.048C68.4057 10.048 68.863 9.922 69.227 9.67C69.6003 9.40867 69.8617 9.06333 70.011 8.634H71.383C71.1777 9.37133 70.767 9.97333 70.151 10.44C69.535 10.8973 68.7697 11.126 67.855 11.126C67.127 11.126 66.4737 10.9627 65.895 10.636C65.3257 10.3093 64.8777 9.84733 64.551 9.25C64.2243 8.64333 64.061 7.94333 64.061 7.15C64.061 6.35667 64.2197 5.66133 64.537 5.064C64.8543 4.46667 65.2977 4.00933 65.867 3.692C66.4457 3.36533 67.1083 3.202 67.855 3.202C68.583 3.202 69.227 3.36067 69.787 3.678C70.347 3.99533 70.7763 4.434 71.075 4.994C71.383 5.54467 71.537 6.17 71.537 6.87ZM70.221 6.604C70.221 6.11867 70.1137 5.70333 69.899 5.358C69.6843 5.00333 69.3903 4.73733 69.017 4.56C68.653 4.37333 68.247 4.28 67.799 4.28C67.155 4.28 66.6043 4.48533 66.147 4.896C65.699 5.30667 65.4423 5.876 65.377 6.604H70.221ZM76.9566 3.188C77.89 3.188 78.646 3.47267 79.2246 4.042C79.8033 4.602 80.0926 5.414 80.0926 6.478V11H78.8326V6.66C78.8326 5.89467 78.6413 5.31133 78.2586 4.91C77.876 4.49933 77.3533 4.294 76.6906 4.294C76.0186 4.294 75.482 4.504 75.0806 4.924C74.6886 5.344 74.4926 5.95533 74.4926 6.758V11H73.2186V3.328H74.4926V4.42C74.7446 4.028 75.0853 3.72467 75.5146 3.51C75.9533 3.29533 76.434 3.188 76.9566 3.188ZM87.1801 4.742C87.4321 4.30333 87.8055 3.93933 88.3001 3.65C88.8041 3.35133 89.3875 3.202 90.0501 3.202C90.7315 3.202 91.3475 3.36533 91.8981 3.692C92.4581 4.01867 92.8968 4.48067 93.2141 5.078C93.5315 5.666 93.6901 6.352 93.6901 7.136C93.6901 7.91067 93.5315 8.60133 93.2141 9.208C92.8968 9.81467 92.4581 10.286 91.8981 10.622C91.3475 10.958 90.7315 11.126 90.0501 11.126C89.3968 11.126 88.8181 10.9813 88.3141 10.692C87.8195 10.3933 87.4415 10.0247 87.1801 9.586V14.64H85.9061V3.328H87.1801V4.742ZM92.3881 7.136C92.3881 6.55733 92.2715 6.05333 92.0381 5.624C91.8048 5.19467 91.4875 4.868 91.0861 4.644C90.6941 4.42 90.2601 4.308 89.7841 4.308C89.3175 4.308 88.8835 4.42467 88.4821 4.658C88.0901 4.882 87.7728 5.21333 87.5301 5.652C87.2968 6.08133 87.1801 6.58067 87.1801 7.15C87.1801 7.72867 87.2968 8.23733 87.5301 8.676C87.7728 9.10533 88.0901 9.43667 88.4821 9.67C88.8835 9.894 89.3175 10.006 89.7841 10.006C90.2601 10.006 90.6941 9.894 91.0861 9.67C91.4875 9.43667 91.8048 9.10533 92.0381 8.676C92.2715 8.23733 92.3881 7.724 92.3881 7.136ZM96.6411 4.574C96.8651 4.13533 97.1824 3.79467 97.5931 3.552C98.0131 3.30933 98.5217 3.188 99.1191 3.188V4.504H98.7831C97.3551 4.504 96.6411 5.27867 96.6411 6.828V11H95.3671V3.328H96.6411V4.574ZM103.936 11.126C103.217 11.126 102.564 10.9627 101.976 10.636C101.397 10.3093 100.94 9.84733 100.604 9.25C100.277 8.64333 100.114 7.94333 100.114 7.15C100.114 6.366 100.282 5.67533 100.618 5.078C100.963 4.47133 101.43 4.00933 102.018 3.692C102.606 3.36533 103.264 3.202 103.992 3.202C104.72 3.202 105.378 3.36533 105.966 3.692C106.554 4.00933 107.016 4.46667 107.352 5.064C107.697 5.66133 107.87 6.35667 107.87 7.15C107.87 7.94333 107.692 8.64333 107.338 9.25C106.992 9.84733 106.521 10.3093 105.924 10.636C105.326 10.9627 104.664 11.126 103.936 11.126ZM103.936 10.006C104.393 10.006 104.822 9.89867 105.224 9.684C105.625 9.46933 105.947 9.14733 106.19 8.718C106.442 8.28867 106.568 7.766 106.568 7.15C106.568 6.534 106.446 6.01133 106.204 5.582C105.961 5.15267 105.644 4.83533 105.252 4.63C104.86 4.41533 104.435 4.308 103.978 4.308C103.511 4.308 103.082 4.41533 102.69 4.63C102.307 4.83533 101.999 5.15267 101.766 5.582C101.532 6.01133 101.416 6.534 101.416 7.15C101.416 7.77533 101.528 8.30267 101.752 8.732C101.985 9.16133 102.293 9.48333 102.676 9.698C103.058 9.90333 103.478 10.006 103.936 10.006ZM112.709 3.202C113.371 3.202 113.95 3.34667 114.445 3.636C114.949 3.92533 115.322 4.28933 115.565 4.728V3.328H116.853V11.168C116.853 11.868 116.703 12.4887 116.405 13.03C116.106 13.5807 115.677 14.01 115.117 14.318C114.566 14.626 113.922 14.78 113.185 14.78C112.177 14.78 111.337 14.542 110.665 14.066C109.993 13.59 109.596 12.9413 109.475 12.12H110.735C110.875 12.5867 111.164 12.96 111.603 13.24C112.041 13.5293 112.569 13.674 113.185 13.674C113.885 13.674 114.454 13.4547 114.893 13.016C115.341 12.5773 115.565 11.9613 115.565 11.168V9.558C115.313 10.006 114.939 10.3793 114.445 10.678C113.95 10.9767 113.371 11.126 112.709 11.126C112.027 11.126 111.407 10.958 110.847 10.622C110.296 10.286 109.862 9.81467 109.545 9.208C109.227 8.60133 109.069 7.91067 109.069 7.136C109.069 6.352 109.227 5.666 109.545 5.078C109.862 4.48067 110.296 4.01867 110.847 3.692C111.407 3.36533 112.027 3.202 112.709 3.202ZM115.565 7.15C115.565 6.57133 115.448 6.06733 115.215 5.638C114.981 5.20867 114.664 4.882 114.263 4.658C113.871 4.42467 113.437 4.308 112.961 4.308C112.485 4.308 112.051 4.42 111.659 4.644C111.267 4.868 110.954 5.19467 110.721 5.624C110.487 6.05333 110.371 6.55733 110.371 7.136C110.371 7.724 110.487 8.23733 110.721 8.676C110.954 9.10533 111.267 9.43667 111.659 9.67C112.051 9.894 112.485 10.006 112.961 10.006C113.437 10.006 113.871 9.894 114.263 9.67C114.664 9.43667 114.981 9.10533 115.215 8.676C115.448 8.23733 115.565 7.72867 115.565 7.15ZM120.28 4.574C120.504 4.13533 120.821 3.79467 121.232 3.552C121.652 3.30933 122.16 3.188 122.758 3.188V4.504H122.422C120.994 4.504 120.28 5.27867 120.28 6.828V11H119.006V3.328H120.28V4.574ZM123.752 7.136C123.752 6.352 123.911 5.666 124.228 5.078C124.546 4.48067 124.98 4.01867 125.53 3.692C126.09 3.36533 126.711 3.202 127.392 3.202C128.064 3.202 128.648 3.34667 129.142 3.636C129.637 3.92533 130.006 4.28933 130.248 4.728V3.328H131.536V11H130.248V9.572C129.996 10.02 129.618 10.3933 129.114 10.692C128.62 10.9813 128.041 11.126 127.378 11.126C126.697 11.126 126.081 10.958 125.53 10.622C124.98 10.286 124.546 9.81467 124.228 9.208C123.911 8.60133 123.752 7.91067 123.752 7.136ZM130.248 7.15C130.248 6.57133 130.132 6.06733 129.898 5.638C129.665 5.20867 129.348 4.882 128.946 4.658C128.554 4.42467 128.12 4.308 127.644 4.308C127.168 4.308 126.734 4.42 126.342 4.644C125.95 4.868 125.638 5.19467 125.404 5.624C125.171 6.05333 125.054 6.55733 125.054 7.136C125.054 7.724 125.171 8.23733 125.404 8.676C125.638 9.10533 125.95 9.43667 126.342 9.67C126.734 9.894 127.168 10.006 127.644 10.006C128.12 10.006 128.554 9.894 128.946 9.67C129.348 9.43667 129.665 9.10533 129.898 8.676C130.132 8.23733 130.248 7.72867 130.248 7.15ZM142.915 3.188C143.513 3.188 144.045 3.314 144.511 3.566C144.978 3.80867 145.347 4.17733 145.617 4.672C145.888 5.16667 146.023 5.76867 146.023 6.478V11H144.763V6.66C144.763 5.89467 144.572 5.31133 144.189 4.91C143.816 4.49933 143.307 4.294 142.663 4.294C142.001 4.294 141.473 4.50867 141.081 4.938C140.689 5.358 140.493 5.96933 140.493 6.772V11H139.233V6.66C139.233 5.89467 139.042 5.31133 138.659 4.91C138.286 4.49933 137.777 4.294 137.133 4.294C136.471 4.294 135.943 4.50867 135.551 4.938C135.159 5.358 134.963 5.96933 134.963 6.772V11H133.689V3.328H134.963V4.434C135.215 4.03267 135.551 3.72467 135.971 3.51C136.401 3.29533 136.872 3.188 137.385 3.188C138.029 3.188 138.599 3.33267 139.093 3.622C139.588 3.91133 139.957 4.336 140.199 4.896C140.414 4.35467 140.769 3.93467 141.263 3.636C141.758 3.33733 142.309 3.188 142.915 3.188ZM157.339 3.188C157.936 3.188 158.468 3.314 158.935 3.566C159.402 3.80867 159.77 4.17733 160.041 4.672C160.312 5.16667 160.447 5.76867 160.447 6.478V11H159.187V6.66C159.187 5.89467 158.996 5.31133 158.613 4.91C158.24 4.49933 157.731 4.294 157.087 4.294C156.424 4.294 155.897 4.50867 155.505 4.938C155.113 5.358 154.917 5.96933 154.917 6.772V11H153.657V6.66C153.657 5.89467 153.466 5.31133 153.083 4.91C152.71 4.49933 152.201 4.294 151.557 4.294C150.894 4.294 150.367 4.50867 149.975 4.938C149.583 5.358 149.387 5.96933 149.387 6.772V11H148.113V3.328H149.387V4.434C149.639 4.03267 149.975 3.72467 150.395 3.51C150.824 3.29533 151.296 3.188 151.809 3.188C152.453 3.188 153.022 3.33267 153.517 3.622C154.012 3.91133 154.38 4.336 154.623 4.896C154.838 4.35467 155.192 3.93467 155.687 3.636C156.182 3.33733 156.732 3.188 157.339 3.188ZM163.195 2.082C162.952 2.082 162.747 1.998 162.579 1.83C162.411 1.662 162.327 1.45667 162.327 1.214C162.327 0.971333 162.411 0.766 162.579 0.598C162.747 0.43 162.952 0.345999 163.195 0.345999C163.428 0.345999 163.624 0.43 163.783 0.598C163.951 0.766 164.035 0.971333 164.035 1.214C164.035 1.45667 163.951 1.662 163.783 1.83C163.624 1.998 163.428 2.082 163.195 2.082ZM163.811 3.328V11H162.537V3.328H163.811ZM169.72 3.188C170.654 3.188 171.41 3.47267 171.988 4.042C172.567 4.602 172.856 5.414 172.856 6.478V11H171.596V6.66C171.596 5.89467 171.405 5.31133 171.022 4.91C170.64 4.49933 170.117 4.294 169.454 4.294C168.782 4.294 168.246 4.504 167.844 4.924C167.452 5.344 167.256 5.95533 167.256 6.758V11H165.982V3.328H167.256V4.42C167.508 4.028 167.849 3.72467 168.278 3.51C168.717 3.29533 169.198 3.188 169.72 3.188ZM178.101 3.202C178.764 3.202 179.343 3.34667 179.837 3.636C180.341 3.92533 180.715 4.28933 180.957 4.728V3.328H182.245V11.168C182.245 11.868 182.096 12.4887 181.797 13.03C181.499 13.5807 181.069 14.01 180.509 14.318C179.959 14.626 179.315 14.78 178.577 14.78C177.569 14.78 176.729 14.542 176.057 14.066C175.385 13.59 174.989 12.9413 174.867 12.12H176.127C176.267 12.5867 176.557 12.96 176.995 13.24C177.434 13.5293 177.961 13.674 178.577 13.674C179.277 13.674 179.847 13.4547 180.285 13.016C180.733 12.5773 180.957 11.9613 180.957 11.168V9.558C180.705 10.006 180.332 10.3793 179.837 10.678C179.343 10.9767 178.764 11.126 178.101 11.126C177.42 11.126 176.799 10.958 176.239 10.622C175.689 10.286 175.255 9.81467 174.937 9.208C174.62 8.60133 174.461 7.91067 174.461 7.136C174.461 6.352 174.62 5.666 174.937 5.078C175.255 4.48067 175.689 4.01867 176.239 3.692C176.799 3.36533 177.42 3.202 178.101 3.202ZM180.957 7.15C180.957 6.57133 180.841 6.06733 180.607 5.638C180.374 5.20867 180.057 4.882 179.655 4.658C179.263 4.42467 178.829 4.308 178.353 4.308C177.877 4.308 177.443 4.42 177.051 4.644C176.659 4.868 176.347 5.19467 176.113 5.624C175.88 6.05333 175.763 6.55733 175.763 7.136C175.763 7.724 175.88 8.23733 176.113 8.676C176.347 9.10533 176.659 9.43667 177.051 9.67C177.443 9.894 177.877 10.006 178.353 10.006C178.829 10.006 179.263 9.894 179.655 9.67C180.057 9.43667 180.374 9.10533 180.607 8.676C180.841 8.23733 180.957 7.72867 180.957 7.15ZM191.253 4.378H189.643V11H188.369V4.378H187.375V3.328H188.369V2.782C188.369 1.92333 188.588 1.298 189.027 0.906C189.475 0.504666 190.189 0.303999 191.169 0.303999V1.368C190.609 1.368 190.212 1.48 189.979 1.704C189.755 1.91867 189.643 2.278 189.643 2.782V3.328H191.253V4.378ZM196.084 11.126C195.365 11.126 194.712 10.9627 194.124 10.636C193.545 10.3093 193.088 9.84733 192.752 9.25C192.425 8.64333 192.262 7.94333 192.262 7.15C192.262 6.366 192.43 5.67533 192.766 5.078C193.111 4.47133 193.578 4.00933 194.166 3.692C194.754 3.36533 195.412 3.202 196.14 3.202C196.868 3.202 197.526 3.36533 198.114 3.692C198.702 4.00933 199.164 4.46667 199.5 5.064C199.845 5.66133 200.018 6.35667 200.018 7.15C200.018 7.94333 199.841 8.64333 199.486 9.25C199.141 9.84733 198.669 10.3093 198.072 10.636C197.475 10.9627 196.812 11.126 196.084 11.126ZM196.084 10.006C196.541 10.006 196.971 9.89867 197.372 9.684C197.773 9.46933 198.095 9.14733 198.338 8.718C198.59 8.28867 198.716 7.766 198.716 7.15C198.716 6.534 198.595 6.01133 198.352 5.582C198.109 5.15267 197.792 4.83533 197.4 4.63C197.008 4.41533 196.583 4.308 196.126 4.308C195.659 4.308 195.23 4.41533 194.838 4.63C194.455 4.83533 194.147 5.15267 193.914 5.582C193.681 6.01133 193.564 6.534 193.564 7.15C193.564 7.77533 193.676 8.30267 193.9 8.732C194.133 9.16133 194.441 9.48333 194.824 9.698C195.207 9.90333 195.627 10.006 196.084 10.006ZM202.967 4.574C203.191 4.13533 203.509 3.79467 203.919 3.552C204.339 3.30933 204.848 3.188 205.445 3.188V4.504H205.109C203.681 4.504 202.967 5.27867 202.967 6.828V11H201.693V3.328H202.967V4.574ZM219.874 3.188C220.472 3.188 221.004 3.314 221.47 3.566C221.937 3.80867 222.306 4.17733 222.576 4.672C222.847 5.16667 222.982 5.76867 222.982 6.478V11H221.722V6.66C221.722 5.89467 221.531 5.31133 221.148 4.91C220.775 4.49933 220.266 4.294 219.622 4.294C218.96 4.294 218.432 4.50867 218.04 4.938C217.648 5.358 217.452 5.96933 217.452 6.772V11H216.192V6.66C216.192 5.89467 216.001 5.31133 215.618 4.91C215.245 4.49933 214.736 4.294 214.092 4.294C213.43 4.294 212.902 4.50867 212.51 4.938C212.118 5.358 211.922 5.96933 211.922 6.772V11H210.648V3.328H211.922V4.434C212.174 4.03267 212.51 3.72467 212.93 3.51C213.36 3.29533 213.831 3.188 214.344 3.188C214.988 3.188 215.558 3.33267 216.052 3.622C216.547 3.91133 216.916 4.336 217.158 4.896C217.373 4.35467 217.728 3.93467 218.222 3.636C218.717 3.33733 219.268 3.188 219.874 3.188ZM224.596 7.136C224.596 6.352 224.755 5.666 225.072 5.078C225.389 4.48067 225.823 4.01867 226.374 3.692C226.934 3.36533 227.555 3.202 228.236 3.202C228.908 3.202 229.491 3.34667 229.986 3.636C230.481 3.92533 230.849 4.28933 231.092 4.728V3.328H232.38V11H231.092V9.572C230.84 10.02 230.462 10.3933 229.958 10.692C229.463 10.9813 228.885 11.126 228.222 11.126C227.541 11.126 226.925 10.958 226.374 10.622C225.823 10.286 225.389 9.81467 225.072 9.208C224.755 8.60133 224.596 7.91067 224.596 7.136ZM231.092 7.15C231.092 6.57133 230.975 6.06733 230.742 5.638C230.509 5.20867 230.191 4.882 229.79 4.658C229.398 4.42467 228.964 4.308 228.488 4.308C228.012 4.308 227.578 4.42 227.186 4.644C226.794 4.868 226.481 5.19467 226.248 5.624C226.015 6.05333 225.898 6.55733 225.898 7.136C225.898 7.724 226.015 8.23733 226.248 8.676C226.481 9.10533 226.794 9.43667 227.186 9.67C227.578 9.894 228.012 10.006 228.488 10.006C228.964 10.006 229.398 9.894 229.79 9.67C230.191 9.43667 230.509 9.10533 230.742 8.676C230.975 8.23733 231.092 7.72867 231.092 7.15ZM238.271 3.188C239.204 3.188 239.96 3.47267 240.539 4.042C241.118 4.602 241.407 5.414 241.407 6.478V11H240.147V6.66C240.147 5.89467 239.956 5.31133 239.573 4.91C239.19 4.49933 238.668 4.294 238.005 4.294C237.333 4.294 236.796 4.504 236.395 4.924C236.003 5.344 235.807 5.95533 235.807 6.758V11H234.533V3.328H235.807V4.42C236.059 4.028 236.4 3.72467 236.829 3.51C237.268 3.29533 237.748 3.188 238.271 3.188ZM250.096 3.328L245.476 14.612H244.16L245.672 10.916L242.578 3.328H243.992L246.4 9.544L248.78 3.328H250.096ZM261.717 3.328L257.097 14.612H255.781L257.293 10.916L254.199 3.328H255.613L258.021 9.544L260.401 3.328H261.717ZM269.998 6.87C269.998 7.11267 269.984 7.36933 269.956 7.64H263.824C263.871 8.396 264.127 8.98867 264.594 9.418C265.07 9.838 265.644 10.048 266.316 10.048C266.867 10.048 267.324 9.922 267.688 9.67C268.061 9.40867 268.323 9.06333 268.472 8.634H269.844C269.639 9.37133 269.228 9.97333 268.612 10.44C267.996 10.8973 267.231 11.126 266.316 11.126C265.588 11.126 264.935 10.9627 264.356 10.636C263.787 10.3093 263.339 9.84733 263.012 9.25C262.685 8.64333 262.522 7.94333 262.522 7.15C262.522 6.35667 262.681 5.66133 262.998 5.064C263.315 4.46667 263.759 4.00933 264.328 3.692C264.907 3.36533 265.569 3.202 266.316 3.202C267.044 3.202 267.688 3.36067 268.248 3.678C268.808 3.99533 269.237 4.434 269.536 4.994C269.844 5.54467 269.998 6.17 269.998 6.87ZM268.682 6.604C268.682 6.11867 268.575 5.70333 268.36 5.358C268.145 5.00333 267.851 4.73733 267.478 4.56C267.114 4.37333 266.708 4.28 266.26 4.28C265.616 4.28 265.065 4.48533 264.608 4.896C264.16 5.30667 263.903 5.876 263.838 6.604H268.682ZM271.204 7.136C271.204 6.352 271.362 5.666 271.68 5.078C271.997 4.48067 272.431 4.01867 272.982 3.692C273.542 3.36533 274.162 3.202 274.844 3.202C275.516 3.202 276.099 3.34667 276.594 3.636C277.088 3.92533 277.457 4.28933 277.7 4.728V3.328H278.988V11H277.7V9.572C277.448 10.02 277.07 10.3933 276.566 10.692C276.071 10.9813 275.492 11.126 274.83 11.126C274.148 11.126 273.532 10.958 272.982 10.622C272.431 10.286 271.997 9.81467 271.68 9.208C271.362 8.60133 271.204 7.91067 271.204 7.136ZM277.7 7.15C277.7 6.57133 277.583 6.06733 277.35 5.638C277.116 5.20867 276.799 4.882 276.398 4.658C276.006 4.42467 275.572 4.308 275.096 4.308C274.62 4.308 274.186 4.42 273.794 4.644C273.402 4.868 273.089 5.19467 272.856 5.624C272.622 6.05333 272.506 6.55733 272.506 7.136C272.506 7.724 272.622 8.23733 272.856 8.676C273.089 9.10533 273.402 9.43667 273.794 9.67C274.186 9.894 274.62 10.006 275.096 10.006C275.572 10.006 276.006 9.894 276.398 9.67C276.799 9.43667 277.116 9.10533 277.35 8.676C277.583 8.23733 277.7 7.72867 277.7 7.15ZM282.415 4.574C282.639 4.13533 282.956 3.79467 283.367 3.552C283.787 3.30933 284.295 3.188 284.893 3.188V4.504H284.557C283.129 4.504 282.415 5.27867 282.415 6.828V11H281.141V3.328H282.415V4.574ZM289.079 11.126C288.491 11.126 287.964 11.028 287.497 10.832C287.03 10.6267 286.662 10.3467 286.391 9.992C286.12 9.628 285.971 9.21267 285.943 8.746H287.259C287.296 9.12867 287.474 9.44133 287.791 9.684C288.118 9.92667 288.542 10.048 289.065 10.048C289.55 10.048 289.933 9.94067 290.213 9.726C290.493 9.51133 290.633 9.24067 290.633 8.914C290.633 8.578 290.484 8.33067 290.185 8.172C289.886 8.004 289.424 7.84067 288.799 7.682C288.23 7.53267 287.763 7.38333 287.399 7.234C287.044 7.07533 286.736 6.84667 286.475 6.548C286.223 6.24 286.097 5.83867 286.097 5.344C286.097 4.952 286.214 4.59267 286.447 4.266C286.68 3.93933 287.012 3.68267 287.441 3.496C287.87 3.3 288.36 3.202 288.911 3.202C289.76 3.202 290.446 3.41667 290.969 3.846C291.492 4.27533 291.772 4.86333 291.809 5.61H290.535C290.507 5.20867 290.344 4.88667 290.045 4.644C289.756 4.40133 289.364 4.28 288.869 4.28C288.412 4.28 288.048 4.378 287.777 4.574C287.506 4.77 287.371 5.02667 287.371 5.344C287.371 5.596 287.45 5.806 287.609 5.974C287.777 6.13267 287.982 6.26333 288.225 6.366C288.477 6.45933 288.822 6.56667 289.261 6.688C289.812 6.83733 290.26 6.98667 290.605 7.136C290.95 7.276 291.244 7.49067 291.487 7.78C291.739 8.06933 291.87 8.44733 291.879 8.914C291.879 9.334 291.762 9.712 291.529 10.048C291.296 10.384 290.964 10.65 290.535 10.846C290.115 11.0327 289.63 11.126 289.079 11.126ZM294.084 11.084C293.841 11.084 293.636 11 293.468 10.832C293.3 10.664 293.216 10.4587 293.216 10.216C293.216 9.97333 293.3 9.768 293.468 9.6C293.636 9.432 293.841 9.348 294.084 9.348C294.317 9.348 294.513 9.432 294.672 9.6C294.84 9.768 294.924 9.97333 294.924 10.216C294.924 10.4587 294.84 10.664 294.672 10.832C294.513 11 294.317 11.084 294.084 11.084ZM24.2416 29.242V39H22.9676V29.242H24.2416ZM27.967 32.378V36.9C27.967 37.2733 28.0463 37.5393 28.205 37.698C28.3636 37.8473 28.639 37.922 29.031 37.922H29.969V39H28.821C28.1116 39 27.5796 38.8367 27.225 38.51C26.8703 38.1833 26.693 37.6467 26.693 36.9V32.378H25.699V31.328H26.693V29.396H27.967V31.328H29.969V32.378H27.967ZM37.961 39.126C37.373 39.126 36.8457 39.028 36.379 38.832C35.9123 38.6267 35.5437 38.3467 35.273 37.992C35.0023 37.628 34.853 37.2127 34.825 36.746H36.141C36.1783 37.1287 36.3557 37.4413 36.673 37.684C36.9997 37.9267 37.4243 38.048 37.947 38.048C38.4323 38.048 38.815 37.9407 39.095 37.726C39.375 37.5113 39.515 37.2407 39.515 36.914C39.515 36.578 39.3657 36.3307 39.067 36.172C38.7683 36.004 38.3063 35.8407 37.681 35.682C37.1117 35.5327 36.645 35.3833 36.281 35.234C35.9263 35.0753 35.6183 34.8467 35.357 34.548C35.105 34.24 34.979 33.8387 34.979 33.344C34.979 32.952 35.0957 32.5927 35.329 32.266C35.5623 31.9393 35.8937 31.6827 36.323 31.496C36.7523 31.3 37.2423 31.202 37.793 31.202C38.6423 31.202 39.3283 31.4167 39.851 31.846C40.3737 32.2753 40.6537 32.8633 40.691 33.61H39.417C39.389 33.2087 39.2257 32.8867 38.927 32.644C38.6377 32.4013 38.2457 32.28 37.751 32.28C37.2937 32.28 36.9297 32.378 36.659 32.574C36.3883 32.77 36.253 33.0267 36.253 33.344C36.253 33.596 36.3323 33.806 36.491 33.974C36.659 34.1327 36.8643 34.2633 37.107 34.366C37.359 34.4593 37.7043 34.5667 38.143 34.688C38.6937 34.8373 39.1417 34.9867 39.487 35.136C39.8323 35.276 40.1263 35.4907 40.369 35.78C40.621 36.0693 40.7517 36.4473 40.761 36.914C40.761 37.334 40.6443 37.712 40.411 38.048C40.1777 38.384 39.8463 38.65 39.417 38.846C38.997 39.0327 38.5117 39.126 37.961 39.126ZM44.1134 32.378V36.9C44.1134 37.2733 44.1928 37.5393 44.3514 37.698C44.5101 37.8473 44.7854 37.922 45.1774 37.922H46.1154V39H44.9674C44.2581 39 43.7261 38.8367 43.3714 38.51C43.0168 38.1833 42.8394 37.6467 42.8394 36.9V32.378H41.8454V31.328H42.8394V29.396H44.1134V31.328H46.1154V32.378H44.1134ZM47.1831 35.136C47.1831 34.352 47.3417 33.666 47.6591 33.078C47.9764 32.4807 48.4104 32.0187 48.9611 31.692C49.5211 31.3653 50.1417 31.202 50.8231 31.202C51.4951 31.202 52.0784 31.3467 52.5731 31.636C53.0677 31.9253 53.4364 32.2893 53.6791 32.728V31.328H54.9671V39H53.6791V37.572C53.4271 38.02 53.0491 38.3933 52.5451 38.692C52.0504 38.9813 51.4717 39.126 50.8091 39.126C50.1277 39.126 49.5117 38.958 48.9611 38.622C48.4104 38.286 47.9764 37.8147 47.6591 37.208C47.3417 36.6013 47.1831 35.9107 47.1831 35.136ZM53.6791 35.15C53.6791 34.5713 53.5624 34.0673 53.3291 33.638C53.0957 33.2087 52.7784 32.882 52.3771 32.658C51.9851 32.4247 51.5511 32.308 51.0751 32.308C50.5991 32.308 50.1651 32.42 49.7731 32.644C49.3811 32.868 49.0684 33.1947 48.8351 33.624C48.6017 34.0533 48.4851 34.5573 48.4851 35.136C48.4851 35.724 48.6017 36.2373 48.8351 36.676C49.0684 37.1053 49.3811 37.4367 49.7731 37.67C50.1651 37.894 50.5991 38.006 51.0751 38.006C51.5511 38.006 51.9851 37.894 52.3771 37.67C52.7784 37.4367 53.0957 37.1053 53.3291 36.676C53.5624 36.2373 53.6791 35.7287 53.6791 35.15ZM58.394 32.574C58.618 32.1353 58.9353 31.7947 59.346 31.552C59.766 31.3093 60.2747 31.188 60.872 31.188V32.504H60.536C59.108 32.504 58.394 33.2787 58.394 34.828V39H57.12V31.328H58.394V32.574ZM63.8966 32.378V36.9C63.8966 37.2733 63.976 37.5393 64.1346 37.698C64.2933 37.8473 64.5686 37.922 64.9606 37.922H65.8986V39H64.7506C64.0413 39 63.5093 38.8367 63.1546 38.51C62.8 38.1833 62.6226 37.6467 62.6226 36.9V32.378H61.6286V31.328H62.6226V29.396H63.8966V31.328H65.8986V32.378H63.8966ZM74.4423 34.87C74.4423 35.1127 74.4283 35.3693 74.4003 35.64H68.2683C68.3149 36.396 68.5716 36.9887 69.0383 37.418C69.5143 37.838 70.0883 38.048 70.7603 38.048C71.3109 38.048 71.7683 37.922 72.1323 37.67C72.5056 37.4087 72.7669 37.0633 72.9163 36.634H74.2883C74.0829 37.3713 73.6723 37.9733 73.0563 38.44C72.4403 38.8973 71.6749 39.126 70.7603 39.126C70.0323 39.126 69.3789 38.9627 68.8003 38.636C68.2309 38.3093 67.7829 37.8473 67.4563 37.25C67.1296 36.6433 66.9663 35.9433 66.9663 35.15C66.9663 34.3567 67.1249 33.6613 67.4423 33.064C67.7596 32.4667 68.2029 32.0093 68.7723 31.692C69.3509 31.3653 70.0136 31.202 70.7603 31.202C71.4883 31.202 72.1323 31.3607 72.6923 31.678C73.2523 31.9953 73.6816 32.434 73.9803 32.994C74.2883 33.5447 74.4423 34.17 74.4423 34.87ZM73.1263 34.604C73.1263 34.1187 73.0189 33.7033 72.8043 33.358C72.5896 33.0033 72.2956 32.7373 71.9223 32.56C71.5583 32.3733 71.1523 32.28 70.7043 32.28C70.0603 32.28 69.5096 32.4853 69.0523 32.896C68.6043 33.3067 68.3476 33.876 68.2823 34.604H73.1263ZM75.6479 35.136C75.6479 34.352 75.8066 33.666 76.1239 33.078C76.4412 32.4807 76.8752 32.0187 77.4259 31.692C77.9859 31.3653 78.6112 31.202 79.3019 31.202C79.8992 31.202 80.4546 31.342 80.9679 31.622C81.4812 31.8927 81.8732 32.252 82.1439 32.7V28.64H83.4319V39H82.1439V37.558C81.8919 38.0153 81.5186 38.3933 81.0239 38.692C80.5292 38.9813 79.9506 39.126 79.2879 39.126C78.6066 39.126 77.9859 38.958 77.4259 38.622C76.8752 38.286 76.4412 37.8147 76.1239 37.208C75.8066 36.6013 75.6479 35.9107 75.6479 35.136ZM82.1439 35.15C82.1439 34.5713 82.0272 34.0673 81.7939 33.638C81.5606 33.2087 81.2432 32.882 80.8419 32.658C80.4499 32.4247 80.0159 32.308 79.5399 32.308C79.0639 32.308 78.6299 32.42 78.2379 32.644C77.8459 32.868 77.5332 33.1947 77.2999 33.624C77.0666 34.0533 76.9499 34.5573 76.9499 35.136C76.9499 35.724 77.0666 36.2373 77.2999 36.676C77.5332 37.1053 77.8459 37.4367 78.2379 37.67C78.6299 37.894 79.0639 38.006 79.5399 38.006C80.0159 38.006 80.4499 37.894 80.8419 37.67C81.2432 37.4367 81.5606 37.1053 81.7939 36.676C82.0272 36.2373 82.1439 35.7287 82.1439 35.15ZM99.5373 31.328L97.1433 39H95.8273L93.9793 32.91L92.1313 39H90.8153L88.4073 31.328H89.7093L91.4733 37.768L93.3773 31.328H94.6793L96.5413 37.782L98.2773 31.328H99.5373ZM100.326 35.136C100.326 34.352 100.484 33.666 100.802 33.078C101.119 32.4807 101.553 32.0187 102.104 31.692C102.664 31.3653 103.284 31.202 103.966 31.202C104.638 31.202 105.221 31.3467 105.716 31.636C106.21 31.9253 106.579 32.2893 106.822 32.728V31.328H108.11V39H106.822V37.572C106.57 38.02 106.192 38.3933 105.688 38.692C105.193 38.9813 104.614 39.126 103.952 39.126C103.27 39.126 102.654 38.958 102.104 38.622C101.553 38.286 101.119 37.8147 100.802 37.208C100.484 36.6013 100.326 35.9107 100.326 35.136ZM106.822 35.15C106.822 34.5713 106.705 34.0673 106.472 33.638C106.238 33.2087 105.921 32.882 105.52 32.658C105.128 32.4247 104.694 32.308 104.218 32.308C103.742 32.308 103.308 32.42 102.916 32.644C102.524 32.868 102.211 33.1947 101.978 33.624C101.744 34.0533 101.628 34.5573 101.628 35.136C101.628 35.724 101.744 36.2373 101.978 36.676C102.211 37.1053 102.524 37.4367 102.916 37.67C103.308 37.894 103.742 38.006 104.218 38.006C104.694 38.006 105.128 37.894 105.52 37.67C105.921 37.4367 106.238 37.1053 106.472 36.676C106.705 36.2373 106.822 35.7287 106.822 35.15ZM116.871 31.328L112.251 42.612H110.935L112.447 38.916L109.353 31.328H110.767L113.175 37.544L115.555 31.328H116.871ZM123.158 32.756C123.419 32.2987 123.802 31.9253 124.306 31.636C124.81 31.3467 125.384 31.202 126.028 31.202C126.718 31.202 127.339 31.3653 127.89 31.692C128.44 32.0187 128.874 32.4807 129.192 33.078C129.509 33.666 129.668 34.352 129.668 35.136C129.668 35.9107 129.509 36.6013 129.192 37.208C128.874 37.8147 128.436 38.286 127.876 38.622C127.325 38.958 126.709 39.126 126.028 39.126C125.365 39.126 124.782 38.9813 124.278 38.692C123.783 38.4027 123.41 38.034 123.158 37.586V39H121.884V28.64H123.158V32.756ZM128.366 35.136C128.366 34.5573 128.249 34.0533 128.016 33.624C127.782 33.1947 127.465 32.868 127.064 32.644C126.672 32.42 126.238 32.308 125.762 32.308C125.295 32.308 124.861 32.4247 124.46 32.658C124.068 32.882 123.75 33.2133 123.508 33.652C123.274 34.0813 123.158 34.5807 123.158 35.15C123.158 35.7287 123.274 36.2373 123.508 36.676C123.75 37.1053 124.068 37.4367 124.46 37.67C124.861 37.894 125.295 38.006 125.762 38.006C126.238 38.006 126.672 37.894 127.064 37.67C127.465 37.4367 127.782 37.1053 128.016 36.676C128.249 36.2373 128.366 35.724 128.366 35.136ZM138.345 34.87C138.345 35.1127 138.331 35.3693 138.303 35.64H132.171C132.217 36.396 132.474 36.9887 132.941 37.418C133.417 37.838 133.991 38.048 134.663 38.048C135.213 38.048 135.671 37.922 136.035 37.67C136.408 37.4087 136.669 37.0633 136.819 36.634H138.191C137.985 37.3713 137.575 37.9733 136.959 38.44C136.343 38.8973 135.577 39.126 134.663 39.126C133.935 39.126 133.281 38.9627 132.703 38.636C132.133 38.3093 131.685 37.8473 131.359 37.25C131.032 36.6433 130.869 35.9433 130.869 35.15C130.869 34.3567 131.027 33.6613 131.345 33.064C131.662 32.4667 132.105 32.0093 132.675 31.692C133.253 31.3653 133.916 31.202 134.663 31.202C135.391 31.202 136.035 31.3607 136.595 31.678C137.155 31.9953 137.584 32.434 137.883 32.994C138.191 33.5447 138.345 34.17 138.345 34.87ZM137.029 34.604C137.029 34.1187 136.921 33.7033 136.707 33.358C136.492 33.0033 136.198 32.7373 135.825 32.56C135.461 32.3733 135.055 32.28 134.607 32.28C133.963 32.28 133.412 32.4853 132.955 32.896C132.507 33.3067 132.25 33.876 132.185 34.604H137.029ZM143.148 32.378H141.538V39H140.264V32.378H139.27V31.328H140.264V30.782C140.264 29.9233 140.484 29.298 140.922 28.906C141.37 28.5047 142.084 28.304 143.064 28.304V29.368C142.504 29.368 142.108 29.48 141.874 29.704C141.65 29.9187 141.538 30.278 141.538 30.782V31.328H143.148V32.378ZM147.98 39.126C147.261 39.126 146.608 38.9627 146.02 38.636C145.441 38.3093 144.984 37.8473 144.648 37.25C144.321 36.6433 144.158 35.9433 144.158 35.15C144.158 34.366 144.326 33.6753 144.662 33.078C145.007 32.4713 145.474 32.0093 146.062 31.692C146.65 31.3653 147.308 31.202 148.036 31.202C148.764 31.202 149.422 31.3653 150.01 31.692C150.598 32.0093 151.06 32.4667 151.396 33.064C151.741 33.6613 151.914 34.3567 151.914 35.15C151.914 35.9433 151.736 36.6433 151.382 37.25C151.036 37.8473 150.565 38.3093 149.968 38.636C149.37 38.9627 148.708 39.126 147.98 39.126ZM147.98 38.006C148.437 38.006 148.866 37.8987 149.268 37.684C149.669 37.4693 149.991 37.1473 150.234 36.718C150.486 36.2887 150.612 35.766 150.612 35.15C150.612 34.534 150.49 34.0113 150.248 33.582C150.005 33.1527 149.688 32.8353 149.296 32.63C148.904 32.4153 148.479 32.308 148.022 32.308C147.555 32.308 147.126 32.4153 146.734 32.63C146.351 32.8353 146.043 33.1527 145.81 33.582C145.576 34.0113 145.46 34.534 145.46 35.15C145.46 35.7753 145.572 36.3027 145.796 36.732C146.029 37.1613 146.337 37.4833 146.72 37.698C147.102 37.9033 147.522 38.006 147.98 38.006ZM154.863 32.574C155.087 32.1353 155.404 31.7947 155.815 31.552C156.235 31.3093 156.743 31.188 157.341 31.188V32.504H157.005C155.577 32.504 154.863 33.2787 154.863 34.828V39H153.589V31.328H154.863V32.574ZM165.811 34.87C165.811 35.1127 165.797 35.3693 165.769 35.64H159.637C159.684 36.396 159.941 36.9887 160.407 37.418C160.883 37.838 161.457 38.048 162.129 38.048C162.68 38.048 163.137 37.922 163.501 37.67C163.875 37.4087 164.136 37.0633 164.285 36.634H165.657C165.452 37.3713 165.041 37.9733 164.425 38.44C163.809 38.8973 163.044 39.126 162.129 39.126C161.401 39.126 160.748 38.9627 160.169 38.636C159.6 38.3093 159.152 37.8473 158.825 37.25C158.499 36.6433 158.335 35.9433 158.335 35.15C158.335 34.3567 158.494 33.6613 158.811 33.064C159.129 32.4667 159.572 32.0093 160.141 31.692C160.72 31.3653 161.383 31.202 162.129 31.202C162.857 31.202 163.501 31.3607 164.061 31.678C164.621 31.9953 165.051 32.434 165.349 32.994C165.657 33.5447 165.811 34.17 165.811 34.87ZM164.495 34.604C164.495 34.1187 164.388 33.7033 164.173 33.358C163.959 33.0033 163.665 32.7373 163.291 32.56C162.927 32.3733 162.521 32.28 162.073 32.28C161.429 32.28 160.879 32.4853 160.421 32.896C159.973 33.3067 159.717 33.876 159.651 34.604H164.495ZM172.499 29.242V39H171.225V29.242H172.499ZM179.677 32.756C179.939 32.2987 180.321 31.9253 180.825 31.636C181.329 31.3467 181.903 31.202 182.547 31.202C183.238 31.202 183.859 31.3653 184.409 31.692C184.96 32.0187 185.394 32.4807 185.711 33.078C186.029 33.666 186.187 34.352 186.187 35.136C186.187 35.9107 186.029 36.6013 185.711 37.208C185.394 37.8147 184.955 38.286 184.395 38.622C183.845 38.958 183.229 39.126 182.547 39.126C181.885 39.126 181.301 38.9813 180.797 38.692C180.303 38.4027 179.929 38.034 179.677 37.586V39H178.403V28.64H179.677V32.756ZM184.885 35.136C184.885 34.5573 184.769 34.0533 184.535 33.624C184.302 33.1947 183.985 32.868 183.583 32.644C183.191 32.42 182.757 32.308 182.281 32.308C181.815 32.308 181.381 32.4247 180.979 32.658C180.587 32.882 180.27 33.2133 180.027 33.652C179.794 34.0813 179.677 34.5807 179.677 35.15C179.677 35.7287 179.794 36.2373 180.027 36.676C180.27 37.1053 180.587 37.4367 180.979 37.67C181.381 37.894 181.815 38.006 182.281 38.006C182.757 38.006 183.191 37.894 183.583 37.67C183.985 37.4367 184.302 37.1053 184.535 36.676C184.769 36.2373 184.885 35.724 184.885 35.136ZM194.864 34.87C194.864 35.1127 194.85 35.3693 194.822 35.64H188.69C188.737 36.396 188.993 36.9887 189.46 37.418C189.936 37.838 190.51 38.048 191.182 38.048C191.733 38.048 192.19 37.922 192.554 37.67C192.927 37.4087 193.189 37.0633 193.338 36.634H194.71C194.505 37.3713 194.094 37.9733 193.478 38.44C192.862 38.8973 192.097 39.126 191.182 39.126C190.454 39.126 189.801 38.9627 189.222 38.636C188.653 38.3093 188.205 37.8473 187.878 37.25C187.551 36.6433 187.388 35.9433 187.388 35.15C187.388 34.3567 187.547 33.6613 187.864 33.064C188.181 32.4667 188.625 32.0093 189.194 31.692C189.773 31.3653 190.435 31.202 191.182 31.202C191.91 31.202 192.554 31.3607 193.114 31.678C193.674 31.9953 194.103 32.434 194.402 32.994C194.71 33.5447 194.864 34.17 194.864 34.87ZM193.548 34.604C193.548 34.1187 193.441 33.7033 193.226 33.358C193.011 33.0033 192.717 32.7373 192.344 32.56C191.98 32.3733 191.574 32.28 191.126 32.28C190.482 32.28 189.931 32.4853 189.474 32.896C189.026 33.3067 188.769 33.876 188.704 34.604H193.548ZM199.71 31.202C200.372 31.202 200.951 31.3467 201.446 31.636C201.95 31.9253 202.323 32.2893 202.566 32.728V31.328H203.854V39.168C203.854 39.868 203.704 40.4887 203.406 41.03C203.107 41.5807 202.678 42.01 202.118 42.318C201.567 42.626 200.923 42.78 200.186 42.78C199.178 42.78 198.338 42.542 197.666 42.066C196.994 41.59 196.597 40.9413 196.476 40.12H197.736C197.876 40.5867 198.165 40.96 198.604 41.24C199.042 41.5293 199.57 41.674 200.186 41.674C200.886 41.674 201.455 41.4547 201.894 41.016C202.342 40.5773 202.566 39.9613 202.566 39.168V37.558C202.314 38.006 201.94 38.3793 201.446 38.678C200.951 38.9767 200.372 39.126 199.71 39.126C199.028 39.126 198.408 38.958 197.848 38.622C197.297 38.286 196.863 37.8147 196.546 37.208C196.228 36.6013 196.07 35.9107 196.07 35.136C196.07 34.352 196.228 33.666 196.546 33.078C196.863 32.4807 197.297 32.0187 197.848 31.692C198.408 31.3653 199.028 31.202 199.71 31.202ZM202.566 35.15C202.566 34.5713 202.449 34.0673 202.216 33.638C201.982 33.2087 201.665 32.882 201.264 32.658C200.872 32.4247 200.438 32.308 199.962 32.308C199.486 32.308 199.052 32.42 198.66 32.644C198.268 32.868 197.955 33.1947 197.722 33.624C197.488 34.0533 197.372 34.5573 197.372 35.136C197.372 35.724 197.488 36.2373 197.722 36.676C197.955 37.1053 198.268 37.4367 198.66 37.67C199.052 37.894 199.486 38.006 199.962 38.006C200.438 38.006 200.872 37.894 201.264 37.67C201.665 37.4367 201.982 37.1053 202.216 36.676C202.449 36.2373 202.566 35.7287 202.566 35.15ZM205.531 35.136C205.531 34.352 205.689 33.666 206.007 33.078C206.324 32.4807 206.758 32.0187 207.309 31.692C207.869 31.3653 208.489 31.202 209.171 31.202C209.843 31.202 210.426 31.3467 210.921 31.636C211.415 31.9253 211.784 32.2893 212.027 32.728V31.328H213.315V39H212.027V37.572C211.775 38.02 211.397 38.3933 210.893 38.692C210.398 38.9813 209.819 39.126 209.157 39.126C208.475 39.126 207.859 38.958 207.309 38.622C206.758 38.286 206.324 37.8147 206.007 37.208C205.689 36.6013 205.531 35.9107 205.531 35.136ZM212.027 35.15C212.027 34.5713 211.91 34.0673 211.677 33.638C211.443 33.2087 211.126 32.882 210.725 32.658C210.333 32.4247 209.899 32.308 209.423 32.308C208.947 32.308 208.513 32.42 208.121 32.644C207.729 32.868 207.416 33.1947 207.183 33.624C206.949 34.0533 206.833 34.5573 206.833 35.136C206.833 35.724 206.949 36.2373 207.183 36.676C207.416 37.1053 207.729 37.4367 208.121 37.67C208.513 37.894 208.947 38.006 209.423 38.006C209.899 38.006 210.333 37.894 210.725 37.67C211.126 37.4367 211.443 37.1053 211.677 36.676C211.91 36.2373 212.027 35.7287 212.027 35.15ZM219.206 31.188C220.139 31.188 220.895 31.4727 221.474 32.042C222.052 32.602 222.342 33.414 222.342 34.478V39H221.082V34.66C221.082 33.8947 220.89 33.3113 220.508 32.91C220.125 32.4993 219.602 32.294 218.94 32.294C218.268 32.294 217.731 32.504 217.33 32.924C216.938 33.344 216.742 33.9553 216.742 34.758V39H215.468V31.328H216.742V32.42C216.994 32.028 217.334 31.7247 217.764 31.51C218.202 31.2953 218.683 31.188 219.206 31.188ZM233.293 39L230.969 35.01H229.429V39H228.155V29.242H231.305C232.042 29.242 232.663 29.368 233.167 29.62C233.68 29.872 234.063 30.2127 234.315 30.642C234.567 31.0713 234.693 31.5613 234.693 32.112C234.693 32.784 234.497 33.3767 234.105 33.89C233.722 34.4033 233.144 34.744 232.369 34.912L234.819 39H233.293ZM229.429 33.988H231.305C231.996 33.988 232.514 33.82 232.859 33.484C233.204 33.1387 233.377 32.6813 233.377 32.112C233.377 31.5333 233.204 31.0853 232.859 30.768C232.523 30.4507 232.005 30.292 231.305 30.292H229.429V33.988ZM240.019 39.126C239.3 39.126 238.647 38.9627 238.059 38.636C237.48 38.3093 237.023 37.8473 236.687 37.25C236.36 36.6433 236.197 35.9433 236.197 35.15C236.197 34.366 236.365 33.6753 236.701 33.078C237.046 32.4713 237.513 32.0093 238.101 31.692C238.689 31.3653 239.347 31.202 240.075 31.202C240.803 31.202 241.461 31.3653 242.049 31.692C242.637 32.0093 243.099 32.4667 243.435 33.064C243.78 33.6613 243.953 34.3567 243.953 35.15C243.953 35.9433 243.775 36.6433 243.421 37.25C243.075 37.8473 242.604 38.3093 242.007 38.636C241.409 38.9627 240.747 39.126 240.019 39.126ZM240.019 38.006C240.476 38.006 240.905 37.8987 241.307 37.684C241.708 37.4693 242.03 37.1473 242.273 36.718C242.525 36.2887 242.651 35.766 242.651 35.15C242.651 34.534 242.529 34.0113 242.287 33.582C242.044 33.1527 241.727 32.8353 241.335 32.63C240.943 32.4153 240.518 32.308 240.061 32.308C239.594 32.308 239.165 32.4153 238.773 32.63C238.39 32.8353 238.082 33.1527 237.849 33.582C237.615 34.0113 237.499 34.534 237.499 35.15C237.499 35.7753 237.611 36.3027 237.835 36.732C238.068 37.1613 238.376 37.4833 238.759 37.698C239.141 37.9033 239.561 38.006 240.019 38.006ZM246.902 32.756C247.163 32.2987 247.546 31.9253 248.05 31.636C248.554 31.3467 249.128 31.202 249.772 31.202C250.462 31.202 251.083 31.3653 251.634 31.692C252.184 32.0187 252.618 32.4807 252.936 33.078C253.253 33.666 253.412 34.352 253.412 35.136C253.412 35.9107 253.253 36.6013 252.936 37.208C252.618 37.8147 252.18 38.286 251.62 38.622C251.069 38.958 250.453 39.126 249.772 39.126C249.109 39.126 248.526 38.9813 248.022 38.692C247.527 38.4027 247.154 38.034 246.902 37.586V39H245.628V28.64H246.902V32.756ZM252.11 35.136C252.11 34.5573 251.993 34.0533 251.76 33.624C251.526 33.1947 251.209 32.868 250.808 32.644C250.416 32.42 249.982 32.308 249.506 32.308C249.039 32.308 248.605 32.4247 248.204 32.658C247.812 32.882 247.494 33.2133 247.252 33.652C247.018 34.0813 246.902 34.5807 246.902 35.15C246.902 35.7287 247.018 36.2373 247.252 36.676C247.494 37.1053 247.812 37.4367 248.204 37.67C248.605 37.894 249.039 38.006 249.506 38.006C249.982 38.006 250.416 37.894 250.808 37.67C251.209 37.4367 251.526 37.1053 251.76 36.676C251.993 36.2373 252.11 35.724 252.11 35.136ZM256.363 28.64V39H255.089V28.64H256.363ZM261.88 39.126C261.161 39.126 260.508 38.9627 259.92 38.636C259.341 38.3093 258.884 37.8473 258.548 37.25C258.221 36.6433 258.058 35.9433 258.058 35.15C258.058 34.366 258.226 33.6753 258.562 33.078C258.907 32.4713 259.374 32.0093 259.962 31.692C260.55 31.3653 261.208 31.202 261.936 31.202C262.664 31.202 263.322 31.3653 263.91 31.692C264.498 32.0093 264.96 32.4667 265.296 33.064C265.641 33.6613 265.814 34.3567 265.814 35.15C265.814 35.9433 265.637 36.6433 265.282 37.25C264.937 37.8473 264.465 38.3093 263.868 38.636C263.271 38.9627 262.608 39.126 261.88 39.126ZM261.88 38.006C262.337 38.006 262.767 37.8987 263.168 37.684C263.569 37.4693 263.891 37.1473 264.134 36.718C264.386 36.2887 264.512 35.766 264.512 35.15C264.512 34.534 264.391 34.0113 264.148 33.582C263.905 33.1527 263.588 32.8353 263.196 32.63C262.804 32.4153 262.379 32.308 261.922 32.308C261.455 32.308 261.026 32.4153 260.634 32.63C260.251 32.8353 259.943 33.1527 259.71 33.582C259.477 34.0113 259.36 34.534 259.36 35.15C259.36 35.7753 259.472 36.3027 259.696 36.732C259.929 37.1613 260.237 37.4833 260.62 37.698C261.003 37.9033 261.423 38.006 261.88 38.006ZM271.493 39L269.673 36.144L267.923 39H266.593L269.071 35.192L266.593 31.328H268.035L269.855 34.17L271.591 31.328H272.921L270.457 35.122L272.935 39H271.493ZM17.8025 57.242C18.8665 57.242 19.7859 57.4427 20.5605 57.844C21.3445 58.236 21.9419 58.8007 22.3525 59.538C22.7725 60.2753 22.9825 61.1433 22.9825 62.142C22.9825 63.1407 22.7725 64.0087 22.3525 64.746C21.9419 65.474 21.3445 66.034 20.5605 66.426C19.7859 66.8087 18.8665 67 17.8025 67H14.7645V57.242H17.8025ZM17.8025 65.95C19.0625 65.95 20.0239 65.6187 20.6865 64.956C21.3492 64.284 21.6805 63.346 21.6805 62.142C21.6805 60.9287 21.3445 59.9813 20.6725 59.3C20.0099 58.6187 19.0532 58.278 17.8025 58.278H16.0385V65.95H17.8025ZM31.663 62.87C31.663 63.1127 31.649 63.3693 31.621 63.64H25.489C25.5356 64.396 25.7923 64.9887 26.259 65.418C26.735 65.838 27.309 66.048 27.981 66.048C28.5316 66.048 28.989 65.922 29.353 65.67C29.7263 65.4087 29.9876 65.0633 30.137 64.634H31.509C31.3036 65.3713 30.893 65.9733 30.277 66.44C29.661 66.8973 28.8956 67.126 27.981 67.126C27.253 67.126 26.5996 66.9627 26.021 66.636C25.4516 66.3093 25.0036 65.8473 24.677 65.25C24.3503 64.6433 24.187 63.9433 24.187 63.15C24.187 62.3567 24.3456 61.6613 24.663 61.064C24.9803 60.4667 25.4236 60.0093 25.993 59.692C26.5716 59.3653 27.2343 59.202 27.981 59.202C28.709 59.202 29.353 59.3607 29.913 59.678C30.473 59.9953 30.9023 60.434 31.201 60.994C31.509 61.5447 31.663 62.17 31.663 62.87ZM30.347 62.604C30.347 62.1187 30.2396 61.7033 30.025 61.358C29.8103 61.0033 29.5163 60.7373 29.143 60.56C28.779 60.3733 28.373 60.28 27.925 60.28C27.281 60.28 26.7303 60.4853 26.273 60.896C25.825 61.3067 25.5683 61.876 25.503 62.604H30.347ZM36.2006 65.824L38.5806 59.328H39.9386L36.9286 67H35.4446L32.4346 59.328H33.8066L36.2006 65.824ZM41.8503 58.082C41.6076 58.082 41.4023 57.998 41.2343 57.83C41.0663 57.662 40.9823 57.4567 40.9823 57.214C40.9823 56.9713 41.0663 56.766 41.2343 56.598C41.4023 56.43 41.6076 56.346 41.8503 56.346C42.0836 56.346 42.2796 56.43 42.4383 56.598C42.6063 56.766 42.6903 56.9713 42.6903 57.214C42.6903 57.4567 42.6063 57.662 42.4383 57.83C42.2796 57.998 42.0836 58.082 41.8503 58.082ZM42.4663 59.328V67H41.1923V59.328H42.4663ZM48.3756 59.188C49.3089 59.188 50.0649 59.4727 50.6436 60.042C51.2222 60.602 51.5116 61.414 51.5116 62.478V67H50.2516V62.66C50.2516 61.8947 50.0602 61.3113 49.6776 60.91C49.2949 60.4993 48.7722 60.294 48.1096 60.294C47.4376 60.294 46.9009 60.504 46.4996 60.924C46.1076 61.344 45.9116 61.9553 45.9116 62.758V67H44.6376V59.328H45.9116V60.42C46.1636 60.028 46.5042 59.7247 46.9336 59.51C47.3722 59.2953 47.8529 59.188 48.3756 59.188ZM56.7566 59.202C57.4193 59.202 57.998 59.3467 58.4926 59.636C58.9966 59.9253 59.37 60.2893 59.6126 60.728V59.328H60.9006V67.168C60.9006 67.868 60.7513 68.4887 60.4526 69.03C60.154 69.5807 59.7246 70.01 59.1646 70.318C58.614 70.626 57.97 70.78 57.2326 70.78C56.2246 70.78 55.3846 70.542 54.7126 70.066C54.0406 69.59 53.644 68.9413 53.5226 68.12H54.7826C54.9226 68.5867 55.212 68.96 55.6506 69.24C56.0893 69.5293 56.6166 69.674 57.2326 69.674C57.9326 69.674 58.502 69.4547 58.9406 69.016C59.3886 68.5773 59.6126 67.9613 59.6126 67.168V65.558C59.3606 66.006 58.9873 66.3793 58.4926 66.678C57.998 66.9767 57.4193 67.126 56.7566 67.126C56.0753 67.126 55.4546 66.958 54.8946 66.622C54.344 66.286 53.91 65.8147 53.5926 65.208C53.2753 64.6013 53.1166 63.9107 53.1166 63.136C53.1166 62.352 53.2753 61.666 53.5926 61.078C53.91 60.4807 54.344 60.0187 54.8946 59.692C55.4546 59.3653 56.0753 59.202 56.7566 59.202ZM59.6126 63.15C59.6126 62.5713 59.496 62.0673 59.2626 61.638C59.0293 61.2087 58.712 60.882 58.3106 60.658C57.9186 60.4247 57.4846 60.308 57.0086 60.308C56.5326 60.308 56.0986 60.42 55.7066 60.644C55.3146 60.868 55.002 61.1947 54.7686 61.624C54.5353 62.0533 54.4186 62.5573 54.4186 63.136C54.4186 63.724 54.5353 64.2373 54.7686 64.676C55.002 65.1053 55.3146 65.4367 55.7066 65.67C56.0986 65.894 56.5326 66.006 57.0086 66.006C57.4846 66.006 57.9186 65.894 58.3106 65.67C58.712 65.4367 59.0293 65.1053 59.2626 64.676C59.496 64.2373 59.6126 63.7287 59.6126 63.15ZM63.4596 67.084C63.2169 67.084 63.0116 67 62.8436 66.832C62.6756 66.664 62.5916 66.4587 62.5916 66.216C62.5916 65.9733 62.6756 65.768 62.8436 65.6C63.0116 65.432 63.2169 65.348 63.4596 65.348C63.6929 65.348 63.8889 65.432 64.0476 65.6C64.2156 65.768 64.2996 65.9733 64.2996 66.216C64.2996 66.4587 64.2156 66.664 64.0476 66.832C63.8889 67 63.6929 67.084 63.4596 67.084ZM70.9995 57.242V67H69.7255V57.242H70.9995ZM76.4272 63.136C76.4272 62.352 76.5859 61.666 76.9032 61.078C77.2205 60.4807 77.6545 60.0187 78.2052 59.692C78.7652 59.3653 79.3859 59.202 80.0672 59.202C80.7392 59.202 81.3225 59.3467 81.8172 59.636C82.3119 59.9253 82.6805 60.2893 82.9232 60.728V59.328H84.2112V67H82.9232V65.572C82.6712 66.02 82.2932 66.3933 81.7892 66.692C81.2945 66.9813 80.7159 67.126 80.0532 67.126C79.3719 67.126 78.7559 66.958 78.2052 66.622C77.6545 66.286 77.2205 65.8147 76.9032 65.208C76.5859 64.6013 76.4272 63.9107 76.4272 63.136ZM82.9232 63.15C82.9232 62.5713 82.8065 62.0673 82.5732 61.638C82.3399 61.2087 82.0225 60.882 81.6212 60.658C81.2292 60.4247 80.7952 60.308 80.3192 60.308C79.8432 60.308 79.4092 60.42 79.0172 60.644C78.6252 60.868 78.3125 61.1947 78.0792 61.624C77.8459 62.0533 77.7292 62.5573 77.7292 63.136C77.7292 63.724 77.8459 64.2373 78.0792 64.676C78.3125 65.1053 78.6252 65.4367 79.0172 65.67C79.4092 65.894 79.8432 66.006 80.3192 66.006C80.7952 66.006 81.2292 65.894 81.6212 65.67C82.0225 65.4367 82.3399 65.1053 82.5732 64.676C82.8065 64.2373 82.9232 63.7287 82.9232 63.15ZM87.6381 56.64V67H86.3641V56.64H87.6381ZM92.5254 67.126C91.9374 67.126 91.4101 67.028 90.9434 66.832C90.4768 66.6267 90.1081 66.3467 89.8374 65.992C89.5668 65.628 89.4174 65.2127 89.3894 64.746H90.7054C90.7428 65.1287 90.9201 65.4413 91.2374 65.684C91.5641 65.9267 91.9888 66.048 92.5114 66.048C92.9968 66.048 93.3794 65.9407 93.6594 65.726C93.9394 65.5113 94.0794 65.2407 94.0794 64.914C94.0794 64.578 93.9301 64.3307 93.6314 64.172C93.3328 64.004 92.8708 63.8407 92.2454 63.682C91.6761 63.5327 91.2094 63.3833 90.8454 63.234C90.4908 63.0753 90.1828 62.8467 89.9214 62.548C89.6694 62.24 89.5434 61.8387 89.5434 61.344C89.5434 60.952 89.6601 60.5927 89.8934 60.266C90.1268 59.9393 90.4581 59.6827 90.8874 59.496C91.3168 59.3 91.8068 59.202 92.3574 59.202C93.2068 59.202 93.8928 59.4167 94.4154 59.846C94.9381 60.2753 95.2181 60.8633 95.2554 61.61H93.9814C93.9534 61.2087 93.7901 60.8867 93.4914 60.644C93.2021 60.4013 92.8101 60.28 92.3154 60.28C91.8581 60.28 91.4941 60.378 91.2234 60.574C90.9528 60.77 90.8174 61.0267 90.8174 61.344C90.8174 61.596 90.8968 61.806 91.0554 61.974C91.2234 62.1327 91.4288 62.2633 91.6714 62.366C91.9234 62.4593 92.2688 62.5667 92.7074 62.688C93.2581 62.8373 93.7061 62.9867 94.0514 63.136C94.3968 63.276 94.6908 63.4907 94.9334 63.78C95.1854 64.0693 95.3161 64.4473 95.3254 64.914C95.3254 65.334 95.2088 65.712 94.9754 66.048C94.7421 66.384 94.4108 66.65 93.9814 66.846C93.5614 67.0327 93.0761 67.126 92.5254 67.126ZM100.47 67.126C99.7512 67.126 99.0979 66.9627 98.5099 66.636C97.9312 66.3093 97.4739 65.8473 97.1379 65.25C96.8112 64.6433 96.6479 63.9433 96.6479 63.15C96.6479 62.366 96.8159 61.6753 97.1519 61.078C97.4972 60.4713 97.9639 60.0093 98.5519 59.692C99.1399 59.3653 99.7979 59.202 100.526 59.202C101.254 59.202 101.912 59.3653 102.5 59.692C103.088 60.0093 103.55 60.4667 103.886 61.064C104.231 61.6613 104.404 62.3567 104.404 63.15C104.404 63.9433 104.227 64.6433 103.872 65.25C103.527 65.8473 103.055 66.3093 102.458 66.636C101.861 66.9627 101.198 67.126 100.47 67.126ZM100.47 66.006C100.927 66.006 101.357 65.8987 101.758 65.684C102.159 65.4693 102.481 65.1473 102.724 64.718C102.976 64.2887 103.102 63.766 103.102 63.15C103.102 62.534 102.981 62.0113 102.738 61.582C102.495 61.1527 102.178 60.8353 101.786 60.63C101.394 60.4153 100.969 60.308 100.512 60.308C100.045 60.308 99.6159 60.4153 99.2239 60.63C98.8412 60.8353 98.5332 61.1527 98.2999 61.582C98.0666 62.0113 97.9499 62.534 97.9499 63.15C97.9499 63.7753 98.0619 64.3027 98.2859 64.732C98.5192 65.1613 98.8272 65.4833 99.2099 65.698C99.5926 65.9033 100.013 66.006 100.47 66.006ZM109.335 63.15C109.335 62.3567 109.494 61.666 109.811 61.078C110.129 60.4807 110.567 60.0187 111.127 59.692C111.697 59.3653 112.345 59.202 113.073 59.202C114.016 59.202 114.791 59.4307 115.397 59.888C116.013 60.3453 116.419 60.98 116.615 61.792H115.243C115.113 61.3253 114.856 60.9567 114.473 60.686C114.1 60.4153 113.633 60.28 113.073 60.28C112.345 60.28 111.757 60.532 111.309 61.036C110.861 61.5307 110.637 62.2353 110.637 63.15C110.637 64.074 110.861 64.788 111.309 65.292C111.757 65.796 112.345 66.048 113.073 66.048C113.633 66.048 114.1 65.9173 114.473 65.656C114.847 65.3947 115.103 65.0213 115.243 64.536H116.615C116.41 65.32 115.999 65.95 115.383 66.426C114.767 66.8927 113.997 67.126 113.073 67.126C112.345 67.126 111.697 66.9627 111.127 66.636C110.567 66.3093 110.129 65.8473 109.811 65.25C109.494 64.6527 109.335 63.9527 109.335 63.15ZM125.119 59.328V67H123.845V65.866C123.603 66.258 123.262 66.566 122.823 66.79C122.394 67.0047 121.918 67.112 121.395 67.112C120.798 67.112 120.261 66.9907 119.785 66.748C119.309 66.496 118.931 66.1227 118.651 65.628C118.381 65.1333 118.245 64.5313 118.245 63.822V59.328H119.505V63.654C119.505 64.41 119.697 64.9933 120.079 65.404C120.462 65.8053 120.985 66.006 121.647 66.006C122.329 66.006 122.865 65.796 123.257 65.376C123.649 64.956 123.845 64.3447 123.845 63.542V59.328H125.119ZM128.544 60.574C128.768 60.1353 129.086 59.7947 129.496 59.552C129.916 59.3093 130.425 59.188 131.022 59.188V60.504H130.686C129.258 60.504 128.544 61.2787 128.544 62.828V67H127.27V59.328H128.544V60.574ZM133.767 60.574C133.991 60.1353 134.308 59.7947 134.719 59.552C135.139 59.3093 135.648 59.188 136.245 59.188V60.504H135.909C134.481 60.504 133.767 61.2787 133.767 62.828V67H132.493V59.328H133.767V60.574ZM144.716 62.87C144.716 63.1127 144.702 63.3693 144.674 63.64H138.542C138.588 64.396 138.845 64.9887 139.312 65.418C139.788 65.838 140.362 66.048 141.034 66.048C141.584 66.048 142.042 65.922 142.406 65.67C142.779 65.4087 143.04 65.0633 143.19 64.634H144.562C144.356 65.3713 143.946 65.9733 143.33 66.44C142.714 66.8973 141.948 67.126 141.034 67.126C140.306 67.126 139.652 66.9627 139.074 66.636C138.504 66.3093 138.056 65.8473 137.73 65.25C137.403 64.6433 137.24 63.9433 137.24 63.15C137.24 62.3567 137.398 61.6613 137.716 61.064C138.033 60.4667 138.476 60.0093 139.046 59.692C139.624 59.3653 140.287 59.202 141.034 59.202C141.762 59.202 142.406 59.3607 142.966 59.678C143.526 59.9953 143.955 60.434 144.254 60.994C144.562 61.5447 144.716 62.17 144.716 62.87ZM143.4 62.604C143.4 62.1187 143.292 61.7033 143.078 61.358C142.863 61.0033 142.569 60.7373 142.196 60.56C141.832 60.3733 141.426 60.28 140.978 60.28C140.334 60.28 139.783 60.4853 139.326 60.896C138.878 61.3067 138.621 61.876 138.556 62.604H143.4ZM150.135 59.188C151.069 59.188 151.825 59.4727 152.403 60.042C152.982 60.602 153.271 61.414 153.271 62.478V67H152.011V62.66C152.011 61.8947 151.82 61.3113 151.437 60.91C151.055 60.4993 150.532 60.294 149.869 60.294C149.197 60.294 148.661 60.504 148.259 60.924C147.867 61.344 147.671 61.9553 147.671 62.758V67H146.397V59.328H147.671V60.42C147.923 60.028 148.264 59.7247 148.693 59.51C149.132 59.2953 149.613 59.188 150.135 59.188ZM156.906 60.378V64.9C156.906 65.2733 156.986 65.5393 157.144 65.698C157.303 65.8473 157.578 65.922 157.97 65.922H158.908V67H157.76C157.051 67 156.519 66.8367 156.164 66.51C155.81 66.1833 155.632 65.6467 155.632 64.9V60.378H154.638V59.328H155.632V57.396H156.906V59.328H158.908V60.378H156.906ZM161.726 56.64V67H160.452V56.64H161.726ZM170.505 59.328L165.885 70.612H164.569L166.081 66.916L162.987 59.328H164.401L166.809 65.544L169.189 59.328H170.505ZM178.234 67.126C177.646 67.126 177.119 67.028 176.652 66.832C176.186 66.6267 175.817 66.3467 175.546 65.992C175.276 65.628 175.126 65.2127 175.098 64.746H176.414C176.452 65.1287 176.629 65.4413 176.946 65.684C177.273 65.9267 177.698 66.048 178.22 66.048C178.706 66.048 179.088 65.9407 179.368 65.726C179.648 65.5113 179.788 65.2407 179.788 64.914C179.788 64.578 179.639 64.3307 179.34 64.172C179.042 64.004 178.58 63.8407 177.954 63.682C177.385 63.5327 176.918 63.3833 176.554 63.234C176.2 63.0753 175.892 62.8467 175.63 62.548C175.378 62.24 175.252 61.8387 175.252 61.344C175.252 60.952 175.369 60.5927 175.602 60.266C175.836 59.9393 176.167 59.6827 176.596 59.496C177.026 59.3 177.516 59.202 178.066 59.202C178.916 59.202 179.602 59.4167 180.124 59.846C180.647 60.2753 180.927 60.8633 180.964 61.61H179.69C179.662 61.2087 179.499 60.8867 179.2 60.644C178.911 60.4013 178.519 60.28 178.024 60.28C177.567 60.28 177.203 60.378 176.932 60.574C176.662 60.77 176.526 61.0267 176.526 61.344C176.526 61.596 176.606 61.806 176.764 61.974C176.932 62.1327 177.138 62.2633 177.38 62.366C177.632 62.4593 177.978 62.5667 178.416 62.688C178.967 62.8373 179.415 62.9867 179.76 63.136C180.106 63.276 180.4 63.4907 180.642 63.78C180.894 64.0693 181.025 64.4473 181.034 64.914C181.034 65.334 180.918 65.712 180.684 66.048C180.451 66.384 180.12 66.65 179.69 66.846C179.27 67.0327 178.785 67.126 178.234 67.126ZM184.387 60.378V64.9C184.387 65.2733 184.466 65.5393 184.625 65.698C184.784 65.8473 185.059 65.922 185.451 65.922H186.389V67H185.241C184.532 67 184 66.8367 183.645 66.51C183.29 66.1833 183.113 65.6467 183.113 64.9V60.378H182.119V59.328H183.113V57.396H184.387V59.328H186.389V60.378H184.387ZM194.736 59.328V67H193.462V65.866C193.22 66.258 192.879 66.566 192.44 66.79C192.011 67.0047 191.535 67.112 191.012 67.112C190.415 67.112 189.878 66.9907 189.402 66.748C188.926 66.496 188.548 66.1227 188.268 65.628C187.998 65.1333 187.862 64.5313 187.862 63.822V59.328H189.122V63.654C189.122 64.41 189.314 64.9933 189.696 65.404C190.079 65.8053 190.602 66.006 191.264 66.006C191.946 66.006 192.482 65.796 192.874 65.376C193.266 64.956 193.462 64.3447 193.462 63.542V59.328H194.736ZM196.412 63.136C196.412 62.352 196.57 61.666 196.888 61.078C197.205 60.4807 197.639 60.0187 198.19 59.692C198.75 59.3653 199.375 59.202 200.066 59.202C200.663 59.202 201.218 59.342 201.732 59.622C202.245 59.8927 202.637 60.252 202.908 60.7V56.64H204.196V67H202.908V65.558C202.656 66.0153 202.282 66.3933 201.788 66.692C201.293 66.9813 200.714 67.126 200.052 67.126C199.37 67.126 198.75 66.958 198.19 66.622C197.639 66.286 197.205 65.8147 196.888 65.208C196.57 64.6013 196.412 63.9107 196.412 63.136ZM202.908 63.15C202.908 62.5713 202.791 62.0673 202.558 61.638C202.324 61.2087 202.007 60.882 201.606 60.658C201.214 60.4247 200.78 60.308 200.304 60.308C199.828 60.308 199.394 60.42 199.002 60.644C198.61 60.868 198.297 61.1947 198.064 61.624C197.83 62.0533 197.714 62.5573 197.714 63.136C197.714 63.724 197.83 64.2373 198.064 64.676C198.297 65.1053 198.61 65.4367 199.002 65.67C199.394 65.894 199.828 66.006 200.304 66.006C200.78 66.006 201.214 65.894 201.606 65.67C202.007 65.4367 202.324 65.1053 202.558 64.676C202.791 64.2373 202.908 63.7287 202.908 63.15ZM212.957 59.328L208.337 70.612H207.021L208.533 66.916L205.439 59.328H206.853L209.261 65.544L211.641 59.328H212.957ZM217.494 62.114C217.494 61.162 217.708 60.308 218.138 59.552C218.567 58.7867 219.15 58.1893 219.888 57.76C220.634 57.3307 221.46 57.116 222.366 57.116C223.43 57.116 224.358 57.3727 225.152 57.886C225.945 58.3993 226.524 59.1273 226.888 60.07H225.362C225.091 59.482 224.699 59.0293 224.186 58.712C223.682 58.3947 223.075 58.236 222.366 58.236C221.684 58.236 221.073 58.3947 220.532 58.712C219.99 59.0293 219.566 59.482 219.258 60.07C218.95 60.6487 218.796 61.33 218.796 62.114C218.796 62.8887 218.95 63.57 219.258 64.158C219.566 64.7367 219.99 65.1847 220.532 65.502C221.073 65.8193 221.684 65.978 222.366 65.978C223.075 65.978 223.682 65.824 224.186 65.516C224.699 65.1987 225.091 64.746 225.362 64.158H226.888C226.524 65.0913 225.945 65.8147 225.152 66.328C224.358 66.832 223.43 67.084 222.366 67.084C221.46 67.084 220.634 66.874 219.888 66.454C219.15 66.0247 218.567 65.432 218.138 64.676C217.708 63.92 217.494 63.066 217.494 62.114ZM231.878 67.098C231.234 67.098 230.655 66.986 230.142 66.762C229.638 66.5287 229.241 66.2113 228.952 65.81C228.663 65.3993 228.513 64.928 228.504 64.396H229.862C229.909 64.8533 230.095 65.2407 230.422 65.558C230.758 65.866 231.243 66.02 231.878 66.02C232.485 66.02 232.961 65.8707 233.306 65.572C233.661 65.264 233.838 64.872 233.838 64.396C233.838 64.0227 233.735 63.7193 233.53 63.486C233.325 63.2527 233.068 63.0753 232.76 62.954C232.452 62.8327 232.037 62.702 231.514 62.562C230.87 62.394 230.352 62.226 229.96 62.058C229.577 61.89 229.246 61.6287 228.966 61.274C228.695 60.91 228.56 60.4247 228.56 59.818C228.56 59.286 228.695 58.8147 228.966 58.404C229.237 57.9933 229.615 57.676 230.1 57.452C230.595 57.228 231.159 57.116 231.794 57.116C232.709 57.116 233.455 57.3447 234.034 57.802C234.622 58.2593 234.953 58.866 235.028 59.622H233.628C233.581 59.2487 233.385 58.922 233.04 58.642C232.695 58.3527 232.237 58.208 231.668 58.208C231.136 58.208 230.702 58.348 230.366 58.628C230.03 58.8987 229.862 59.2813 229.862 59.776C229.862 60.1307 229.96 60.42 230.156 60.644C230.361 60.868 230.609 61.0407 230.898 61.162C231.197 61.274 231.612 61.4047 232.144 61.554C232.788 61.7313 233.306 61.9087 233.698 62.086C234.09 62.254 234.426 62.52 234.706 62.884C234.986 63.2387 235.126 63.724 235.126 64.34C235.126 64.816 235 65.264 234.748 65.684C234.496 66.104 234.123 66.4447 233.628 66.706C233.133 66.9673 232.55 67.098 231.878 67.098ZM241.391 58.082C241.149 58.082 240.943 57.998 240.775 57.83C240.607 57.662 240.523 57.4567 240.523 57.214C240.523 56.9713 240.607 56.766 240.775 56.598C240.943 56.43 241.149 56.346 241.391 56.346C241.625 56.346 241.821 56.43 241.979 56.598C242.147 56.766 242.231 56.9713 242.231 57.214C242.231 57.4567 242.147 57.662 241.979 57.83C241.821 57.998 241.625 58.082 241.391 58.082ZM242.007 59.328V67H240.733V59.328H242.007ZM247.917 59.188C248.85 59.188 249.606 59.4727 250.185 60.042C250.763 60.602 251.053 61.414 251.053 62.478V67H249.793V62.66C249.793 61.8947 249.601 61.3113 249.219 60.91C248.836 60.4993 248.313 60.294 247.651 60.294C246.979 60.294 246.442 60.504 246.041 60.924C245.649 61.344 245.453 61.9553 245.453 62.758V67H244.179V59.328H245.453V60.42C245.705 60.028 246.045 59.7247 246.475 59.51C246.913 59.2953 247.394 59.188 247.917 59.188ZM263.67 59.328V67H262.396V65.866C262.153 66.258 261.813 66.566 261.374 66.79C260.945 67.0047 260.469 67.112 259.946 67.112C259.349 67.112 258.812 66.9907 258.336 66.748C257.86 66.496 257.482 66.1227 257.202 65.628C256.931 65.1333 256.796 64.5313 256.796 63.822V59.328H258.056V63.654C258.056 64.41 258.247 64.9933 258.63 65.404C259.013 65.8053 259.535 66.006 260.198 66.006C260.879 66.006 261.416 65.796 261.808 65.376C262.2 64.956 262.396 64.3447 262.396 63.542V59.328H263.67ZM269.559 59.188C270.492 59.188 271.248 59.4727 271.827 60.042C272.406 60.602 272.695 61.414 272.695 62.478V67H271.435V62.66C271.435 61.8947 271.244 61.3113 270.861 60.91C270.478 60.4993 269.956 60.294 269.293 60.294C268.621 60.294 268.084 60.504 267.683 60.924C267.291 61.344 267.095 61.9553 267.095 62.758V67H265.821V59.328H267.095V60.42C267.347 60.028 267.688 59.7247 268.117 59.51C268.556 59.2953 269.036 59.188 269.559 59.188ZM275.434 58.082C275.192 58.082 274.986 57.998 274.818 57.83C274.65 57.662 274.566 57.4567 274.566 57.214C274.566 56.9713 274.65 56.766 274.818 56.598C274.986 56.43 275.192 56.346 275.434 56.346C275.668 56.346 275.864 56.43 276.022 56.598C276.19 56.766 276.274 56.9713 276.274 57.214C276.274 57.4567 276.19 57.662 276.022 57.83C275.864 57.998 275.668 58.082 275.434 58.082ZM276.05 59.328V67H274.776V59.328H276.05ZM279.874 57.242L279.72 64.242H278.656L278.502 57.242H279.874ZM279.244 67.084C279.001 67.084 278.796 67 278.628 66.832C278.46 66.664 278.376 66.4587 278.376 66.216C278.376 65.9733 278.46 65.768 278.628 65.6C278.796 65.432 279.001 65.348 279.244 65.348C279.477 65.348 279.673 65.432 279.832 65.6C280 65.768 280.084 65.9733 280.084 66.216C280.084 66.4587 280 66.664 279.832 66.832C279.673 67 279.477 67.084 279.244 67.084Z" fill="#9E9E9E"/>
</svg>
