<svg width="143" height="16" viewBox="0 0 143 16" fill="none" xmlns="http://www.w3.org/2000/svg">
<path d="M0.234766 4.26C0.301432 2.92667 0.768099 1.9 1.63477 1.18C2.51477 0.446666 3.6681 0.079999 5.09477 0.079999C6.0681 0.079999 6.90143 0.253332 7.59477 0.599999C8.2881 0.933332 8.8081 1.39333 9.15477 1.98C9.51477 2.55333 9.69477 3.20667 9.69477 3.94C9.69477 4.78 9.47477 5.49333 9.03477 6.08C8.6081 6.65333 8.09477 7.04 7.49477 7.24V7.32C8.2681 7.56 8.8681 7.98667 9.29477 8.6C9.73477 9.21333 9.95477 10 9.95477 10.96C9.95477 11.76 9.7681 12.4733 9.39477 13.1C9.03477 13.7267 8.49477 14.22 7.77477 14.58C7.0681 14.9267 6.21477 15.1 5.21477 15.1C3.7081 15.1 2.48143 14.72 1.53477 13.96C0.588099 13.2 0.088099 12.08 0.0347657 10.6H2.75477C2.78143 11.2533 3.00143 11.78 3.41477 12.18C3.84143 12.5667 4.42143 12.76 5.15477 12.76C5.83477 12.76 6.35477 12.5733 6.71477 12.2C7.0881 11.8133 7.27477 11.32 7.27477 10.72C7.27477 9.92 7.02143 9.34667 6.51477 9C6.0081 8.65333 5.22143 8.48 4.15477 8.48H3.57477V6.18H4.15477C6.0481 6.18 6.99477 5.54667 6.99477 4.28C6.99477 3.70667 6.82143 3.26 6.47477 2.94C6.14143 2.62 5.65477 2.46 5.01477 2.46C4.3881 2.46 3.90143 2.63333 3.55477 2.98C3.22143 3.31333 3.0281 3.74 2.97477 4.26H0.234766ZM17.3674 1.04C18.8341 1.04 20.1208 1.32667 21.2274 1.9C22.3474 2.47333 23.2074 3.29333 23.8074 4.36C24.4208 5.41333 24.7274 6.64 24.7274 8.04C24.7274 9.44 24.4208 10.6667 23.8074 11.72C23.2074 12.76 22.3474 13.5667 21.2274 14.14C20.1208 14.7133 18.8341 15 17.3674 15H12.4874V1.04H17.3674ZM17.2674 12.62C18.7341 12.62 19.8674 12.22 20.6674 11.42C21.4674 10.62 21.8674 9.49333 21.8674 8.04C21.8674 6.58667 21.4674 5.45333 20.6674 4.64C19.8674 3.81333 18.7341 3.4 17.2674 3.4H15.2874V12.62H17.2674ZM46.809 1.04V15H44.009V5.92L40.269 15H38.149L34.389 5.92V15H31.589V1.04H34.769L39.209 11.42L43.649 1.04H46.809ZM56.0573 15.14C54.7506 15.14 53.5506 14.8333 52.4573 14.22C51.3639 13.6067 50.4973 12.76 49.8573 11.68C49.2173 10.5867 48.8973 9.35333 48.8973 7.98C48.8973 6.62 49.2173 5.4 49.8573 4.32C50.4973 3.22667 51.3639 2.37333 52.4573 1.76C53.5506 1.14667 54.7506 0.84 56.0573 0.84C57.3773 0.84 58.5773 1.14667 59.6573 1.76C60.7506 2.37333 61.6106 3.22667 62.2373 4.32C62.8773 5.4 63.1973 6.62 63.1973 7.98C63.1973 9.35333 62.8773 10.5867 62.2373 11.68C61.6106 12.76 60.7506 13.6067 59.6573 14.22C58.5639 14.8333 57.3639 15.14 56.0573 15.14ZM56.0573 12.64C56.8973 12.64 57.6373 12.4533 58.2773 12.08C58.9173 11.6933 59.4173 11.1467 59.7773 10.44C60.1373 9.73333 60.3173 8.91333 60.3173 7.98C60.3173 7.04667 60.1373 6.23333 59.7773 5.54C59.4173 4.83333 58.9173 4.29333 58.2773 3.92C57.6373 3.54667 56.8973 3.36 56.0573 3.36C55.2173 3.36 54.4706 3.54667 53.8173 3.92C53.1773 4.29333 52.6773 4.83333 52.3173 5.54C51.9573 6.23333 51.7773 7.04667 51.7773 7.98C51.7773 8.91333 51.9573 9.73333 52.3173 10.44C52.6773 11.1467 53.1773 11.6933 53.8173 12.08C54.4706 12.4533 55.2173 12.64 56.0573 12.64ZM70.1604 1.04C71.6271 1.04 72.9137 1.32667 74.0204 1.9C75.1404 2.47333 76.0004 3.29333 76.6004 4.36C77.2137 5.41333 77.5204 6.64 77.5204 8.04C77.5204 9.44 77.2137 10.6667 76.6004 11.72C76.0004 12.76 75.1404 13.5667 74.0204 14.14C72.9137 14.7133 71.6271 15 70.1604 15H65.2804V1.04H70.1604ZM70.0604 12.62C71.5271 12.62 72.6604 12.22 73.4604 11.42C74.2604 10.62 74.6604 9.49333 74.6604 8.04C74.6604 6.58667 74.2604 5.45333 73.4604 4.64C72.6604 3.81333 71.5271 3.4 70.0604 3.4H68.0804V12.62H70.0604ZM82.4163 3.3V6.8H87.1163V9.02H82.4163V12.72H87.7163V15H79.6163V1.02H87.7163V3.3H82.4163ZM93.0609 12.78H97.6609V15H90.2609V1.04H93.0609V12.78ZM102.241 12.78H106.841V15H99.4405V1.04H102.241V12.78ZM111.42 1.04V15H108.62V1.04H111.42ZM126.127 15H123.327L116.987 5.42V15H114.187V1.02H116.987L123.327 10.62V1.02H126.127V15ZM138.614 5.24C138.294 4.65333 137.854 4.20667 137.294 3.9C136.734 3.59333 136.08 3.44 135.334 3.44C134.507 3.44 133.774 3.62667 133.134 4C132.494 4.37333 131.994 4.90667 131.634 5.6C131.274 6.29333 131.094 7.09333 131.094 8C131.094 8.93333 131.274 9.74667 131.634 10.44C132.007 11.1333 132.52 11.6667 133.174 12.04C133.827 12.4133 134.587 12.6 135.454 12.6C136.52 12.6 137.394 12.32 138.074 11.76C138.754 11.1867 139.2 10.3933 139.414 9.38H134.614V7.24H142.174V9.68C141.987 10.6533 141.587 11.5533 140.974 12.38C140.36 13.2067 139.567 13.8733 138.594 14.38C137.634 14.8733 136.554 15.12 135.354 15.12C134.007 15.12 132.787 14.82 131.694 14.22C130.614 13.6067 129.76 12.76 129.134 11.68C128.52 10.6 128.214 9.37333 128.214 8C128.214 6.62667 128.52 5.4 129.134 4.32C129.76 3.22667 130.614 2.38 131.694 1.78C132.787 1.16667 134 0.86 135.334 0.86C136.907 0.86 138.274 1.24667 139.434 2.02C140.594 2.78 141.394 3.85333 141.834 5.24H138.614Z" fill="white"/>
</svg>
