<svg width="141" height="16" viewBox="0 0 141 16" fill="none" xmlns="http://www.w3.org/2000/svg">
<path d="M10.7612 5.36C10.7612 6.10667 10.5812 6.80667 10.2212 7.46C9.87451 8.11333 9.32117 8.64 8.56117 9.04C7.81451 9.44 6.86784 9.64 5.72117 9.64H3.38117V15H0.581172V1.04H5.72117C6.80117 1.04 7.72117 1.22667 8.48117 1.6C9.24117 1.97333 9.80784 2.48667 10.1812 3.14C10.5678 3.79333 10.7612 4.53333 10.7612 5.36ZM5.60117 7.38C6.37451 7.38 6.94784 7.20667 7.32117 6.86C7.69451 6.5 7.88117 6 7.88117 5.36C7.88117 4 7.12117 3.32 5.60117 3.32H3.38117V7.38H5.60117ZM19.9491 15L16.8691 9.56H15.5491V15H12.7491V1.04H17.9891C19.0691 1.04 19.9891 1.23333 20.7491 1.62C21.5091 1.99333 22.0758 2.50667 22.4491 3.16C22.8358 3.8 23.0291 4.52 23.0291 5.32C23.0291 6.24 22.7625 7.07333 22.2291 7.82C21.6958 8.55333 20.9025 9.06 19.8491 9.34L23.1891 15H19.9491ZM15.5491 7.46H17.8891C18.6491 7.46 19.2158 7.28 19.5891 6.92C19.9625 6.54667 20.1491 6.03333 20.1491 5.38C20.1491 4.74 19.9625 4.24667 19.5891 3.9C19.2158 3.54 18.6491 3.36 17.8891 3.36H15.5491V7.46ZM32.0416 15.14C30.735 15.14 29.535 14.8333 28.4416 14.22C27.3483 13.6067 26.4816 12.76 25.8416 11.68C25.2016 10.5867 24.8816 9.35333 24.8816 7.98C24.8816 6.62 25.2016 5.4 25.8416 4.32C26.4816 3.22667 27.3483 2.37333 28.4416 1.76C29.535 1.14667 30.735 0.84 32.0416 0.84C33.3616 0.84 34.5616 1.14667 35.6416 1.76C36.735 2.37333 37.595 3.22667 38.2216 4.32C38.8616 5.4 39.1816 6.62 39.1816 7.98C39.1816 9.35333 38.8616 10.5867 38.2216 11.68C37.595 12.76 36.735 13.6067 35.6416 14.22C34.5483 14.8333 33.3483 15.14 32.0416 15.14ZM32.0416 12.64C32.8816 12.64 33.6216 12.4533 34.2616 12.08C34.9016 11.6933 35.4016 11.1467 35.7616 10.44C36.1216 9.73333 36.3016 8.91333 36.3016 7.98C36.3016 7.04667 36.1216 6.23333 35.7616 5.54C35.4016 4.83333 34.9016 4.29333 34.2616 3.92C33.6216 3.54667 32.8816 3.36 32.0416 3.36C31.2016 3.36 30.455 3.54667 29.8016 3.92C29.1616 4.29333 28.6616 4.83333 28.3016 5.54C27.9416 6.23333 27.7616 7.04667 27.7616 7.98C27.7616 8.91333 27.9416 9.73333 28.3016 10.44C28.6616 11.1467 29.1616 11.6933 29.8016 12.08C30.455 12.4533 31.2016 12.64 32.0416 12.64ZM50.9848 5.24C50.6648 4.65333 50.2248 4.20667 49.6648 3.9C49.1048 3.59333 48.4514 3.44 47.7048 3.44C46.8781 3.44 46.1448 3.62667 45.5048 4C44.8648 4.37333 44.3648 4.90667 44.0048 5.6C43.6448 6.29333 43.4648 7.09333 43.4648 8C43.4648 8.93333 43.6448 9.74667 44.0048 10.44C44.3781 11.1333 44.8914 11.6667 45.5448 12.04C46.1981 12.4133 46.9581 12.6 47.8248 12.6C48.8914 12.6 49.7648 12.32 50.4448 11.76C51.1248 11.1867 51.5714 10.3933 51.7848 9.38H46.9848V7.24H54.5448V9.68C54.3581 10.6533 53.9581 11.5533 53.3448 12.38C52.7314 13.2067 51.9381 13.8733 50.9648 14.38C50.0048 14.8733 48.9248 15.12 47.7248 15.12C46.3781 15.12 45.1581 14.82 44.0648 14.22C42.9848 13.6067 42.1314 12.76 41.5048 11.68C40.8914 10.6 40.5848 9.37333 40.5848 8C40.5848 6.62667 40.8914 5.4 41.5048 4.32C42.1314 3.22667 42.9848 2.38 44.0648 1.78C45.1581 1.16667 46.3714 0.86 47.7048 0.86C49.2781 0.86 50.6448 1.24667 51.8048 2.02C52.9648 2.78 53.7648 3.85333 54.2048 5.24H50.9848ZM63.8163 15L60.7363 9.56H59.4163V15H56.6163V1.04H61.8563C62.9363 1.04 63.8563 1.23333 64.6163 1.62C65.3763 1.99333 65.943 2.50667 66.3163 3.16C66.703 3.8 66.8963 4.52 66.8963 5.32C66.8963 6.24 66.6297 7.07333 66.0963 7.82C65.563 8.55333 64.7697 9.06 63.7163 9.34L67.0563 15H63.8163ZM59.4163 7.46H61.7563C62.5163 7.46 63.083 7.28 63.4563 6.92C63.8297 6.54667 64.0163 6.03333 64.0163 5.38C64.0163 4.74 63.8297 4.24667 63.4563 3.9C63.083 3.54 62.5163 3.36 61.7563 3.36H59.4163V7.46ZM77.9888 12.34H72.4288L71.5088 15H68.5688L73.5888 1.02H76.8488L81.8688 15H78.9088L77.9888 12.34ZM77.2288 10.1L75.2088 4.26L73.1888 10.1H77.2288ZM98.9652 1.04V15H96.1652V5.92L92.4252 15H90.3052L86.5452 5.92V15H83.7452V1.04H86.9252L91.3652 11.42L95.8052 1.04H98.9652ZM116.954 1.04V15H114.154V5.92L110.414 15H108.294L104.534 5.92V15H101.734V1.04H104.914L109.354 11.42L113.794 1.04H116.954ZM122.522 3.3V6.8H127.222V9.02H122.522V12.72H127.822V15H119.722V1.02H127.822V3.3H122.522ZM137.566 15L134.486 9.56H133.166V15H130.366V1.04H135.606C136.686 1.04 137.606 1.23333 138.366 1.62C139.126 1.99333 139.693 2.50667 140.066 3.16C140.453 3.8 140.646 4.52 140.646 5.32C140.646 6.24 140.38 7.07333 139.846 7.82C139.313 8.55333 138.52 9.06 137.466 9.34L140.806 15H137.566ZM133.166 7.46H135.506C136.266 7.46 136.833 7.28 137.206 6.92C137.58 6.54667 137.766 6.03333 137.766 5.38C137.766 4.74 137.58 4.24667 137.206 3.9C136.833 3.54 136.266 3.36 135.506 3.36H133.166V7.46Z" fill="white"/>
</svg>
