<svg width="515" height="45" viewBox="0 0 515 45" fill="none" xmlns="http://www.w3.org/2000/svg">
<path d="M2.56502 1.454V14H0.927016V1.454H2.56502ZM15.0515 3.956C15.7955 3.956 16.4675 4.118 17.0675 4.442C17.6675 4.754 18.1355 5.228 18.4715 5.864C18.8195 6.5 18.9935 7.274 18.9935 8.186V14H17.3735V8.42C17.3735 7.436 17.1275 6.686 16.6355 6.17C16.1435 5.642 15.4715 5.378 14.6195 5.378C13.7555 5.378 13.0655 5.648 12.5495 6.188C12.0455 6.728 11.7935 7.514 11.7935 8.546V14H10.1555V0.68H11.7935V5.54C12.1175 5.036 12.5615 4.646 13.1255 4.37C13.7015 4.094 14.3435 3.956 15.0515 3.956ZM21.0572 9.032C21.0572 8.024 21.2612 7.142 21.6692 6.386C22.0772 5.618 22.6352 5.024 23.3432 4.604C24.0632 4.184 24.8612 3.974 25.7372 3.974C26.6012 3.974 27.3512 4.16 27.9872 4.532C28.6232 4.904 29.0972 5.372 29.4092 5.936V4.136H31.0652V14H29.4092V12.164C29.0852 12.74 28.5992 13.22 27.9512 13.604C27.3152 13.976 26.5712 14.162 25.7192 14.162C24.8432 14.162 24.0512 13.946 23.3432 13.514C22.6352 13.082 22.0772 12.476 21.6692 11.696C21.2612 10.916 21.0572 10.028 21.0572 9.032ZM29.4092 9.05C29.4092 8.306 29.2592 7.658 28.9592 7.106C28.6592 6.554 28.2512 6.134 27.7352 5.846C27.2312 5.546 26.6732 5.396 26.0612 5.396C25.4492 5.396 24.8912 5.54 24.3872 5.828C23.8832 6.116 23.4812 6.536 23.1812 7.088C22.8812 7.64 22.7312 8.288 22.7312 9.032C22.7312 9.788 22.8812 10.448 23.1812 11.012C23.4812 11.564 23.8832 11.99 24.3872 12.29C24.8912 12.578 25.4492 12.722 26.0612 12.722C26.6732 12.722 27.2312 12.578 27.7352 12.29C28.2512 11.99 28.6592 11.564 28.9592 11.012C29.2592 10.448 29.4092 9.794 29.4092 9.05ZM37.5053 12.488L40.5653 4.136H42.3113L38.4413 14H36.5333L32.6633 4.136H34.4273L37.5053 12.488ZM52.9231 8.69C52.9231 9.002 52.9051 9.332 52.8691 9.68H44.9851C45.0451 10.652 45.3751 11.414 45.9751 11.966C46.5871 12.506 47.3251 12.776 48.1891 12.776C48.8971 12.776 49.4851 12.614 49.9531 12.29C50.4331 11.954 50.7691 11.51 50.9611 10.958H52.7251C52.4611 11.906 51.9331 12.68 51.1411 13.28C50.3491 13.868 49.3651 14.162 48.1891 14.162C47.2531 14.162 46.4131 13.952 45.6691 13.532C44.9371 13.112 44.3611 12.518 43.9411 11.75C43.5211 10.97 43.3111 10.07 43.3111 9.05C43.3111 8.03 43.5151 7.136 43.9231 6.368C44.3311 5.6 44.9011 5.012 45.6331 4.604C46.3771 4.184 47.2291 3.974 48.1891 3.974C49.1251 3.974 49.9531 4.178 50.6731 4.586C51.3931 4.994 51.9451 5.558 52.3291 6.278C52.7251 6.986 52.9231 7.79 52.9231 8.69ZM51.2311 8.348C51.2311 7.724 51.0931 7.19 50.8171 6.746C50.5411 6.29 50.1631 5.948 49.6831 5.72C49.2151 5.48 48.6931 5.36 48.1171 5.36C47.2891 5.36 46.5811 5.624 45.9931 6.152C45.4171 6.68 45.0871 7.412 45.0031 8.348H51.2311ZM63.952 3.974C64.804 3.974 65.548 4.16 66.184 4.532C66.832 4.904 67.312 5.372 67.624 5.936V4.136H69.28V14.216C69.28 15.116 69.088 15.914 68.704 16.61C68.32 17.318 67.768 17.87 67.048 18.266C66.34 18.662 65.512 18.86 64.564 18.86C63.268 18.86 62.188 18.554 61.324 17.942C60.46 17.33 59.95 16.496 59.794 15.44H61.414C61.594 16.04 61.966 16.52 62.53 16.88C63.094 17.252 63.772 17.438 64.564 17.438C65.464 17.438 66.196 17.156 66.76 16.592C67.336 16.028 67.624 15.236 67.624 14.216V12.146C67.3 12.722 66.82 13.202 66.184 13.586C65.548 13.97 64.804 14.162 63.952 14.162C63.076 14.162 62.278 13.946 61.558 13.514C60.85 13.082 60.292 12.476 59.884 11.696C59.476 10.916 59.272 10.028 59.272 9.032C59.272 8.024 59.476 7.142 59.884 6.386C60.292 5.618 60.85 5.024 61.558 4.604C62.278 4.184 63.076 3.974 63.952 3.974ZM67.624 9.05C67.624 8.306 67.474 7.658 67.174 7.106C66.874 6.554 66.466 6.134 65.95 5.846C65.446 5.546 64.888 5.396 64.276 5.396C63.664 5.396 63.106 5.54 62.602 5.828C62.098 6.116 61.696 6.536 61.396 7.088C61.096 7.64 60.946 8.288 60.946 9.032C60.946 9.788 61.096 10.448 61.396 11.012C61.696 11.564 62.098 11.99 62.602 12.29C63.106 12.578 63.664 12.722 64.276 12.722C64.888 12.722 65.446 12.578 65.95 12.29C66.466 11.99 66.874 11.564 67.174 11.012C67.474 10.448 67.624 9.794 67.624 9.05ZM71.4361 9.032C71.4361 8.024 71.6401 7.142 72.0481 6.386C72.4561 5.618 73.0141 5.024 73.7221 4.604C74.4421 4.184 75.2401 3.974 76.1161 3.974C76.9801 3.974 77.7301 4.16 78.3661 4.532C79.0021 4.904 79.4761 5.372 79.7881 5.936V4.136H81.4441V14H79.7881V12.164C79.4641 12.74 78.9781 13.22 78.3301 13.604C77.6941 13.976 76.9501 14.162 76.0981 14.162C75.2221 14.162 74.4301 13.946 73.7221 13.514C73.0141 13.082 72.4561 12.476 72.0481 11.696C71.6401 10.916 71.4361 10.028 71.4361 9.032ZM79.7881 9.05C79.7881 8.306 79.6381 7.658 79.3381 7.106C79.0381 6.554 78.6301 6.134 78.1141 5.846C77.6101 5.546 77.0521 5.396 76.4401 5.396C75.8281 5.396 75.2701 5.54 74.7661 5.828C74.2621 6.116 73.8601 6.536 73.5601 7.088C73.2601 7.64 73.1101 8.288 73.1101 9.032C73.1101 9.788 73.2601 10.448 73.5601 11.012C73.8601 11.564 74.2621 11.99 74.7661 12.29C75.2701 12.578 75.8281 12.722 76.4401 12.722C77.0521 12.722 77.6101 12.578 78.1141 12.29C78.6301 11.99 79.0381 11.564 79.3381 11.012C79.6381 10.448 79.7881 9.794 79.7881 9.05ZM85.0582 2.534C84.7462 2.534 84.4822 2.426 84.2662 2.21C84.0502 1.994 83.9422 1.73 83.9422 1.418C83.9422 1.106 84.0502 0.842 84.2662 0.625999C84.4822 0.409999 84.7462 0.301999 85.0582 0.301999C85.3582 0.301999 85.6102 0.409999 85.8142 0.625999C86.0302 0.842 86.1382 1.106 86.1382 1.418C86.1382 1.73 86.0302 1.994 85.8142 2.21C85.6102 2.426 85.3582 2.534 85.0582 2.534ZM85.8502 4.136V14H84.2122V4.136H85.8502ZM93.4479 3.956C94.6479 3.956 95.6199 4.322 96.3639 5.054C97.1079 5.774 97.4799 6.818 97.4799 8.186V14H95.8599V8.42C95.8599 7.436 95.6139 6.686 95.1219 6.17C94.6299 5.642 93.9579 5.378 93.1059 5.378C92.2419 5.378 91.5519 5.648 91.0359 6.188C90.5319 6.728 90.2799 7.514 90.2799 8.546V14H88.6419V4.136H90.2799V5.54C90.6039 5.036 91.0419 4.646 91.5939 4.37C92.1579 4.094 92.7759 3.956 93.4479 3.956ZM109.156 8.69C109.156 9.002 109.138 9.332 109.102 9.68H101.218C101.278 10.652 101.608 11.414 102.208 11.966C102.82 12.506 103.558 12.776 104.422 12.776C105.13 12.776 105.718 12.614 106.186 12.29C106.666 11.954 107.002 11.51 107.194 10.958H108.958C108.694 11.906 108.166 12.68 107.374 13.28C106.582 13.868 105.598 14.162 104.422 14.162C103.486 14.162 102.646 13.952 101.902 13.532C101.17 13.112 100.594 12.518 100.174 11.75C99.7535 10.97 99.5435 10.07 99.5435 9.05C99.5435 8.03 99.7475 7.136 100.156 6.368C100.564 5.6 101.134 5.012 101.866 4.604C102.61 4.184 103.462 3.974 104.422 3.974C105.358 3.974 106.186 4.178 106.906 4.586C107.626 4.994 108.178 5.558 108.562 6.278C108.958 6.986 109.156 7.79 109.156 8.69ZM107.464 8.348C107.464 7.724 107.326 7.19 107.05 6.746C106.774 6.29 106.396 5.948 105.916 5.72C105.448 5.48 104.926 5.36 104.35 5.36C103.522 5.36 102.814 5.624 102.226 6.152C101.65 6.68 101.32 7.412 101.236 8.348H107.464ZM110.706 9.032C110.706 8.024 110.91 7.142 111.318 6.386C111.726 5.618 112.284 5.024 112.992 4.604C113.712 4.184 114.516 3.974 115.404 3.974C116.172 3.974 116.886 4.154 117.546 4.514C118.206 4.862 118.71 5.324 119.058 5.9V0.68H120.714V14H119.058V12.146C118.734 12.734 118.254 13.22 117.618 13.604C116.982 13.976 116.238 14.162 115.386 14.162C114.51 14.162 113.712 13.946 112.992 13.514C112.284 13.082 111.726 12.476 111.318 11.696C110.91 10.916 110.706 10.028 110.706 9.032ZM119.058 9.05C119.058 8.306 118.908 7.658 118.608 7.106C118.308 6.554 117.9 6.134 117.384 5.846C116.88 5.546 116.322 5.396 115.71 5.396C115.098 5.396 114.54 5.54 114.036 5.828C113.532 6.116 113.13 6.536 112.83 7.088C112.53 7.64 112.38 8.288 112.38 9.032C112.38 9.788 112.53 10.448 112.83 11.012C113.13 11.564 113.532 11.99 114.036 12.29C114.54 12.578 115.098 12.722 115.71 12.722C116.322 12.722 116.88 12.578 117.384 12.29C117.9 11.99 118.308 11.564 118.608 11.012C118.908 10.448 119.058 9.794 119.058 9.05ZM127.669 9.032C127.669 8.024 127.873 7.142 128.281 6.386C128.689 5.618 129.247 5.024 129.955 4.604C130.675 4.184 131.473 3.974 132.349 3.974C133.213 3.974 133.963 4.16 134.599 4.532C135.235 4.904 135.709 5.372 136.021 5.936V4.136H137.677V14H136.021V12.164C135.697 12.74 135.211 13.22 134.563 13.604C133.927 13.976 133.183 14.162 132.331 14.162C131.455 14.162 130.663 13.946 129.955 13.514C129.247 13.082 128.689 12.476 128.281 11.696C127.873 10.916 127.669 10.028 127.669 9.032ZM136.021 9.05C136.021 8.306 135.871 7.658 135.571 7.106C135.271 6.554 134.863 6.134 134.347 5.846C133.843 5.546 133.285 5.396 132.673 5.396C132.061 5.396 131.503 5.54 130.999 5.828C130.495 6.116 130.093 6.536 129.793 7.088C129.493 7.64 129.343 8.288 129.343 9.032C129.343 9.788 129.493 10.448 129.793 11.012C130.093 11.564 130.495 11.99 130.999 12.29C131.503 12.578 132.061 12.722 132.673 12.722C133.285 12.722 133.843 12.578 134.347 12.29C134.863 11.99 135.271 11.564 135.571 11.012C135.871 10.448 136.021 9.794 136.021 9.05ZM142.083 0.68V14H140.445V0.68H142.083ZM149.176 14.162C148.252 14.162 147.412 13.952 146.656 13.532C145.912 13.112 145.324 12.518 144.892 11.75C144.472 10.97 144.262 10.07 144.262 9.05C144.262 8.042 144.478 7.154 144.91 6.386C145.354 5.606 145.954 5.012 146.71 4.604C147.466 4.184 148.312 3.974 149.248 3.974C150.184 3.974 151.03 4.184 151.786 4.604C152.542 5.012 153.136 5.6 153.568 6.368C154.012 7.136 154.234 8.03 154.234 9.05C154.234 10.07 154.006 10.97 153.55 11.75C153.106 12.518 152.5 13.112 151.732 13.532C150.964 13.952 150.112 14.162 149.176 14.162ZM149.176 12.722C149.764 12.722 150.316 12.584 150.832 12.308C151.348 12.032 151.762 11.618 152.074 11.066C152.398 10.514 152.56 9.842 152.56 9.05C152.56 8.258 152.404 7.586 152.092 7.034C151.78 6.482 151.372 6.074 150.868 5.81C150.364 5.534 149.818 5.396 149.23 5.396C148.63 5.396 148.078 5.534 147.574 5.81C147.082 6.074 146.686 6.482 146.386 7.034C146.086 7.586 145.936 8.258 145.936 9.05C145.936 9.854 146.08 10.532 146.368 11.084C146.668 11.636 147.064 12.05 147.556 12.326C148.048 12.59 148.588 12.722 149.176 12.722ZM158.386 5.486V11.3C158.386 11.78 158.488 12.122 158.692 12.326C158.896 12.518 159.25 12.614 159.754 12.614H160.96V14H159.484C158.572 14 157.888 13.79 157.432 13.37C156.976 12.95 156.748 12.26 156.748 11.3V5.486H155.47V4.136H156.748V1.652H158.386V4.136H160.96V5.486H158.386ZM172.045 14.162C171.121 14.162 170.281 13.952 169.525 13.532C168.781 13.112 168.193 12.518 167.761 11.75C167.341 10.97 167.131 10.07 167.131 9.05C167.131 8.042 167.347 7.154 167.779 6.386C168.223 5.606 168.823 5.012 169.579 4.604C170.335 4.184 171.181 3.974 172.117 3.974C173.053 3.974 173.899 4.184 174.655 4.604C175.411 5.012 176.005 5.6 176.437 6.368C176.881 7.136 177.103 8.03 177.103 9.05C177.103 10.07 176.875 10.97 176.419 11.75C175.975 12.518 175.369 13.112 174.601 13.532C173.833 13.952 172.981 14.162 172.045 14.162ZM172.045 12.722C172.633 12.722 173.185 12.584 173.701 12.308C174.217 12.032 174.631 11.618 174.943 11.066C175.267 10.514 175.429 9.842 175.429 9.05C175.429 8.258 175.273 7.586 174.961 7.034C174.649 6.482 174.241 6.074 173.737 5.81C173.233 5.534 172.687 5.396 172.099 5.396C171.499 5.396 170.947 5.534 170.443 5.81C169.951 6.074 169.555 6.482 169.255 7.034C168.955 7.586 168.805 8.258 168.805 9.05C168.805 9.854 168.949 10.532 169.237 11.084C169.537 11.636 169.933 12.05 170.425 12.326C170.917 12.59 171.457 12.722 172.045 12.722ZM183.271 5.486H181.201V14H179.563V5.486H178.285V4.136H179.563V3.434C179.563 2.33 179.845 1.526 180.409 1.022C180.985 0.505999 181.903 0.247999 183.163 0.247999V1.616C182.443 1.616 181.933 1.76 181.633 2.048C181.345 2.324 181.201 2.786 181.201 3.434V4.136H183.271V5.486ZM189.368 9.032C189.368 8.024 189.572 7.142 189.98 6.386C190.388 5.618 190.946 5.024 191.654 4.604C192.374 4.184 193.178 3.974 194.066 3.974C194.834 3.974 195.548 4.154 196.208 4.514C196.868 4.862 197.372 5.324 197.72 5.9V0.68H199.376V14H197.72V12.146C197.396 12.734 196.916 13.22 196.28 13.604C195.644 13.976 194.9 14.162 194.048 14.162C193.172 14.162 192.374 13.946 191.654 13.514C190.946 13.082 190.388 12.476 189.98 11.696C189.572 10.916 189.368 10.028 189.368 9.032ZM197.72 9.05C197.72 8.306 197.57 7.658 197.27 7.106C196.97 6.554 196.562 6.134 196.046 5.846C195.542 5.546 194.984 5.396 194.372 5.396C193.76 5.396 193.202 5.54 192.698 5.828C192.194 6.116 191.792 6.536 191.492 7.088C191.192 7.64 191.042 8.288 191.042 9.032C191.042 9.788 191.192 10.448 191.492 11.012C191.792 11.564 192.194 11.99 192.698 12.29C193.202 12.578 193.76 12.722 194.372 12.722C194.984 12.722 195.542 12.578 196.046 12.29C196.562 11.99 196.97 11.564 197.27 11.012C197.57 10.448 197.72 9.794 197.72 9.05ZM202.99 2.534C202.678 2.534 202.414 2.426 202.198 2.21C201.982 1.994 201.874 1.73 201.874 1.418C201.874 1.106 201.982 0.842 202.198 0.625999C202.414 0.409999 202.678 0.301999 202.99 0.301999C203.29 0.301999 203.542 0.409999 203.746 0.625999C203.962 0.842 204.07 1.106 204.07 1.418C204.07 1.73 203.962 1.994 203.746 2.21C203.542 2.426 203.29 2.534 202.99 2.534ZM203.782 4.136V14H202.144V4.136H203.782ZM210.588 5.486H208.518V14H206.88V5.486H205.602V4.136H206.88V3.434C206.88 2.33 207.162 1.526 207.726 1.022C208.302 0.505999 209.22 0.247999 210.479 0.247999V1.616C209.76 1.616 209.25 1.76 208.95 2.048C208.662 2.324 208.518 2.786 208.518 3.434V4.136H210.588V5.486ZM216.511 5.486H214.441V14H212.803V5.486H211.525V4.136H212.803V3.434C212.803 2.33 213.085 1.526 213.649 1.022C214.225 0.505999 215.143 0.247999 216.403 0.247999V1.616C215.683 1.616 215.173 1.76 214.873 2.048C214.585 2.324 214.441 2.786 214.441 3.434V4.136H216.511V5.486ZM227.421 8.69C227.421 9.002 227.403 9.332 227.367 9.68H219.483C219.543 10.652 219.873 11.414 220.473 11.966C221.085 12.506 221.823 12.776 222.687 12.776C223.395 12.776 223.983 12.614 224.451 12.29C224.931 11.954 225.267 11.51 225.459 10.958H227.223C226.959 11.906 226.431 12.68 225.639 13.28C224.847 13.868 223.863 14.162 222.687 14.162C221.751 14.162 220.911 13.952 220.167 13.532C219.435 13.112 218.859 12.518 218.439 11.75C218.019 10.97 217.809 10.07 217.809 9.05C217.809 8.03 218.013 7.136 218.421 6.368C218.829 5.6 219.399 5.012 220.131 4.604C220.875 4.184 221.727 3.974 222.687 3.974C223.623 3.974 224.451 4.178 225.171 4.586C225.891 4.994 226.443 5.558 226.827 6.278C227.223 6.986 227.421 7.79 227.421 8.69ZM225.729 8.348C225.729 7.724 225.591 7.19 225.315 6.746C225.039 6.29 224.661 5.948 224.181 5.72C223.713 5.48 223.191 5.36 222.615 5.36C221.787 5.36 221.079 5.624 220.491 6.152C219.915 6.68 219.585 7.412 219.501 8.348H225.729ZM231.221 5.738C231.509 5.174 231.917 4.736 232.445 4.424C232.985 4.112 233.639 3.956 234.407 3.956V5.648H233.975C232.139 5.648 231.221 6.644 231.221 8.636V14H229.583V4.136H231.221V5.738ZM245.298 8.69C245.298 9.002 245.28 9.332 245.244 9.68H237.36C237.42 10.652 237.75 11.414 238.35 11.966C238.962 12.506 239.7 12.776 240.564 12.776C241.272 12.776 241.86 12.614 242.328 12.29C242.808 11.954 243.144 11.51 243.336 10.958H245.1C244.836 11.906 244.308 12.68 243.516 13.28C242.724 13.868 241.74 14.162 240.564 14.162C239.628 14.162 238.788 13.952 238.044 13.532C237.312 13.112 236.736 12.518 236.316 11.75C235.896 10.97 235.686 10.07 235.686 9.05C235.686 8.03 235.89 7.136 236.298 6.368C236.706 5.6 237.276 5.012 238.008 4.604C238.752 4.184 239.604 3.974 240.564 3.974C241.5 3.974 242.328 4.178 243.048 4.586C243.768 4.994 244.32 5.558 244.704 6.278C245.1 6.986 245.298 7.79 245.298 8.69ZM243.606 8.348C243.606 7.724 243.468 7.19 243.192 6.746C242.916 6.29 242.538 5.948 242.058 5.72C241.59 5.48 241.068 5.36 240.492 5.36C239.664 5.36 238.956 5.624 238.368 6.152C237.792 6.68 237.462 7.412 237.378 8.348H243.606ZM252.266 3.956C253.466 3.956 254.438 4.322 255.182 5.054C255.926 5.774 256.298 6.818 256.298 8.186V14H254.678V8.42C254.678 7.436 254.432 6.686 253.94 6.17C253.448 5.642 252.776 5.378 251.924 5.378C251.06 5.378 250.37 5.648 249.854 6.188C249.35 6.728 249.098 7.514 249.098 8.546V14H247.46V4.136H249.098V5.54C249.422 5.036 249.86 4.646 250.412 4.37C250.976 4.094 251.594 3.956 252.266 3.956ZM260.972 5.486V11.3C260.972 11.78 261.074 12.122 261.278 12.326C261.482 12.518 261.836 12.614 262.34 12.614H263.546V14H262.07C261.158 14 260.474 13.79 260.018 13.37C259.562 12.95 259.334 12.26 259.334 11.3V5.486H258.056V4.136H259.334V1.652H260.972V4.136H263.546V5.486H260.972ZM273.821 14.162C273.065 14.162 272.387 14.036 271.787 13.784C271.187 13.52 270.713 13.16 270.365 12.704C270.017 12.236 269.825 11.702 269.789 11.102H271.481C271.529 11.594 271.757 11.996 272.165 12.308C272.585 12.62 273.131 12.776 273.803 12.776C274.427 12.776 274.919 12.638 275.279 12.362C275.639 12.086 275.819 11.738 275.819 11.318C275.819 10.886 275.627 10.568 275.243 10.364C274.859 10.148 274.265 9.938 273.461 9.734C272.729 9.542 272.129 9.35 271.661 9.158C271.205 8.954 270.809 8.66 270.473 8.276C270.149 7.88 269.987 7.364 269.987 6.728C269.987 6.224 270.137 5.762 270.437 5.342C270.737 4.922 271.163 4.592 271.715 4.352C272.267 4.1 272.897 3.974 273.605 3.974C274.697 3.974 275.579 4.25 276.251 4.802C276.923 5.354 277.283 6.11 277.331 7.07H275.693C275.657 6.554 275.447 6.14 275.063 5.828C274.691 5.516 274.187 5.36 273.551 5.36C272.963 5.36 272.495 5.486 272.147 5.738C271.799 5.99 271.625 6.32 271.625 6.728C271.625 7.052 271.727 7.322 271.931 7.538C272.147 7.742 272.411 7.91 272.723 8.042C273.047 8.162 273.491 8.3 274.055 8.456C274.763 8.648 275.339 8.84 275.783 9.032C276.227 9.212 276.605 9.488 276.917 9.86C277.241 10.232 277.409 10.718 277.421 11.318C277.421 11.858 277.271 12.344 276.971 12.776C276.671 13.208 276.245 13.55 275.693 13.802C275.153 14.042 274.529 14.162 273.821 14.162ZM285.242 14L281.372 9.644V14H279.734V0.68H281.372V8.51L285.17 4.136H287.456L282.812 9.05L287.474 14H285.242ZM289.843 2.534C289.531 2.534 289.267 2.426 289.051 2.21C288.835 1.994 288.727 1.73 288.727 1.418C288.727 1.106 288.835 0.842 289.051 0.625999C289.267 0.409999 289.531 0.301999 289.843 0.301999C290.143 0.301999 290.395 0.409999 290.599 0.625999C290.815 0.842 290.923 1.106 290.923 1.418C290.923 1.73 290.815 1.994 290.599 2.21C290.395 2.426 290.143 2.534 289.843 2.534ZM290.635 4.136V14H288.997V4.136H290.635ZM295.065 0.68V14H293.427V0.68H295.065ZM299.495 0.68V14H297.857V0.68H299.495ZM305.778 14.162C305.022 14.162 304.344 14.036 303.744 13.784C303.144 13.52 302.67 13.16 302.322 12.704C301.974 12.236 301.782 11.702 301.746 11.102H303.438C303.486 11.594 303.714 11.996 304.122 12.308C304.542 12.62 305.088 12.776 305.76 12.776C306.384 12.776 306.876 12.638 307.236 12.362C307.596 12.086 307.776 11.738 307.776 11.318C307.776 10.886 307.584 10.568 307.2 10.364C306.816 10.148 306.222 9.938 305.418 9.734C304.686 9.542 304.086 9.35 303.618 9.158C303.162 8.954 302.766 8.66 302.43 8.276C302.106 7.88 301.944 7.364 301.944 6.728C301.944 6.224 302.094 5.762 302.394 5.342C302.694 4.922 303.12 4.592 303.672 4.352C304.224 4.1 304.854 3.974 305.562 3.974C306.654 3.974 307.536 4.25 308.208 4.802C308.88 5.354 309.24 6.11 309.288 7.07H307.65C307.614 6.554 307.404 6.14 307.02 5.828C306.648 5.516 306.144 5.36 305.508 5.36C304.92 5.36 304.452 5.486 304.104 5.738C303.756 5.99 303.582 6.32 303.582 6.728C303.582 7.052 303.684 7.322 303.888 7.538C304.104 7.742 304.368 7.91 304.68 8.042C305.004 8.162 305.448 8.3 306.012 8.456C306.72 8.648 307.296 8.84 307.74 9.032C308.184 9.212 308.562 9.488 308.874 9.86C309.198 10.232 309.366 10.718 309.378 11.318C309.378 11.858 309.228 12.344 308.928 12.776C308.628 13.208 308.202 13.55 307.65 13.802C307.11 14.042 306.486 14.162 305.778 14.162ZM318.488 5.486V11.3C318.488 11.78 318.59 12.122 318.794 12.326C318.998 12.518 319.352 12.614 319.856 12.614H321.062V14H319.586C318.674 14 317.99 13.79 317.534 13.37C317.078 12.95 316.85 12.26 316.85 11.3V5.486H315.572V4.136H316.85V1.652H318.488V4.136H321.062V5.486H318.488ZM327.942 3.956C328.686 3.956 329.358 4.118 329.958 4.442C330.558 4.754 331.026 5.228 331.362 5.864C331.71 6.5 331.884 7.274 331.884 8.186V14H330.264V8.42C330.264 7.436 330.018 6.686 329.526 6.17C329.034 5.642 328.362 5.378 327.51 5.378C326.646 5.378 325.956 5.648 325.44 6.188C324.936 6.728 324.684 7.514 324.684 8.546V14H323.046V0.68H324.684V5.54C325.008 5.036 325.452 4.646 326.016 4.37C326.592 4.094 327.234 3.956 327.942 3.956ZM336.198 5.738C336.486 5.174 336.894 4.736 337.422 4.424C337.962 4.112 338.616 3.956 339.384 3.956V5.648H338.952C337.116 5.648 336.198 6.644 336.198 8.636V14H334.56V4.136H336.198V5.738ZM345.577 14.162C344.653 14.162 343.813 13.952 343.057 13.532C342.313 13.112 341.725 12.518 341.293 11.75C340.873 10.97 340.663 10.07 340.663 9.05C340.663 8.042 340.879 7.154 341.311 6.386C341.755 5.606 342.355 5.012 343.111 4.604C343.867 4.184 344.713 3.974 345.649 3.974C346.585 3.974 347.431 4.184 348.187 4.604C348.943 5.012 349.537 5.6 349.969 6.368C350.413 7.136 350.635 8.03 350.635 9.05C350.635 10.07 350.407 10.97 349.951 11.75C349.507 12.518 348.901 13.112 348.133 13.532C347.365 13.952 346.513 14.162 345.577 14.162ZM345.577 12.722C346.165 12.722 346.717 12.584 347.233 12.308C347.749 12.032 348.163 11.618 348.475 11.066C348.799 10.514 348.961 9.842 348.961 9.05C348.961 8.258 348.805 7.586 348.493 7.034C348.181 6.482 347.773 6.074 347.269 5.81C346.765 5.534 346.219 5.396 345.631 5.396C345.031 5.396 344.479 5.534 343.975 5.81C343.483 6.074 343.087 6.482 342.787 7.034C342.487 7.586 342.337 8.258 342.337 9.05C342.337 9.854 342.481 10.532 342.769 11.084C343.069 11.636 343.465 12.05 343.957 12.326C344.449 12.59 344.989 12.722 345.577 12.722ZM361.536 4.136V14H359.898V12.542C359.586 13.046 359.148 13.442 358.584 13.73C358.032 14.006 357.42 14.144 356.748 14.144C355.98 14.144 355.29 13.988 354.678 13.676C354.066 13.352 353.58 12.872 353.22 12.236C352.872 11.6 352.698 10.826 352.698 9.914V4.136H354.318V9.698C354.318 10.67 354.564 11.42 355.056 11.948C355.548 12.464 356.22 12.722 357.072 12.722C357.948 12.722 358.638 12.452 359.142 11.912C359.646 11.372 359.898 10.586 359.898 9.554V4.136H361.536ZM368.37 3.974C369.222 3.974 369.966 4.16 370.602 4.532C371.25 4.904 371.73 5.372 372.042 5.936V4.136H373.698V14.216C373.698 15.116 373.506 15.914 373.122 16.61C372.738 17.318 372.186 17.87 371.466 18.266C370.758 18.662 369.93 18.86 368.982 18.86C367.686 18.86 366.606 18.554 365.742 17.942C364.878 17.33 364.368 16.496 364.212 15.44H365.832C366.012 16.04 366.384 16.52 366.948 16.88C367.512 17.252 368.19 17.438 368.982 17.438C369.882 17.438 370.614 17.156 371.178 16.592C371.754 16.028 372.042 15.236 372.042 14.216V12.146C371.718 12.722 371.238 13.202 370.602 13.586C369.966 13.97 369.222 14.162 368.37 14.162C367.494 14.162 366.696 13.946 365.976 13.514C365.268 13.082 364.71 12.476 364.302 11.696C363.894 10.916 363.69 10.028 363.69 9.032C363.69 8.024 363.894 7.142 364.302 6.386C364.71 5.618 365.268 5.024 365.976 4.604C366.696 4.184 367.494 3.974 368.37 3.974ZM372.042 9.05C372.042 8.306 371.892 7.658 371.592 7.106C371.292 6.554 370.884 6.134 370.368 5.846C369.864 5.546 369.306 5.396 368.694 5.396C368.082 5.396 367.524 5.54 367.02 5.828C366.516 6.116 366.114 6.536 365.814 7.088C365.514 7.64 365.364 8.288 365.364 9.032C365.364 9.788 365.514 10.448 365.814 11.012C366.114 11.564 366.516 11.99 367.02 12.29C367.524 12.578 368.082 12.722 368.694 12.722C369.306 12.722 369.864 12.578 370.368 12.29C370.884 11.99 371.292 11.564 371.592 11.012C371.892 10.448 372.042 9.794 372.042 9.05ZM381.362 3.956C382.106 3.956 382.778 4.118 383.378 4.442C383.978 4.754 384.446 5.228 384.782 5.864C385.13 6.5 385.304 7.274 385.304 8.186V14H383.684V8.42C383.684 7.436 383.438 6.686 382.946 6.17C382.454 5.642 381.782 5.378 380.93 5.378C380.066 5.378 379.376 5.648 378.86 6.188C378.356 6.728 378.104 7.514 378.104 8.546V14H376.466V0.68H378.104V5.54C378.428 5.036 378.872 4.646 379.436 4.37C380.012 4.094 380.654 3.956 381.362 3.956ZM389.978 5.486V11.3C389.978 11.78 390.08 12.122 390.284 12.326C390.488 12.518 390.842 12.614 391.346 12.614H392.552V14H391.076C390.164 14 389.48 13.79 389.024 13.37C388.568 12.95 388.34 12.26 388.34 11.3V5.486H387.062V4.136H388.34V1.652H389.978V4.136H392.552V5.486H389.978ZM411.197 3.956C411.965 3.956 412.649 4.118 413.249 4.442C413.849 4.754 414.323 5.228 414.671 5.864C415.019 6.5 415.193 7.274 415.193 8.186V14H413.573V8.42C413.573 7.436 413.327 6.686 412.835 6.17C412.355 5.642 411.701 5.378 410.873 5.378C410.021 5.378 409.343 5.654 408.839 6.206C408.335 6.746 408.083 7.532 408.083 8.564V14H406.463V8.42C406.463 7.436 406.217 6.686 405.725 6.17C405.245 5.642 404.591 5.378 403.763 5.378C402.911 5.378 402.233 5.654 401.729 6.206C401.225 6.746 400.973 7.532 400.973 8.564V14H399.335V4.136H400.973V5.558C401.297 5.042 401.729 4.646 402.269 4.37C402.821 4.094 403.427 3.956 404.087 3.956C404.915 3.956 405.647 4.142 406.283 4.514C406.919 4.886 407.393 5.432 407.705 6.152C407.981 5.456 408.437 4.916 409.073 4.532C409.709 4.148 410.417 3.956 411.197 3.956ZM426.376 4.136L420.436 18.644H418.744L420.688 13.892L416.71 4.136H418.528L421.624 12.128L424.684 4.136H426.376ZM434.82 5.486V11.3C434.82 11.78 434.922 12.122 435.126 12.326C435.33 12.518 435.684 12.614 436.188 12.614H437.394V14H435.918C435.006 14 434.322 13.79 433.866 13.37C433.41 12.95 433.182 12.26 433.182 11.3V5.486H431.904V4.136H433.182V1.652H434.82V4.136H437.394V5.486H434.82ZM440.224 2.534C439.912 2.534 439.648 2.426 439.432 2.21C439.216 1.994 439.108 1.73 439.108 1.418C439.108 1.106 439.216 0.842 439.432 0.625999C439.648 0.409999 439.912 0.301999 440.224 0.301999C440.524 0.301999 440.776 0.409999 440.98 0.625999C441.196 0.842 441.304 1.106 441.304 1.418C441.304 1.73 441.196 1.994 440.98 2.21C440.776 2.426 440.524 2.534 440.224 2.534ZM441.016 4.136V14H439.378V4.136H441.016ZM455.67 3.956C456.438 3.956 457.122 4.118 457.722 4.442C458.322 4.754 458.796 5.228 459.144 5.864C459.492 6.5 459.666 7.274 459.666 8.186V14H458.046V8.42C458.046 7.436 457.8 6.686 457.308 6.17C456.828 5.642 456.174 5.378 455.346 5.378C454.494 5.378 453.816 5.654 453.312 6.206C452.808 6.746 452.556 7.532 452.556 8.564V14H450.936V8.42C450.936 7.436 450.69 6.686 450.198 6.17C449.718 5.642 449.064 5.378 448.236 5.378C447.384 5.378 446.706 5.654 446.202 6.206C445.698 6.746 445.446 7.532 445.446 8.564V14H443.808V4.136H445.446V5.558C445.77 5.042 446.202 4.646 446.742 4.37C447.294 4.094 447.9 3.956 448.56 3.956C449.388 3.956 450.12 4.142 450.756 4.514C451.392 4.886 451.866 5.432 452.178 6.152C452.454 5.456 452.91 4.916 453.546 4.532C454.182 4.148 454.89 3.956 455.67 3.956ZM471.353 8.69C471.353 9.002 471.335 9.332 471.299 9.68H463.415C463.475 10.652 463.805 11.414 464.405 11.966C465.017 12.506 465.755 12.776 466.619 12.776C467.327 12.776 467.915 12.614 468.383 12.29C468.863 11.954 469.199 11.51 469.391 10.958H471.155C470.891 11.906 470.363 12.68 469.571 13.28C468.779 13.868 467.795 14.162 466.619 14.162C465.683 14.162 464.843 13.952 464.099 13.532C463.367 13.112 462.791 12.518 462.371 11.75C461.951 10.97 461.741 10.07 461.741 9.05C461.741 8.03 461.945 7.136 462.353 6.368C462.761 5.6 463.331 5.012 464.063 4.604C464.807 4.184 465.659 3.974 466.619 3.974C467.555 3.974 468.383 4.178 469.103 4.586C469.823 4.994 470.375 5.558 470.759 6.278C471.155 6.986 471.353 7.79 471.353 8.69ZM469.661 8.348C469.661 7.724 469.523 7.19 469.247 6.746C468.971 6.29 468.593 5.948 468.113 5.72C467.645 5.48 467.123 5.36 466.547 5.36C465.719 5.36 465.011 5.624 464.423 6.152C463.847 6.68 463.517 7.412 463.433 8.348H469.661ZM477.702 9.032C477.702 8.024 477.906 7.142 478.314 6.386C478.722 5.618 479.28 5.024 479.988 4.604C480.708 4.184 481.506 3.974 482.382 3.974C483.246 3.974 483.996 4.16 484.632 4.532C485.268 4.904 485.742 5.372 486.054 5.936V4.136H487.71V14H486.054V12.164C485.73 12.74 485.244 13.22 484.596 13.604C483.96 13.976 483.216 14.162 482.364 14.162C481.488 14.162 480.696 13.946 479.988 13.514C479.28 13.082 478.722 12.476 478.314 11.696C477.906 10.916 477.702 10.028 477.702 9.032ZM486.054 9.05C486.054 8.306 485.904 7.658 485.604 7.106C485.304 6.554 484.896 6.134 484.38 5.846C483.876 5.546 483.318 5.396 482.706 5.396C482.094 5.396 481.536 5.54 481.032 5.828C480.528 6.116 480.126 6.536 479.826 7.088C479.526 7.64 479.376 8.288 479.376 9.032C479.376 9.788 479.526 10.448 479.826 11.012C480.126 11.564 480.528 11.99 481.032 12.29C481.536 12.578 482.094 12.722 482.706 12.722C483.318 12.722 483.876 12.578 484.38 12.29C484.896 11.99 485.304 11.564 485.604 11.012C485.904 10.448 486.054 9.794 486.054 9.05ZM493.97 14.162C493.214 14.162 492.536 14.036 491.936 13.784C491.336 13.52 490.862 13.16 490.514 12.704C490.166 12.236 489.974 11.702 489.938 11.102H491.63C491.678 11.594 491.906 11.996 492.314 12.308C492.734 12.62 493.28 12.776 493.952 12.776C494.576 12.776 495.068 12.638 495.428 12.362C495.788 12.086 495.968 11.738 495.968 11.318C495.968 10.886 495.776 10.568 495.392 10.364C495.008 10.148 494.414 9.938 493.61 9.734C492.878 9.542 492.278 9.35 491.81 9.158C491.354 8.954 490.958 8.66 490.622 8.276C490.298 7.88 490.136 7.364 490.136 6.728C490.136 6.224 490.286 5.762 490.586 5.342C490.886 4.922 491.312 4.592 491.864 4.352C492.416 4.1 493.046 3.974 493.754 3.974C494.846 3.974 495.728 4.25 496.4 4.802C497.072 5.354 497.432 6.11 497.48 7.07H495.842C495.806 6.554 495.596 6.14 495.212 5.828C494.84 5.516 494.336 5.36 493.7 5.36C493.112 5.36 492.644 5.486 492.296 5.738C491.948 5.99 491.774 6.32 491.774 6.728C491.774 7.052 491.876 7.322 492.08 7.538C492.296 7.742 492.56 7.91 492.872 8.042C493.196 8.162 493.64 8.3 494.204 8.456C494.912 8.648 495.488 8.84 495.932 9.032C496.376 9.212 496.754 9.488 497.066 9.86C497.39 10.232 497.558 10.718 497.57 11.318C497.57 11.858 497.42 12.344 497.12 12.776C496.82 13.208 496.394 13.55 495.842 13.802C495.302 14.042 494.678 14.162 493.97 14.162ZM504.069 9.032C504.069 8.024 504.273 7.142 504.681 6.386C505.089 5.618 505.647 5.024 506.355 4.604C507.075 4.184 507.873 3.974 508.749 3.974C509.613 3.974 510.363 4.16 510.999 4.532C511.635 4.904 512.109 5.372 512.421 5.936V4.136H514.077V14H512.421V12.164C512.097 12.74 511.611 13.22 510.963 13.604C510.327 13.976 509.583 14.162 508.731 14.162C507.855 14.162 507.063 13.946 506.355 13.514C505.647 13.082 505.089 12.476 504.681 11.696C504.273 10.916 504.069 10.028 504.069 9.032ZM512.421 9.05C512.421 8.306 512.271 7.658 511.971 7.106C511.671 6.554 511.263 6.134 510.747 5.846C510.243 5.546 509.685 5.396 509.073 5.396C508.461 5.396 507.903 5.54 507.399 5.828C506.895 6.116 506.493 6.536 506.193 7.088C505.893 7.64 505.743 8.288 505.743 9.032C505.743 9.788 505.893 10.448 506.193 11.012C506.493 11.564 506.895 11.99 507.399 12.29C507.903 12.578 508.461 12.722 509.073 12.722C509.685 12.722 510.243 12.578 510.747 12.29C511.263 11.99 511.671 11.564 511.971 11.012C512.271 10.448 512.421 9.794 512.421 9.05ZM68.1775 42L65.1895 36.87H63.2095V42H61.5715V29.454H65.6215C66.5695 29.454 67.3675 29.616 68.0155 29.94C68.6755 30.264 69.1675 30.702 69.4915 31.254C69.8155 31.806 69.9775 32.436 69.9775 33.144C69.9775 34.008 69.7255 34.77 69.2215 35.43C68.7295 36.09 67.9855 36.528 66.9895 36.744L70.1395 42H68.1775ZM63.2095 35.556H65.6215C66.5095 35.556 67.1755 35.34 67.6195 34.908C68.0635 34.464 68.2855 33.876 68.2855 33.144C68.2855 32.4 68.0635 31.824 67.6195 31.416C67.1875 31.008 66.5215 30.804 65.6215 30.804H63.2095V35.556ZM76.8247 42.162C75.9007 42.162 75.0607 41.952 74.3047 41.532C73.5607 41.112 72.9727 40.518 72.5407 39.75C72.1207 38.97 71.9107 38.07 71.9107 37.05C71.9107 36.042 72.1267 35.154 72.5587 34.386C73.0027 33.606 73.6027 33.012 74.3587 32.604C75.1147 32.184 75.9607 31.974 76.8967 31.974C77.8327 31.974 78.6787 32.184 79.4347 32.604C80.1907 33.012 80.7847 33.6 81.2167 34.368C81.6607 35.136 81.8827 36.03 81.8827 37.05C81.8827 38.07 81.6547 38.97 81.1987 39.75C80.7547 40.518 80.1487 41.112 79.3807 41.532C78.6127 41.952 77.7607 42.162 76.8247 42.162ZM76.8247 40.722C77.4127 40.722 77.9647 40.584 78.4807 40.308C78.9967 40.032 79.4107 39.618 79.7227 39.066C80.0467 38.514 80.2087 37.842 80.2087 37.05C80.2087 36.258 80.0527 35.586 79.7407 35.034C79.4287 34.482 79.0207 34.074 78.5167 33.81C78.0127 33.534 77.4667 33.396 76.8787 33.396C76.2787 33.396 75.7267 33.534 75.2227 33.81C74.7307 34.074 74.3347 34.482 74.0347 35.034C73.7347 35.586 73.5847 36.258 73.5847 37.05C73.5847 37.854 73.7287 38.532 74.0167 39.084C74.3167 39.636 74.7127 40.05 75.2047 40.326C75.6967 40.59 76.2367 40.722 76.8247 40.722ZM85.6744 33.972C86.0104 33.384 86.5024 32.904 87.1504 32.532C87.7984 32.16 88.5364 31.974 89.3644 31.974C90.2524 31.974 91.0504 32.184 91.7584 32.604C92.4664 33.024 93.0244 33.618 93.4324 34.386C93.8404 35.142 94.0444 36.024 94.0444 37.032C94.0444 38.028 93.8404 38.916 93.4324 39.696C93.0244 40.476 92.4604 41.082 91.7404 41.514C91.0324 41.946 90.2404 42.162 89.3644 42.162C88.5124 42.162 87.7624 41.976 87.1144 41.604C86.4784 41.232 85.9984 40.758 85.6744 40.182V42H84.0364V28.68H85.6744V33.972ZM92.3704 37.032C92.3704 36.288 92.2204 35.64 91.9204 35.088C91.6204 34.536 91.2124 34.116 90.6964 33.828C90.1924 33.54 89.6344 33.396 89.0224 33.396C88.4224 33.396 87.8644 33.546 87.3484 33.846C86.8444 34.134 86.4364 34.56 86.1244 35.124C85.8244 35.676 85.6744 36.318 85.6744 37.05C85.6744 37.794 85.8244 38.448 86.1244 39.012C86.4364 39.564 86.8444 39.99 87.3484 40.29C87.8644 40.578 88.4224 40.722 89.0224 40.722C89.6344 40.722 90.1924 40.578 90.6964 40.29C91.2124 39.99 91.6204 39.564 91.9204 39.012C92.2204 38.448 92.3704 37.788 92.3704 37.032ZM97.8385 28.68V42H96.2005V28.68H97.8385ZM104.932 42.162C104.008 42.162 103.168 41.952 102.412 41.532C101.668 41.112 101.08 40.518 100.648 39.75C100.228 38.97 100.018 38.07 100.018 37.05C100.018 36.042 100.234 35.154 100.666 34.386C101.11 33.606 101.71 33.012 102.466 32.604C103.222 32.184 104.068 31.974 105.004 31.974C105.94 31.974 106.786 32.184 107.542 32.604C108.298 33.012 108.892 33.6 109.324 34.368C109.768 35.136 109.99 36.03 109.99 37.05C109.99 38.07 109.762 38.97 109.306 39.75C108.862 40.518 108.256 41.112 107.488 41.532C106.72 41.952 105.868 42.162 104.932 42.162ZM104.932 40.722C105.52 40.722 106.072 40.584 106.588 40.308C107.104 40.032 107.518 39.618 107.83 39.066C108.154 38.514 108.316 37.842 108.316 37.05C108.316 36.258 108.16 35.586 107.848 35.034C107.536 34.482 107.128 34.074 106.624 33.81C106.12 33.534 105.574 33.396 104.986 33.396C104.386 33.396 103.834 33.534 103.33 33.81C102.838 34.074 102.442 34.482 102.142 35.034C101.842 35.586 101.692 36.258 101.692 37.05C101.692 37.854 101.836 38.532 102.124 39.084C102.424 39.636 102.82 40.05 103.312 40.326C103.804 40.59 104.344 40.722 104.932 40.722ZM117.292 42L114.952 38.328L112.702 42H110.992L114.178 37.104L110.992 32.136H112.846L115.186 35.79L117.418 32.136H119.128L115.96 37.014L119.146 42H117.292ZM129.462 29.454C130.83 29.454 132.012 29.712 133.008 30.228C134.016 30.732 134.784 31.458 135.312 32.406C135.852 33.354 136.122 34.47 136.122 35.754C136.122 37.038 135.852 38.154 135.312 39.102C134.784 40.038 134.016 40.758 133.008 41.262C132.012 41.754 130.83 42 129.462 42H125.556V29.454H129.462ZM129.462 40.65C131.082 40.65 132.318 40.224 133.17 39.372C134.022 38.508 134.448 37.302 134.448 35.754C134.448 34.194 134.016 32.976 133.152 32.1C132.3 31.224 131.07 30.786 129.462 30.786H127.194V40.65H129.462ZM147.282 36.69C147.282 37.002 147.264 37.332 147.228 37.68H139.344C139.404 38.652 139.734 39.414 140.334 39.966C140.946 40.506 141.684 40.776 142.548 40.776C143.256 40.776 143.844 40.614 144.312 40.29C144.792 39.954 145.128 39.51 145.32 38.958H147.084C146.82 39.906 146.292 40.68 145.5 41.28C144.708 41.868 143.724 42.162 142.548 42.162C141.612 42.162 140.772 41.952 140.028 41.532C139.296 41.112 138.72 40.518 138.3 39.75C137.88 38.97 137.67 38.07 137.67 37.05C137.67 36.03 137.874 35.136 138.282 34.368C138.69 33.6 139.26 33.012 139.992 32.604C140.736 32.184 141.588 31.974 142.548 31.974C143.484 31.974 144.312 32.178 145.032 32.586C145.752 32.994 146.304 33.558 146.688 34.278C147.084 34.986 147.282 35.79 147.282 36.69ZM145.59 36.348C145.59 35.724 145.452 35.19 145.176 34.746C144.9 34.29 144.522 33.948 144.042 33.72C143.574 33.48 143.052 33.36 142.476 33.36C141.648 33.36 140.94 33.624 140.352 34.152C139.776 34.68 139.446 35.412 139.362 36.348H145.59ZM153.117 40.488L156.177 32.136H157.923L154.053 42H152.145L148.275 32.136H150.039L153.117 40.488ZM161.226 39.732L159.21 44.574H158.112L159.426 39.732H161.226ZM172.798 31.956C173.542 31.956 174.214 32.118 174.814 32.442C175.414 32.754 175.882 33.228 176.218 33.864C176.566 34.5 176.74 35.274 176.74 36.186V42H175.12V36.42C175.12 35.436 174.874 34.686 174.382 34.17C173.89 33.642 173.218 33.378 172.366 33.378C171.502 33.378 170.812 33.648 170.296 34.188C169.792 34.728 169.54 35.514 169.54 36.546V42H167.902V28.68H169.54V33.54C169.864 33.036 170.308 32.646 170.872 32.37C171.448 32.094 172.09 31.956 172.798 31.956ZM188.415 36.69C188.415 37.002 188.397 37.332 188.361 37.68H180.477C180.537 38.652 180.867 39.414 181.467 39.966C182.079 40.506 182.817 40.776 183.681 40.776C184.389 40.776 184.977 40.614 185.445 40.29C185.925 39.954 186.261 39.51 186.453 38.958H188.217C187.953 39.906 187.425 40.68 186.633 41.28C185.841 41.868 184.857 42.162 183.681 42.162C182.745 42.162 181.905 41.952 181.161 41.532C180.429 41.112 179.853 40.518 179.433 39.75C179.013 38.97 178.803 38.07 178.803 37.05C178.803 36.03 179.007 35.136 179.415 34.368C179.823 33.6 180.393 33.012 181.125 32.604C181.869 32.184 182.721 31.974 183.681 31.974C184.617 31.974 185.445 32.178 186.165 32.586C186.885 32.994 187.437 33.558 187.821 34.278C188.217 34.986 188.415 35.79 188.415 36.69ZM186.723 36.348C186.723 35.724 186.585 35.19 186.309 34.746C186.033 34.29 185.655 33.948 185.175 33.72C184.707 33.48 184.185 33.36 183.609 33.36C182.781 33.36 182.073 33.624 181.485 34.152C180.909 34.68 180.579 35.412 180.495 36.348H186.723ZM192.215 33.738C192.503 33.174 192.911 32.736 193.439 32.424C193.979 32.112 194.633 31.956 195.401 31.956V33.648H194.969C193.133 33.648 192.215 34.644 192.215 36.636V42H190.577V32.136H192.215V33.738ZM206.292 36.69C206.292 37.002 206.274 37.332 206.238 37.68H198.354C198.414 38.652 198.744 39.414 199.344 39.966C199.956 40.506 200.694 40.776 201.558 40.776C202.266 40.776 202.854 40.614 203.322 40.29C203.802 39.954 204.138 39.51 204.33 38.958H206.094C205.83 39.906 205.302 40.68 204.51 41.28C203.718 41.868 202.734 42.162 201.558 42.162C200.622 42.162 199.782 41.952 199.038 41.532C198.306 41.112 197.73 40.518 197.31 39.75C196.89 38.97 196.68 38.07 196.68 37.05C196.68 36.03 196.884 35.136 197.292 34.368C197.7 33.6 198.27 33.012 199.002 32.604C199.746 32.184 200.598 31.974 201.558 31.974C202.494 31.974 203.322 32.178 204.042 32.586C204.762 32.994 205.314 33.558 205.698 34.278C206.094 34.986 206.292 35.79 206.292 36.69ZM204.6 36.348C204.6 35.724 204.462 35.19 204.186 34.746C203.91 34.29 203.532 33.948 203.052 33.72C202.584 33.48 202.062 33.36 201.486 33.36C200.658 33.36 199.95 33.624 199.362 34.152C198.786 34.68 198.456 35.412 198.372 36.348H204.6ZM212.641 37.032C212.641 36.024 212.845 35.142 213.253 34.386C213.661 33.618 214.219 33.024 214.927 32.604C215.647 32.184 216.445 31.974 217.321 31.974C218.185 31.974 218.935 32.16 219.571 32.532C220.207 32.904 220.681 33.372 220.993 33.936V32.136H222.649V42H220.993V40.164C220.669 40.74 220.183 41.22 219.535 41.604C218.899 41.976 218.155 42.162 217.303 42.162C216.427 42.162 215.635 41.946 214.927 41.514C214.219 41.082 213.661 40.476 213.253 39.696C212.845 38.916 212.641 38.028 212.641 37.032ZM220.993 37.05C220.993 36.306 220.843 35.658 220.543 35.106C220.243 34.554 219.835 34.134 219.319 33.846C218.815 33.546 218.257 33.396 217.645 33.396C217.033 33.396 216.475 33.54 215.971 33.828C215.467 34.116 215.065 34.536 214.765 35.088C214.465 35.64 214.315 36.288 214.315 37.032C214.315 37.788 214.465 38.448 214.765 39.012C215.065 39.564 215.467 39.99 215.971 40.29C216.475 40.578 217.033 40.722 217.645 40.722C218.257 40.722 218.815 40.578 219.319 40.29C219.835 39.99 220.243 39.564 220.543 39.012C220.843 38.448 220.993 37.794 220.993 37.05ZM227.055 33.738C227.343 33.174 227.751 32.736 228.279 32.424C228.819 32.112 229.473 31.956 230.241 31.956V33.648H229.809C227.973 33.648 227.055 34.644 227.055 36.636V42H225.417V32.136H227.055V33.738ZM241.132 36.69C241.132 37.002 241.114 37.332 241.078 37.68H233.194C233.254 38.652 233.584 39.414 234.184 39.966C234.796 40.506 235.534 40.776 236.398 40.776C237.106 40.776 237.694 40.614 238.162 40.29C238.642 39.954 238.978 39.51 239.17 38.958H240.934C240.67 39.906 240.142 40.68 239.35 41.28C238.558 41.868 237.574 42.162 236.398 42.162C235.462 42.162 234.622 41.952 233.878 41.532C233.146 41.112 232.57 40.518 232.15 39.75C231.73 38.97 231.52 38.07 231.52 37.05C231.52 36.03 231.724 35.136 232.132 34.368C232.54 33.6 233.11 33.012 233.842 32.604C234.586 32.184 235.438 31.974 236.398 31.974C237.334 31.974 238.162 32.178 238.882 32.586C239.602 32.994 240.154 33.558 240.538 34.278C240.934 34.986 241.132 35.79 241.132 36.69ZM239.44 36.348C239.44 35.724 239.302 35.19 239.026 34.746C238.75 34.29 238.372 33.948 237.892 33.72C237.424 33.48 236.902 33.36 236.326 33.36C235.498 33.36 234.79 33.624 234.202 34.152C233.626 34.68 233.296 35.412 233.212 36.348H239.44ZM250.091 33.486V39.3C250.091 39.78 250.193 40.122 250.397 40.326C250.601 40.518 250.955 40.614 251.459 40.614H252.665V42H251.189C250.277 42 249.593 41.79 249.137 41.37C248.681 40.95 248.453 40.26 248.453 39.3V33.486H247.175V32.136H248.453V29.652H250.091V32.136H252.665V33.486H250.091ZM259.546 31.956C260.29 31.956 260.962 32.118 261.562 32.442C262.162 32.754 262.63 33.228 262.966 33.864C263.314 34.5 263.488 35.274 263.488 36.186V42H261.868V36.42C261.868 35.436 261.622 34.686 261.13 34.17C260.638 33.642 259.966 33.378 259.114 33.378C258.25 33.378 257.56 33.648 257.044 34.188C256.54 34.728 256.288 35.514 256.288 36.546V42H254.65V28.68H256.288V33.54C256.612 33.036 257.056 32.646 257.62 32.37C258.196 32.094 258.838 31.956 259.546 31.956ZM275.163 36.69C275.163 37.002 275.145 37.332 275.109 37.68H267.225C267.285 38.652 267.615 39.414 268.215 39.966C268.827 40.506 269.565 40.776 270.429 40.776C271.137 40.776 271.725 40.614 272.193 40.29C272.673 39.954 273.009 39.51 273.201 38.958H274.965C274.701 39.906 274.173 40.68 273.381 41.28C272.589 41.868 271.605 42.162 270.429 42.162C269.493 42.162 268.653 41.952 267.909 41.532C267.177 41.112 266.601 40.518 266.181 39.75C265.761 38.97 265.551 38.07 265.551 37.05C265.551 36.03 265.755 35.136 266.163 34.368C266.571 33.6 267.141 33.012 267.873 32.604C268.617 32.184 269.469 31.974 270.429 31.974C271.365 31.974 272.193 32.178 272.913 32.586C273.633 32.994 274.185 33.558 274.569 34.278C274.965 34.986 275.163 35.79 275.163 36.69ZM273.471 36.348C273.471 35.724 273.333 35.19 273.057 34.746C272.781 34.29 272.403 33.948 271.923 33.72C271.455 33.48 270.933 33.36 270.357 33.36C269.529 33.36 268.821 33.624 268.233 34.152C267.657 34.68 267.327 35.412 267.243 36.348H273.471ZM293.986 31.956C294.754 31.956 295.438 32.118 296.038 32.442C296.638 32.754 297.112 33.228 297.46 33.864C297.808 34.5 297.982 35.274 297.982 36.186V42H296.362V36.42C296.362 35.436 296.116 34.686 295.624 34.17C295.144 33.642 294.49 33.378 293.662 33.378C292.81 33.378 292.132 33.654 291.628 34.206C291.124 34.746 290.872 35.532 290.872 36.564V42H289.252V36.42C289.252 35.436 289.006 34.686 288.514 34.17C288.034 33.642 287.38 33.378 286.552 33.378C285.7 33.378 285.022 33.654 284.518 34.206C284.014 34.746 283.762 35.532 283.762 36.564V42H282.124V32.136H283.762V33.558C284.086 33.042 284.518 32.646 285.058 32.37C285.61 32.094 286.216 31.956 286.876 31.956C287.704 31.956 288.436 32.142 289.072 32.514C289.708 32.886 290.182 33.432 290.494 34.152C290.77 33.456 291.226 32.916 291.862 32.532C292.498 32.148 293.206 31.956 293.986 31.956ZM304.971 42.162C304.047 42.162 303.207 41.952 302.451 41.532C301.707 41.112 301.119 40.518 300.687 39.75C300.267 38.97 300.057 38.07 300.057 37.05C300.057 36.042 300.273 35.154 300.705 34.386C301.149 33.606 301.749 33.012 302.505 32.604C303.261 32.184 304.107 31.974 305.043 31.974C305.979 31.974 306.825 32.184 307.581 32.604C308.337 33.012 308.931 33.6 309.363 34.368C309.807 35.136 310.029 36.03 310.029 37.05C310.029 38.07 309.801 38.97 309.345 39.75C308.901 40.518 308.295 41.112 307.527 41.532C306.759 41.952 305.907 42.162 304.971 42.162ZM304.971 40.722C305.559 40.722 306.111 40.584 306.627 40.308C307.143 40.032 307.557 39.618 307.869 39.066C308.193 38.514 308.355 37.842 308.355 37.05C308.355 36.258 308.199 35.586 307.887 35.034C307.575 34.482 307.167 34.074 306.663 33.81C306.159 33.534 305.613 33.396 305.025 33.396C304.425 33.396 303.873 33.534 303.369 33.81C302.877 34.074 302.481 34.482 302.181 35.034C301.881 35.586 301.731 36.258 301.731 37.05C301.731 37.854 301.875 38.532 302.163 39.084C302.463 39.636 302.859 40.05 303.351 40.326C303.843 40.59 304.383 40.722 304.971 40.722ZM315.675 42.162C314.919 42.162 314.241 42.036 313.641 41.784C313.041 41.52 312.567 41.16 312.219 40.704C311.871 40.236 311.679 39.702 311.643 39.102H313.335C313.383 39.594 313.611 39.996 314.019 40.308C314.439 40.62 314.985 40.776 315.657 40.776C316.281 40.776 316.773 40.638 317.133 40.362C317.493 40.086 317.673 39.738 317.673 39.318C317.673 38.886 317.481 38.568 317.097 38.364C316.713 38.148 316.119 37.938 315.315 37.734C314.583 37.542 313.983 37.35 313.515 37.158C313.059 36.954 312.663 36.66 312.327 36.276C312.003 35.88 311.841 35.364 311.841 34.728C311.841 34.224 311.991 33.762 312.291 33.342C312.591 32.922 313.017 32.592 313.569 32.352C314.121 32.1 314.751 31.974 315.459 31.974C316.551 31.974 317.433 32.25 318.105 32.802C318.777 33.354 319.137 34.11 319.185 35.07H317.547C317.511 34.554 317.301 34.14 316.917 33.828C316.545 33.516 316.041 33.36 315.405 33.36C314.817 33.36 314.349 33.486 314.001 33.738C313.653 33.99 313.479 34.32 313.479 34.728C313.479 35.052 313.581 35.322 313.785 35.538C314.001 35.742 314.265 35.91 314.577 36.042C314.901 36.162 315.345 36.3 315.909 36.456C316.617 36.648 317.193 36.84 317.637 37.032C318.081 37.212 318.459 37.488 318.771 37.86C319.095 38.232 319.263 38.718 319.275 39.318C319.275 39.858 319.125 40.344 318.825 40.776C318.525 41.208 318.099 41.55 317.547 41.802C317.007 42.042 316.383 42.162 315.675 42.162ZM323.585 33.486V39.3C323.585 39.78 323.687 40.122 323.891 40.326C324.095 40.518 324.449 40.614 324.953 40.614H326.159V42H324.683C323.771 42 323.087 41.79 322.631 41.37C322.175 40.95 321.947 40.26 321.947 39.3V33.486H320.669V32.136H321.947V29.652H323.585V32.136H326.159V33.486H323.585ZM337.749 31.956C338.949 31.956 339.921 32.322 340.665 33.054C341.409 33.774 341.781 34.818 341.781 36.186V42H340.161V36.42C340.161 35.436 339.915 34.686 339.423 34.17C338.931 33.642 338.259 33.378 337.407 33.378C336.543 33.378 335.853 33.648 335.337 34.188C334.833 34.728 334.581 35.514 334.581 36.546V42H332.943V32.136H334.581V33.54C334.905 33.036 335.343 32.646 335.895 32.37C336.459 32.094 337.077 31.956 337.749 31.956ZM348.758 42.162C347.834 42.162 346.994 41.952 346.238 41.532C345.494 41.112 344.906 40.518 344.474 39.75C344.054 38.97 343.844 38.07 343.844 37.05C343.844 36.042 344.06 35.154 344.492 34.386C344.936 33.606 345.536 33.012 346.292 32.604C347.048 32.184 347.894 31.974 348.83 31.974C349.766 31.974 350.612 32.184 351.368 32.604C352.124 33.012 352.718 33.6 353.15 34.368C353.594 35.136 353.816 36.03 353.816 37.05C353.816 38.07 353.588 38.97 353.132 39.75C352.688 40.518 352.082 41.112 351.314 41.532C350.546 41.952 349.694 42.162 348.758 42.162ZM348.758 40.722C349.346 40.722 349.898 40.584 350.414 40.308C350.93 40.032 351.344 39.618 351.656 39.066C351.98 38.514 352.142 37.842 352.142 37.05C352.142 36.258 351.986 35.586 351.674 35.034C351.362 34.482 350.954 34.074 350.45 33.81C349.946 33.534 349.4 33.396 348.812 33.396C348.212 33.396 347.66 33.534 347.156 33.81C346.664 34.074 346.268 34.482 345.968 35.034C345.668 35.586 345.518 36.258 345.518 37.05C345.518 37.854 345.662 38.532 345.95 39.084C346.25 39.636 346.646 40.05 347.138 40.326C347.63 40.59 348.17 40.722 348.758 40.722ZM357.968 33.486V39.3C357.968 39.78 358.07 40.122 358.274 40.326C358.478 40.518 358.832 40.614 359.336 40.614H360.542V42H359.066C358.154 42 357.47 41.79 357.014 41.37C356.558 40.95 356.33 40.26 356.33 39.3V33.486H355.052V32.136H356.33V29.652H357.968V32.136H360.542V33.486H357.968ZM361.915 37.032C361.915 36.024 362.119 35.142 362.527 34.386C362.935 33.618 363.493 33.024 364.201 32.604C364.921 32.184 365.719 31.974 366.595 31.974C367.459 31.974 368.209 32.16 368.845 32.532C369.481 32.904 369.955 33.372 370.267 33.936V32.136H371.923V42H370.267V40.164C369.943 40.74 369.457 41.22 368.809 41.604C368.173 41.976 367.429 42.162 366.577 42.162C365.701 42.162 364.909 41.946 364.201 41.514C363.493 41.082 362.935 40.476 362.527 39.696C362.119 38.916 361.915 38.028 361.915 37.032ZM370.267 37.05C370.267 36.306 370.117 35.658 369.817 35.106C369.517 34.554 369.109 34.134 368.593 33.846C368.089 33.546 367.531 33.396 366.919 33.396C366.307 33.396 365.749 33.54 365.245 33.828C364.741 34.116 364.339 34.536 364.039 35.088C363.739 35.64 363.589 36.288 363.589 37.032C363.589 37.788 363.739 38.448 364.039 39.012C364.339 39.564 364.741 39.99 365.245 40.29C365.749 40.578 366.307 40.722 366.919 40.722C367.531 40.722 368.089 40.578 368.593 40.29C369.109 39.99 369.517 39.564 369.817 39.012C370.117 38.448 370.267 37.794 370.267 37.05ZM376.329 33.972C376.665 33.384 377.157 32.904 377.805 32.532C378.453 32.16 379.191 31.974 380.019 31.974C380.907 31.974 381.705 32.184 382.413 32.604C383.121 33.024 383.679 33.618 384.087 34.386C384.495 35.142 384.699 36.024 384.699 37.032C384.699 38.028 384.495 38.916 384.087 39.696C383.679 40.476 383.115 41.082 382.395 41.514C381.687 41.946 380.895 42.162 380.019 42.162C379.167 42.162 378.417 41.976 377.769 41.604C377.133 41.232 376.653 40.758 376.329 40.182V42H374.691V28.68H376.329V33.972ZM383.025 37.032C383.025 36.288 382.875 35.64 382.575 35.088C382.275 34.536 381.867 34.116 381.351 33.828C380.847 33.54 380.289 33.396 379.677 33.396C379.077 33.396 378.519 33.546 378.003 33.846C377.499 34.134 377.091 34.56 376.779 35.124C376.479 35.676 376.329 36.318 376.329 37.05C376.329 37.794 376.479 38.448 376.779 39.012C377.091 39.564 377.499 39.99 378.003 40.29C378.519 40.578 379.077 40.722 379.677 40.722C380.289 40.722 380.847 40.578 381.351 40.29C381.867 39.99 382.275 39.564 382.575 39.012C382.875 38.448 383.025 37.788 383.025 37.032ZM388.493 28.68V42H386.855V28.68H388.493ZM400.284 36.69C400.284 37.002 400.266 37.332 400.23 37.68H392.346C392.406 38.652 392.736 39.414 393.336 39.966C393.948 40.506 394.686 40.776 395.55 40.776C396.258 40.776 396.846 40.614 397.314 40.29C397.794 39.954 398.13 39.51 398.322 38.958H400.086C399.822 39.906 399.294 40.68 398.502 41.28C397.71 41.868 396.726 42.162 395.55 42.162C394.614 42.162 393.774 41.952 393.03 41.532C392.298 41.112 391.722 40.518 391.302 39.75C390.882 38.97 390.672 38.07 390.672 37.05C390.672 36.03 390.876 35.136 391.284 34.368C391.692 33.6 392.262 33.012 392.994 32.604C393.738 32.184 394.59 31.974 395.55 31.974C396.486 31.974 397.314 32.178 398.034 32.586C398.754 32.994 399.306 33.558 399.69 34.278C400.086 34.986 400.284 35.79 400.284 36.69ZM398.592 36.348C398.592 35.724 398.454 35.19 398.178 34.746C397.902 34.29 397.524 33.948 397.044 33.72C396.576 33.48 396.054 33.36 395.478 33.36C394.65 33.36 393.942 33.624 393.354 34.152C392.778 34.68 392.448 35.412 392.364 36.348H398.592ZM411.547 42.162C410.623 42.162 409.783 41.952 409.027 41.532C408.283 41.112 407.695 40.518 407.263 39.75C406.843 38.97 406.633 38.07 406.633 37.05C406.633 36.042 406.849 35.154 407.281 34.386C407.725 33.606 408.325 33.012 409.081 32.604C409.837 32.184 410.683 31.974 411.619 31.974C412.555 31.974 413.401 32.184 414.157 32.604C414.913 33.012 415.507 33.6 415.939 34.368C416.383 35.136 416.605 36.03 416.605 37.05C416.605 38.07 416.377 38.97 415.921 39.75C415.477 40.518 414.871 41.112 414.103 41.532C413.335 41.952 412.483 42.162 411.547 42.162ZM411.547 40.722C412.135 40.722 412.687 40.584 413.203 40.308C413.719 40.032 414.133 39.618 414.445 39.066C414.769 38.514 414.931 37.842 414.931 37.05C414.931 36.258 414.775 35.586 414.463 35.034C414.151 34.482 413.743 34.074 413.239 33.81C412.735 33.534 412.189 33.396 411.601 33.396C411.001 33.396 410.449 33.534 409.945 33.81C409.453 34.074 409.057 34.482 408.757 35.034C408.457 35.586 408.307 36.258 408.307 37.05C408.307 37.854 408.451 38.532 408.739 39.084C409.039 39.636 409.435 40.05 409.927 40.326C410.419 40.59 410.959 40.722 411.547 40.722ZM423.565 31.956C424.765 31.956 425.737 32.322 426.481 33.054C427.225 33.774 427.597 34.818 427.597 36.186V42H425.977V36.42C425.977 35.436 425.731 34.686 425.239 34.17C424.747 33.642 424.075 33.378 423.223 33.378C422.359 33.378 421.669 33.648 421.153 34.188C420.649 34.728 420.397 35.514 420.397 36.546V42H418.759V32.136H420.397V33.54C420.721 33.036 421.159 32.646 421.711 32.37C422.275 32.094 422.893 31.956 423.565 31.956ZM439.273 36.69C439.273 37.002 439.255 37.332 439.219 37.68H431.335C431.395 38.652 431.725 39.414 432.325 39.966C432.937 40.506 433.675 40.776 434.539 40.776C435.247 40.776 435.835 40.614 436.303 40.29C436.783 39.954 437.119 39.51 437.311 38.958H439.075C438.811 39.906 438.283 40.68 437.491 41.28C436.699 41.868 435.715 42.162 434.539 42.162C433.603 42.162 432.763 41.952 432.019 41.532C431.287 41.112 430.711 40.518 430.291 39.75C429.871 38.97 429.661 38.07 429.661 37.05C429.661 36.03 429.865 35.136 430.273 34.368C430.681 33.6 431.251 33.012 431.983 32.604C432.727 32.184 433.579 31.974 434.539 31.974C435.475 31.974 436.303 32.178 437.023 32.586C437.743 32.994 438.295 33.558 438.679 34.278C439.075 34.986 439.273 35.79 439.273 36.69ZM437.581 36.348C437.581 35.724 437.443 35.19 437.167 34.746C436.891 34.29 436.513 33.948 436.033 33.72C435.565 33.48 435.043 33.36 434.467 33.36C433.639 33.36 432.931 33.624 432.343 34.152C431.767 34.68 431.437 35.412 431.353 36.348H437.581ZM444.927 42.162C444.171 42.162 443.493 42.036 442.893 41.784C442.293 41.52 441.819 41.16 441.471 40.704C441.123 40.236 440.931 39.702 440.895 39.102H442.587C442.635 39.594 442.863 39.996 443.271 40.308C443.691 40.62 444.237 40.776 444.909 40.776C445.533 40.776 446.025 40.638 446.385 40.362C446.745 40.086 446.925 39.738 446.925 39.318C446.925 38.886 446.733 38.568 446.349 38.364C445.965 38.148 445.371 37.938 444.567 37.734C443.835 37.542 443.235 37.35 442.767 37.158C442.311 36.954 441.915 36.66 441.579 36.276C441.255 35.88 441.093 35.364 441.093 34.728C441.093 34.224 441.243 33.762 441.543 33.342C441.843 32.922 442.269 32.592 442.821 32.352C443.373 32.1 444.003 31.974 444.711 31.974C445.803 31.974 446.685 32.25 447.357 32.802C448.029 33.354 448.389 34.11 448.437 35.07H446.799C446.763 34.554 446.553 34.14 446.169 33.828C445.797 33.516 445.293 33.36 444.657 33.36C444.069 33.36 443.601 33.486 443.253 33.738C442.905 33.99 442.731 34.32 442.731 34.728C442.731 35.052 442.833 35.322 443.037 35.538C443.253 35.742 443.517 35.91 443.829 36.042C444.153 36.162 444.597 36.3 445.161 36.456C445.869 36.648 446.445 36.84 446.889 37.032C447.333 37.212 447.711 37.488 448.023 37.86C448.347 38.232 448.515 38.718 448.527 39.318C448.527 39.858 448.377 40.344 448.077 40.776C447.777 41.208 447.351 41.55 446.799 41.802C446.259 42.042 445.635 42.162 444.927 42.162ZM452.963 29.454L452.765 38.454H451.397L451.199 29.454H452.963ZM452.153 42.108C451.841 42.108 451.577 42 451.361 41.784C451.145 41.568 451.037 41.304 451.037 40.992C451.037 40.68 451.145 40.416 451.361 40.2C451.577 39.984 451.841 39.876 452.153 39.876C452.453 39.876 452.705 39.984 452.909 40.2C453.125 40.416 453.233 40.68 453.233 40.992C453.233 41.304 453.125 41.568 452.909 41.784C452.705 42 452.453 42.108 452.153 42.108Z" fill="#9E9E9E"/>
</svg>
