<svg width="287" height="71" viewBox="0 0 287 71" fill="none" xmlns="http://www.w3.org/2000/svg">
<path d="M17.294 11.098C16.3887 11.098 15.5627 10.888 14.816 10.468C14.0693 10.0387 13.4767 9.446 13.038 8.69C12.6087 7.92467 12.394 7.066 12.394 6.114C12.394 5.162 12.6087 4.308 13.038 3.552C13.4767 2.78667 14.0693 2.194 14.816 1.774C15.5627 1.34467 16.3887 1.13 17.294 1.13C18.2087 1.13 19.0393 1.34467 19.786 1.774C20.5327 2.194 21.1207 2.782 21.55 3.538C21.9793 4.294 22.194 5.15267 22.194 6.114C22.194 7.07533 21.9793 7.934 21.55 8.69C21.1207 9.446 20.5327 10.0387 19.786 10.468C19.0393 10.888 18.2087 11.098 17.294 11.098ZM17.294 9.992C17.9753 9.992 18.5867 9.83333 19.128 9.516C19.6787 9.19867 20.108 8.746 20.416 8.158C20.7333 7.57 20.892 6.88867 20.892 6.114C20.892 5.33 20.7333 4.64867 20.416 4.07C20.108 3.482 19.6833 3.02933 19.142 2.712C18.6007 2.39467 17.9847 2.236 17.294 2.236C16.6033 2.236 15.9873 2.39467 15.446 2.712C14.9047 3.02933 14.4753 3.482 14.158 4.07C13.85 4.64867 13.696 5.33 13.696 6.114C13.696 6.88867 13.85 7.57 14.158 8.158C14.4753 8.746 14.9047 9.19867 15.446 9.516C15.9967 9.83333 16.6127 9.992 17.294 9.992ZM27.6139 3.188C28.5472 3.188 29.3032 3.47267 29.8819 4.042C30.4605 4.602 30.7499 5.414 30.7499 6.478V11H29.4899V6.66C29.4899 5.89467 29.2985 5.31133 28.9159 4.91C28.5332 4.49933 28.0105 4.294 27.3479 4.294C26.6759 4.294 26.1392 4.504 25.7379 4.924C25.3459 5.344 25.1499 5.95533 25.1499 6.758V11H23.8759V3.328H25.1499V4.42C25.4019 4.028 25.7425 3.72467 26.1719 3.51C26.6105 3.29533 27.0912 3.188 27.6139 3.188ZM39.8309 6.87C39.8309 7.11267 39.8169 7.36933 39.7889 7.64H33.6569C33.7036 8.396 33.9603 8.98867 34.4269 9.418C34.9029 9.838 35.4769 10.048 36.1489 10.048C36.6996 10.048 37.1569 9.922 37.5209 9.67C37.8943 9.40867 38.1556 9.06333 38.3049 8.634H39.6769C39.4716 9.37133 39.0609 9.97333 38.4449 10.44C37.8289 10.8973 37.0636 11.126 36.1489 11.126C35.4209 11.126 34.7676 10.9627 34.1889 10.636C33.6196 10.3093 33.1716 9.84733 32.8449 9.25C32.5183 8.64333 32.3549 7.94333 32.3549 7.15C32.3549 6.35667 32.5136 5.66133 32.8309 5.064C33.1483 4.46667 33.5916 4.00933 34.1609 3.692C34.7396 3.36533 35.4023 3.202 36.1489 3.202C36.8769 3.202 37.5209 3.36067 38.0809 3.678C38.6409 3.99533 39.0703 4.434 39.3689 4.994C39.6769 5.54467 39.8309 6.17 39.8309 6.87ZM38.5149 6.604C38.5149 6.11867 38.4076 5.70333 38.1929 5.358C37.9783 5.00333 37.6843 4.73733 37.3109 4.56C36.9469 4.37333 36.5409 4.28 36.0929 4.28C35.4489 4.28 34.8983 4.48533 34.4409 4.896C33.9929 5.30667 33.7363 5.876 33.6709 6.604H38.5149ZM48.591 11.126C47.8723 11.126 47.219 10.9627 46.631 10.636C46.0523 10.3093 45.595 9.84733 45.259 9.25C44.9323 8.64333 44.769 7.94333 44.769 7.15C44.769 6.366 44.937 5.67533 45.273 5.078C45.6183 4.47133 46.085 4.00933 46.673 3.692C47.261 3.36533 47.919 3.202 48.647 3.202C49.375 3.202 50.033 3.36533 50.621 3.692C51.209 4.00933 51.671 4.46667 52.007 5.064C52.3523 5.66133 52.525 6.35667 52.525 7.15C52.525 7.94333 52.3477 8.64333 51.993 9.25C51.6477 9.84733 51.1763 10.3093 50.579 10.636C49.9817 10.9627 49.319 11.126 48.591 11.126ZM48.591 10.006C49.0483 10.006 49.4777 9.89867 49.879 9.684C50.2803 9.46933 50.6023 9.14733 50.845 8.718C51.097 8.28867 51.223 7.766 51.223 7.15C51.223 6.534 51.1017 6.01133 50.859 5.582C50.6163 5.15267 50.299 4.83533 49.907 4.63C49.515 4.41533 49.0903 4.308 48.633 4.308C48.1663 4.308 47.737 4.41533 47.345 4.63C46.9623 4.83533 46.6543 5.15267 46.421 5.582C46.1877 6.01133 46.071 6.534 46.071 7.15C46.071 7.77533 46.183 8.30267 46.407 8.732C46.6403 9.16133 46.9483 9.48333 47.331 9.698C47.7137 9.90333 48.1337 10.006 48.591 10.006ZM57.3221 4.378H55.7121V11H54.4381V4.378H53.4441V3.328H54.4381V2.782C54.4381 1.92333 54.6574 1.298 55.0961 0.906C55.5441 0.504666 56.2581 0.303999 57.2381 0.303999V1.368C56.6781 1.368 56.2814 1.48 56.0481 1.704C55.8241 1.91867 55.7121 2.278 55.7121 2.782V3.328H57.3221V4.378ZM64.0939 4.378V8.9C64.0939 9.27333 64.1732 9.53933 64.3319 9.698C64.4906 9.84733 64.7659 9.922 65.1579 9.922H66.0959V11H64.9479C64.2386 11 63.7066 10.8367 63.3519 10.51C62.9972 10.1833 62.8199 9.64667 62.8199 8.9V4.378H61.8259V3.328H62.8199V1.396H64.0939V3.328H66.0959V4.378H64.0939ZM71.4475 3.188C72.0262 3.188 72.5489 3.314 73.0155 3.566C73.4822 3.80867 73.8462 4.17733 74.1075 4.672C74.3782 5.16667 74.5135 5.76867 74.5135 6.478V11H73.2535V6.66C73.2535 5.89467 73.0622 5.31133 72.6795 4.91C72.2969 4.49933 71.7742 4.294 71.1115 4.294C70.4395 4.294 69.9029 4.504 69.5015 4.924C69.1095 5.344 68.9135 5.95533 68.9135 6.758V11H67.6395V0.64H68.9135V4.42C69.1655 4.028 69.5109 3.72467 69.9495 3.51C70.3975 3.29533 70.8969 3.188 71.4475 3.188ZM83.5946 6.87C83.5946 7.11267 83.5806 7.36933 83.5526 7.64H77.4206C77.4673 8.396 77.7239 8.98867 78.1906 9.418C78.6666 9.838 79.2406 10.048 79.9126 10.048C80.4633 10.048 80.9206 9.922 81.2846 9.67C81.6579 9.40867 81.9193 9.06333 82.0686 8.634H83.4406C83.2353 9.37133 82.8246 9.97333 82.2086 10.44C81.5926 10.8973 80.8273 11.126 79.9126 11.126C79.1846 11.126 78.5313 10.9627 77.9526 10.636C77.3833 10.3093 76.9353 9.84733 76.6086 9.25C76.2819 8.64333 76.1186 7.94333 76.1186 7.15C76.1186 6.35667 76.2773 5.66133 76.5946 5.064C76.9119 4.46667 77.3553 4.00933 77.9246 3.692C78.5033 3.36533 79.1659 3.202 79.9126 3.202C80.6406 3.202 81.2846 3.36067 81.8446 3.678C82.4046 3.99533 82.8339 4.434 83.1326 4.994C83.4406 5.54467 83.5946 6.17 83.5946 6.87ZM82.2786 6.604C82.2786 6.11867 82.1713 5.70333 81.9566 5.358C81.7419 5.00333 81.4479 4.73733 81.0746 4.56C80.7106 4.37333 80.3046 4.28 79.8566 4.28C79.2126 4.28 78.6619 4.48533 78.2046 4.896C77.7566 5.30667 77.4999 5.876 77.4346 6.604H82.2786ZM92.3547 11.126C91.636 11.126 90.9827 10.9627 90.3947 10.636C89.816 10.3093 89.3587 9.84733 89.0227 9.25C88.696 8.64333 88.5327 7.94333 88.5327 7.15C88.5327 6.366 88.7007 5.67533 89.0367 5.078C89.382 4.47133 89.8487 4.00933 90.4367 3.692C91.0247 3.36533 91.6827 3.202 92.4107 3.202C93.1387 3.202 93.7967 3.36533 94.3847 3.692C94.9727 4.00933 95.4347 4.46667 95.7707 5.064C96.116 5.66133 96.2887 6.35667 96.2887 7.15C96.2887 7.94333 96.1113 8.64333 95.7567 9.25C95.4113 9.84733 94.94 10.3093 94.3427 10.636C93.7453 10.9627 93.0827 11.126 92.3547 11.126ZM92.3547 10.006C92.812 10.006 93.2413 9.89867 93.6427 9.684C94.044 9.46933 94.366 9.14733 94.6087 8.718C94.8607 8.28867 94.9867 7.766 94.9867 7.15C94.9867 6.534 94.8653 6.01133 94.6227 5.582C94.38 5.15267 94.0627 4.83533 93.6707 4.63C93.2787 4.41533 92.854 4.308 92.3967 4.308C91.93 4.308 91.5007 4.41533 91.1087 4.63C90.726 4.83533 90.418 5.15267 90.1847 5.582C89.9513 6.01133 89.8347 6.534 89.8347 7.15C89.8347 7.77533 89.9467 8.30267 90.1707 8.732C90.404 9.16133 90.712 9.48333 91.0947 9.698C91.4773 9.90333 91.8973 10.006 92.3547 10.006ZM99.5177 4.378V8.9C99.5177 9.27333 99.5971 9.53933 99.7557 9.698C99.9144 9.84733 100.19 9.922 100.582 9.922H101.52V11H100.372C99.6624 11 99.1304 10.8367 98.7757 10.51C98.4211 10.1833 98.2437 9.64667 98.2437 8.9V4.378H97.2497V3.328H98.2437V1.396H99.5177V3.328H101.52V4.378H99.5177ZM106.871 3.188C107.45 3.188 107.973 3.314 108.439 3.566C108.906 3.80867 109.27 4.17733 109.531 4.672C109.802 5.16667 109.937 5.76867 109.937 6.478V11H108.677V6.66C108.677 5.89467 108.486 5.31133 108.103 4.91C107.721 4.49933 107.198 4.294 106.535 4.294C105.863 4.294 105.327 4.504 104.925 4.924C104.533 5.344 104.337 5.95533 104.337 6.758V11H103.063V0.64H104.337V4.42C104.589 4.028 104.935 3.72467 105.373 3.51C105.821 3.29533 106.321 3.188 106.871 3.188ZM119.018 6.87C119.018 7.11267 119.004 7.36933 118.976 7.64H112.844C112.891 8.396 113.148 8.98867 113.614 9.418C114.09 9.838 114.664 10.048 115.336 10.048C115.887 10.048 116.344 9.922 116.708 9.67C117.082 9.40867 117.343 9.06333 117.492 8.634H118.864C118.659 9.37133 118.248 9.97333 117.632 10.44C117.016 10.8973 116.251 11.126 115.336 11.126C114.608 11.126 113.955 10.9627 113.376 10.636C112.807 10.3093 112.359 9.84733 112.032 9.25C111.706 8.64333 111.542 7.94333 111.542 7.15C111.542 6.35667 111.701 5.66133 112.018 5.064C112.336 4.46667 112.779 4.00933 113.348 3.692C113.927 3.36533 114.59 3.202 115.336 3.202C116.064 3.202 116.708 3.36067 117.268 3.678C117.828 3.99533 118.258 4.434 118.556 4.994C118.864 5.54467 119.018 6.17 119.018 6.87ZM117.702 6.604C117.702 6.11867 117.595 5.70333 117.38 5.358C117.166 5.00333 116.872 4.73733 116.498 4.56C116.134 4.37333 115.728 4.28 115.28 4.28C114.636 4.28 114.086 4.48533 113.628 4.896C113.18 5.30667 112.924 5.876 112.858 6.604H117.702ZM121.974 4.574C122.198 4.13533 122.515 3.79467 122.926 3.552C123.346 3.30933 123.855 3.188 124.452 3.188V4.504H124.116C122.688 4.504 121.974 5.27867 121.974 6.828V11H120.7V3.328H121.974V4.574ZM129.179 7.136C129.179 6.352 129.338 5.666 129.655 5.078C129.972 4.48067 130.406 4.01867 130.957 3.692C131.517 3.36533 132.138 3.202 132.819 3.202C133.491 3.202 134.074 3.34667 134.569 3.636C135.064 3.92533 135.432 4.28933 135.675 4.728V3.328H136.963V11H135.675V9.572C135.423 10.02 135.045 10.3933 134.541 10.692C134.046 10.9813 133.468 11.126 132.805 11.126C132.124 11.126 131.508 10.958 130.957 10.622C130.406 10.286 129.972 9.81467 129.655 9.208C129.338 8.60133 129.179 7.91067 129.179 7.136ZM135.675 7.15C135.675 6.57133 135.558 6.06733 135.325 5.638C135.092 5.20867 134.774 4.882 134.373 4.658C133.981 4.42467 133.547 4.308 133.071 4.308C132.595 4.308 132.161 4.42 131.769 4.644C131.377 4.868 131.064 5.19467 130.831 5.624C130.598 6.05333 130.481 6.55733 130.481 7.136C130.481 7.724 130.598 8.23733 130.831 8.676C131.064 9.10533 131.377 9.43667 131.769 9.67C132.161 9.894 132.595 10.006 133.071 10.006C133.547 10.006 133.981 9.894 134.373 9.67C134.774 9.43667 135.092 9.10533 135.325 8.676C135.558 8.23733 135.675 7.72867 135.675 7.15ZM140.39 4.574C140.614 4.13533 140.931 3.79467 141.342 3.552C141.762 3.30933 142.271 3.188 142.868 3.188V4.504H142.532C141.104 4.504 140.39 5.27867 140.39 6.828V11H139.116V3.328H140.39V4.574ZM151.339 6.87C151.339 7.11267 151.325 7.36933 151.297 7.64H145.165C145.211 8.396 145.468 8.98867 145.935 9.418C146.411 9.838 146.985 10.048 147.657 10.048C148.207 10.048 148.665 9.922 149.029 9.67C149.402 9.40867 149.663 9.06333 149.813 8.634H151.185C150.979 9.37133 150.569 9.97333 149.953 10.44C149.337 10.8973 148.571 11.126 147.657 11.126C146.929 11.126 146.275 10.9627 145.697 10.636C145.127 10.3093 144.679 9.84733 144.353 9.25C144.026 8.64333 143.863 7.94333 143.863 7.15C143.863 6.35667 144.021 5.66133 144.339 5.064C144.656 4.46667 145.099 4.00933 145.669 3.692C146.247 3.36533 146.91 3.202 147.657 3.202C148.385 3.202 149.029 3.36067 149.589 3.678C150.149 3.99533 150.578 4.434 150.877 4.994C151.185 5.54467 151.339 6.17 151.339 6.87ZM150.023 6.604C150.023 6.11867 149.915 5.70333 149.701 5.358C149.486 5.00333 149.192 4.73733 148.819 4.56C148.455 4.37333 148.049 4.28 147.601 4.28C146.957 4.28 146.406 4.48533 145.949 4.896C145.501 5.30667 145.244 5.876 145.179 6.604H150.023ZM152.544 7.136C152.544 6.352 152.703 5.666 153.02 5.078C153.338 4.48067 153.772 4.01867 154.322 3.692C154.882 3.36533 155.503 3.202 156.184 3.202C156.856 3.202 157.44 3.34667 157.934 3.636C158.429 3.92533 158.798 4.28933 159.04 4.728V3.328H160.328V11H159.04V9.572C158.788 10.02 158.41 10.3933 157.906 10.692C157.412 10.9813 156.833 11.126 156.17 11.126C155.489 11.126 154.873 10.958 154.322 10.622C153.772 10.286 153.338 9.81467 153.02 9.208C152.703 8.60133 152.544 7.91067 152.544 7.136ZM159.04 7.15C159.04 6.57133 158.924 6.06733 158.69 5.638C158.457 5.20867 158.14 4.882 157.738 4.658C157.346 4.42467 156.912 4.308 156.436 4.308C155.96 4.308 155.526 4.42 155.134 4.644C154.742 4.868 154.43 5.19467 154.196 5.624C153.963 6.05333 153.846 6.55733 153.846 7.136C153.846 7.724 153.963 8.23733 154.196 8.676C154.43 9.10533 154.742 9.43667 155.134 9.67C155.526 9.894 155.96 10.006 156.436 10.006C156.912 10.006 157.346 9.894 157.738 9.67C158.14 9.43667 158.457 9.10533 158.69 8.676C158.924 8.23733 159.04 7.72867 159.04 7.15ZM165.197 11.126C164.609 11.126 164.082 11.028 163.615 10.832C163.149 10.6267 162.78 10.3467 162.509 9.992C162.239 9.628 162.089 9.21267 162.061 8.746H163.377C163.415 9.12867 163.592 9.44133 163.909 9.684C164.236 9.92667 164.661 10.048 165.183 10.048C165.669 10.048 166.051 9.94067 166.331 9.726C166.611 9.51133 166.751 9.24067 166.751 8.914C166.751 8.578 166.602 8.33067 166.303 8.172C166.005 8.004 165.543 7.84067 164.917 7.682C164.348 7.53267 163.881 7.38333 163.517 7.234C163.163 7.07533 162.855 6.84667 162.593 6.548C162.341 6.24 162.215 5.83867 162.215 5.344C162.215 4.952 162.332 4.59267 162.565 4.266C162.799 3.93933 163.13 3.68267 163.559 3.496C163.989 3.3 164.479 3.202 165.029 3.202C165.879 3.202 166.565 3.41667 167.087 3.846C167.61 4.27533 167.89 4.86333 167.927 5.61H166.653C166.625 5.20867 166.462 4.88667 166.163 4.644C165.874 4.40133 165.482 4.28 164.987 4.28C164.53 4.28 164.166 4.378 163.895 4.574C163.625 4.77 163.489 5.02667 163.489 5.344C163.489 5.596 163.569 5.806 163.727 5.974C163.895 6.13267 164.101 6.26333 164.343 6.366C164.595 6.45933 164.941 6.56667 165.379 6.688C165.93 6.83733 166.378 6.98667 166.723 7.136C167.069 7.276 167.363 7.49067 167.605 7.78C167.857 8.06933 167.988 8.44733 167.997 8.914C167.997 9.334 167.881 9.712 167.647 10.048C167.414 10.384 167.083 10.65 166.653 10.846C166.233 11.0327 165.748 11.126 165.197 11.126ZM174.802 1.242V11H173.528V1.242H174.802ZM181.98 4.574C182.204 4.13533 182.521 3.79467 182.932 3.552C183.352 3.30933 183.861 3.188 184.458 3.188V4.504H184.122C182.694 4.504 181.98 5.27867 181.98 6.828V11H180.706V3.328H181.98V4.574ZM192.929 6.87C192.929 7.11267 192.915 7.36933 192.887 7.64H186.755C186.801 8.396 187.058 8.98867 187.525 9.418C188.001 9.838 188.575 10.048 189.247 10.048C189.797 10.048 190.255 9.922 190.619 9.67C190.992 9.40867 191.253 9.06333 191.403 8.634H192.775C192.569 9.37133 192.159 9.97333 191.543 10.44C190.927 10.8973 190.161 11.126 189.247 11.126C188.519 11.126 187.865 10.9627 187.287 10.636C186.717 10.3093 186.269 9.84733 185.943 9.25C185.616 8.64333 185.453 7.94333 185.453 7.15C185.453 6.35667 185.611 5.66133 185.929 5.064C186.246 4.46667 186.689 4.00933 187.259 3.692C187.837 3.36533 188.5 3.202 189.247 3.202C189.975 3.202 190.619 3.36067 191.179 3.678C191.739 3.99533 192.168 4.434 192.467 4.994C192.775 5.54467 192.929 6.17 192.929 6.87ZM191.613 6.604C191.613 6.11867 191.505 5.70333 191.291 5.358C191.076 5.00333 190.782 4.73733 190.409 4.56C190.045 4.37333 189.639 4.28 189.191 4.28C188.547 4.28 187.996 4.48533 187.539 4.896C187.091 5.30667 186.834 5.876 186.769 6.604H191.613ZM194.134 7.136C194.134 6.352 194.293 5.666 194.61 5.078C194.928 4.48067 195.362 4.01867 195.912 3.692C196.472 3.36533 197.093 3.202 197.774 3.202C198.446 3.202 199.03 3.34667 199.524 3.636C200.019 3.92533 200.388 4.28933 200.63 4.728V3.328H201.918V11H200.63V9.572C200.378 10.02 200 10.3933 199.496 10.692C199.002 10.9813 198.423 11.126 197.76 11.126C197.079 11.126 196.463 10.958 195.912 10.622C195.362 10.286 194.928 9.81467 194.61 9.208C194.293 8.60133 194.134 7.91067 194.134 7.136ZM200.63 7.15C200.63 6.57133 200.514 6.06733 200.28 5.638C200.047 5.20867 199.73 4.882 199.328 4.658C198.936 4.42467 198.502 4.308 198.026 4.308C197.55 4.308 197.116 4.42 196.724 4.644C196.332 4.868 196.02 5.19467 195.786 5.624C195.553 6.05333 195.436 6.55733 195.436 7.136C195.436 7.724 195.553 8.23733 195.786 8.676C196.02 9.10533 196.332 9.43667 196.724 9.67C197.116 9.894 197.55 10.006 198.026 10.006C198.502 10.006 198.936 9.894 199.328 9.67C199.73 9.43667 200.047 9.10533 200.28 8.676C200.514 8.23733 200.63 7.72867 200.63 7.15ZM205.345 0.64V11H204.071V0.64H205.345ZM208.79 0.64V11H207.516V0.64H208.79ZM217.57 3.328L212.95 14.612H211.634L213.146 10.916L210.052 3.328H211.466L213.874 9.544L216.254 3.328H217.57ZM225.747 3.202C226.41 3.202 226.988 3.34667 227.483 3.636C227.987 3.92533 228.36 4.28933 228.603 4.728V3.328H229.891V11.168C229.891 11.868 229.742 12.4887 229.443 13.03C229.144 13.5807 228.715 14.01 228.155 14.318C227.604 14.626 226.96 14.78 226.223 14.78C225.215 14.78 224.375 14.542 223.703 14.066C223.031 13.59 222.634 12.9413 222.513 12.12H223.773C223.913 12.5867 224.202 12.96 224.641 13.24C225.08 13.5293 225.607 13.674 226.223 13.674C226.923 13.674 227.492 13.4547 227.931 13.016C228.379 12.5773 228.603 11.9613 228.603 11.168V9.558C228.351 10.006 227.978 10.3793 227.483 10.678C226.988 10.9767 226.41 11.126 225.747 11.126C225.066 11.126 224.445 10.958 223.885 10.622C223.334 10.286 222.9 9.81467 222.583 9.208C222.266 8.60133 222.107 7.91067 222.107 7.136C222.107 6.352 222.266 5.666 222.583 5.078C222.9 4.48067 223.334 4.01867 223.885 3.692C224.445 3.36533 225.066 3.202 225.747 3.202ZM228.603 7.15C228.603 6.57133 228.486 6.06733 228.253 5.638C228.02 5.20867 227.702 4.882 227.301 4.658C226.909 4.42467 226.475 4.308 225.999 4.308C225.523 4.308 225.089 4.42 224.697 4.644C224.305 4.868 223.992 5.19467 223.759 5.624C223.526 6.05333 223.409 6.55733 223.409 7.136C223.409 7.724 223.526 8.23733 223.759 8.676C223.992 9.10533 224.305 9.43667 224.697 9.67C225.089 9.894 225.523 10.006 225.999 10.006C226.475 10.006 226.909 9.894 227.301 9.67C227.702 9.43667 228.02 9.10533 228.253 8.676C228.486 8.23733 228.603 7.72867 228.603 7.15ZM235.39 11.126C234.671 11.126 234.018 10.9627 233.43 10.636C232.851 10.3093 232.394 9.84733 232.058 9.25C231.731 8.64333 231.568 7.94333 231.568 7.15C231.568 6.366 231.736 5.67533 232.072 5.078C232.417 4.47133 232.884 4.00933 233.472 3.692C234.06 3.36533 234.718 3.202 235.446 3.202C236.174 3.202 236.832 3.36533 237.42 3.692C238.008 4.00933 238.47 4.46667 238.806 5.064C239.151 5.66133 239.324 6.35667 239.324 7.15C239.324 7.94333 239.146 8.64333 238.792 9.25C238.446 9.84733 237.975 10.3093 237.378 10.636C236.78 10.9627 236.118 11.126 235.39 11.126ZM235.39 10.006C235.847 10.006 236.276 9.89867 236.678 9.684C237.079 9.46933 237.401 9.14733 237.644 8.718C237.896 8.28867 238.022 7.766 238.022 7.15C238.022 6.534 237.9 6.01133 237.658 5.582C237.415 5.15267 237.098 4.83533 236.706 4.63C236.314 4.41533 235.889 4.308 235.432 4.308C234.965 4.308 234.536 4.41533 234.144 4.63C233.761 4.83533 233.453 5.15267 233.22 5.582C232.986 6.01133 232.87 6.534 232.87 7.15C232.87 7.77533 232.982 8.30267 233.206 8.732C233.439 9.16133 233.747 9.48333 234.13 9.698C234.512 9.90333 234.932 10.006 235.39 10.006ZM242.553 4.378V8.9C242.553 9.27333 242.632 9.53933 242.791 9.698C242.95 9.84733 243.225 9.922 243.617 9.922H244.555V11H243.407C242.698 11 242.166 10.8367 241.811 10.51C241.456 10.1833 241.279 9.64667 241.279 8.9V4.378H240.285V3.328H241.279V1.396H242.553V3.328H244.555V4.378H242.553ZM250.489 2.082C250.246 2.082 250.041 1.998 249.873 1.83C249.705 1.662 249.621 1.45667 249.621 1.214C249.621 0.971333 249.705 0.766 249.873 0.598C250.041 0.43 250.246 0.345999 250.489 0.345999C250.722 0.345999 250.918 0.43 251.077 0.598C251.245 0.766 251.329 0.971333 251.329 1.214C251.329 1.45667 251.245 1.662 251.077 1.83C250.918 1.998 250.722 2.082 250.489 2.082ZM251.105 3.328V11H249.831V3.328H251.105ZM257.014 3.188C257.948 3.188 258.704 3.47267 259.282 4.042C259.861 4.602 260.15 5.414 260.15 6.478V11H258.89V6.66C258.89 5.89467 258.699 5.31133 258.316 4.91C257.934 4.49933 257.411 4.294 256.748 4.294C256.076 4.294 255.54 4.504 255.138 4.924C254.746 5.344 254.55 5.95533 254.55 6.758V11H253.276V3.328H254.55V4.42C254.802 4.028 255.143 3.72467 255.572 3.51C256.011 3.29533 256.492 3.188 257.014 3.188ZM263.785 4.378V8.9C263.785 9.27333 263.865 9.53933 264.023 9.698C264.182 9.84733 264.457 9.922 264.849 9.922H265.787V11H264.639C263.93 11 263.398 10.8367 263.043 10.51C262.689 10.1833 262.511 9.64667 262.511 8.9V4.378H261.517V3.328H262.511V1.396H263.785V3.328H265.787V4.378H263.785ZM270.677 11.126C269.958 11.126 269.305 10.9627 268.717 10.636C268.138 10.3093 267.681 9.84733 267.345 9.25C267.018 8.64333 266.855 7.94333 266.855 7.15C266.855 6.366 267.023 5.67533 267.359 5.078C267.704 4.47133 268.171 4.00933 268.759 3.692C269.347 3.36533 270.005 3.202 270.733 3.202C271.461 3.202 272.119 3.36533 272.707 3.692C273.295 4.00933 273.757 4.46667 274.093 5.064C274.438 5.66133 274.611 6.35667 274.611 7.15C274.611 7.94333 274.434 8.64333 274.079 9.25C273.734 9.84733 273.262 10.3093 272.665 10.636C272.068 10.9627 271.405 11.126 270.677 11.126ZM270.677 10.006C271.134 10.006 271.564 9.89867 271.965 9.684C272.366 9.46933 272.688 9.14733 272.931 8.718C273.183 8.28867 273.309 7.766 273.309 7.15C273.309 6.534 273.188 6.01133 272.945 5.582C272.702 5.15267 272.385 4.83533 271.993 4.63C271.601 4.41533 271.176 4.308 270.719 4.308C270.252 4.308 269.823 4.41533 269.431 4.63C269.048 4.83533 268.74 5.15267 268.507 5.582C268.274 6.01133 268.157 6.534 268.157 7.15C268.157 7.77533 268.269 8.30267 268.493 8.732C268.726 9.16133 269.034 9.48333 269.417 9.698C269.8 9.90333 270.22 10.006 270.677 10.006ZM11.8654 31.328L9.47138 39H8.15538L6.30738 32.91L4.45938 39H3.14338L0.735383 31.328H2.03738L3.80138 37.768L5.70538 31.328H7.00738L8.86938 37.782L10.6054 31.328H11.8654ZM16.9378 31.188C17.5164 31.188 18.0391 31.314 18.5058 31.566C18.9724 31.8087 19.3364 32.1773 19.5978 32.672C19.8684 33.1667 20.0038 33.7687 20.0038 34.478V39H18.7438V34.66C18.7438 33.8947 18.5524 33.3113 18.1698 32.91C17.7871 32.4993 17.2644 32.294 16.6018 32.294C15.9298 32.294 15.3931 32.504 14.9918 32.924C14.5998 33.344 14.4038 33.9553 14.4038 34.758V39H13.1298V28.64H14.4038V32.42C14.6558 32.028 15.0011 31.7247 15.4398 31.51C15.8878 31.2953 16.3871 31.188 16.9378 31.188ZM22.7428 30.082C22.5002 30.082 22.2948 29.998 22.1268 29.83C21.9588 29.662 21.8748 29.4567 21.8748 29.214C21.8748 28.9713 21.9588 28.766 22.1268 28.598C22.2948 28.43 22.5002 28.346 22.7428 28.346C22.9762 28.346 23.1722 28.43 23.3308 28.598C23.4988 28.766 23.5828 28.9713 23.5828 29.214C23.5828 29.4567 23.4988 29.662 23.3308 29.83C23.1722 29.998 22.9762 30.082 22.7428 30.082ZM23.3588 31.328V39H22.0848V31.328H23.3588ZM26.8041 28.64V39H25.5301V28.64H26.8041ZM31.6915 39.126C31.1035 39.126 30.5761 39.028 30.1095 38.832C29.6428 38.6267 29.2741 38.3467 29.0035 37.992C28.7328 37.628 28.5835 37.2127 28.5555 36.746H29.8715C29.9088 37.1287 30.0861 37.4413 30.4035 37.684C30.7301 37.9267 31.1548 38.048 31.6775 38.048C32.1628 38.048 32.5455 37.9407 32.8255 37.726C33.1055 37.5113 33.2455 37.2407 33.2455 36.914C33.2455 36.578 33.0961 36.3307 32.7975 36.172C32.4988 36.004 32.0368 35.8407 31.4115 35.682C30.8421 35.5327 30.3755 35.3833 30.0115 35.234C29.6568 35.0753 29.3488 34.8467 29.0875 34.548C28.8355 34.24 28.7095 33.8387 28.7095 33.344C28.7095 32.952 28.8261 32.5927 29.0595 32.266C29.2928 31.9393 29.6241 31.6827 30.0535 31.496C30.4828 31.3 30.9728 31.202 31.5235 31.202C32.3728 31.202 33.0588 31.4167 33.5815 31.846C34.1041 32.2753 34.3841 32.8633 34.4215 33.61H33.1475C33.1195 33.2087 32.9561 32.8867 32.6575 32.644C32.3681 32.4013 31.9761 32.28 31.4815 32.28C31.0241 32.28 30.6601 32.378 30.3895 32.574C30.1188 32.77 29.9835 33.0267 29.9835 33.344C29.9835 33.596 30.0628 33.806 30.2215 33.974C30.3895 34.1327 30.5948 34.2633 30.8375 34.366C31.0895 34.4593 31.4348 34.5667 31.8735 34.688C32.4241 34.8373 32.8721 34.9867 33.2175 35.136C33.5628 35.276 33.8568 35.4907 34.0995 35.78C34.3515 36.0693 34.4821 36.4473 34.4915 36.914C34.4915 37.334 34.3748 37.712 34.1415 38.048C33.9081 38.384 33.5768 38.65 33.1475 38.846C32.7275 39.0327 32.2421 39.126 31.6915 39.126ZM37.8439 32.378V36.9C37.8439 37.2733 37.9232 37.5393 38.0819 37.698C38.2406 37.8473 38.5159 37.922 38.9079 37.922H39.8459V39H38.6979C37.9886 39 37.4566 38.8367 37.1019 38.51C36.7472 38.1833 36.5699 37.6467 36.5699 36.9V32.378H35.5759V31.328H36.5699V29.396H37.8439V31.328H39.8459V32.378H37.8439ZM44.6459 35.136C44.6459 34.352 44.8046 33.666 45.1219 33.078C45.4393 32.4807 45.8733 32.0187 46.4239 31.692C46.9839 31.3653 47.6093 31.202 48.2999 31.202C48.8973 31.202 49.4526 31.342 49.9659 31.622C50.4793 31.8927 50.8713 32.252 51.1419 32.7V28.64H52.4299V39H51.1419V37.558C50.8899 38.0153 50.5166 38.3933 50.0219 38.692C49.5273 38.9813 48.9486 39.126 48.2859 39.126C47.6046 39.126 46.9839 38.958 46.4239 38.622C45.8733 38.286 45.4393 37.8147 45.1219 37.208C44.8046 36.6013 44.6459 35.9107 44.6459 35.136ZM51.1419 35.15C51.1419 34.5713 51.0253 34.0673 50.7919 33.638C50.5586 33.2087 50.2413 32.882 49.8399 32.658C49.4479 32.4247 49.0139 32.308 48.5379 32.308C48.0619 32.308 47.6279 32.42 47.2359 32.644C46.8439 32.868 46.5313 33.1947 46.2979 33.624C46.0646 34.0533 45.9479 34.5573 45.9479 35.136C45.9479 35.724 46.0646 36.2373 46.2979 36.676C46.5313 37.1053 46.8439 37.4367 47.2359 37.67C47.6279 37.894 48.0619 38.006 48.5379 38.006C49.0139 38.006 49.4479 37.894 49.8399 37.67C50.2413 37.4367 50.5586 37.1053 50.7919 36.676C51.0253 36.2373 51.1419 35.7287 51.1419 35.15ZM61.5829 34.87C61.5829 35.1127 61.5689 35.3693 61.5409 35.64H55.4089C55.4555 36.396 55.7122 36.9887 56.1789 37.418C56.6549 37.838 57.2289 38.048 57.9009 38.048C58.4515 38.048 58.9089 37.922 59.2729 37.67C59.6462 37.4087 59.9075 37.0633 60.0569 36.634H61.4289C61.2235 37.3713 60.8129 37.9733 60.1969 38.44C59.5809 38.8973 58.8155 39.126 57.9009 39.126C57.1729 39.126 56.5195 38.9627 55.9409 38.636C55.3715 38.3093 54.9235 37.8473 54.5969 37.25C54.2702 36.6433 54.1069 35.9433 54.1069 35.15C54.1069 34.3567 54.2655 33.6613 54.5829 33.064C54.9002 32.4667 55.3435 32.0093 55.9129 31.692C56.4915 31.3653 57.1542 31.202 57.9009 31.202C58.6289 31.202 59.2729 31.3607 59.8329 31.678C60.3929 31.9953 60.8222 32.434 61.1209 32.994C61.4289 33.5447 61.5829 34.17 61.5829 34.87ZM60.2669 34.604C60.2669 34.1187 60.1595 33.7033 59.9449 33.358C59.7302 33.0033 59.4362 32.7373 59.0629 32.56C58.6989 32.3733 58.2929 32.28 57.8449 32.28C57.2009 32.28 56.6502 32.4853 56.1929 32.896C55.7449 33.3067 55.4882 33.876 55.4229 34.604H60.2669ZM66.1205 37.824L68.5005 31.328H69.8585L66.8485 39H65.3645L62.3545 31.328H63.7265L66.1205 37.824ZM78.1122 34.87C78.1122 35.1127 78.0982 35.3693 78.0702 35.64H71.9382C71.9848 36.396 72.2415 36.9887 72.7082 37.418C73.1842 37.838 73.7582 38.048 74.4302 38.048C74.9808 38.048 75.4382 37.922 75.8022 37.67C76.1755 37.4087 76.4368 37.0633 76.5862 36.634H77.9582C77.7528 37.3713 77.3422 37.9733 76.7262 38.44C76.1102 38.8973 75.3448 39.126 74.4302 39.126C73.7022 39.126 73.0488 38.9627 72.4702 38.636C71.9008 38.3093 71.4528 37.8473 71.1262 37.25C70.7995 36.6433 70.6362 35.9433 70.6362 35.15C70.6362 34.3567 70.7948 33.6613 71.1122 33.064C71.4295 32.4667 71.8728 32.0093 72.4422 31.692C73.0208 31.3653 73.6835 31.202 74.4302 31.202C75.1582 31.202 75.8022 31.3607 76.3622 31.678C76.9222 31.9953 77.3515 32.434 77.6502 32.994C77.9582 33.5447 78.1122 34.17 78.1122 34.87ZM76.7962 34.604C76.7962 34.1187 76.6888 33.7033 76.4742 33.358C76.2595 33.0033 75.9655 32.7373 75.5922 32.56C75.2282 32.3733 74.8222 32.28 74.3742 32.28C73.7302 32.28 73.1795 32.4853 72.7222 32.896C72.2742 33.3067 72.0175 33.876 71.9522 34.604H76.7962ZM81.0678 28.64V39H79.7938V28.64H81.0678ZM86.5851 39.126C85.8665 39.126 85.2131 38.9627 84.6251 38.636C84.0465 38.3093 83.5891 37.8473 83.2531 37.25C82.9265 36.6433 82.7631 35.9433 82.7631 35.15C82.7631 34.366 82.9311 33.6753 83.2671 33.078C83.6125 32.4713 84.0791 32.0093 84.6671 31.692C85.2551 31.3653 85.9131 31.202 86.6411 31.202C87.3691 31.202 88.0271 31.3653 88.6151 31.692C89.2031 32.0093 89.6651 32.4667 90.0011 33.064C90.3465 33.6613 90.5191 34.3567 90.5191 35.15C90.5191 35.9433 90.3418 36.6433 89.9871 37.25C89.6418 37.8473 89.1705 38.3093 88.5731 38.636C87.9758 38.9627 87.3131 39.126 86.5851 39.126ZM86.5851 38.006C87.0425 38.006 87.4718 37.8987 87.8731 37.684C88.2745 37.4693 88.5965 37.1473 88.8391 36.718C89.0911 36.2887 89.2171 35.766 89.2171 35.15C89.2171 34.534 89.0958 34.0113 88.8531 33.582C88.6105 33.1527 88.2931 32.8353 87.9011 32.63C87.5091 32.4153 87.0845 32.308 86.6271 32.308C86.1605 32.308 85.7311 32.4153 85.3391 32.63C84.9565 32.8353 84.6485 33.1527 84.4151 33.582C84.1818 34.0113 84.0651 34.534 84.0651 35.15C84.0651 35.7753 84.1771 36.3027 84.4011 36.732C84.6345 37.1613 84.9425 37.4833 85.3251 37.698C85.7078 37.9033 86.1278 38.006 86.5851 38.006ZM93.4682 32.742C93.7202 32.3033 94.0935 31.9393 94.5882 31.65C95.0922 31.3513 95.6755 31.202 96.3382 31.202C97.0195 31.202 97.6355 31.3653 98.1862 31.692C98.7462 32.0187 99.1849 32.4807 99.5022 33.078C99.8195 33.666 99.9782 34.352 99.9782 35.136C99.9782 35.9107 99.8195 36.6013 99.5022 37.208C99.1849 37.8147 98.7462 38.286 98.1862 38.622C97.6355 38.958 97.0195 39.126 96.3382 39.126C95.6849 39.126 95.1062 38.9813 94.6022 38.692C94.1075 38.3933 93.7295 38.0247 93.4682 37.586V42.64H92.1942V31.328H93.4682V32.742ZM98.6762 35.136C98.6762 34.5573 98.5595 34.0533 98.3262 33.624C98.0929 33.1947 97.7755 32.868 97.3742 32.644C96.9822 32.42 96.5482 32.308 96.0722 32.308C95.6055 32.308 95.1715 32.4247 94.7702 32.658C94.3782 32.882 94.0609 33.2133 93.8182 33.652C93.5849 34.0813 93.4682 34.5807 93.4682 35.15C93.4682 35.7287 93.5849 36.2373 93.8182 36.676C94.0609 37.1053 94.3782 37.4367 94.7702 37.67C95.1715 37.894 95.6055 38.006 96.0722 38.006C96.5482 38.006 96.9822 37.894 97.3742 37.67C97.7755 37.4367 98.0929 37.1053 98.3262 36.676C98.5595 36.2373 98.6762 35.724 98.6762 35.136ZM102.313 30.082C102.07 30.082 101.865 29.998 101.697 29.83C101.529 29.662 101.445 29.4567 101.445 29.214C101.445 28.9713 101.529 28.766 101.697 28.598C101.865 28.43 102.07 28.346 102.313 28.346C102.546 28.346 102.742 28.43 102.901 28.598C103.069 28.766 103.153 28.9713 103.153 29.214C103.153 29.4567 103.069 29.662 102.901 29.83C102.742 29.998 102.546 30.082 102.313 30.082ZM102.929 31.328V39H101.655V31.328H102.929ZM108.838 31.188C109.772 31.188 110.528 31.4727 111.106 32.042C111.685 32.602 111.974 33.414 111.974 34.478V39H110.714V34.66C110.714 33.8947 110.523 33.3113 110.14 32.91C109.758 32.4993 109.235 32.294 108.572 32.294C107.9 32.294 107.364 32.504 106.962 32.924C106.57 33.344 106.374 33.9553 106.374 34.758V39H105.1V31.328H106.374V32.42C106.626 32.028 106.967 31.7247 107.396 31.51C107.835 31.2953 108.316 31.188 108.838 31.188ZM117.22 31.202C117.882 31.202 118.461 31.3467 118.956 31.636C119.46 31.9253 119.833 32.2893 120.076 32.728V31.328H121.364V39.168C121.364 39.868 121.214 40.4887 120.916 41.03C120.617 41.5807 120.188 42.01 119.628 42.318C119.077 42.626 118.433 42.78 117.696 42.78C116.688 42.78 115.848 42.542 115.176 42.066C114.504 41.59 114.107 40.9413 113.986 40.12H115.246C115.386 40.5867 115.675 40.96 116.114 41.24C116.552 41.5293 117.08 41.674 117.696 41.674C118.396 41.674 118.965 41.4547 119.404 41.016C119.852 40.5773 120.076 39.9613 120.076 39.168V37.558C119.824 38.006 119.45 38.3793 118.956 38.678C118.461 38.9767 117.882 39.126 117.22 39.126C116.538 39.126 115.918 38.958 115.358 38.622C114.807 38.286 114.373 37.8147 114.056 37.208C113.738 36.6013 113.58 35.9107 113.58 35.136C113.58 34.352 113.738 33.666 114.056 33.078C114.373 32.4807 114.807 32.0187 115.358 31.692C115.918 31.3653 116.538 31.202 117.22 31.202ZM120.076 35.15C120.076 34.5713 119.959 34.0673 119.726 33.638C119.492 33.2087 119.175 32.882 118.774 32.658C118.382 32.4247 117.948 32.308 117.472 32.308C116.996 32.308 116.562 32.42 116.17 32.644C115.778 32.868 115.465 33.1947 115.232 33.624C114.998 34.0533 114.882 34.5573 114.882 35.136C114.882 35.724 114.998 36.2373 115.232 36.676C115.465 37.1053 115.778 37.4367 116.17 37.67C116.562 37.894 116.996 38.006 117.472 38.006C117.948 38.006 118.382 37.894 118.774 37.67C119.175 37.4367 119.492 37.1053 119.726 36.676C119.959 36.2373 120.076 35.7287 120.076 35.15ZM130.595 39.126C129.876 39.126 129.223 38.9627 128.635 38.636C128.056 38.3093 127.599 37.8473 127.263 37.25C126.936 36.6433 126.773 35.9433 126.773 35.15C126.773 34.366 126.941 33.6753 127.277 33.078C127.622 32.4713 128.089 32.0093 128.677 31.692C129.265 31.3653 129.923 31.202 130.651 31.202C131.379 31.202 132.037 31.3653 132.625 31.692C133.213 32.0093 133.675 32.4667 134.011 33.064C134.356 33.6613 134.529 34.3567 134.529 35.15C134.529 35.9433 134.352 36.6433 133.997 37.25C133.652 37.8473 133.18 38.3093 132.583 38.636C131.986 38.9627 131.323 39.126 130.595 39.126ZM130.595 38.006C131.052 38.006 131.482 37.8987 131.883 37.684C132.284 37.4693 132.606 37.1473 132.849 36.718C133.101 36.2887 133.227 35.766 133.227 35.15C133.227 34.534 133.106 34.0113 132.863 33.582C132.62 33.1527 132.303 32.8353 131.911 32.63C131.519 32.4153 131.094 32.308 130.637 32.308C130.17 32.308 129.741 32.4153 129.349 32.63C128.966 32.8353 128.658 33.1527 128.425 33.582C128.192 34.0113 128.075 34.534 128.075 35.15C128.075 35.7753 128.187 36.3027 128.411 36.732C128.644 37.1613 128.952 37.4833 129.335 37.698C129.718 37.9033 130.138 38.006 130.595 38.006ZM139.942 31.188C140.875 31.188 141.631 31.4727 142.21 32.042C142.789 32.602 143.078 33.414 143.078 34.478V39H141.818V34.66C141.818 33.8947 141.627 33.3113 141.244 32.91C140.861 32.4993 140.339 32.294 139.676 32.294C139.004 32.294 138.467 32.504 138.066 32.924C137.674 33.344 137.478 33.9553 137.478 34.758V39H136.204V31.328H137.478V32.42C137.73 32.028 138.071 31.7247 138.5 31.51C138.939 31.2953 139.419 31.188 139.942 31.188ZM154.029 39L151.705 35.01H150.165V39H148.891V29.242H152.041C152.779 29.242 153.399 29.368 153.903 29.62C154.417 29.872 154.799 30.2127 155.051 30.642C155.303 31.0713 155.429 31.5613 155.429 32.112C155.429 32.784 155.233 33.3767 154.841 33.89C154.459 34.4033 153.88 34.744 153.105 34.912L155.555 39H154.029ZM150.165 33.988H152.041C152.732 33.988 153.25 33.82 153.595 33.484C153.941 33.1387 154.113 32.6813 154.113 32.112C154.113 31.5333 153.941 31.0853 153.595 30.768C153.259 30.4507 152.741 30.292 152.041 30.292H150.165V33.988ZM160.755 39.126C160.036 39.126 159.383 38.9627 158.795 38.636C158.216 38.3093 157.759 37.8473 157.423 37.25C157.096 36.6433 156.933 35.9433 156.933 35.15C156.933 34.366 157.101 33.6753 157.437 33.078C157.782 32.4713 158.249 32.0093 158.837 31.692C159.425 31.3653 160.083 31.202 160.811 31.202C161.539 31.202 162.197 31.3653 162.785 31.692C163.373 32.0093 163.835 32.4667 164.171 33.064C164.516 33.6613 164.689 34.3567 164.689 35.15C164.689 35.9433 164.512 36.6433 164.157 37.25C163.812 37.8473 163.34 38.3093 162.743 38.636C162.146 38.9627 161.483 39.126 160.755 39.126ZM160.755 38.006C161.212 38.006 161.642 37.8987 162.043 37.684C162.444 37.4693 162.766 37.1473 163.009 36.718C163.261 36.2887 163.387 35.766 163.387 35.15C163.387 34.534 163.266 34.0113 163.023 33.582C162.78 33.1527 162.463 32.8353 162.071 32.63C161.679 32.4153 161.254 32.308 160.797 32.308C160.33 32.308 159.901 32.4153 159.509 32.63C159.126 32.8353 158.818 33.1527 158.585 33.582C158.352 34.0113 158.235 34.534 158.235 35.15C158.235 35.7753 158.347 36.3027 158.571 36.732C158.804 37.1613 159.112 37.4833 159.495 37.698C159.878 37.9033 160.298 38.006 160.755 38.006ZM167.638 32.756C167.899 32.2987 168.282 31.9253 168.786 31.636C169.29 31.3467 169.864 31.202 170.508 31.202C171.199 31.202 171.819 31.3653 172.37 31.692C172.921 32.0187 173.355 32.4807 173.672 33.078C173.989 33.666 174.148 34.352 174.148 35.136C174.148 35.9107 173.989 36.6013 173.672 37.208C173.355 37.8147 172.916 38.286 172.356 38.622C171.805 38.958 171.189 39.126 170.508 39.126C169.845 39.126 169.262 38.9813 168.758 38.692C168.263 38.4027 167.89 38.034 167.638 37.586V39H166.364V28.64H167.638V32.756ZM172.846 35.136C172.846 34.5573 172.729 34.0533 172.496 33.624C172.263 33.1947 171.945 32.868 171.544 32.644C171.152 32.42 170.718 32.308 170.242 32.308C169.775 32.308 169.341 32.4247 168.94 32.658C168.548 32.882 168.231 33.2133 167.988 33.652C167.755 34.0813 167.638 34.5807 167.638 35.15C167.638 35.7287 167.755 36.2373 167.988 36.676C168.231 37.1053 168.548 37.4367 168.94 37.67C169.341 37.894 169.775 38.006 170.242 38.006C170.718 38.006 171.152 37.894 171.544 37.67C171.945 37.4367 172.263 37.1053 172.496 36.676C172.729 36.2373 172.846 35.724 172.846 35.136ZM177.099 28.64V39H175.825V28.64H177.099ZM182.616 39.126C181.898 39.126 181.244 38.9627 180.656 38.636C180.078 38.3093 179.62 37.8473 179.284 37.25C178.958 36.6433 178.794 35.9433 178.794 35.15C178.794 34.366 178.962 33.6753 179.298 33.078C179.644 32.4713 180.11 32.0093 180.698 31.692C181.286 31.3653 181.944 31.202 182.672 31.202C183.4 31.202 184.058 31.3653 184.646 31.692C185.234 32.0093 185.696 32.4667 186.032 33.064C186.378 33.6613 186.55 34.3567 186.55 35.15C186.55 35.9433 186.373 36.6433 186.018 37.25C185.673 37.8473 185.202 38.3093 184.604 38.636C184.007 38.9627 183.344 39.126 182.616 39.126ZM182.616 38.006C183.074 38.006 183.503 37.8987 183.904 37.684C184.306 37.4693 184.628 37.1473 184.87 36.718C185.122 36.2887 185.248 35.766 185.248 35.15C185.248 34.534 185.127 34.0113 184.884 33.582C184.642 33.1527 184.324 32.8353 183.932 32.63C183.54 32.4153 183.116 32.308 182.658 32.308C182.192 32.308 181.762 32.4153 181.37 32.63C180.988 32.8353 180.68 33.1527 180.446 33.582C180.213 34.0113 180.096 34.534 180.096 35.15C180.096 35.7753 180.208 36.3027 180.432 36.732C180.666 37.1613 180.974 37.4833 181.356 37.698C181.739 37.9033 182.159 38.006 182.616 38.006ZM192.229 39L190.409 36.144L188.659 39H187.329L189.807 35.192L187.329 31.328H188.771L190.591 34.17L192.327 31.328H193.657L191.193 35.122L193.671 39H192.229ZM199.315 30.082C199.072 30.082 198.867 29.998 198.699 29.83C198.531 29.662 198.447 29.4567 198.447 29.214C198.447 28.9713 198.531 28.766 198.699 28.598C198.867 28.43 199.072 28.346 199.315 28.346C199.548 28.346 199.744 28.43 199.903 28.598C200.071 28.766 200.155 28.9713 200.155 29.214C200.155 29.4567 200.071 29.662 199.903 29.83C199.744 29.998 199.548 30.082 199.315 30.082ZM199.931 31.328V39H198.657V31.328H199.931ZM204.818 39.126C204.23 39.126 203.703 39.028 203.236 38.832C202.77 38.6267 202.401 38.3467 202.13 37.992C201.86 37.628 201.71 37.2127 201.682 36.746H202.998C203.036 37.1287 203.213 37.4413 203.53 37.684C203.857 37.9267 204.282 38.048 204.804 38.048C205.29 38.048 205.672 37.9407 205.952 37.726C206.232 37.5113 206.372 37.2407 206.372 36.914C206.372 36.578 206.223 36.3307 205.924 36.172C205.626 36.004 205.164 35.8407 204.538 35.682C203.969 35.5327 203.502 35.3833 203.138 35.234C202.784 35.0753 202.476 34.8467 202.214 34.548C201.962 34.24 201.836 33.8387 201.836 33.344C201.836 32.952 201.953 32.5927 202.186 32.266C202.42 31.9393 202.751 31.6827 203.18 31.496C203.61 31.3 204.1 31.202 204.65 31.202C205.5 31.202 206.186 31.4167 206.708 31.846C207.231 32.2753 207.511 32.8633 207.548 33.61H206.274C206.246 33.2087 206.083 32.8867 205.784 32.644C205.495 32.4013 205.103 32.28 204.608 32.28C204.151 32.28 203.787 32.378 203.516 32.574C203.246 32.77 203.11 33.0267 203.11 33.344C203.11 33.596 203.19 33.806 203.348 33.974C203.516 34.1327 203.722 34.2633 203.964 34.366C204.216 34.4593 204.562 34.5667 205 34.688C205.551 34.8373 205.999 34.9867 206.344 35.136C206.69 35.276 206.984 35.4907 207.226 35.78C207.478 36.0693 207.609 36.4473 207.618 36.914C207.618 37.334 207.502 37.712 207.268 38.048C207.035 38.384 206.704 38.65 206.274 38.846C205.854 39.0327 205.369 39.126 204.818 39.126ZM214.395 29.242V35.416C214.395 36.284 214.605 36.928 215.025 37.348C215.455 37.768 216.047 37.978 216.803 37.978C217.55 37.978 218.133 37.768 218.553 37.348C218.983 36.928 219.197 36.284 219.197 35.416V29.242H220.471V35.402C220.471 36.214 220.308 36.9 219.981 37.46C219.655 38.0107 219.211 38.4213 218.651 38.692C218.101 38.9627 217.48 39.098 216.789 39.098C216.099 39.098 215.473 38.9627 214.913 38.692C214.363 38.4213 213.924 38.0107 213.597 37.46C213.28 36.9 213.121 36.214 213.121 35.402V29.242H214.395ZM223.871 29.242V39H222.597V29.242H223.871ZM226.448 39.084C226.205 39.084 226 39 225.832 38.832C225.664 38.664 225.58 38.4587 225.58 38.216C225.58 37.9733 225.664 37.768 225.832 37.6C226 37.432 226.205 37.348 226.448 37.348C226.681 37.348 226.877 37.432 227.036 37.6C227.204 37.768 227.288 37.9733 227.288 38.216C227.288 38.4587 227.204 38.664 227.036 38.832C226.877 39 226.681 39.084 226.448 39.084ZM233.988 29.242V39H232.714V29.242H233.988ZM249.117 31.188C249.715 31.188 250.247 31.314 250.713 31.566C251.18 31.8087 251.549 32.1773 251.819 32.672C252.09 33.1667 252.225 33.7687 252.225 34.478V39H250.965V34.66C250.965 33.8947 250.774 33.3113 250.391 32.91C250.018 32.4993 249.509 32.294 248.865 32.294C248.203 32.294 247.675 32.5087 247.283 32.938C246.891 33.358 246.695 33.9693 246.695 34.772V39H245.435V34.66C245.435 33.8947 245.244 33.3113 244.861 32.91C244.488 32.4993 243.979 32.294 243.335 32.294C242.673 32.294 242.145 32.5087 241.753 32.938C241.361 33.358 241.165 33.9693 241.165 34.772V39H239.891V31.328H241.165V32.434C241.417 32.0327 241.753 31.7247 242.173 31.51C242.603 31.2953 243.074 31.188 243.587 31.188C244.231 31.188 244.801 31.3327 245.295 31.622C245.79 31.9113 246.159 32.336 246.401 32.896C246.616 32.3547 246.971 31.9347 247.465 31.636C247.96 31.3373 248.511 31.188 249.117 31.188ZM253.839 35.136C253.839 34.352 253.998 33.666 254.315 33.078C254.633 32.4807 255.067 32.0187 255.617 31.692C256.177 31.3653 256.798 31.202 257.479 31.202C258.151 31.202 258.735 31.3467 259.229 31.636C259.724 31.9253 260.093 32.2893 260.335 32.728V31.328H261.623V39H260.335V37.572C260.083 38.02 259.705 38.3933 259.201 38.692C258.707 38.9813 258.128 39.126 257.465 39.126C256.784 39.126 256.168 38.958 255.617 38.622C255.067 38.286 254.633 37.8147 254.315 37.208C253.998 36.6013 253.839 35.9107 253.839 35.136ZM260.335 35.15C260.335 34.5713 260.219 34.0673 259.985 33.638C259.752 33.2087 259.435 32.882 259.033 32.658C258.641 32.4247 258.207 32.308 257.731 32.308C257.255 32.308 256.821 32.42 256.429 32.644C256.037 32.868 255.725 33.1947 255.491 33.624C255.258 34.0533 255.141 34.5573 255.141 35.136C255.141 35.724 255.258 36.2373 255.491 36.676C255.725 37.1053 256.037 37.4367 256.429 37.67C256.821 37.894 257.255 38.006 257.731 38.006C258.207 38.006 258.641 37.894 259.033 37.67C259.435 37.4367 259.752 37.1053 259.985 36.676C260.219 36.2373 260.335 35.7287 260.335 35.15ZM264.434 30.082C264.192 30.082 263.986 29.998 263.818 29.83C263.65 29.662 263.566 29.4567 263.566 29.214C263.566 28.9713 263.65 28.766 263.818 28.598C263.986 28.43 264.192 28.346 264.434 28.346C264.668 28.346 264.864 28.43 265.022 28.598C265.19 28.766 265.274 28.9713 265.274 29.214C265.274 29.4567 265.19 29.662 265.022 29.83C264.864 29.998 264.668 30.082 264.434 30.082ZM265.05 31.328V39H263.776V31.328H265.05ZM270.96 31.188C271.893 31.188 272.649 31.4727 273.228 32.042C273.806 32.602 274.096 33.414 274.096 34.478V39H272.836V34.66C272.836 33.8947 272.644 33.3113 272.262 32.91C271.879 32.4993 271.356 32.294 270.694 32.294C270.022 32.294 269.485 32.504 269.084 32.924C268.692 33.344 268.496 33.9553 268.496 34.758V39H267.222V31.328H268.496V32.42C268.748 32.028 269.088 31.7247 269.518 31.51C269.956 31.2953 270.437 31.188 270.96 31.188ZM277.451 28.64V39H276.177V28.64H277.451ZM286.23 31.328L281.61 42.612H280.294L281.806 38.916L278.712 31.328H280.126L282.534 37.544L284.914 31.328H286.23ZM41.3713 59.328V67H40.0973V65.866C39.8546 66.258 39.5139 66.566 39.0753 66.79C38.6459 67.0047 38.1699 67.112 37.6473 67.112C37.0499 67.112 36.5133 66.9907 36.0373 66.748C35.5613 66.496 35.1833 66.1227 34.9033 65.628C34.6326 65.1333 34.4973 64.5313 34.4973 63.822V59.328H35.7573V63.654C35.7573 64.41 35.9486 64.9933 36.3313 65.404C36.7139 65.8053 37.2366 66.006 37.8993 66.006C38.5806 66.006 39.1173 65.796 39.5093 65.376C39.9013 64.956 40.0973 64.3447 40.0973 63.542V59.328H41.3713ZM46.2383 67.126C45.6503 67.126 45.123 67.028 44.6563 66.832C44.1897 66.6267 43.821 66.3467 43.5503 65.992C43.2797 65.628 43.1303 65.2127 43.1023 64.746H44.4183C44.4557 65.1287 44.633 65.4413 44.9503 65.684C45.277 65.9267 45.7017 66.048 46.2243 66.048C46.7097 66.048 47.0923 65.9407 47.3723 65.726C47.6523 65.5113 47.7923 65.2407 47.7923 64.914C47.7923 64.578 47.643 64.3307 47.3443 64.172C47.0457 64.004 46.5837 63.8407 45.9583 63.682C45.389 63.5327 44.9223 63.3833 44.5583 63.234C44.2037 63.0753 43.8957 62.8467 43.6343 62.548C43.3823 62.24 43.2563 61.8387 43.2563 61.344C43.2563 60.952 43.373 60.5927 43.6063 60.266C43.8397 59.9393 44.171 59.6827 44.6003 59.496C45.0297 59.3 45.5197 59.202 46.0703 59.202C46.9197 59.202 47.6057 59.4167 48.1283 59.846C48.651 60.2753 48.931 60.8633 48.9683 61.61H47.6943C47.6663 61.2087 47.503 60.8867 47.2043 60.644C46.915 60.4013 46.523 60.28 46.0283 60.28C45.571 60.28 45.207 60.378 44.9363 60.574C44.6657 60.77 44.5303 61.0267 44.5303 61.344C44.5303 61.596 44.6097 61.806 44.7683 61.974C44.9363 62.1327 45.1417 62.2633 45.3843 62.366C45.6363 62.4593 45.9817 62.5667 46.4203 62.688C46.971 62.8373 47.419 62.9867 47.7643 63.136C48.1097 63.276 48.4037 63.4907 48.6463 63.78C48.8983 64.0693 49.029 64.4473 49.0383 64.914C49.0383 65.334 48.9217 65.712 48.6883 66.048C48.455 66.384 48.1237 66.65 47.6943 66.846C47.2743 67.0327 46.789 67.126 46.2383 67.126ZM57.8368 62.87C57.8368 63.1127 57.8228 63.3693 57.7948 63.64H51.6628C51.7095 64.396 51.9661 64.9887 52.4328 65.418C52.9088 65.838 53.4828 66.048 54.1548 66.048C54.7055 66.048 55.1628 65.922 55.5268 65.67C55.9001 65.4087 56.1615 65.0633 56.3108 64.634H57.6828C57.4775 65.3713 57.0668 65.9733 56.4508 66.44C55.8348 66.8973 55.0695 67.126 54.1548 67.126C53.4268 67.126 52.7735 66.9627 52.1948 66.636C51.6255 66.3093 51.1775 65.8473 50.8508 65.25C50.5241 64.6433 50.3608 63.9433 50.3608 63.15C50.3608 62.3567 50.5195 61.6613 50.8368 61.064C51.1541 60.4667 51.5975 60.0093 52.1668 59.692C52.7455 59.3653 53.4081 59.202 54.1548 59.202C54.8828 59.202 55.5268 59.3607 56.0868 59.678C56.6468 59.9953 57.0761 60.434 57.3748 60.994C57.6828 61.5447 57.8368 62.17 57.8368 62.87ZM56.5208 62.604C56.5208 62.1187 56.4135 61.7033 56.1988 61.358C55.9841 61.0033 55.6901 60.7373 55.3168 60.56C54.9528 60.3733 54.5468 60.28 54.0988 60.28C53.4548 60.28 52.9041 60.4853 52.4468 60.896C51.9988 61.3067 51.7421 61.876 51.6768 62.604H56.5208ZM68.7669 57.242V58.278H64.5249V61.568H67.9689V62.604H64.5249V67H63.2509V57.242H68.7669ZM77.1095 59.328V67H75.8355V65.866C75.5929 66.258 75.2522 66.566 74.8135 66.79C74.3842 67.0047 73.9082 67.112 73.3855 67.112C72.7882 67.112 72.2515 66.9907 71.7755 66.748C71.2995 66.496 70.9215 66.1227 70.6415 65.628C70.3709 65.1333 70.2355 64.5313 70.2355 63.822V59.328H71.4955V63.654C71.4955 64.41 71.6869 64.9933 72.0695 65.404C72.4522 65.8053 72.9749 66.006 73.6375 66.006C74.3189 66.006 74.8555 65.796 75.2475 65.376C75.6395 64.956 75.8355 64.3447 75.8355 63.542V59.328H77.1095ZM81.9766 67.126C81.3886 67.126 80.8613 67.028 80.3946 66.832C79.928 66.6267 79.5593 66.3467 79.2886 65.992C79.018 65.628 78.8686 65.2127 78.8406 64.746H80.1566C80.194 65.1287 80.3713 65.4413 80.6886 65.684C81.0153 65.9267 81.44 66.048 81.9626 66.048C82.448 66.048 82.8306 65.9407 83.1106 65.726C83.3906 65.5113 83.5306 65.2407 83.5306 64.914C83.5306 64.578 83.3813 64.3307 83.0826 64.172C82.784 64.004 82.322 63.8407 81.6966 63.682C81.1273 63.5327 80.6606 63.3833 80.2966 63.234C79.942 63.0753 79.634 62.8467 79.3726 62.548C79.1206 62.24 78.9946 61.8387 78.9946 61.344C78.9946 60.952 79.1113 60.5927 79.3446 60.266C79.578 59.9393 79.9093 59.6827 80.3386 59.496C80.768 59.3 81.258 59.202 81.8086 59.202C82.658 59.202 83.344 59.4167 83.8666 59.846C84.3893 60.2753 84.6693 60.8633 84.7066 61.61H83.4326C83.4046 61.2087 83.2413 60.8867 82.9426 60.644C82.6533 60.4013 82.2613 60.28 81.7666 60.28C81.3093 60.28 80.9453 60.378 80.6746 60.574C80.404 60.77 80.2686 61.0267 80.2686 61.344C80.2686 61.596 80.348 61.806 80.5066 61.974C80.6746 62.1327 80.88 62.2633 81.1226 62.366C81.3746 62.4593 81.72 62.5667 82.1586 62.688C82.7093 62.8373 83.1573 62.9867 83.5026 63.136C83.848 63.276 84.142 63.4907 84.3846 63.78C84.6366 64.0693 84.7673 64.4473 84.7766 64.914C84.7766 65.334 84.66 65.712 84.4266 66.048C84.1933 66.384 83.862 66.65 83.4326 66.846C83.0126 67.0327 82.5273 67.126 81.9766 67.126ZM87.2331 58.082C86.9904 58.082 86.7851 57.998 86.6171 57.83C86.4491 57.662 86.3651 57.4567 86.3651 57.214C86.3651 56.9713 86.4491 56.766 86.6171 56.598C86.7851 56.43 86.9904 56.346 87.2331 56.346C87.4664 56.346 87.6624 56.43 87.8211 56.598C87.9891 56.766 88.0731 56.9713 88.0731 57.214C88.0731 57.4567 87.9891 57.662 87.8211 57.83C87.6624 57.998 87.4664 58.082 87.2331 58.082ZM87.8491 59.328V67H86.5751V59.328H87.8491ZM93.3664 67.126C92.6477 67.126 91.9944 66.9627 91.4064 66.636C90.8277 66.3093 90.3704 65.8473 90.0344 65.25C89.7077 64.6433 89.5444 63.9433 89.5444 63.15C89.5444 62.366 89.7124 61.6753 90.0484 61.078C90.3937 60.4713 90.8604 60.0093 91.4484 59.692C92.0364 59.3653 92.6944 59.202 93.4224 59.202C94.1504 59.202 94.8084 59.3653 95.3964 59.692C95.9844 60.0093 96.4464 60.4667 96.7824 61.064C97.1277 61.6613 97.3004 62.3567 97.3004 63.15C97.3004 63.9433 97.123 64.6433 96.7684 65.25C96.423 65.8473 95.9517 66.3093 95.3544 66.636C94.757 66.9627 94.0944 67.126 93.3664 67.126ZM93.3664 66.006C93.8237 66.006 94.253 65.8987 94.6544 65.684C95.0557 65.4693 95.3777 65.1473 95.6204 64.718C95.8724 64.2887 95.9984 63.766 95.9984 63.15C95.9984 62.534 95.877 62.0113 95.6344 61.582C95.3917 61.1527 95.0744 60.8353 94.6824 60.63C94.2904 60.4153 93.8657 60.308 93.4084 60.308C92.9417 60.308 92.5124 60.4153 92.1204 60.63C91.7377 60.8353 91.4297 61.1527 91.1964 61.582C90.963 62.0113 90.8464 62.534 90.8464 63.15C90.8464 63.7753 90.9584 64.3027 91.1824 64.732C91.4157 65.1613 91.7237 65.4833 92.1064 65.698C92.489 65.9033 92.909 66.006 93.3664 66.006ZM102.713 59.188C103.647 59.188 104.403 59.4727 104.981 60.042C105.56 60.602 105.849 61.414 105.849 62.478V67H104.589V62.66C104.589 61.8947 104.398 61.3113 104.015 60.91C103.633 60.4993 103.11 60.294 102.447 60.294C101.775 60.294 101.239 60.504 100.837 60.924C100.445 61.344 100.249 61.9553 100.249 62.758V67H98.9755V59.328H100.249V60.42C100.501 60.028 100.842 59.7247 101.271 59.51C101.71 59.2953 102.191 59.188 102.713 59.188ZM114.785 60.378H113.175V67H111.901V60.378H110.907V59.328H111.901V58.782C111.901 57.9233 112.12 57.298 112.559 56.906C113.007 56.5047 113.721 56.304 114.701 56.304V57.368C114.141 57.368 113.744 57.48 113.511 57.704C113.287 57.9187 113.175 58.278 113.175 58.782V59.328H114.785V60.378ZM119.616 67.126C118.898 67.126 118.244 66.9627 117.656 66.636C117.078 66.3093 116.62 65.8473 116.284 65.25C115.958 64.6433 115.794 63.9433 115.794 63.15C115.794 62.366 115.962 61.6753 116.298 61.078C116.644 60.4713 117.11 60.0093 117.698 59.692C118.286 59.3653 118.944 59.202 119.672 59.202C120.4 59.202 121.058 59.3653 121.646 59.692C122.234 60.0093 122.696 60.4667 123.032 61.064C123.378 61.6613 123.55 62.3567 123.55 63.15C123.55 63.9433 123.373 64.6433 123.018 65.25C122.673 65.8473 122.202 66.3093 121.604 66.636C121.007 66.9627 120.344 67.126 119.616 67.126ZM119.616 66.006C120.074 66.006 120.503 65.8987 120.904 65.684C121.306 65.4693 121.628 65.1473 121.87 64.718C122.122 64.2887 122.248 63.766 122.248 63.15C122.248 62.534 122.127 62.0113 121.884 61.582C121.642 61.1527 121.324 60.8353 120.932 60.63C120.54 60.4153 120.116 60.308 119.658 60.308C119.192 60.308 118.762 60.4153 118.37 60.63C117.988 60.8353 117.68 61.1527 117.446 61.582C117.213 62.0113 117.096 62.534 117.096 63.15C117.096 63.7753 117.208 64.3027 117.432 64.732C117.666 65.1613 117.974 65.4833 118.356 65.698C118.739 65.9033 119.159 66.006 119.616 66.006ZM126.499 60.574C126.723 60.1353 127.041 59.7947 127.451 59.552C127.871 59.3093 128.38 59.188 128.977 59.188V60.504H128.641C127.213 60.504 126.499 61.2787 126.499 62.828V67H125.225V59.328H126.499V60.574ZM135.455 60.756C135.716 60.2987 136.099 59.9253 136.603 59.636C137.107 59.3467 137.681 59.202 138.325 59.202C139.015 59.202 139.636 59.3653 140.187 59.692C140.737 60.0187 141.171 60.4807 141.489 61.078C141.806 61.666 141.965 62.352 141.965 63.136C141.965 63.9107 141.806 64.6013 141.489 65.208C141.171 65.8147 140.733 66.286 140.173 66.622C139.622 66.958 139.006 67.126 138.325 67.126C137.662 67.126 137.079 66.9813 136.575 66.692C136.08 66.4027 135.707 66.034 135.455 65.586V67H134.181V56.64H135.455V60.756ZM140.663 63.136C140.663 62.5573 140.546 62.0533 140.313 61.624C140.079 61.1947 139.762 60.868 139.361 60.644C138.969 60.42 138.535 60.308 138.059 60.308C137.592 60.308 137.158 60.4247 136.757 60.658C136.365 60.882 136.047 61.2133 135.805 61.652C135.571 62.0813 135.455 62.5807 135.455 63.15C135.455 63.7287 135.571 64.2373 135.805 64.676C136.047 65.1053 136.365 65.4367 136.757 65.67C137.158 65.894 137.592 66.006 138.059 66.006C138.535 66.006 138.969 65.894 139.361 65.67C139.762 65.4367 140.079 65.1053 140.313 64.676C140.546 64.2373 140.663 63.724 140.663 63.136ZM144.915 60.574C145.139 60.1353 145.457 59.7947 145.867 59.552C146.287 59.3093 146.796 59.188 147.393 59.188V60.504H147.057C145.629 60.504 144.915 61.2787 144.915 62.828V67H143.641V59.328H144.915V60.574ZM149.522 58.082C149.279 58.082 149.074 57.998 148.906 57.83C148.738 57.662 148.654 57.4567 148.654 57.214C148.654 56.9713 148.738 56.766 148.906 56.598C149.074 56.43 149.279 56.346 149.522 56.346C149.755 56.346 149.951 56.43 150.11 56.598C150.278 56.766 150.362 56.9713 150.362 57.214C150.362 57.4567 150.278 57.662 150.11 57.83C149.951 57.998 149.755 58.082 149.522 58.082ZM150.138 59.328V67H148.864V59.328H150.138ZM156.047 59.188C156.981 59.188 157.737 59.4727 158.315 60.042C158.894 60.602 159.183 61.414 159.183 62.478V67H157.923V62.66C157.923 61.8947 157.732 61.3113 157.349 60.91C156.967 60.4993 156.444 60.294 155.781 60.294C155.109 60.294 154.573 60.504 154.171 60.924C153.779 61.344 153.583 61.9553 153.583 62.758V67H152.309V59.328H153.583V60.42C153.835 60.028 154.176 59.7247 154.605 59.51C155.044 59.2953 155.525 59.188 156.047 59.188ZM164.429 59.202C165.091 59.202 165.67 59.3467 166.165 59.636C166.669 59.9253 167.042 60.2893 167.285 60.728V59.328H168.573V67.168C168.573 67.868 168.423 68.4887 168.125 69.03C167.826 69.5807 167.397 70.01 166.837 70.318C166.286 70.626 165.642 70.78 164.905 70.78C163.897 70.78 163.057 70.542 162.385 70.066C161.713 69.59 161.316 68.9413 161.195 68.12H162.455C162.595 68.5867 162.884 68.96 163.323 69.24C163.761 69.5293 164.289 69.674 164.905 69.674C165.605 69.674 166.174 69.4547 166.613 69.016C167.061 68.5773 167.285 67.9613 167.285 67.168V65.558C167.033 66.006 166.659 66.3793 166.165 66.678C165.67 66.9767 165.091 67.126 164.429 67.126C163.747 67.126 163.127 66.958 162.567 66.622C162.016 66.286 161.582 65.8147 161.265 65.208C160.947 64.6013 160.789 63.9107 160.789 63.136C160.789 62.352 160.947 61.666 161.265 61.078C161.582 60.4807 162.016 60.0187 162.567 59.692C163.127 59.3653 163.747 59.202 164.429 59.202ZM167.285 63.15C167.285 62.5713 167.168 62.0673 166.935 61.638C166.701 61.2087 166.384 60.882 165.983 60.658C165.591 60.4247 165.157 60.308 164.681 60.308C164.205 60.308 163.771 60.42 163.379 60.644C162.987 60.868 162.674 61.1947 162.441 61.624C162.207 62.0533 162.091 62.5573 162.091 63.136C162.091 63.724 162.207 64.2373 162.441 64.676C162.674 65.1053 162.987 65.4367 163.379 65.67C163.771 65.894 164.205 66.006 164.681 66.006C165.157 66.006 165.591 65.894 165.983 65.67C166.384 65.4367 166.701 65.1053 166.935 64.676C167.168 64.2373 167.285 63.7287 167.285 63.15ZM171.383 58.082C171.141 58.082 170.935 57.998 170.767 57.83C170.599 57.662 170.515 57.4567 170.515 57.214C170.515 56.9713 170.599 56.766 170.767 56.598C170.935 56.43 171.141 56.346 171.383 56.346C171.617 56.346 171.813 56.43 171.971 56.598C172.139 56.766 172.223 56.9713 172.223 57.214C172.223 57.4567 172.139 57.662 171.971 57.83C171.813 57.998 171.617 58.082 171.383 58.082ZM171.999 59.328V67H170.725V59.328H171.999ZM177.909 59.188C178.842 59.188 179.598 59.4727 180.177 60.042C180.755 60.602 181.045 61.414 181.045 62.478V67H179.785V62.66C179.785 61.8947 179.593 61.3113 179.211 60.91C178.828 60.4993 178.305 60.294 177.643 60.294C176.971 60.294 176.434 60.504 176.033 60.924C175.641 61.344 175.445 61.9553 175.445 62.758V67H174.171V59.328H175.445V60.42C175.697 60.028 176.037 59.7247 176.467 59.51C176.905 59.2953 177.386 59.188 177.909 59.188ZM186.29 59.202C186.953 59.202 187.531 59.3467 188.026 59.636C188.53 59.9253 188.903 60.2893 189.146 60.728V59.328H190.434V67.168C190.434 67.868 190.285 68.4887 189.986 69.03C189.687 69.5807 189.258 70.01 188.698 70.318C188.147 70.626 187.503 70.78 186.766 70.78C185.758 70.78 184.918 70.542 184.246 70.066C183.574 69.59 183.177 68.9413 183.056 68.12H184.316C184.456 68.5867 184.745 68.96 185.184 69.24C185.623 69.5293 186.15 69.674 186.766 69.674C187.466 69.674 188.035 69.4547 188.474 69.016C188.922 68.5773 189.146 67.9613 189.146 67.168V65.558C188.894 66.006 188.521 66.3793 188.026 66.678C187.531 66.9767 186.953 67.126 186.29 67.126C185.609 67.126 184.988 66.958 184.428 66.622C183.877 66.286 183.443 65.8147 183.126 65.208C182.809 64.6013 182.65 63.9107 182.65 63.136C182.65 62.352 182.809 61.666 183.126 61.078C183.443 60.4807 183.877 60.0187 184.428 59.692C184.988 59.3653 185.609 59.202 186.29 59.202ZM189.146 63.15C189.146 62.5713 189.029 62.0673 188.796 61.638C188.563 61.2087 188.245 60.882 187.844 60.658C187.452 60.4247 187.018 60.308 186.542 60.308C186.066 60.308 185.632 60.42 185.24 60.644C184.848 60.868 184.535 61.1947 184.302 61.624C184.069 62.0533 183.952 62.5573 183.952 63.136C183.952 63.724 184.069 64.2373 184.302 64.676C184.535 65.1053 184.848 65.4367 185.24 65.67C185.632 65.894 186.066 66.006 186.542 66.006C187.018 66.006 187.452 65.894 187.844 65.67C188.245 65.4367 188.563 65.1053 188.796 64.676C189.029 64.2373 189.146 63.7287 189.146 63.15ZM203.123 59.328V67H201.849V65.866C201.607 66.258 201.266 66.566 200.827 66.79C200.398 67.0047 199.922 67.112 199.399 67.112C198.802 67.112 198.265 66.9907 197.789 66.748C197.313 66.496 196.935 66.1227 196.655 65.628C196.385 65.1333 196.249 64.5313 196.249 63.822V59.328H197.509V63.654C197.509 64.41 197.701 64.9933 198.083 65.404C198.466 65.8053 198.989 66.006 199.651 66.006C200.333 66.006 200.869 65.796 201.261 65.376C201.653 64.956 201.849 64.3447 201.849 63.542V59.328H203.123ZM205.932 58.082C205.69 58.082 205.484 57.998 205.316 57.83C205.148 57.662 205.064 57.4567 205.064 57.214C205.064 56.9713 205.148 56.766 205.316 56.598C205.484 56.43 205.69 56.346 205.932 56.346C206.166 56.346 206.362 56.43 206.52 56.598C206.688 56.766 206.772 56.9713 206.772 57.214C206.772 57.4567 206.688 57.662 206.52 57.83C206.362 57.998 206.166 58.082 205.932 58.082ZM206.548 59.328V67H205.274V59.328H206.548ZM214.006 60.378V64.9C214.006 65.2733 214.085 65.5393 214.244 65.698C214.403 65.8473 214.678 65.922 215.07 65.922H216.008V67H214.86C214.151 67 213.619 66.8367 213.264 66.51C212.909 66.1833 212.732 65.6467 212.732 64.9V60.378H211.738V59.328H212.732V57.396H214.006V59.328H216.008V60.378H214.006ZM220.898 67.126C220.179 67.126 219.526 66.9627 218.938 66.636C218.359 66.3093 217.902 65.8473 217.566 65.25C217.239 64.6433 217.076 63.9433 217.076 63.15C217.076 62.366 217.244 61.6753 217.58 61.078C217.925 60.4713 218.392 60.0093 218.98 59.692C219.568 59.3653 220.226 59.202 220.954 59.202C221.682 59.202 222.34 59.3653 222.928 59.692C223.516 60.0093 223.978 60.4667 224.314 61.064C224.659 61.6613 224.832 62.3567 224.832 63.15C224.832 63.9433 224.654 64.6433 224.3 65.25C223.954 65.8473 223.483 66.3093 222.886 66.636C222.288 66.9627 221.626 67.126 220.898 67.126ZM220.898 66.006C221.355 66.006 221.784 65.8987 222.186 65.684C222.587 65.4693 222.909 65.1473 223.152 64.718C223.404 64.2887 223.53 63.766 223.53 63.15C223.53 62.534 223.408 62.0113 223.166 61.582C222.923 61.1527 222.606 60.8353 222.214 60.63C221.822 60.4153 221.397 60.308 220.94 60.308C220.473 60.308 220.044 60.4153 219.652 60.63C219.269 60.8353 218.961 61.1527 218.728 61.582C218.494 62.0113 218.378 62.534 218.378 63.15C218.378 63.7753 218.49 64.3027 218.714 64.732C218.947 65.1613 219.255 65.4833 219.638 65.698C220.02 65.9033 220.44 66.006 220.898 66.006ZM231.513 56.64V67H230.239V56.64H231.513ZM234.342 58.082C234.1 58.082 233.894 57.998 233.726 57.83C233.558 57.662 233.474 57.4567 233.474 57.214C233.474 56.9713 233.558 56.766 233.726 56.598C233.894 56.43 234.1 56.346 234.342 56.346C234.576 56.346 234.772 56.43 234.93 56.598C235.098 56.766 235.182 56.9713 235.182 57.214C235.182 57.4567 235.098 57.662 234.93 57.83C234.772 57.998 234.576 58.082 234.342 58.082ZM234.958 59.328V67H233.684V59.328H234.958ZM240.252 60.378H238.642V67H237.368V60.378H236.374V59.328H237.368V58.782C237.368 57.9233 237.587 57.298 238.026 56.906C238.474 56.5047 239.188 56.304 240.168 56.304V57.368C239.608 57.368 239.211 57.48 238.978 57.704C238.754 57.9187 238.642 58.278 238.642 58.782V59.328H240.252V60.378ZM248.737 62.87C248.737 63.1127 248.723 63.3693 248.695 63.64H242.563C242.61 64.396 242.867 64.9887 243.333 65.418C243.809 65.838 244.383 66.048 245.055 66.048C245.606 66.048 246.063 65.922 246.427 65.67C246.801 65.4087 247.062 65.0633 247.211 64.634H248.583C248.378 65.3713 247.967 65.9733 247.351 66.44C246.735 66.8973 245.97 67.126 245.055 67.126C244.327 67.126 243.674 66.9627 243.095 66.636C242.526 66.3093 242.078 65.8473 241.751 65.25C241.425 64.6433 241.261 63.9433 241.261 63.15C241.261 62.3567 241.42 61.6613 241.737 61.064C242.055 60.4667 242.498 60.0093 243.067 59.692C243.646 59.3653 244.309 59.202 245.055 59.202C245.783 59.202 246.427 59.3607 246.987 59.678C247.547 59.9953 247.977 60.434 248.275 60.994C248.583 61.5447 248.737 62.17 248.737 62.87ZM247.421 62.604C247.421 62.1187 247.314 61.7033 247.099 61.358C246.885 61.0033 246.591 60.7373 246.217 60.56C245.853 60.3733 245.447 60.28 244.999 60.28C244.355 60.28 243.805 60.4853 243.347 60.896C242.899 61.3067 242.643 61.876 242.577 62.604H247.421ZM252.071 57.242L251.917 64.242H250.853L250.699 57.242H252.071ZM251.441 67.084C251.198 67.084 250.993 67 250.825 66.832C250.657 66.664 250.573 66.4587 250.573 66.216C250.573 65.9733 250.657 65.768 250.825 65.6C250.993 65.432 251.198 65.348 251.441 65.348C251.674 65.348 251.87 65.432 252.029 65.6C252.197 65.768 252.281 65.9733 252.281 66.216C252.281 66.4587 252.197 66.664 252.029 66.832C251.87 67 251.674 67.084 251.441 67.084Z" fill="#9E9E9E"/>
</svg>
