<svg width="301" height="71" viewBox="0 0 301 71" fill="none" xmlns="http://www.w3.org/2000/svg">
<path d="M3.97212 1.242V11H2.69812V1.242H3.97212ZM20.0959 3.328L17.7019 11H16.3859L14.5379 4.91L12.6899 11H11.3739L8.96585 3.328H10.2679L12.0319 9.768L13.9359 3.328H15.2379L17.0999 9.782L18.8359 3.328H20.0959ZM20.8842 7.136C20.8842 6.352 21.0429 5.666 21.3602 5.078C21.6776 4.48067 22.1116 4.01867 22.6622 3.692C23.2222 3.36533 23.8429 3.202 24.5242 3.202C25.1962 3.202 25.7796 3.34667 26.2742 3.636C26.7689 3.92533 27.1376 4.28933 27.3802 4.728V3.328H28.6682V11H27.3802V9.572C27.1282 10.02 26.7502 10.3933 26.2462 10.692C25.7516 10.9813 25.1729 11.126 24.5102 11.126C23.8289 11.126 23.2129 10.958 22.6622 10.622C22.1116 10.286 21.6776 9.81467 21.3602 9.208C21.0429 8.60133 20.8842 7.91067 20.8842 7.136ZM27.3802 7.15C27.3802 6.57133 27.2636 6.06733 27.0302 5.638C26.7969 5.20867 26.4796 4.882 26.0782 4.658C25.6862 4.42467 25.2522 4.308 24.7762 4.308C24.3002 4.308 23.8662 4.42 23.4742 4.644C23.0822 4.868 22.7696 5.19467 22.5362 5.624C22.3029 6.05333 22.1862 6.55733 22.1862 7.136C22.1862 7.724 22.3029 8.23733 22.5362 8.676C22.7696 9.10533 23.0822 9.43667 23.4742 9.67C23.8662 9.894 24.3002 10.006 24.7762 10.006C25.2522 10.006 25.6862 9.894 26.0782 9.67C26.4796 9.43667 26.7969 9.10533 27.0302 8.676C27.2636 8.23733 27.3802 7.72867 27.3802 7.15ZM33.5372 11.126C32.9492 11.126 32.4218 11.028 31.9552 10.832C31.4885 10.6267 31.1198 10.3467 30.8492 9.992C30.5785 9.628 30.4292 9.21267 30.4012 8.746H31.7172C31.7545 9.12867 31.9318 9.44133 32.2492 9.684C32.5758 9.92667 33.0005 10.048 33.5232 10.048C34.0085 10.048 34.3912 9.94067 34.6712 9.726C34.9512 9.51133 35.0912 9.24067 35.0912 8.914C35.0912 8.578 34.9418 8.33067 34.6432 8.172C34.3445 8.004 33.8825 7.84067 33.2572 7.682C32.6878 7.53267 32.2212 7.38333 31.8572 7.234C31.5025 7.07533 31.1945 6.84667 30.9332 6.548C30.6812 6.24 30.5552 5.83867 30.5552 5.344C30.5552 4.952 30.6718 4.59267 30.9052 4.266C31.1385 3.93933 31.4698 3.68267 31.8992 3.496C32.3285 3.3 32.8185 3.202 33.3692 3.202C34.2185 3.202 34.9045 3.41667 35.4272 3.846C35.9498 4.27533 36.2298 4.86333 36.2672 5.61H34.9932C34.9652 5.20867 34.8018 4.88667 34.5032 4.644C34.2138 4.40133 33.8218 4.28 33.3272 4.28C32.8698 4.28 32.5058 4.378 32.2352 4.574C31.9645 4.77 31.8292 5.02667 31.8292 5.344C31.8292 5.596 31.9085 5.806 32.0672 5.974C32.2352 6.13267 32.4405 6.26333 32.6832 6.366C32.9352 6.45933 33.2805 6.56667 33.7192 6.688C34.2698 6.83733 34.7178 6.98667 35.0632 7.136C35.4085 7.276 35.7025 7.49067 35.9452 7.78C36.1972 8.06933 36.3278 8.44733 36.3372 8.914C36.3372 9.334 36.2205 9.712 35.9872 10.048C35.7538 10.384 35.4225 10.65 34.9932 10.846C34.5732 11.0327 34.0878 11.126 33.5372 11.126ZM44.584 11.126C43.996 11.126 43.4687 11.028 43.002 10.832C42.5354 10.6267 42.1667 10.3467 41.896 9.992C41.6254 9.628 41.476 9.21267 41.448 8.746H42.764C42.8014 9.12867 42.9787 9.44133 43.296 9.684C43.6227 9.92667 44.0474 10.048 44.57 10.048C45.0554 10.048 45.438 9.94067 45.718 9.726C45.998 9.51133 46.138 9.24067 46.138 8.914C46.138 8.578 45.9887 8.33067 45.69 8.172C45.3914 8.004 44.9294 7.84067 44.304 7.682C43.7347 7.53267 43.268 7.38333 42.904 7.234C42.5494 7.07533 42.2414 6.84667 41.98 6.548C41.728 6.24 41.602 5.83867 41.602 5.344C41.602 4.952 41.7187 4.59267 41.952 4.266C42.1854 3.93933 42.5167 3.68267 42.946 3.496C43.3754 3.3 43.8654 3.202 44.416 3.202C45.2654 3.202 45.9514 3.41667 46.474 3.846C46.9967 4.27533 47.2767 4.86333 47.314 5.61H46.04C46.012 5.20867 45.8487 4.88667 45.55 4.644C45.2607 4.40133 44.8687 4.28 44.374 4.28C43.9167 4.28 43.5527 4.378 43.282 4.574C43.0114 4.77 42.876 5.02667 42.876 5.344C42.876 5.596 42.9554 5.806 43.114 5.974C43.282 6.13267 43.4874 6.26333 43.73 6.366C43.982 6.45933 44.3274 6.56667 44.766 6.688C45.3167 6.83733 45.7647 6.98667 46.11 7.136C46.4554 7.276 46.7494 7.49067 46.992 7.78C47.244 8.06933 47.3747 8.44733 47.384 8.914C47.384 9.334 47.2674 9.712 47.034 10.048C46.8007 10.384 46.4694 10.65 46.04 10.846C45.62 11.0327 45.1347 11.126 44.584 11.126ZM55.9865 3.328V11H54.7125V9.866C54.4698 10.258 54.1292 10.566 53.6905 10.79C53.2612 11.0047 52.7852 11.112 52.2625 11.112C51.6652 11.112 51.1285 10.9907 50.6525 10.748C50.1765 10.496 49.7985 10.1227 49.5185 9.628C49.2478 9.13333 49.1125 8.53133 49.1125 7.822V3.328H50.3725V7.654C50.3725 8.41 50.5638 8.99333 50.9465 9.404C51.3292 9.80533 51.8518 10.006 52.5145 10.006C53.1958 10.006 53.7325 9.796 54.1245 9.376C54.5165 8.956 54.7125 8.34467 54.7125 7.542V3.328H55.9865ZM59.4116 4.742C59.6636 4.30333 60.0369 3.93933 60.5316 3.65C61.0356 3.35133 61.6189 3.202 62.2816 3.202C62.9629 3.202 63.5789 3.36533 64.1296 3.692C64.6896 4.01867 65.1282 4.48067 65.4456 5.078C65.7629 5.666 65.9216 6.352 65.9216 7.136C65.9216 7.91067 65.7629 8.60133 65.4456 9.208C65.1282 9.81467 64.6896 10.286 64.1296 10.622C63.5789 10.958 62.9629 11.126 62.2816 11.126C61.6282 11.126 61.0496 10.9813 60.5456 10.692C60.0509 10.3933 59.6729 10.0247 59.4116 9.586V14.64H58.1376V3.328H59.4116V4.742ZM64.6196 7.136C64.6196 6.55733 64.5029 6.05333 64.2696 5.624C64.0362 5.19467 63.7189 4.868 63.3176 4.644C62.9256 4.42 62.4916 4.308 62.0156 4.308C61.5489 4.308 61.1149 4.42467 60.7136 4.658C60.3216 4.882 60.0042 5.21333 59.7616 5.652C59.5282 6.08133 59.4116 6.58067 59.4116 7.15C59.4116 7.72867 59.5282 8.23733 59.7616 8.676C60.0042 9.10533 60.3216 9.43667 60.7136 9.67C61.1149 9.894 61.5489 10.006 62.0156 10.006C62.4916 10.006 62.9256 9.894 63.3176 9.67C63.7189 9.43667 64.0362 9.10533 64.2696 8.676C64.5029 8.23733 64.6196 7.724 64.6196 7.136ZM74.5985 6.87C74.5985 7.11267 74.5845 7.36933 74.5565 7.64H68.4245C68.4712 8.396 68.7278 8.98867 69.1945 9.418C69.6705 9.838 70.2445 10.048 70.9165 10.048C71.4672 10.048 71.9245 9.922 72.2885 9.67C72.6618 9.40867 72.9232 9.06333 73.0725 8.634H74.4445C74.2392 9.37133 73.8285 9.97333 73.2125 10.44C72.5965 10.8973 71.8312 11.126 70.9165 11.126C70.1885 11.126 69.5352 10.9627 68.9565 10.636C68.3872 10.3093 67.9392 9.84733 67.6125 9.25C67.2858 8.64333 67.1225 7.94333 67.1225 7.15C67.1225 6.35667 67.2812 5.66133 67.5985 5.064C67.9158 4.46667 68.3592 4.00933 68.9285 3.692C69.5072 3.36533 70.1698 3.202 70.9165 3.202C71.6445 3.202 72.2885 3.36067 72.8485 3.678C73.4085 3.99533 73.8378 4.434 74.1365 4.994C74.4445 5.54467 74.5985 6.17 74.5985 6.87ZM73.2825 6.604C73.2825 6.11867 73.1752 5.70333 72.9605 5.358C72.7458 5.00333 72.4518 4.73733 72.0785 4.56C71.7145 4.37333 71.3085 4.28 70.8605 4.28C70.2165 4.28 69.6658 4.48533 69.2085 4.896C68.7605 5.30667 68.5038 5.876 68.4385 6.604H73.2825ZM77.5541 4.574C77.7781 4.13533 78.0955 3.79467 78.5061 3.552C78.9261 3.30933 79.4348 3.188 80.0321 3.188V4.504H79.6961C78.2681 4.504 77.5541 5.27867 77.5541 6.828V11H76.2801V3.328H77.5541V4.574ZM85.8932 2.082C85.6506 2.082 85.4452 1.998 85.2772 1.83C85.1092 1.662 85.0252 1.45667 85.0252 1.214C85.0252 0.971333 85.1092 0.766 85.2772 0.598C85.4452 0.43 85.6506 0.345999 85.8932 0.345999C86.1266 0.345999 86.3226 0.43 86.4812 0.598C86.6492 0.766 86.7332 0.971333 86.7332 1.214C86.7332 1.45667 86.6492 1.662 86.4812 1.83C86.3226 1.998 86.1266 2.082 85.8932 2.082ZM86.5092 3.328V11H85.2352V3.328H86.5092ZM92.4185 3.188C93.3519 3.188 94.1079 3.47267 94.6865 4.042C95.2652 4.602 95.5545 5.414 95.5545 6.478V11H94.2945V6.66C94.2945 5.89467 94.1032 5.31133 93.7205 4.91C93.3379 4.49933 92.8152 4.294 92.1525 4.294C91.4805 4.294 90.9439 4.504 90.5425 4.924C90.1505 5.344 89.9545 5.95533 89.9545 6.758V11H88.6805V3.328H89.9545V4.42C90.2065 4.028 90.5472 3.72467 90.9765 3.51C91.4152 3.29533 91.8959 3.188 92.4185 3.188ZM99.1896 4.378V8.9C99.1896 9.27333 99.269 9.53933 99.4276 9.698C99.5863 9.84733 99.8616 9.922 100.254 9.922H101.192V11H100.044C99.3343 11 98.8023 10.8367 98.4476 10.51C98.093 10.1833 97.9156 9.64667 97.9156 8.9V4.378H96.9216V3.328H97.9156V1.396H99.1896V3.328H101.192V4.378H99.1896ZM109.735 6.87C109.735 7.11267 109.721 7.36933 109.693 7.64H103.561C103.608 8.396 103.865 8.98867 104.331 9.418C104.807 9.838 105.381 10.048 106.053 10.048C106.604 10.048 107.061 9.922 107.425 9.67C107.799 9.40867 108.06 9.06333 108.209 8.634H109.581C109.376 9.37133 108.965 9.97333 108.349 10.44C107.733 10.8973 106.968 11.126 106.053 11.126C105.325 11.126 104.672 10.9627 104.093 10.636C103.524 10.3093 103.076 9.84733 102.749 9.25C102.423 8.64333 102.259 7.94333 102.259 7.15C102.259 6.35667 102.418 5.66133 102.735 5.064C103.053 4.46667 103.496 4.00933 104.065 3.692C104.644 3.36533 105.307 3.202 106.053 3.202C106.781 3.202 107.425 3.36067 107.985 3.678C108.545 3.99533 108.975 4.434 109.273 4.994C109.581 5.54467 109.735 6.17 109.735 6.87ZM108.419 6.604C108.419 6.11867 108.312 5.70333 108.097 5.358C107.883 5.00333 107.589 4.73733 107.215 4.56C106.851 4.37333 106.445 4.28 105.997 4.28C105.353 4.28 104.803 4.48533 104.345 4.896C103.897 5.30667 103.641 5.876 103.575 6.604H108.419ZM112.691 4.574C112.915 4.13533 113.232 3.79467 113.643 3.552C114.063 3.30933 114.572 3.188 115.169 3.188V4.504H114.833C113.405 4.504 112.691 5.27867 112.691 6.828V11H111.417V3.328H112.691V4.574ZM123.64 6.87C123.64 7.11267 123.626 7.36933 123.598 7.64H117.466C117.512 8.396 117.769 8.98867 118.236 9.418C118.712 9.838 119.286 10.048 119.958 10.048C120.508 10.048 120.966 9.922 121.33 9.67C121.703 9.40867 121.964 9.06333 122.114 8.634H123.486C123.28 9.37133 122.87 9.97333 122.254 10.44C121.638 10.8973 120.872 11.126 119.958 11.126C119.23 11.126 118.576 10.9627 117.998 10.636C117.428 10.3093 116.98 9.84733 116.654 9.25C116.327 8.64333 116.164 7.94333 116.164 7.15C116.164 6.35667 116.322 5.66133 116.64 5.064C116.957 4.46667 117.4 4.00933 117.97 3.692C118.548 3.36533 119.211 3.202 119.958 3.202C120.686 3.202 121.33 3.36067 121.89 3.678C122.45 3.99533 122.879 4.434 123.178 4.994C123.486 5.54467 123.64 6.17 123.64 6.87ZM122.324 6.604C122.324 6.11867 122.216 5.70333 122.002 5.358C121.787 5.00333 121.493 4.73733 121.12 4.56C120.756 4.37333 120.35 4.28 119.902 4.28C119.258 4.28 118.707 4.48533 118.25 4.896C117.802 5.30667 117.545 5.876 117.48 6.604H122.324ZM128.037 11.126C127.449 11.126 126.922 11.028 126.455 10.832C125.988 10.6267 125.62 10.3467 125.349 9.992C125.078 9.628 124.929 9.21267 124.901 8.746H126.217C126.254 9.12867 126.432 9.44133 126.749 9.684C127.076 9.92667 127.5 10.048 128.023 10.048C128.508 10.048 128.891 9.94067 129.171 9.726C129.451 9.51133 129.591 9.24067 129.591 8.914C129.591 8.578 129.442 8.33067 129.143 8.172C128.844 8.004 128.382 7.84067 127.757 7.682C127.188 7.53267 126.721 7.38333 126.357 7.234C126.002 7.07533 125.694 6.84667 125.433 6.548C125.181 6.24 125.055 5.83867 125.055 5.344C125.055 4.952 125.172 4.59267 125.405 4.266C125.638 3.93933 125.97 3.68267 126.399 3.496C126.828 3.3 127.318 3.202 127.869 3.202C128.718 3.202 129.404 3.41667 129.927 3.846C130.45 4.27533 130.73 4.86333 130.767 5.61H129.493C129.465 5.20867 129.302 4.88667 129.003 4.644C128.714 4.40133 128.322 4.28 127.827 4.28C127.37 4.28 127.006 4.378 126.735 4.574C126.464 4.77 126.329 5.02667 126.329 5.344C126.329 5.596 126.408 5.806 126.567 5.974C126.735 6.13267 126.94 6.26333 127.183 6.366C127.435 6.45933 127.78 6.56667 128.219 6.688C128.77 6.83733 129.218 6.98667 129.563 7.136C129.908 7.276 130.202 7.49067 130.445 7.78C130.697 8.06933 130.828 8.44733 130.837 8.914C130.837 9.334 130.72 9.712 130.487 10.048C130.254 10.384 129.922 10.65 129.493 10.846C129.073 11.0327 128.588 11.126 128.037 11.126ZM134.19 4.378V8.9C134.19 9.27333 134.269 9.53933 134.428 9.698C134.586 9.84733 134.862 9.922 135.254 9.922H136.192V11H135.044C134.334 11 133.802 10.8367 133.448 10.51C133.093 10.1833 132.916 9.64667 132.916 8.9V4.378H131.922V3.328H132.916V1.396H134.19V3.328H136.192V4.378H134.19ZM144.735 6.87C144.735 7.11267 144.721 7.36933 144.693 7.64H138.561C138.608 8.396 138.865 8.98867 139.331 9.418C139.807 9.838 140.381 10.048 141.053 10.048C141.604 10.048 142.061 9.922 142.425 9.67C142.799 9.40867 143.06 9.06333 143.209 8.634H144.581C144.376 9.37133 143.965 9.97333 143.349 10.44C142.733 10.8973 141.968 11.126 141.053 11.126C140.325 11.126 139.672 10.9627 139.093 10.636C138.524 10.3093 138.076 9.84733 137.749 9.25C137.423 8.64333 137.259 7.94333 137.259 7.15C137.259 6.35667 137.418 5.66133 137.735 5.064C138.053 4.46667 138.496 4.00933 139.065 3.692C139.644 3.36533 140.307 3.202 141.053 3.202C141.781 3.202 142.425 3.36067 142.985 3.678C143.545 3.99533 143.975 4.434 144.273 4.994C144.581 5.54467 144.735 6.17 144.735 6.87ZM143.419 6.604C143.419 6.11867 143.312 5.70333 143.097 5.358C142.883 5.00333 142.589 4.73733 142.215 4.56C141.851 4.37333 141.445 4.28 140.997 4.28C140.353 4.28 139.803 4.48533 139.345 4.896C138.897 5.30667 138.641 5.876 138.575 6.604H143.419ZM145.941 7.136C145.941 6.352 146.1 5.666 146.417 5.078C146.734 4.48067 147.168 4.01867 147.719 3.692C148.279 3.36533 148.904 3.202 149.595 3.202C150.192 3.202 150.748 3.342 151.261 3.622C151.774 3.89267 152.166 4.252 152.437 4.7V0.64H153.725V11H152.437V9.558C152.185 10.0153 151.812 10.3933 151.317 10.692C150.822 10.9813 150.244 11.126 149.581 11.126C148.9 11.126 148.279 10.958 147.719 10.622C147.168 10.286 146.734 9.81467 146.417 9.208C146.1 8.60133 145.941 7.91067 145.941 7.136ZM152.437 7.15C152.437 6.57133 152.32 6.06733 152.087 5.638C151.854 5.20867 151.536 4.882 151.135 4.658C150.743 4.42467 150.309 4.308 149.833 4.308C149.357 4.308 148.923 4.42 148.531 4.644C148.139 4.868 147.826 5.19467 147.593 5.624C147.36 6.05333 147.243 6.55733 147.243 7.136C147.243 7.724 147.36 8.23733 147.593 8.676C147.826 9.10533 148.139 9.43667 148.531 9.67C148.923 9.894 149.357 10.006 149.833 10.006C150.309 10.006 150.743 9.894 151.135 9.67C151.536 9.43667 151.854 9.10533 152.087 8.676C152.32 8.23733 152.437 7.72867 152.437 7.15ZM160.268 2.082C160.026 2.082 159.82 1.998 159.652 1.83C159.484 1.662 159.4 1.45667 159.4 1.214C159.4 0.971333 159.484 0.766 159.652 0.598C159.82 0.43 160.026 0.345999 160.268 0.345999C160.502 0.345999 160.698 0.43 160.856 0.598C161.024 0.766 161.108 0.971333 161.108 1.214C161.108 1.45667 161.024 1.662 160.856 1.83C160.698 1.998 160.502 2.082 160.268 2.082ZM160.884 3.328V11H159.61V3.328H160.884ZM166.794 3.188C167.727 3.188 168.483 3.47267 169.062 4.042C169.64 4.602 169.93 5.414 169.93 6.478V11H168.67V6.66C168.67 5.89467 168.478 5.31133 168.096 4.91C167.713 4.49933 167.19 4.294 166.528 4.294C165.856 4.294 165.319 4.504 164.918 4.924C164.526 5.344 164.33 5.95533 164.33 6.758V11H163.056V3.328H164.33V4.42C164.582 4.028 164.922 3.72467 165.352 3.51C165.79 3.29533 166.271 3.188 166.794 3.188ZM175.505 3.426C175.57 2.56733 175.902 1.89533 176.499 1.41C177.096 0.924666 177.871 0.681999 178.823 0.681999C179.458 0.681999 180.004 0.798666 180.461 1.032C180.928 1.256 181.278 1.564 181.511 1.956C181.754 2.348 181.875 2.79133 181.875 3.286C181.875 3.86467 181.707 4.364 181.371 4.784C181.044 5.204 180.615 5.47467 180.083 5.596V5.666C180.69 5.81533 181.17 6.10933 181.525 6.548C181.88 6.98667 182.057 7.56067 182.057 8.27C182.057 8.802 181.936 9.28267 181.693 9.712C181.45 10.132 181.086 10.4633 180.601 10.706C180.116 10.9487 179.532 11.07 178.851 11.07C177.862 11.07 177.05 10.8133 176.415 10.3C175.78 9.77733 175.426 9.04 175.351 8.088H176.583C176.648 8.648 176.877 9.10533 177.269 9.46C177.661 9.81467 178.184 9.992 178.837 9.992C179.49 9.992 179.985 9.824 180.321 9.488C180.666 9.14267 180.839 8.69933 180.839 8.158C180.839 7.458 180.606 6.954 180.139 6.646C179.672 6.338 178.968 6.184 178.025 6.184H177.703V5.12H178.039C178.898 5.11067 179.546 4.97067 179.985 4.7C180.424 4.42 180.643 3.99067 180.643 3.412C180.643 2.91733 180.48 2.52067 180.153 2.222C179.836 1.92333 179.378 1.774 178.781 1.774C178.202 1.774 177.736 1.92333 177.381 2.222C177.026 2.52067 176.816 2.922 176.751 3.426H175.505ZM187.025 1.242C188.089 1.242 189.009 1.44267 189.783 1.844C190.567 2.236 191.165 2.80067 191.575 3.538C191.995 4.27533 192.205 5.14333 192.205 6.142C192.205 7.14067 191.995 8.00867 191.575 8.746C191.165 9.474 190.567 10.034 189.783 10.426C189.009 10.8087 188.089 11 187.025 11H183.987V1.242H187.025ZM187.025 9.95C188.285 9.95 189.247 9.61867 189.909 8.956C190.572 8.284 190.903 7.346 190.903 6.142C190.903 4.92867 190.567 3.98133 189.895 3.3C189.233 2.61867 188.276 2.278 187.025 2.278H185.261V9.95H187.025ZM206.844 3.188C207.441 3.188 207.973 3.314 208.44 3.566C208.907 3.80867 209.275 4.17733 209.546 4.672C209.817 5.16667 209.952 5.76867 209.952 6.478V11H208.692V6.66C208.692 5.89467 208.501 5.31133 208.118 4.91C207.745 4.49933 207.236 4.294 206.592 4.294C205.929 4.294 205.402 4.50867 205.01 4.938C204.618 5.358 204.422 5.96933 204.422 6.772V11H203.162V6.66C203.162 5.89467 202.971 5.31133 202.588 4.91C202.215 4.49933 201.706 4.294 201.062 4.294C200.399 4.294 199.872 4.50867 199.48 4.938C199.088 5.358 198.892 5.96933 198.892 6.772V11H197.618V3.328H198.892V4.434C199.144 4.03267 199.48 3.72467 199.9 3.51C200.329 3.29533 200.801 3.188 201.314 3.188C201.958 3.188 202.527 3.33267 203.022 3.622C203.517 3.91133 203.885 4.336 204.128 4.896C204.343 4.35467 204.697 3.93467 205.192 3.636C205.687 3.33733 206.237 3.188 206.844 3.188ZM215.388 11.126C214.669 11.126 214.016 10.9627 213.428 10.636C212.849 10.3093 212.392 9.84733 212.056 9.25C211.729 8.64333 211.566 7.94333 211.566 7.15C211.566 6.366 211.734 5.67533 212.07 5.078C212.415 4.47133 212.882 4.00933 213.47 3.692C214.058 3.36533 214.716 3.202 215.444 3.202C216.172 3.202 216.83 3.36533 217.418 3.692C218.006 4.00933 218.468 4.46667 218.804 5.064C219.149 5.66133 219.322 6.35667 219.322 7.15C219.322 7.94333 219.145 8.64333 218.79 9.25C218.445 9.84733 217.973 10.3093 217.376 10.636C216.779 10.9627 216.116 11.126 215.388 11.126ZM215.388 10.006C215.845 10.006 216.275 9.89867 216.676 9.684C217.077 9.46933 217.399 9.14733 217.642 8.718C217.894 8.28867 218.02 7.766 218.02 7.15C218.02 6.534 217.899 6.01133 217.656 5.582C217.413 5.15267 217.096 4.83533 216.704 4.63C216.312 4.41533 215.887 4.308 215.43 4.308C214.963 4.308 214.534 4.41533 214.142 4.63C213.759 4.83533 213.451 5.15267 213.218 5.582C212.985 6.01133 212.868 6.534 212.868 7.15C212.868 7.77533 212.98 8.30267 213.204 8.732C213.437 9.16133 213.745 9.48333 214.128 9.698C214.511 9.90333 214.931 10.006 215.388 10.006ZM220.521 7.136C220.521 6.352 220.68 5.666 220.997 5.078C221.314 4.48067 221.748 4.01867 222.299 3.692C222.859 3.36533 223.484 3.202 224.175 3.202C224.772 3.202 225.328 3.342 225.841 3.622C226.354 3.89267 226.746 4.252 227.017 4.7V0.64H228.305V11H227.017V9.558C226.765 10.0153 226.392 10.3933 225.897 10.692C225.402 10.9813 224.824 11.126 224.161 11.126C223.48 11.126 222.859 10.958 222.299 10.622C221.748 10.286 221.314 9.81467 220.997 9.208C220.68 8.60133 220.521 7.91067 220.521 7.136ZM227.017 7.15C227.017 6.57133 226.9 6.06733 226.667 5.638C226.434 5.20867 226.116 4.882 225.715 4.658C225.323 4.42467 224.889 4.308 224.413 4.308C223.937 4.308 223.503 4.42 223.111 4.644C222.719 4.868 222.406 5.19467 222.173 5.624C221.94 6.05333 221.823 6.55733 221.823 7.136C221.823 7.724 221.94 8.23733 222.173 8.676C222.406 9.10533 222.719 9.43667 223.111 9.67C223.503 9.894 223.937 10.006 224.413 10.006C224.889 10.006 225.323 9.894 225.715 9.67C226.116 9.43667 226.434 9.10533 226.667 8.676C226.9 8.23733 227.017 7.72867 227.017 7.15ZM237.458 6.87C237.458 7.11267 237.444 7.36933 237.416 7.64H231.284C231.331 8.396 231.587 8.98867 232.054 9.418C232.53 9.838 233.104 10.048 233.776 10.048C234.327 10.048 234.784 9.922 235.148 9.67C235.521 9.40867 235.783 9.06333 235.932 8.634H237.304C237.099 9.37133 236.688 9.97333 236.072 10.44C235.456 10.8973 234.691 11.126 233.776 11.126C233.048 11.126 232.395 10.9627 231.816 10.636C231.247 10.3093 230.799 9.84733 230.472 9.25C230.145 8.64333 229.982 7.94333 229.982 7.15C229.982 6.35667 230.141 5.66133 230.458 5.064C230.775 4.46667 231.219 4.00933 231.788 3.692C232.367 3.36533 233.029 3.202 233.776 3.202C234.504 3.202 235.148 3.36067 235.708 3.678C236.268 3.99533 236.697 4.434 236.996 4.994C237.304 5.54467 237.458 6.17 237.458 6.87ZM236.142 6.604C236.142 6.11867 236.035 5.70333 235.82 5.358C235.605 5.00333 235.311 4.73733 234.938 4.56C234.574 4.37333 234.168 4.28 233.72 4.28C233.076 4.28 232.525 4.48533 232.068 4.896C231.62 5.30667 231.363 5.876 231.298 6.604H236.142ZM240.414 0.64V11H239.14V0.64H240.414ZM243.859 0.64V11H242.585V0.64H243.859ZM246.688 2.082C246.445 2.082 246.24 1.998 246.072 1.83C245.904 1.662 245.82 1.45667 245.82 1.214C245.82 0.971333 245.904 0.766 246.072 0.598C246.24 0.43 246.445 0.345999 246.688 0.345999C246.921 0.345999 247.117 0.43 247.276 0.598C247.444 0.766 247.528 0.971333 247.528 1.214C247.528 1.45667 247.444 1.662 247.276 1.83C247.117 1.998 246.921 2.082 246.688 2.082ZM247.304 3.328V11H246.03V3.328H247.304ZM253.213 3.188C254.147 3.188 254.903 3.47267 255.481 4.042C256.06 4.602 256.349 5.414 256.349 6.478V11H255.089V6.66C255.089 5.89467 254.898 5.31133 254.515 4.91C254.133 4.49933 253.61 4.294 252.947 4.294C252.275 4.294 251.739 4.504 251.337 4.924C250.945 5.344 250.749 5.95533 250.749 6.758V11H249.475V3.328H250.749V4.42C251.001 4.028 251.342 3.72467 251.771 3.51C252.21 3.29533 252.691 3.188 253.213 3.188ZM261.595 3.202C262.257 3.202 262.836 3.34667 263.331 3.636C263.835 3.92533 264.208 4.28933 264.451 4.728V3.328H265.739V11.168C265.739 11.868 265.589 12.4887 265.291 13.03C264.992 13.5807 264.563 14.01 264.003 14.318C263.452 14.626 262.808 14.78 262.071 14.78C261.063 14.78 260.223 14.542 259.551 14.066C258.879 13.59 258.482 12.9413 258.361 12.12H259.621C259.761 12.5867 260.05 12.96 260.489 13.24C260.927 13.5293 261.455 13.674 262.071 13.674C262.771 13.674 263.34 13.4547 263.779 13.016C264.227 12.5773 264.451 11.9613 264.451 11.168V9.558C264.199 10.006 263.825 10.3793 263.331 10.678C262.836 10.9767 262.257 11.126 261.595 11.126C260.913 11.126 260.293 10.958 259.733 10.622C259.182 10.286 258.748 9.81467 258.431 9.208C258.113 8.60133 257.955 7.91067 257.955 7.136C257.955 6.352 258.113 5.666 258.431 5.078C258.748 4.48067 259.182 4.01867 259.733 3.692C260.293 3.36533 260.913 3.202 261.595 3.202ZM264.451 7.15C264.451 6.57133 264.334 6.06733 264.101 5.638C263.867 5.20867 263.55 4.882 263.149 4.658C262.757 4.42467 262.323 4.308 261.847 4.308C261.371 4.308 260.937 4.42 260.545 4.644C260.153 4.868 259.84 5.19467 259.607 5.624C259.373 6.05333 259.257 6.55733 259.257 7.136C259.257 7.724 259.373 8.23733 259.607 8.676C259.84 9.10533 260.153 9.43667 260.545 9.67C260.937 9.894 261.371 10.006 261.847 10.006C262.323 10.006 262.757 9.894 263.149 9.67C263.55 9.43667 263.867 9.10533 264.101 8.676C264.334 8.23733 264.451 7.72867 264.451 7.15ZM281.844 3.328L279.45 11H278.134L276.286 4.91L274.438 11H273.122L270.714 3.328H272.016L273.78 9.768L275.684 3.328H276.986L278.848 9.782L280.584 3.328H281.844ZM282.632 7.136C282.632 6.352 282.791 5.666 283.108 5.078C283.426 4.48067 283.86 4.01867 284.41 3.692C284.97 3.36533 285.591 3.202 286.272 3.202C286.944 3.202 287.528 3.34667 288.022 3.636C288.517 3.92533 288.886 4.28933 289.128 4.728V3.328H290.416V11H289.128V9.572C288.876 10.02 288.498 10.3933 287.994 10.692C287.5 10.9813 286.921 11.126 286.258 11.126C285.577 11.126 284.961 10.958 284.41 10.622C283.86 10.286 283.426 9.81467 283.108 9.208C282.791 8.60133 282.632 7.91067 282.632 7.136ZM289.128 7.15C289.128 6.57133 289.012 6.06733 288.778 5.638C288.545 5.20867 288.228 4.882 287.826 4.658C287.434 4.42467 287 4.308 286.524 4.308C286.048 4.308 285.614 4.42 285.222 4.644C284.83 4.868 284.518 5.19467 284.284 5.624C284.051 6.05333 283.934 6.55733 283.934 7.136C283.934 7.724 284.051 8.23733 284.284 8.676C284.518 9.10533 284.83 9.43667 285.222 9.67C285.614 9.894 286.048 10.006 286.524 10.006C287 10.006 287.434 9.894 287.826 9.67C288.228 9.43667 288.545 9.10533 288.778 8.676C289.012 8.23733 289.128 7.72867 289.128 7.15ZM299.177 3.328L294.557 14.612H293.241L294.753 10.916L291.659 3.328H293.073L295.481 9.544L297.861 3.328H299.177ZM1.79829 32.756C2.05962 32.2987 2.44229 31.9253 2.94629 31.636C3.45029 31.3467 4.02429 31.202 4.66829 31.202C5.35896 31.202 5.97962 31.3653 6.53029 31.692C7.08096 32.0187 7.51496 32.4807 7.83229 33.078C8.14962 33.666 8.30829 34.352 8.30829 35.136C8.30829 35.9107 8.14962 36.6013 7.83229 37.208C7.51496 37.8147 7.07629 38.286 6.51629 38.622C5.96562 38.958 5.34962 39.126 4.66829 39.126C4.00562 39.126 3.42229 38.9813 2.91829 38.692C2.42362 38.4027 2.05029 38.034 1.79829 37.586V39H0.524289V28.64H1.79829V32.756ZM7.00629 35.136C7.00629 34.5573 6.88962 34.0533 6.65629 33.624C6.42296 33.1947 6.10562 32.868 5.70429 32.644C5.31229 32.42 4.87829 32.308 4.40229 32.308C3.93562 32.308 3.50162 32.4247 3.10029 32.658C2.70829 32.882 2.39096 33.2133 2.14829 33.652C1.91496 34.0813 1.79829 34.5807 1.79829 35.15C1.79829 35.7287 1.91496 36.2373 2.14829 36.676C2.39096 37.1053 2.70829 37.4367 3.10029 37.67C3.50162 37.894 3.93562 38.006 4.40229 38.006C4.87829 38.006 5.31229 37.894 5.70429 37.67C6.10562 37.4367 6.42296 37.1053 6.65629 36.676C6.88962 36.2373 7.00629 35.724 7.00629 35.136ZM16.9852 34.87C16.9852 35.1127 16.9712 35.3693 16.9432 35.64H10.8112C10.8579 36.396 11.1146 36.9887 11.5812 37.418C12.0572 37.838 12.6312 38.048 13.3032 38.048C13.8539 38.048 14.3112 37.922 14.6752 37.67C15.0486 37.4087 15.3099 37.0633 15.4592 36.634H16.8312C16.6259 37.3713 16.2152 37.9733 15.5992 38.44C14.9832 38.8973 14.2179 39.126 13.3032 39.126C12.5752 39.126 11.9219 38.9627 11.3432 38.636C10.7739 38.3093 10.3259 37.8473 9.99923 37.25C9.67256 36.6433 9.50923 35.9433 9.50923 35.15C9.50923 34.3567 9.66789 33.6613 9.98523 33.064C10.3026 32.4667 10.7459 32.0093 11.3152 31.692C11.8939 31.3653 12.5566 31.202 13.3032 31.202C14.0312 31.202 14.6752 31.3607 15.2352 31.678C15.7952 31.9953 16.2246 32.434 16.5232 32.994C16.8312 33.5447 16.9852 34.17 16.9852 34.87ZM15.6692 34.604C15.6692 34.1187 15.5619 33.7033 15.3472 33.358C15.1326 33.0033 14.8386 32.7373 14.4652 32.56C14.1012 32.3733 13.6952 32.28 13.2472 32.28C12.6032 32.28 12.0526 32.4853 11.5952 32.896C11.1472 33.3067 10.8906 33.876 10.8252 34.604H15.6692ZM21.7889 32.378H20.1789V39H18.9049V32.378H17.9109V31.328H18.9049V30.782C18.9049 29.9233 19.1242 29.298 19.5629 28.906C20.0109 28.5047 20.7249 28.304 21.7049 28.304V29.368C21.1449 29.368 20.7482 29.48 20.5149 29.704C20.2909 29.9187 20.1789 30.278 20.1789 30.782V31.328H21.7889V32.378ZM26.6203 39.126C25.9016 39.126 25.2483 38.9627 24.6603 38.636C24.0816 38.3093 23.6243 37.8473 23.2883 37.25C22.9616 36.6433 22.7983 35.9433 22.7983 35.15C22.7983 34.366 22.9663 33.6753 23.3023 33.078C23.6476 32.4713 24.1143 32.0093 24.7023 31.692C25.2903 31.3653 25.9483 31.202 26.6763 31.202C27.4043 31.202 28.0623 31.3653 28.6503 31.692C29.2383 32.0093 29.7003 32.4667 30.0363 33.064C30.3816 33.6613 30.5543 34.3567 30.5543 35.15C30.5543 35.9433 30.377 36.6433 30.0223 37.25C29.677 37.8473 29.2056 38.3093 28.6083 38.636C28.011 38.9627 27.3483 39.126 26.6203 39.126ZM26.6203 38.006C27.0776 38.006 27.507 37.8987 27.9083 37.684C28.3096 37.4693 28.6316 37.1473 28.8743 36.718C29.1263 36.2887 29.2523 35.766 29.2523 35.15C29.2523 34.534 29.131 34.0113 28.8883 33.582C28.6456 33.1527 28.3283 32.8353 27.9363 32.63C27.5443 32.4153 27.1196 32.308 26.6623 32.308C26.1956 32.308 25.7663 32.4153 25.3743 32.63C24.9916 32.8353 24.6836 33.1527 24.4503 33.582C24.217 34.0113 24.1003 34.534 24.1003 35.15C24.1003 35.7753 24.2123 36.3027 24.4363 36.732C24.6696 37.1613 24.9776 37.4833 25.3603 37.698C25.743 37.9033 26.163 38.006 26.6203 38.006ZM33.5034 32.574C33.7274 32.1353 34.0447 31.7947 34.4554 31.552C34.8754 31.3093 35.384 31.188 35.9814 31.188V32.504H35.6454C34.2174 32.504 33.5034 33.2787 33.5034 34.828V39H32.2294V31.328H33.5034V32.574ZM44.452 34.87C44.452 35.1127 44.438 35.3693 44.41 35.64H38.278C38.3247 36.396 38.5814 36.9887 39.048 37.418C39.524 37.838 40.098 38.048 40.77 38.048C41.3207 38.048 41.778 37.922 42.142 37.67C42.5154 37.4087 42.7767 37.0633 42.926 36.634H44.298C44.0927 37.3713 43.682 37.9733 43.066 38.44C42.45 38.8973 41.6847 39.126 40.77 39.126C40.042 39.126 39.3887 38.9627 38.81 38.636C38.2407 38.3093 37.7927 37.8473 37.466 37.25C37.1394 36.6433 36.976 35.9433 36.976 35.15C36.976 34.3567 37.1347 33.6613 37.452 33.064C37.7694 32.4667 38.2127 32.0093 38.782 31.692C39.3607 31.3653 40.0234 31.202 40.77 31.202C41.498 31.202 42.142 31.3607 42.702 31.678C43.262 31.9953 43.6914 32.434 43.99 32.994C44.298 33.5447 44.452 34.17 44.452 34.87ZM43.136 34.604C43.136 34.1187 43.0287 33.7033 42.814 33.358C42.5994 33.0033 42.3054 32.7373 41.932 32.56C41.568 32.3733 41.162 32.28 40.714 32.28C40.07 32.28 39.5194 32.4853 39.062 32.896C38.614 33.3067 38.3574 33.876 38.292 34.604H43.136ZM51.1401 29.242V39H49.8661V29.242H51.1401ZM58.5978 32.378V36.9C58.5978 37.2733 58.6772 37.5393 58.8358 37.698C58.9945 37.8473 59.2698 37.922 59.6618 37.922H60.5998V39H59.4518C58.7425 39 58.2105 38.8367 57.8558 38.51C57.5012 38.1833 57.3238 37.6467 57.3238 36.9V32.378H56.3298V31.328H57.3238V29.396H58.5978V31.328H60.5998V32.378H58.5978ZM63.4174 32.574C63.6414 32.1353 63.9588 31.7947 64.3694 31.552C64.7894 31.3093 65.2981 31.188 65.8954 31.188V32.504H65.5594C64.1314 32.504 63.4174 33.2787 63.4174 34.828V39H62.1434V31.328H63.4174V32.574ZM66.8901 35.136C66.8901 34.352 67.0488 33.666 67.3661 33.078C67.6834 32.4807 68.1174 32.0187 68.6681 31.692C69.2281 31.3653 69.8488 31.202 70.5301 31.202C71.2021 31.202 71.7854 31.3467 72.2801 31.636C72.7748 31.9253 73.1434 32.2893 73.3861 32.728V31.328H74.6741V39H73.3861V37.572C73.1341 38.02 72.7561 38.3933 72.2521 38.692C71.7574 38.9813 71.1788 39.126 70.5161 39.126C69.8348 39.126 69.2188 38.958 68.6681 38.622C68.1174 38.286 67.6834 37.8147 67.3661 37.208C67.0488 36.6013 66.8901 35.9107 66.8901 35.136ZM73.3861 35.15C73.3861 34.5713 73.2694 34.0673 73.0361 33.638C72.8028 33.2087 72.4854 32.882 72.0841 32.658C71.6921 32.4247 71.2581 32.308 70.7821 32.308C70.3061 32.308 69.8721 32.42 69.4801 32.644C69.0881 32.868 68.7754 33.1947 68.5421 33.624C68.3088 34.0533 68.1921 34.5573 68.1921 35.136C68.1921 35.724 68.3088 36.2373 68.5421 36.676C68.7754 37.1053 69.0881 37.4367 69.4801 37.67C69.8721 37.894 70.3061 38.006 70.7821 38.006C71.2581 38.006 71.6921 37.894 72.0841 37.67C72.4854 37.4367 72.8028 37.1053 73.0361 36.676C73.2694 36.2373 73.3861 35.7287 73.3861 35.15ZM80.565 31.188C81.4984 31.188 82.2544 31.4727 82.833 32.042C83.4117 32.602 83.701 33.414 83.701 34.478V39H82.441V34.66C82.441 33.8947 82.2497 33.3113 81.867 32.91C81.4844 32.4993 80.9617 32.294 80.299 32.294C79.627 32.294 79.0904 32.504 78.689 32.924C78.297 33.344 78.101 33.9553 78.101 34.758V39H76.827V31.328H78.101V32.42C78.353 32.028 78.6937 31.7247 79.123 31.51C79.5617 31.2953 80.0424 31.188 80.565 31.188ZM88.4981 39.126C87.9101 39.126 87.3828 39.028 86.9161 38.832C86.4494 38.6267 86.0808 38.3467 85.8101 37.992C85.5394 37.628 85.3901 37.2127 85.3621 36.746H86.6781C86.7154 37.1287 86.8928 37.4413 87.2101 37.684C87.5368 37.9267 87.9614 38.048 88.4841 38.048C88.9694 38.048 89.3521 37.9407 89.6321 37.726C89.9121 37.5113 90.0521 37.2407 90.0521 36.914C90.0521 36.578 89.9028 36.3307 89.6041 36.172C89.3054 36.004 88.8434 35.8407 88.2181 35.682C87.6488 35.5327 87.1821 35.3833 86.8181 35.234C86.4634 35.0753 86.1554 34.8467 85.8941 34.548C85.6421 34.24 85.5161 33.8387 85.5161 33.344C85.5161 32.952 85.6328 32.5927 85.8661 32.266C86.0994 31.9393 86.4308 31.6827 86.8601 31.496C87.2894 31.3 87.7794 31.202 88.3301 31.202C89.1794 31.202 89.8654 31.4167 90.3881 31.846C90.9108 32.2753 91.1908 32.8633 91.2281 33.61H89.9541C89.9261 33.2087 89.7628 32.8867 89.4641 32.644C89.1748 32.4013 88.7828 32.28 88.2881 32.28C87.8308 32.28 87.4668 32.378 87.1961 32.574C86.9254 32.77 86.7901 33.0267 86.7901 33.344C86.7901 33.596 86.8694 33.806 87.0281 33.974C87.1961 34.1327 87.4014 34.2633 87.6441 34.366C87.8961 34.4593 88.2414 34.5667 88.6801 34.688C89.2308 34.8373 89.6788 34.9867 90.0241 35.136C90.3694 35.276 90.6634 35.4907 90.9061 35.78C91.1581 36.0693 91.2888 36.4473 91.2981 36.914C91.2981 37.334 91.1814 37.712 90.9481 38.048C90.7148 38.384 90.3834 38.65 89.9541 38.846C89.5341 39.0327 89.0488 39.126 88.4981 39.126ZM93.7546 30.082C93.5119 30.082 93.3066 29.998 93.1386 29.83C92.9706 29.662 92.8866 29.4567 92.8866 29.214C92.8866 28.9713 92.9706 28.766 93.1386 28.598C93.3066 28.43 93.5119 28.346 93.7546 28.346C93.9879 28.346 94.1839 28.43 94.3426 28.598C94.5106 28.766 94.5946 28.9713 94.5946 29.214C94.5946 29.4567 94.5106 29.662 94.3426 29.83C94.1839 29.998 93.9879 30.082 93.7546 30.082ZM94.3706 31.328V39H93.0966V31.328H94.3706ZM98.0959 32.378V36.9C98.0959 37.2733 98.1752 37.5393 98.3339 37.698C98.4925 37.8473 98.7679 37.922 99.1599 37.922H100.098V39H98.9499C98.2405 39 97.7085 38.8367 97.3539 38.51C96.9992 38.1833 96.8219 37.6467 96.8219 36.9V32.378H95.8279V31.328H96.8219V29.396H98.0959V31.328H100.098V32.378H98.0959ZM102.299 30.082C102.057 30.082 101.851 29.998 101.683 29.83C101.515 29.662 101.431 29.4567 101.431 29.214C101.431 28.9713 101.515 28.766 101.683 28.598C101.851 28.43 102.057 28.346 102.299 28.346C102.533 28.346 102.729 28.43 102.887 28.598C103.055 28.766 103.139 28.9713 103.139 29.214C103.139 29.4567 103.055 29.662 102.887 29.83C102.729 29.998 102.533 30.082 102.299 30.082ZM102.915 31.328V39H101.641V31.328H102.915ZM108.433 39.126C107.714 39.126 107.061 38.9627 106.473 38.636C105.894 38.3093 105.437 37.8473 105.101 37.25C104.774 36.6433 104.611 35.9433 104.611 35.15C104.611 34.366 104.779 33.6753 105.115 33.078C105.46 32.4713 105.927 32.0093 106.515 31.692C107.103 31.3653 107.761 31.202 108.489 31.202C109.217 31.202 109.875 31.3653 110.463 31.692C111.051 32.0093 111.513 32.4667 111.849 33.064C112.194 33.6613 112.367 34.3567 112.367 35.15C112.367 35.9433 112.189 36.6433 111.835 37.25C111.489 37.8473 111.018 38.3093 110.421 38.636C109.823 38.9627 109.161 39.126 108.433 39.126ZM108.433 38.006C108.89 38.006 109.319 37.8987 109.721 37.684C110.122 37.4693 110.444 37.1473 110.687 36.718C110.939 36.2887 111.065 35.766 111.065 35.15C111.065 34.534 110.943 34.0113 110.701 33.582C110.458 33.1527 110.141 32.8353 109.749 32.63C109.357 32.4153 108.932 32.308 108.475 32.308C108.008 32.308 107.579 32.4153 107.187 32.63C106.804 32.8353 106.496 33.1527 106.263 33.582C106.029 34.0113 105.913 34.534 105.913 35.15C105.913 35.7753 106.025 36.3027 106.249 36.732C106.482 37.1613 106.79 37.4833 107.173 37.698C107.555 37.9033 107.975 38.006 108.433 38.006ZM117.78 31.188C118.713 31.188 119.469 31.4727 120.048 32.042C120.627 32.602 120.916 33.414 120.916 34.478V39H119.656V34.66C119.656 33.8947 119.465 33.3113 119.082 32.91C118.699 32.4993 118.177 32.294 117.514 32.294C116.842 32.294 116.305 32.504 115.904 32.924C115.512 33.344 115.316 33.9553 115.316 34.758V39H114.042V31.328H115.316V32.42C115.568 32.028 115.909 31.7247 116.338 31.51C116.777 31.2953 117.257 31.188 117.78 31.188ZM129.997 34.87C129.997 35.1127 129.983 35.3693 129.955 35.64H123.823C123.87 36.396 124.126 36.9887 124.593 37.418C125.069 37.838 125.643 38.048 126.315 38.048C126.866 38.048 127.323 37.922 127.687 37.67C128.06 37.4087 128.322 37.0633 128.471 36.634H129.843C129.638 37.3713 129.227 37.9733 128.611 38.44C127.995 38.8973 127.23 39.126 126.315 39.126C125.587 39.126 124.934 38.9627 124.355 38.636C123.786 38.3093 123.338 37.8473 123.011 37.25C122.684 36.6433 122.521 35.9433 122.521 35.15C122.521 34.3567 122.68 33.6613 122.997 33.064C123.314 32.4667 123.758 32.0093 124.327 31.692C124.906 31.3653 125.568 31.202 126.315 31.202C127.043 31.202 127.687 31.3607 128.247 31.678C128.807 31.9953 129.236 32.434 129.535 32.994C129.843 33.5447 129.997 34.17 129.997 34.87ZM128.681 34.604C128.681 34.1187 128.574 33.7033 128.359 33.358C128.144 33.0033 127.85 32.7373 127.477 32.56C127.113 32.3733 126.707 32.28 126.259 32.28C125.615 32.28 125.064 32.4853 124.607 32.896C124.159 33.3067 123.902 33.876 123.837 34.604H128.681ZM131.203 35.136C131.203 34.352 131.361 33.666 131.679 33.078C131.996 32.4807 132.43 32.0187 132.981 31.692C133.541 31.3653 134.166 31.202 134.857 31.202C135.454 31.202 136.009 31.342 136.523 31.622C137.036 31.8927 137.428 32.252 137.699 32.7V28.64H138.987V39H137.699V37.558C137.447 38.0153 137.073 38.3933 136.579 38.692C136.084 38.9813 135.505 39.126 134.843 39.126C134.161 39.126 133.541 38.958 132.981 38.622C132.43 38.286 131.996 37.8147 131.679 37.208C131.361 36.6013 131.203 35.9107 131.203 35.136ZM137.699 35.15C137.699 34.5713 137.582 34.0673 137.349 33.638C137.115 33.2087 136.798 32.882 136.397 32.658C136.005 32.4247 135.571 32.308 135.095 32.308C134.619 32.308 134.185 32.42 133.793 32.644C133.401 32.868 133.088 33.1947 132.855 33.624C132.621 34.0533 132.505 34.5573 132.505 35.136C132.505 35.724 132.621 36.2373 132.855 36.676C133.088 37.1053 133.401 37.4367 133.793 37.67C134.185 37.894 134.619 38.006 135.095 38.006C135.571 38.006 136.005 37.894 136.397 37.67C136.798 37.4367 137.115 37.1053 137.349 36.676C137.582 36.2373 137.699 35.7287 137.699 35.15ZM145.53 30.082C145.287 30.082 145.082 29.998 144.914 29.83C144.746 29.662 144.662 29.4567 144.662 29.214C144.662 28.9713 144.746 28.766 144.914 28.598C145.082 28.43 145.287 28.346 145.53 28.346C145.763 28.346 145.959 28.43 146.118 28.598C146.286 28.766 146.37 28.9713 146.37 29.214C146.37 29.4567 146.286 29.662 146.118 29.83C145.959 29.998 145.763 30.082 145.53 30.082ZM146.146 31.328V39H144.872V31.328H146.146ZM152.055 31.188C152.989 31.188 153.745 31.4727 154.323 32.042C154.902 32.602 155.191 33.414 155.191 34.478V39H153.931V34.66C153.931 33.8947 153.74 33.3113 153.357 32.91C152.975 32.4993 152.452 32.294 151.789 32.294C151.117 32.294 150.581 32.504 150.179 32.924C149.787 33.344 149.591 33.9553 149.591 34.758V39H148.317V31.328H149.591V32.42C149.843 32.028 150.184 31.7247 150.613 31.51C151.052 31.2953 151.533 31.188 152.055 31.188ZM158.826 32.378V36.9C158.826 37.2733 158.906 37.5393 159.064 37.698C159.223 37.8473 159.498 37.922 159.89 37.922H160.828V39H159.68C158.971 39 158.439 38.8367 158.084 38.51C157.73 38.1833 157.552 37.6467 157.552 36.9V32.378H156.558V31.328H157.552V29.396H158.826V31.328H160.828V32.378H158.826ZM165.718 39.126C164.999 39.126 164.346 38.9627 163.758 38.636C163.179 38.3093 162.722 37.8473 162.386 37.25C162.059 36.6433 161.896 35.9433 161.896 35.15C161.896 34.366 162.064 33.6753 162.4 33.078C162.745 32.4713 163.212 32.0093 163.8 31.692C164.388 31.3653 165.046 31.202 165.774 31.202C166.502 31.202 167.16 31.3653 167.748 31.692C168.336 32.0093 168.798 32.4667 169.134 33.064C169.479 33.6613 169.652 34.3567 169.652 35.15C169.652 35.9433 169.475 36.6433 169.12 37.25C168.775 37.8473 168.303 38.3093 167.706 38.636C167.109 38.9627 166.446 39.126 165.718 39.126ZM165.718 38.006C166.175 38.006 166.605 37.8987 167.006 37.684C167.407 37.4693 167.729 37.1473 167.972 36.718C168.224 36.2887 168.35 35.766 168.35 35.15C168.35 34.534 168.229 34.0113 167.986 33.582C167.743 33.1527 167.426 32.8353 167.034 32.63C166.642 32.4153 166.217 32.308 165.76 32.308C165.293 32.308 164.864 32.4153 164.472 32.63C164.089 32.8353 163.781 33.1527 163.548 33.582C163.315 34.0113 163.198 34.534 163.198 35.15C163.198 35.7753 163.31 36.3027 163.534 36.732C163.767 37.1613 164.075 37.4833 164.458 37.698C164.841 37.9033 165.261 38.006 165.718 38.006ZM174.583 35.136C174.583 34.352 174.742 33.666 175.059 33.078C175.377 32.4807 175.811 32.0187 176.361 31.692C176.921 31.3653 177.542 31.202 178.223 31.202C178.895 31.202 179.479 31.3467 179.973 31.636C180.468 31.9253 180.837 32.2893 181.079 32.728V31.328H182.367V39H181.079V37.572C180.827 38.02 180.449 38.3933 179.945 38.692C179.451 38.9813 178.872 39.126 178.209 39.126C177.528 39.126 176.912 38.958 176.361 38.622C175.811 38.286 175.377 37.8147 175.059 37.208C174.742 36.6013 174.583 35.9107 174.583 35.136ZM181.079 35.15C181.079 34.5713 180.963 34.0673 180.729 33.638C180.496 33.2087 180.179 32.882 179.777 32.658C179.385 32.4247 178.951 32.308 178.475 32.308C177.999 32.308 177.565 32.42 177.173 32.644C176.781 32.868 176.469 33.1947 176.235 33.624C176.002 34.0533 175.885 34.5573 175.885 35.136C175.885 35.724 176.002 36.2373 176.235 36.676C176.469 37.1053 176.781 37.4367 177.173 37.67C177.565 37.894 177.999 38.006 178.475 38.006C178.951 38.006 179.385 37.894 179.777 37.67C180.179 37.4367 180.496 37.1053 180.729 36.676C180.963 36.2373 181.079 35.7287 181.079 35.15ZM189.527 32.742C189.779 32.3033 190.152 31.9393 190.647 31.65C191.151 31.3513 191.734 31.202 192.397 31.202C193.078 31.202 193.694 31.3653 194.245 31.692C194.805 32.0187 195.243 32.4807 195.561 33.078C195.878 33.666 196.037 34.352 196.037 35.136C196.037 35.9107 195.878 36.6013 195.561 37.208C195.243 37.8147 194.805 38.286 194.245 38.622C193.694 38.958 193.078 39.126 192.397 39.126C191.743 39.126 191.165 38.9813 190.661 38.692C190.166 38.3933 189.788 38.0247 189.527 37.586V42.64H188.253V31.328H189.527V32.742ZM194.735 35.136C194.735 34.5573 194.618 34.0533 194.385 33.624C194.151 33.1947 193.834 32.868 193.433 32.644C193.041 32.42 192.607 32.308 192.131 32.308C191.664 32.308 191.23 32.4247 190.829 32.658C190.437 32.882 190.119 33.2133 189.877 33.652C189.643 34.0813 189.527 34.5807 189.527 35.15C189.527 35.7287 189.643 36.2373 189.877 36.676C190.119 37.1053 190.437 37.4367 190.829 37.67C191.23 37.894 191.664 38.006 192.131 38.006C192.607 38.006 193.041 37.894 193.433 37.67C193.834 37.4367 194.151 37.1053 194.385 36.676C194.618 36.2373 194.735 35.724 194.735 35.136ZM198.988 32.574C199.212 32.1353 199.529 31.7947 199.94 31.552C200.36 31.3093 200.868 31.188 201.466 31.188V32.504H201.13C199.702 32.504 198.988 33.2787 198.988 34.828V39H197.714V31.328H198.988V32.574ZM206.282 39.126C205.564 39.126 204.91 38.9627 204.322 38.636C203.744 38.3093 203.286 37.8473 202.95 37.25C202.624 36.6433 202.46 35.9433 202.46 35.15C202.46 34.366 202.628 33.6753 202.964 33.078C203.31 32.4713 203.776 32.0093 204.364 31.692C204.952 31.3653 205.61 31.202 206.338 31.202C207.066 31.202 207.724 31.3653 208.312 31.692C208.9 32.0093 209.362 32.4667 209.698 33.064C210.044 33.6613 210.216 34.3567 210.216 35.15C210.216 35.9433 210.039 36.6433 209.684 37.25C209.339 37.8473 208.868 38.3093 208.27 38.636C207.673 38.9627 207.01 39.126 206.282 39.126ZM206.282 38.006C206.74 38.006 207.169 37.8987 207.57 37.684C207.972 37.4693 208.294 37.1473 208.536 36.718C208.788 36.2887 208.914 35.766 208.914 35.15C208.914 34.534 208.793 34.0113 208.55 33.582C208.308 33.1527 207.99 32.8353 207.598 32.63C207.206 32.4153 206.782 32.308 206.324 32.308C205.858 32.308 205.428 32.4153 205.036 32.63C204.654 32.8353 204.346 33.1527 204.112 33.582C203.879 34.0113 203.762 34.534 203.762 35.15C203.762 35.7753 203.874 36.3027 204.098 36.732C204.332 37.1613 204.64 37.4833 205.022 37.698C205.405 37.9033 205.825 38.006 206.282 38.006ZM215.055 31.202C215.718 31.202 216.297 31.3467 216.791 31.636C217.295 31.9253 217.669 32.2893 217.911 32.728V31.328H219.199V39.168C219.199 39.868 219.05 40.4887 218.751 41.03C218.453 41.5807 218.023 42.01 217.463 42.318C216.913 42.626 216.269 42.78 215.531 42.78C214.523 42.78 213.683 42.542 213.011 42.066C212.339 41.59 211.943 40.9413 211.821 40.12H213.081C213.221 40.5867 213.511 40.96 213.949 41.24C214.388 41.5293 214.915 41.674 215.531 41.674C216.231 41.674 216.801 41.4547 217.239 41.016C217.687 40.5773 217.911 39.9613 217.911 39.168V37.558C217.659 38.006 217.286 38.3793 216.791 38.678C216.297 38.9767 215.718 39.126 215.055 39.126C214.374 39.126 213.753 38.958 213.193 38.622C212.643 38.286 212.209 37.8147 211.891 37.208C211.574 36.6013 211.415 35.9107 211.415 35.136C211.415 34.352 211.574 33.666 211.891 33.078C212.209 32.4807 212.643 32.0187 213.193 31.692C213.753 31.3653 214.374 31.202 215.055 31.202ZM217.911 35.15C217.911 34.5713 217.795 34.0673 217.561 33.638C217.328 33.2087 217.011 32.882 216.609 32.658C216.217 32.4247 215.783 32.308 215.307 32.308C214.831 32.308 214.397 32.42 214.005 32.644C213.613 32.868 213.301 33.1947 213.067 33.624C212.834 34.0533 212.717 34.5573 212.717 35.136C212.717 35.724 212.834 36.2373 213.067 36.676C213.301 37.1053 213.613 37.4367 214.005 37.67C214.397 37.894 214.831 38.006 215.307 38.006C215.783 38.006 216.217 37.894 216.609 37.67C217.011 37.4367 217.328 37.1053 217.561 36.676C217.795 36.2373 217.911 35.7287 217.911 35.15ZM222.626 32.574C222.85 32.1353 223.168 31.7947 223.578 31.552C223.998 31.3093 224.507 31.188 225.104 31.188V32.504H224.768C223.34 32.504 222.626 33.2787 222.626 34.828V39H221.352V31.328H222.626V32.574ZM226.099 35.136C226.099 34.352 226.258 33.666 226.575 33.078C226.892 32.4807 227.326 32.0187 227.877 31.692C228.437 31.3653 229.058 31.202 229.739 31.202C230.411 31.202 230.994 31.3467 231.489 31.636C231.984 31.9253 232.352 32.2893 232.595 32.728V31.328H233.883V39H232.595V37.572C232.343 38.02 231.965 38.3933 231.461 38.692C230.966 38.9813 230.388 39.126 229.725 39.126C229.044 39.126 228.428 38.958 227.877 38.622C227.326 38.286 226.892 37.8147 226.575 37.208C226.258 36.6013 226.099 35.9107 226.099 35.136ZM232.595 35.15C232.595 34.5713 232.478 34.0673 232.245 33.638C232.012 33.2087 231.694 32.882 231.293 32.658C230.901 32.4247 230.467 32.308 229.991 32.308C229.515 32.308 229.081 32.42 228.689 32.644C228.297 32.868 227.984 33.1947 227.751 33.624C227.518 34.0533 227.401 34.5573 227.401 35.136C227.401 35.724 227.518 36.2373 227.751 36.676C227.984 37.1053 228.297 37.4367 228.689 37.67C229.081 37.894 229.515 38.006 229.991 38.006C230.467 38.006 230.901 37.894 231.293 37.67C231.694 37.4367 232.012 37.1053 232.245 36.676C232.478 36.2373 232.595 35.7287 232.595 35.15ZM245.262 31.188C245.859 31.188 246.391 31.314 246.858 31.566C247.325 31.8087 247.693 32.1773 247.964 32.672C248.235 33.1667 248.37 33.7687 248.37 34.478V39H247.11V34.66C247.11 33.8947 246.919 33.3113 246.536 32.91C246.163 32.4993 245.654 32.294 245.01 32.294C244.347 32.294 243.82 32.5087 243.428 32.938C243.036 33.358 242.84 33.9693 242.84 34.772V39H241.58V34.66C241.58 33.8947 241.389 33.3113 241.006 32.91C240.633 32.4993 240.124 32.294 239.48 32.294C238.817 32.294 238.29 32.5087 237.898 32.938C237.506 33.358 237.31 33.9693 237.31 34.772V39H236.036V31.328H237.31V32.434C237.562 32.0327 237.898 31.7247 238.318 31.51C238.747 31.2953 239.219 31.188 239.732 31.188C240.376 31.188 240.945 31.3327 241.44 31.622C241.935 31.9113 242.303 32.336 242.546 32.896C242.761 32.3547 243.115 31.9347 243.61 31.636C244.105 31.3373 244.655 31.188 245.262 31.188ZM259.686 31.188C260.283 31.188 260.815 31.314 261.282 31.566C261.749 31.8087 262.117 32.1773 262.388 32.672C262.659 33.1667 262.794 33.7687 262.794 34.478V39H261.534V34.66C261.534 33.8947 261.343 33.3113 260.96 32.91C260.587 32.4993 260.078 32.294 259.434 32.294C258.771 32.294 258.244 32.5087 257.852 32.938C257.46 33.358 257.264 33.9693 257.264 34.772V39H256.004V34.66C256.004 33.8947 255.813 33.3113 255.43 32.91C255.057 32.4993 254.548 32.294 253.904 32.294C253.241 32.294 252.714 32.5087 252.322 32.938C251.93 33.358 251.734 33.9693 251.734 34.772V39H250.46V31.328H251.734V32.434C251.986 32.0327 252.322 31.7247 252.742 31.51C253.171 31.2953 253.643 31.188 254.156 31.188C254.8 31.188 255.369 31.3327 255.864 31.622C256.359 31.9113 256.727 32.336 256.97 32.896C257.185 32.3547 257.539 31.9347 258.034 31.636C258.529 31.3373 259.079 31.188 259.686 31.188ZM271.884 34.87C271.884 35.1127 271.87 35.3693 271.842 35.64H265.71C265.756 36.396 266.013 36.9887 266.48 37.418C266.956 37.838 267.53 38.048 268.202 38.048C268.752 38.048 269.21 37.922 269.574 37.67C269.947 37.4087 270.208 37.0633 270.358 36.634H271.73C271.524 37.3713 271.114 37.9733 270.498 38.44C269.882 38.8973 269.116 39.126 268.202 39.126C267.474 39.126 266.82 38.9627 266.242 38.636C265.672 38.3093 265.224 37.8473 264.898 37.25C264.571 36.6433 264.408 35.9433 264.408 35.15C264.408 34.3567 264.566 33.6613 264.884 33.064C265.201 32.4667 265.644 32.0093 266.214 31.692C266.792 31.3653 267.455 31.202 268.202 31.202C268.93 31.202 269.574 31.3607 270.134 31.678C270.694 31.9953 271.123 32.434 271.422 32.994C271.73 33.5447 271.884 34.17 271.884 34.87ZM270.568 34.604C270.568 34.1187 270.46 33.7033 270.246 33.358C270.031 33.0033 269.737 32.7373 269.364 32.56C269 32.3733 268.594 32.28 268.146 32.28C267.502 32.28 266.951 32.4853 266.494 32.896C266.046 33.3067 265.789 33.876 265.724 34.604H270.568ZM274.839 32.574C275.063 32.1353 275.381 31.7947 275.791 31.552C276.211 31.3093 276.72 31.188 277.317 31.188V32.504H276.981C275.553 32.504 274.839 33.2787 274.839 34.828V39H273.565V31.328H274.839V32.574ZM279.194 39.084C278.951 39.084 278.746 39 278.578 38.832C278.41 38.664 278.326 38.4587 278.326 38.216C278.326 37.9733 278.41 37.768 278.578 37.6C278.746 37.432 278.951 37.348 279.194 37.348C279.427 37.348 279.623 37.432 279.782 37.6C279.95 37.768 280.034 37.9733 280.034 38.216C280.034 38.4587 279.95 38.664 279.782 38.832C279.623 39 279.427 39.084 279.194 39.084ZM288.554 39.098C287.91 39.098 287.331 38.986 286.818 38.762C286.314 38.5287 285.917 38.2113 285.628 37.81C285.339 37.3993 285.189 36.928 285.18 36.396H286.538C286.585 36.8533 286.771 37.2407 287.098 37.558C287.434 37.866 287.919 38.02 288.554 38.02C289.161 38.02 289.637 37.8707 289.982 37.572C290.337 37.264 290.514 36.872 290.514 36.396C290.514 36.0227 290.411 35.7193 290.206 35.486C290.001 35.2527 289.744 35.0753 289.436 34.954C289.128 34.8327 288.713 34.702 288.19 34.562C287.546 34.394 287.028 34.226 286.636 34.058C286.253 33.89 285.922 33.6287 285.642 33.274C285.371 32.91 285.236 32.4247 285.236 31.818C285.236 31.286 285.371 30.8147 285.642 30.404C285.913 29.9933 286.291 29.676 286.776 29.452C287.271 29.228 287.835 29.116 288.47 29.116C289.385 29.116 290.131 29.3447 290.71 29.802C291.298 30.2593 291.629 30.866 291.704 31.622H290.304C290.257 31.2487 290.061 30.922 289.716 30.642C289.371 30.3527 288.913 30.208 288.344 30.208C287.812 30.208 287.378 30.348 287.042 30.628C286.706 30.8987 286.538 31.2813 286.538 31.776C286.538 32.1307 286.636 32.42 286.832 32.644C287.037 32.868 287.285 33.0407 287.574 33.162C287.873 33.274 288.288 33.4047 288.82 33.554C289.464 33.7313 289.982 33.9087 290.374 34.086C290.766 34.254 291.102 34.52 291.382 34.884C291.662 35.2387 291.802 35.724 291.802 36.34C291.802 36.816 291.676 37.264 291.424 37.684C291.172 38.104 290.799 38.4447 290.304 38.706C289.809 38.9673 289.226 39.098 288.554 39.098ZM297.023 39.126C296.304 39.126 295.651 38.9627 295.063 38.636C294.484 38.3093 294.027 37.8473 293.691 37.25C293.364 36.6433 293.201 35.9433 293.201 35.15C293.201 34.366 293.369 33.6753 293.705 33.078C294.05 32.4713 294.517 32.0093 295.105 31.692C295.693 31.3653 296.351 31.202 297.079 31.202C297.807 31.202 298.465 31.3653 299.053 31.692C299.641 32.0093 300.103 32.4667 300.439 33.064C300.784 33.6613 300.957 34.3567 300.957 35.15C300.957 35.9433 300.779 36.6433 300.425 37.25C300.079 37.8473 299.608 38.3093 299.011 38.636C298.413 38.9627 297.751 39.126 297.023 39.126ZM297.023 38.006C297.48 38.006 297.909 37.8987 298.311 37.684C298.712 37.4693 299.034 37.1473 299.277 36.718C299.529 36.2887 299.655 35.766 299.655 35.15C299.655 34.534 299.533 34.0113 299.291 33.582C299.048 33.1527 298.731 32.8353 298.339 32.63C297.947 32.4153 297.522 32.308 297.065 32.308C296.598 32.308 296.169 32.4153 295.777 32.63C295.394 32.8353 295.086 33.1527 294.853 33.582C294.619 34.0113 294.503 34.534 294.503 35.15C294.503 35.7753 294.615 36.3027 294.839 36.732C295.072 37.1613 295.38 37.4833 295.763 37.698C296.145 37.9033 296.565 38.006 297.023 38.006ZM19.1684 57.242V67H17.8944V57.242H19.1684ZM28.8801 59.188C29.4588 59.188 29.9815 59.314 30.4481 59.566C30.9148 59.8087 31.2788 60.1773 31.5401 60.672C31.8108 61.1667 31.9461 61.7687 31.9461 62.478V67H30.6861V62.66C30.6861 61.8947 30.4948 61.3113 30.1121 60.91C29.7295 60.4993 29.2068 60.294 28.5441 60.294C27.8721 60.294 27.3355 60.504 26.9341 60.924C26.5421 61.344 26.3461 61.9553 26.3461 62.758V67H25.0721V56.64H26.3461V60.42C26.5981 60.028 26.9435 59.7247 27.3821 59.51C27.8301 59.2953 28.3295 59.188 28.8801 59.188ZM33.5512 63.136C33.5512 62.352 33.7099 61.666 34.0272 61.078C34.3446 60.4807 34.7786 60.0187 35.3292 59.692C35.8892 59.3653 36.5099 59.202 37.1912 59.202C37.8632 59.202 38.4466 59.3467 38.9412 59.636C39.4359 59.9253 39.8046 60.2893 40.0472 60.728V59.328H41.3352V67H40.0472V65.572C39.7952 66.02 39.4172 66.3933 38.9132 66.692C38.4186 66.9813 37.8399 67.126 37.1772 67.126C36.4959 67.126 35.8799 66.958 35.3292 66.622C34.7786 66.286 34.3446 65.8147 34.0272 65.208C33.7099 64.6013 33.5512 63.9107 33.5512 63.136ZM40.0472 63.15C40.0472 62.5713 39.9306 62.0673 39.6972 61.638C39.4639 61.2087 39.1466 60.882 38.7452 60.658C38.3532 60.4247 37.9192 60.308 37.4432 60.308C36.9672 60.308 36.5332 60.42 36.1412 60.644C35.7492 60.868 35.4366 61.1947 35.2032 61.624C34.9699 62.0533 34.8532 62.5573 34.8532 63.136C34.8532 63.724 34.9699 64.2373 35.2032 64.676C35.4366 65.1053 35.7492 65.4367 36.1412 65.67C36.5332 65.894 36.9672 66.006 37.4432 66.006C37.9192 66.006 38.3532 65.894 38.7452 65.67C39.1466 65.4367 39.4639 65.1053 39.6972 64.676C39.9306 64.2373 40.0472 63.7287 40.0472 63.15ZM46.3442 65.824L48.7242 59.328H50.0822L47.0722 67H45.5882L42.5782 59.328H43.9502L46.3442 65.824ZM58.3358 62.87C58.3358 63.1127 58.3218 63.3693 58.2938 63.64H52.1618C52.2085 64.396 52.4651 64.9887 52.9318 65.418C53.4078 65.838 53.9818 66.048 54.6538 66.048C55.2045 66.048 55.6618 65.922 56.0258 65.67C56.3991 65.4087 56.6605 65.0633 56.8098 64.634H58.1818C57.9765 65.3713 57.5658 65.9733 56.9498 66.44C56.3338 66.8973 55.5685 67.126 54.6538 67.126C53.9258 67.126 53.2725 66.9627 52.6938 66.636C52.1245 66.3093 51.6765 65.8473 51.3498 65.25C51.0231 64.6433 50.8598 63.9433 50.8598 63.15C50.8598 62.3567 51.0185 61.6613 51.3358 61.064C51.6531 60.4667 52.0965 60.0093 52.6658 59.692C53.2445 59.3653 53.9071 59.202 54.6538 59.202C55.3818 59.202 56.0258 59.3607 56.5858 59.678C57.1458 59.9953 57.5751 60.434 57.8738 60.994C58.1818 61.5447 58.3358 62.17 58.3358 62.87ZM57.0198 62.604C57.0198 62.1187 56.9125 61.7033 56.6978 61.358C56.4831 61.0033 56.1891 60.7373 55.8158 60.56C55.4518 60.3733 55.0458 60.28 54.5978 60.28C53.9538 60.28 53.4031 60.4853 52.9458 60.896C52.4978 61.3067 52.2411 61.876 52.1758 62.604H57.0198ZM66.9139 59.202C67.5765 59.202 68.1552 59.3467 68.6499 59.636C69.1539 59.9253 69.5272 60.2893 69.7699 60.728V59.328H71.0579V67.168C71.0579 67.868 70.9085 68.4887 70.6099 69.03C70.3112 69.5807 69.8819 70.01 69.3219 70.318C68.7712 70.626 68.1272 70.78 67.3899 70.78C66.3819 70.78 65.5419 70.542 64.8699 70.066C64.1979 69.59 63.8012 68.9413 63.6799 68.12H64.9399C65.0799 68.5867 65.3692 68.96 65.8079 69.24C66.2465 69.5293 66.7739 69.674 67.3899 69.674C68.0899 69.674 68.6592 69.4547 69.0979 69.016C69.5459 68.5773 69.7699 67.9613 69.7699 67.168V65.558C69.5179 66.006 69.1445 66.3793 68.6499 66.678C68.1552 66.9767 67.5765 67.126 66.9139 67.126C66.2325 67.126 65.6119 66.958 65.0519 66.622C64.5012 66.286 64.0672 65.8147 63.7499 65.208C63.4325 64.6013 63.2739 63.9107 63.2739 63.136C63.2739 62.352 63.4325 61.666 63.7499 61.078C64.0672 60.4807 64.5012 60.0187 65.0519 59.692C65.6119 59.3653 66.2325 59.202 66.9139 59.202ZM69.7699 63.15C69.7699 62.5713 69.6532 62.0673 69.4199 61.638C69.1865 61.2087 68.8692 60.882 68.4679 60.658C68.0759 60.4247 67.6419 60.308 67.1659 60.308C66.6899 60.308 66.2559 60.42 65.8639 60.644C65.4719 60.868 65.1592 61.1947 64.9259 61.624C64.6925 62.0533 64.5759 62.5573 64.5759 63.136C64.5759 63.724 64.6925 64.2373 64.9259 64.676C65.1592 65.1053 65.4719 65.4367 65.8639 65.67C66.2559 65.894 66.6899 66.006 67.1659 66.006C67.6419 66.006 68.0759 65.894 68.4679 65.67C68.8692 65.4367 69.1865 65.1053 69.4199 64.676C69.6532 64.2373 69.7699 63.7287 69.7699 63.15ZM72.7348 63.136C72.7348 62.352 72.8935 61.666 73.2108 61.078C73.5281 60.4807 73.9621 60.0187 74.5128 59.692C75.0728 59.3653 75.6935 59.202 76.3748 59.202C77.0468 59.202 77.6301 59.3467 78.1248 59.636C78.6195 59.9253 78.9881 60.2893 79.2308 60.728V59.328H80.5188V67H79.2308V65.572C78.9788 66.02 78.6008 66.3933 78.0968 66.692C77.6021 66.9813 77.0235 67.126 76.3608 67.126C75.6795 67.126 75.0635 66.958 74.5128 66.622C73.9621 66.286 73.5281 65.8147 73.2108 65.208C72.8935 64.6013 72.7348 63.9107 72.7348 63.136ZM79.2308 63.15C79.2308 62.5713 79.1141 62.0673 78.8808 61.638C78.6475 61.2087 78.3301 60.882 77.9288 60.658C77.5368 60.4247 77.1028 60.308 76.6268 60.308C76.1508 60.308 75.7168 60.42 75.3248 60.644C74.9328 60.868 74.6201 61.1947 74.3868 61.624C74.1535 62.0533 74.0368 62.5573 74.0368 63.136C74.0368 63.724 74.1535 64.2373 74.3868 64.676C74.6201 65.1053 74.9328 65.4367 75.3248 65.67C75.7168 65.894 76.1508 66.006 76.6268 66.006C77.1028 66.006 77.5368 65.894 77.9288 65.67C78.3301 65.4367 78.6475 65.1053 78.8808 64.676C79.1141 64.2373 79.2308 63.7287 79.2308 63.15ZM83.3298 58.082C83.0871 58.082 82.8818 57.998 82.7138 57.83C82.5458 57.662 82.4618 57.4567 82.4618 57.214C82.4618 56.9713 82.5458 56.766 82.7138 56.598C82.8818 56.43 83.0871 56.346 83.3298 56.346C83.5631 56.346 83.7591 56.43 83.9178 56.598C84.0858 56.766 84.1698 56.9713 84.1698 57.214C84.1698 57.4567 84.0858 57.662 83.9178 57.83C83.7591 57.998 83.5631 58.082 83.3298 58.082ZM83.9458 59.328V67H82.6718V59.328H83.9458ZM89.8551 59.188C90.7884 59.188 91.5444 59.4727 92.1231 60.042C92.7017 60.602 92.9911 61.414 92.9911 62.478V67H91.7311V62.66C91.7311 61.8947 91.5397 61.3113 91.1571 60.91C90.7744 60.4993 90.2517 60.294 89.5891 60.294C88.9171 60.294 88.3804 60.504 87.9791 60.924C87.5871 61.344 87.3911 61.9553 87.3911 62.758V67H86.1171V59.328H87.3911V60.42C87.6431 60.028 87.9837 59.7247 88.4131 59.51C88.8517 59.2953 89.3324 59.188 89.8551 59.188ZM102.072 62.87C102.072 63.1127 102.058 63.3693 102.03 63.64H95.8981C95.9448 64.396 96.2015 64.9887 96.6681 65.418C97.1441 65.838 97.7181 66.048 98.3901 66.048C98.9408 66.048 99.3981 65.922 99.7621 65.67C100.135 65.4087 100.397 65.0633 100.546 64.634H101.918C101.713 65.3713 101.302 65.9733 100.686 66.44C100.07 66.8973 99.3048 67.126 98.3901 67.126C97.6621 67.126 97.0088 66.9627 96.4301 66.636C95.8608 66.3093 95.4128 65.8473 95.0861 65.25C94.7595 64.6433 94.5961 63.9433 94.5961 63.15C94.5961 62.3567 94.7548 61.6613 95.0721 61.064C95.3895 60.4667 95.8328 60.0093 96.4021 59.692C96.9808 59.3653 97.6435 59.202 98.3901 59.202C99.1181 59.202 99.7621 59.3607 100.322 59.678C100.882 59.9953 101.311 60.434 101.61 60.994C101.918 61.5447 102.072 62.17 102.072 62.87ZM100.756 62.604C100.756 62.1187 100.649 61.7033 100.434 61.358C100.219 61.0033 99.9255 60.7373 99.5521 60.56C99.1881 60.3733 98.7821 60.28 98.3341 60.28C97.6901 60.28 97.1395 60.4853 96.6821 60.896C96.2341 61.3067 95.9775 61.876 95.9121 62.604H100.756ZM103.278 63.136C103.278 62.352 103.436 61.666 103.754 61.078C104.071 60.4807 104.505 60.0187 105.056 59.692C105.616 59.3653 106.241 59.202 106.932 59.202C107.529 59.202 108.084 59.342 108.598 59.622C109.111 59.8927 109.503 60.252 109.774 60.7V56.64H111.062V67H109.774V65.558C109.522 66.0153 109.148 66.3933 108.654 66.692C108.159 66.9813 107.58 67.126 106.918 67.126C106.236 67.126 105.616 66.958 105.056 66.622C104.505 66.286 104.071 65.8147 103.754 65.208C103.436 64.6013 103.278 63.9107 103.278 63.136ZM109.774 63.15C109.774 62.5713 109.657 62.0673 109.424 61.638C109.19 61.2087 108.873 60.882 108.472 60.658C108.08 60.4247 107.646 60.308 107.17 60.308C106.694 60.308 106.26 60.42 105.868 60.644C105.476 60.868 105.163 61.1947 104.93 61.624C104.696 62.0533 104.58 62.5573 104.58 63.136C104.58 63.724 104.696 64.2373 104.93 64.676C105.163 65.1053 105.476 65.4367 105.868 65.67C106.26 65.894 106.694 66.006 107.17 66.006C107.646 66.006 108.08 65.894 108.472 65.67C108.873 65.4367 109.19 65.1053 109.424 64.676C109.657 64.2373 109.774 63.7287 109.774 63.15ZM116.471 63.136C116.471 62.352 116.63 61.666 116.947 61.078C117.264 60.4807 117.698 60.0187 118.249 59.692C118.809 59.3653 119.43 59.202 120.111 59.202C120.783 59.202 121.366 59.3467 121.861 59.636C122.356 59.9253 122.724 60.2893 122.967 60.728V59.328H124.255V67H122.967V65.572C122.715 66.02 122.337 66.3933 121.833 66.692C121.338 66.9813 120.76 67.126 120.097 67.126C119.416 67.126 118.8 66.958 118.249 66.622C117.698 66.286 117.264 65.8147 116.947 65.208C116.63 64.6013 116.471 63.9107 116.471 63.136ZM122.967 63.15C122.967 62.5713 122.85 62.0673 122.617 61.638C122.384 61.2087 122.066 60.882 121.665 60.658C121.273 60.4247 120.839 60.308 120.363 60.308C119.887 60.308 119.453 60.42 119.061 60.644C118.669 60.868 118.356 61.1947 118.123 61.624C117.89 62.0533 117.773 62.5573 117.773 63.136C117.773 63.724 117.89 64.2373 118.123 64.676C118.356 65.1053 118.669 65.4367 119.061 65.67C119.453 65.894 119.887 66.006 120.363 66.006C120.839 66.006 121.273 65.894 121.665 65.67C122.066 65.4367 122.384 65.1053 122.617 64.676C122.85 64.2373 122.967 63.7287 122.967 63.15ZM127.682 56.64V67H126.408V56.64H127.682ZM133.199 67.126C132.481 67.126 131.827 66.9627 131.239 66.636C130.661 66.3093 130.203 65.8473 129.867 65.25C129.541 64.6433 129.377 63.9433 129.377 63.15C129.377 62.366 129.545 61.6753 129.881 61.078C130.227 60.4713 130.693 60.0093 131.281 59.692C131.869 59.3653 132.527 59.202 133.255 59.202C133.983 59.202 134.641 59.3653 135.229 59.692C135.817 60.0093 136.279 60.4667 136.615 61.064C136.961 61.6613 137.133 62.3567 137.133 63.15C137.133 63.9433 136.956 64.6433 136.601 65.25C136.256 65.8473 135.785 66.3093 135.187 66.636C134.59 66.9627 133.927 67.126 133.199 67.126ZM133.199 66.006C133.657 66.006 134.086 65.8987 134.487 65.684C134.889 65.4693 135.211 65.1473 135.453 64.718C135.705 64.2887 135.831 63.766 135.831 63.15C135.831 62.534 135.71 62.0113 135.467 61.582C135.225 61.1527 134.907 60.8353 134.515 60.63C134.123 60.4153 133.699 60.308 133.241 60.308C132.775 60.308 132.345 60.4153 131.953 60.63C131.571 60.8353 131.263 61.1527 131.029 61.582C130.796 62.0113 130.679 62.534 130.679 63.15C130.679 63.7753 130.791 64.3027 131.015 64.732C131.249 65.1613 131.557 65.4833 131.939 65.698C132.322 65.9033 132.742 66.006 133.199 66.006ZM140.362 60.378V64.9C140.362 65.2733 140.442 65.5393 140.6 65.698C140.759 65.8473 141.034 65.922 141.426 65.922H142.364V67H141.216C140.507 67 139.975 66.8367 139.62 66.51C139.266 66.1833 139.088 65.6467 139.088 64.9V60.378H138.094V59.328H139.088V57.396H140.362V59.328H142.364V60.378H140.362ZM150.987 67.126C150.268 67.126 149.615 66.9627 149.027 66.636C148.448 66.3093 147.991 65.8473 147.655 65.25C147.328 64.6433 147.165 63.9433 147.165 63.15C147.165 62.366 147.333 61.6753 147.669 61.078C148.014 60.4713 148.481 60.0093 149.069 59.692C149.657 59.3653 150.315 59.202 151.043 59.202C151.771 59.202 152.429 59.3653 153.017 59.692C153.605 60.0093 154.067 60.4667 154.403 61.064C154.748 61.6613 154.921 62.3567 154.921 63.15C154.921 63.9433 154.743 64.6433 154.389 65.25C154.043 65.8473 153.572 66.3093 152.975 66.636C152.377 66.9627 151.715 67.126 150.987 67.126ZM150.987 66.006C151.444 66.006 151.873 65.8987 152.275 65.684C152.676 65.4693 152.998 65.1473 153.241 64.718C153.493 64.2887 153.619 63.766 153.619 63.15C153.619 62.534 153.497 62.0113 153.255 61.582C153.012 61.1527 152.695 60.8353 152.303 60.63C151.911 60.4153 151.486 60.308 151.029 60.308C150.562 60.308 150.133 60.4153 149.741 60.63C149.358 60.8353 149.05 61.1527 148.817 61.582C148.583 62.0113 148.467 62.534 148.467 63.15C148.467 63.7753 148.579 64.3027 148.803 64.732C149.036 65.1613 149.344 65.4833 149.727 65.698C150.109 65.9033 150.529 66.006 150.987 66.006ZM159.718 60.378H158.108V67H156.834V60.378H155.84V59.328H156.834V58.782C156.834 57.9233 157.053 57.298 157.492 56.906C157.94 56.5047 158.654 56.304 159.634 56.304V57.368C159.074 57.368 158.677 57.48 158.444 57.704C158.22 57.9187 158.108 58.278 158.108 58.782V59.328H159.718V60.378ZM171.935 62.87C171.935 63.1127 171.921 63.3693 171.893 63.64H165.761C165.808 64.396 166.065 64.9887 166.531 65.418C167.007 65.838 167.581 66.048 168.253 66.048C168.804 66.048 169.261 65.922 169.625 65.67C169.999 65.4087 170.26 65.0633 170.409 64.634H171.781C171.576 65.3713 171.165 65.9733 170.549 66.44C169.933 66.8973 169.168 67.126 168.253 67.126C167.525 67.126 166.872 66.9627 166.293 66.636C165.724 66.3093 165.276 65.8473 164.949 65.25C164.623 64.6433 164.459 63.9433 164.459 63.15C164.459 62.3567 164.618 61.6613 164.935 61.064C165.253 60.4667 165.696 60.0093 166.265 59.692C166.844 59.3653 167.507 59.202 168.253 59.202C168.981 59.202 169.625 59.3607 170.185 59.678C170.745 59.9953 171.175 60.434 171.473 60.994C171.781 61.5447 171.935 62.17 171.935 62.87ZM170.619 62.604C170.619 62.1187 170.512 61.7033 170.297 61.358C170.083 61.0033 169.789 60.7373 169.415 60.56C169.051 60.3733 168.645 60.28 168.197 60.28C167.553 60.28 167.003 60.4853 166.545 60.896C166.097 61.3067 165.841 61.876 165.775 62.604H170.619ZM177.621 67L175.801 64.144L174.051 67H172.721L175.199 63.192L172.721 59.328H174.163L175.983 62.17L177.719 59.328H179.049L176.585 63.122L179.063 67H177.621ZM181.59 60.742C181.842 60.3033 182.216 59.9393 182.71 59.65C183.214 59.3513 183.798 59.202 184.46 59.202C185.142 59.202 185.758 59.3653 186.308 59.692C186.868 60.0187 187.307 60.4807 187.624 61.078C187.942 61.666 188.1 62.352 188.1 63.136C188.1 63.9107 187.942 64.6013 187.624 65.208C187.307 65.8147 186.868 66.286 186.308 66.622C185.758 66.958 185.142 67.126 184.46 67.126C183.807 67.126 183.228 66.9813 182.724 66.692C182.23 66.3933 181.852 66.0247 181.59 65.586V70.64H180.316V59.328H181.59V60.742ZM186.798 63.136C186.798 62.5573 186.682 62.0533 186.448 61.624C186.215 61.1947 185.898 60.868 185.496 60.644C185.104 60.42 184.67 60.308 184.194 60.308C183.728 60.308 183.294 60.4247 182.892 60.658C182.5 60.882 182.183 61.2133 181.94 61.652C181.707 62.0813 181.59 62.5807 181.59 63.15C181.59 63.7287 181.707 64.2373 181.94 64.676C182.183 65.1053 182.5 65.4367 182.892 65.67C183.294 65.894 183.728 66.006 184.194 66.006C184.67 66.006 185.104 65.894 185.496 65.67C185.898 65.4367 186.215 65.1053 186.448 64.676C186.682 64.2373 186.798 63.724 186.798 63.136ZM196.777 62.87C196.777 63.1127 196.763 63.3693 196.735 63.64H190.603C190.65 64.396 190.907 64.9887 191.373 65.418C191.849 65.838 192.423 66.048 193.095 66.048C193.646 66.048 194.103 65.922 194.467 65.67C194.841 65.4087 195.102 65.0633 195.251 64.634H196.623C196.418 65.3713 196.007 65.9733 195.391 66.44C194.775 66.8973 194.01 67.126 193.095 67.126C192.367 67.126 191.714 66.9627 191.135 66.636C190.566 66.3093 190.118 65.8473 189.791 65.25C189.465 64.6433 189.301 63.9433 189.301 63.15C189.301 62.3567 189.46 61.6613 189.777 61.064C190.095 60.4667 190.538 60.0093 191.107 59.692C191.686 59.3653 192.349 59.202 193.095 59.202C193.823 59.202 194.467 59.3607 195.027 59.678C195.587 59.9953 196.017 60.434 196.315 60.994C196.623 61.5447 196.777 62.17 196.777 62.87ZM195.461 62.604C195.461 62.1187 195.354 61.7033 195.139 61.358C194.925 61.0033 194.631 60.7373 194.257 60.56C193.893 60.3733 193.487 60.28 193.039 60.28C192.395 60.28 191.845 60.4853 191.387 60.896C190.939 61.3067 190.683 61.876 190.617 62.604H195.461ZM199.733 60.574C199.957 60.1353 200.274 59.7947 200.685 59.552C201.105 59.3093 201.614 59.188 202.211 59.188V60.504H201.875C200.447 60.504 199.733 61.2787 199.733 62.828V67H198.459V59.328H199.733V60.574ZM204.34 58.082C204.097 58.082 203.892 57.998 203.724 57.83C203.556 57.662 203.472 57.4567 203.472 57.214C203.472 56.9713 203.556 56.766 203.724 56.598C203.892 56.43 204.097 56.346 204.34 56.346C204.573 56.346 204.769 56.43 204.928 56.598C205.096 56.766 205.18 56.9713 205.18 57.214C205.18 57.4567 205.096 57.662 204.928 57.83C204.769 57.998 204.573 58.082 204.34 58.082ZM204.956 59.328V67H203.682V59.328H204.956ZM214.127 62.87C214.127 63.1127 214.113 63.3693 214.085 63.64H207.953C207.999 64.396 208.256 64.9887 208.723 65.418C209.199 65.838 209.773 66.048 210.445 66.048C210.995 66.048 211.453 65.922 211.817 65.67C212.19 65.4087 212.451 65.0633 212.601 64.634H213.973C213.767 65.3713 213.357 65.9733 212.741 66.44C212.125 66.8973 211.359 67.126 210.445 67.126C209.717 67.126 209.063 66.9627 208.485 66.636C207.915 66.3093 207.467 65.8473 207.141 65.25C206.814 64.6433 206.651 63.9433 206.651 63.15C206.651 62.3567 206.809 61.6613 207.127 61.064C207.444 60.4667 207.887 60.0093 208.457 59.692C209.035 59.3653 209.698 59.202 210.445 59.202C211.173 59.202 211.817 59.3607 212.377 59.678C212.937 59.9953 213.366 60.434 213.665 60.994C213.973 61.5447 214.127 62.17 214.127 62.87ZM212.811 62.604C212.811 62.1187 212.703 61.7033 212.489 61.358C212.274 61.0033 211.98 60.7373 211.607 60.56C211.243 60.3733 210.837 60.28 210.389 60.28C209.745 60.28 209.194 60.4853 208.737 60.896C208.289 61.3067 208.032 61.876 207.967 62.604H212.811ZM219.546 59.188C220.48 59.188 221.236 59.4727 221.814 60.042C222.393 60.602 222.682 61.414 222.682 62.478V67H221.422V62.66C221.422 61.8947 221.231 61.3113 220.848 60.91C220.466 60.4993 219.943 60.294 219.28 60.294C218.608 60.294 218.072 60.504 217.67 60.924C217.278 61.344 217.082 61.9553 217.082 62.758V67H215.808V59.328H217.082V60.42C217.334 60.028 217.675 59.7247 218.104 59.51C218.543 59.2953 219.024 59.188 219.546 59.188ZM224.288 63.15C224.288 62.3567 224.446 61.666 224.764 61.078C225.081 60.4807 225.52 60.0187 226.08 59.692C226.649 59.3653 227.298 59.202 228.026 59.202C228.968 59.202 229.743 59.4307 230.35 59.888C230.966 60.3453 231.372 60.98 231.568 61.792H230.196C230.065 61.3253 229.808 60.9567 229.426 60.686C229.052 60.4153 228.586 60.28 228.026 60.28C227.298 60.28 226.71 60.532 226.262 61.036C225.814 61.5307 225.59 62.2353 225.59 63.15C225.59 64.074 225.814 64.788 226.262 65.292C226.71 65.796 227.298 66.048 228.026 66.048C228.586 66.048 229.052 65.9173 229.426 65.656C229.799 65.3947 230.056 65.0213 230.196 64.536H231.568C231.362 65.32 230.952 65.95 230.336 66.426C229.72 66.8927 228.95 67.126 228.026 67.126C227.298 67.126 226.649 66.9627 226.08 66.636C225.52 66.3093 225.081 65.8473 224.764 65.25C224.446 64.6527 224.288 63.9527 224.288 63.15ZM240.267 62.87C240.267 63.1127 240.253 63.3693 240.225 63.64H234.093C234.14 64.396 234.397 64.9887 234.863 65.418C235.339 65.838 235.913 66.048 236.585 66.048C237.136 66.048 237.593 65.922 237.957 65.67C238.331 65.4087 238.592 65.0633 238.741 64.634H240.113C239.908 65.3713 239.497 65.9733 238.881 66.44C238.265 66.8973 237.5 67.126 236.585 67.126C235.857 67.126 235.204 66.9627 234.625 66.636C234.056 66.3093 233.608 65.8473 233.281 65.25C232.955 64.6433 232.791 63.9433 232.791 63.15C232.791 62.3567 232.95 61.6613 233.267 61.064C233.585 60.4667 234.028 60.0093 234.597 59.692C235.176 59.3653 235.839 59.202 236.585 59.202C237.313 59.202 237.957 59.3607 238.517 59.678C239.077 59.9953 239.507 60.434 239.805 60.994C240.113 61.5447 240.267 62.17 240.267 62.87ZM238.951 62.604C238.951 62.1187 238.844 61.7033 238.629 61.358C238.415 61.0033 238.121 60.7373 237.747 60.56C237.383 60.3733 236.977 60.28 236.529 60.28C235.885 60.28 235.335 60.4853 234.877 60.896C234.429 61.3067 234.173 61.876 234.107 62.604H238.951ZM247.236 60.378V64.9C247.236 65.2733 247.315 65.5393 247.474 65.698C247.632 65.8473 247.908 65.922 248.3 65.922H249.238V67H248.09C247.38 67 246.848 66.8367 246.494 66.51C246.139 66.1833 245.962 65.6467 245.962 64.9V60.378H244.968V59.328H245.962V57.396H247.236V59.328H249.238V60.378H247.236ZM254.589 59.188C255.168 59.188 255.69 59.314 256.157 59.566C256.624 59.8087 256.988 60.1773 257.249 60.672C257.52 61.1667 257.655 61.7687 257.655 62.478V67H256.395V62.66C256.395 61.8947 256.204 61.3113 255.821 60.91C255.438 60.4993 254.916 60.294 254.253 60.294C253.581 60.294 253.044 60.504 252.643 60.924C252.251 61.344 252.055 61.9553 252.055 62.758V67H250.781V56.64H252.055V60.42C252.307 60.028 252.652 59.7247 253.091 59.51C253.539 59.2953 254.038 59.188 254.589 59.188ZM266.736 62.87C266.736 63.1127 266.722 63.3693 266.694 63.64H260.562C260.609 64.396 260.866 64.9887 261.332 65.418C261.808 65.838 262.382 66.048 263.054 66.048C263.605 66.048 264.062 65.922 264.426 65.67C264.8 65.4087 265.061 65.0633 265.21 64.634H266.582C266.377 65.3713 265.966 65.9733 265.35 66.44C264.734 66.8973 263.969 67.126 263.054 67.126C262.326 67.126 261.673 66.9627 261.094 66.636C260.525 66.3093 260.077 65.8473 259.75 65.25C259.424 64.6433 259.26 63.9433 259.26 63.15C259.26 62.3567 259.419 61.6613 259.736 61.064C260.054 60.4667 260.497 60.0093 261.066 59.692C261.645 59.3653 262.308 59.202 263.054 59.202C263.782 59.202 264.426 59.3607 264.986 59.678C265.546 59.9953 265.976 60.434 266.274 60.994C266.582 61.5447 266.736 62.17 266.736 62.87ZM265.42 62.604C265.42 62.1187 265.313 61.7033 265.098 61.358C264.884 61.0033 264.59 60.7373 264.216 60.56C263.852 60.3733 263.446 60.28 262.998 60.28C262.354 60.28 261.804 60.4853 261.346 60.896C260.898 61.3067 260.642 61.876 260.576 62.604H265.42ZM269.692 60.574C269.916 60.1353 270.233 59.7947 270.644 59.552C271.064 59.3093 271.573 59.188 272.17 59.188V60.504H271.834C270.406 60.504 269.692 61.2787 269.692 62.828V67H268.418V59.328H269.692V60.574ZM280.641 62.87C280.641 63.1127 280.627 63.3693 280.599 63.64H274.467C274.513 64.396 274.77 64.9887 275.237 65.418C275.713 65.838 276.287 66.048 276.959 66.048C277.509 66.048 277.967 65.922 278.331 65.67C278.704 65.4087 278.965 65.0633 279.115 64.634H280.487C280.281 65.3713 279.871 65.9733 279.255 66.44C278.639 66.8973 277.873 67.126 276.959 67.126C276.231 67.126 275.577 66.9627 274.999 66.636C274.429 66.3093 273.981 65.8473 273.655 65.25C273.328 64.6433 273.165 63.9433 273.165 63.15C273.165 62.3567 273.323 61.6613 273.641 61.064C273.958 60.4667 274.401 60.0093 274.971 59.692C275.549 59.3653 276.212 59.202 276.959 59.202C277.687 59.202 278.331 59.3607 278.891 59.678C279.451 59.9953 279.88 60.434 280.179 60.994C280.487 61.5447 280.641 62.17 280.641 62.87ZM279.325 62.604C279.325 62.1187 279.217 61.7033 279.003 61.358C278.788 61.0033 278.494 60.7373 278.121 60.56C277.757 60.3733 277.351 60.28 276.903 60.28C276.259 60.28 275.708 60.4853 275.251 60.896C274.803 61.3067 274.546 61.876 274.481 62.604H279.325ZM282.728 67.084C282.485 67.084 282.28 67 282.112 66.832C281.944 66.664 281.86 66.4587 281.86 66.216C281.86 65.9733 281.944 65.768 282.112 65.6C282.28 65.432 282.485 65.348 282.728 65.348C282.961 65.348 283.157 65.432 283.316 65.6C283.484 65.768 283.568 65.9733 283.568 66.216C283.568 66.4587 283.484 66.664 283.316 66.832C283.157 67 282.961 67.084 282.728 67.084Z" fill="#9E9E9E"/>
</svg>
