<svg width="141" height="16" viewBox="0 0 141 16" fill="none" xmlns="http://www.w3.org/2000/svg">
<path d="M1.15078 4.26C1.21745 2.92667 1.68411 1.9 2.55078 1.18C3.43078 0.446666 4.58411 0.079999 6.01078 0.079999C6.98411 0.079999 7.81745 0.253332 8.51078 0.599999C9.20411 0.933332 9.72412 1.39333 10.0708 1.98C10.4308 2.55333 10.6108 3.20667 10.6108 3.94C10.6108 4.78 10.3908 5.49333 9.95078 6.08C9.52412 6.65333 9.01078 7.04 8.41078 7.24V7.32C9.18411 7.56 9.78411 7.98667 10.2108 8.6C10.6508 9.21333 10.8708 10 10.8708 10.96C10.8708 11.76 10.6841 12.4733 10.3108 13.1C9.95078 13.7267 9.41078 14.22 8.69078 14.58C7.98411 14.9267 7.13078 15.1 6.13078 15.1C4.62411 15.1 3.39745 14.72 2.45078 13.96C1.50411 13.2 1.00411 12.08 0.950781 10.6H3.67078C3.69745 11.2533 3.91745 11.78 4.33078 12.18C4.75745 12.5667 5.33745 12.76 6.07078 12.76C6.75078 12.76 7.27078 12.5733 7.63078 12.2C8.00411 11.8133 8.19078 11.32 8.19078 10.72C8.19078 9.92 7.93745 9.34667 7.43078 9C6.92412 8.65333 6.13745 8.48 5.07078 8.48H4.49078V6.18H5.07078C6.96411 6.18 7.91078 5.54667 7.91078 4.28C7.91078 3.70667 7.73745 3.26 7.39078 2.94C7.05745 2.62 6.57078 2.46 5.93078 2.46C5.30411 2.46 4.81745 2.63333 4.47078 2.98C4.13745 3.31333 3.94411 3.74 3.89078 4.26H1.15078ZM18.2834 1.04C19.7501 1.04 21.0368 1.32667 22.1434 1.9C23.2634 2.47333 24.1234 3.29333 24.7234 4.36C25.3368 5.41333 25.6434 6.64 25.6434 8.04C25.6434 9.44 25.3368 10.6667 24.7234 11.72C24.1234 12.76 23.2634 13.5667 22.1434 14.14C21.0368 14.7133 19.7501 15 18.2834 15H13.4034V1.04H18.2834ZM18.1834 12.62C19.6501 12.62 20.7834 12.22 21.5834 11.42C22.3834 10.62 22.7834 9.49333 22.7834 8.04C22.7834 6.58667 22.3834 5.45333 21.5834 4.64C20.7834 3.81333 19.6501 3.4 18.1834 3.4H16.2034V12.62H18.1834ZM42.005 1.04V3.3H38.285V15H35.485V3.3H31.765V1.04H42.005ZM46.848 3.3V6.8H51.548V9.02H46.848V12.72H52.148V15H44.048V1.02H52.148V3.3H46.848ZM63.0525 15L60.0325 10.3L57.2925 15H54.1325L58.5325 7.96L54.0725 1.04H57.2925L60.3125 5.72L63.0325 1.04H66.1925L61.8125 8.06L66.2725 15H63.0525ZM77.9034 1.04V3.3H74.1834V15H71.3834V3.3H67.6634V1.04H77.9034ZM82.7064 1.04V9.68C82.7064 10.6267 82.9531 11.3533 83.4464 11.86C83.9397 12.3533 84.6331 12.6 85.5264 12.6C86.4331 12.6 87.1331 12.3533 87.6264 11.86C88.1197 11.3533 88.3664 10.6267 88.3664 9.68V1.04H91.1864V9.66C91.1864 10.8467 90.9264 11.8533 90.4064 12.68C89.8997 13.4933 89.2131 14.1067 88.3464 14.52C87.4931 14.9333 86.5397 15.14 85.4864 15.14C84.4464 15.14 83.4997 14.9333 82.6464 14.52C81.8064 14.1067 81.1397 13.4933 80.6464 12.68C80.1531 11.8533 79.9064 10.8467 79.9064 9.66V1.04H82.7064ZM101.092 15L98.0117 9.56H96.6917V15H93.8917V1.04H99.1317C100.212 1.04 101.132 1.23333 101.892 1.62C102.652 1.99333 103.218 2.50667 103.592 3.16C103.978 3.8 104.172 4.52 104.172 5.32C104.172 6.24 103.905 7.07333 103.372 7.82C102.838 8.55333 102.045 9.06 100.992 9.34L104.332 15H101.092ZM96.6917 7.46H99.0317C99.7917 7.46 100.358 7.28 100.732 6.92C101.105 6.54667 101.292 6.03333 101.292 5.38C101.292 4.74 101.105 4.24667 100.732 3.9C100.358 3.54 99.7917 3.36 99.0317 3.36H96.6917V7.46ZM109.504 1.04V15H106.704V1.04H109.504ZM124.211 15H121.411L115.071 5.42V15H112.271V1.02H115.071L121.411 10.62V1.02H124.211V15ZM136.698 5.24C136.378 4.65333 135.938 4.20667 135.378 3.9C134.818 3.59333 134.164 3.44 133.418 3.44C132.591 3.44 131.858 3.62667 131.218 4C130.578 4.37333 130.078 4.90667 129.718 5.6C129.358 6.29333 129.178 7.09333 129.178 8C129.178 8.93333 129.358 9.74667 129.718 10.44C130.091 11.1333 130.604 11.6667 131.258 12.04C131.911 12.4133 132.671 12.6 133.538 12.6C134.604 12.6 135.478 12.32 136.158 11.76C136.838 11.1867 137.284 10.3933 137.498 9.38H132.698V7.24H140.258V9.68C140.071 10.6533 139.671 11.5533 139.058 12.38C138.444 13.2067 137.651 13.8733 136.678 14.38C135.718 14.8733 134.638 15.12 133.438 15.12C132.091 15.12 130.871 14.82 129.778 14.22C128.698 13.6067 127.844 12.76 127.218 11.68C126.604 10.6 126.298 9.37333 126.298 8C126.298 6.62667 126.604 5.4 127.218 4.32C127.844 3.22667 128.698 2.38 129.778 1.78C130.871 1.16667 132.084 0.86 133.418 0.86C134.991 0.86 136.358 1.24667 137.518 2.02C138.678 2.78 139.478 3.85333 139.918 5.24H136.698Z" fill="white"/>
</svg>
