<svg width="134" height="57" viewBox="0 0 134 57" fill="none" xmlns="http://www.w3.org/2000/svg">
<path d="M7.18614 12.0769H3.16653L2.50141 14H0.375935L4.00515 3.89313H6.36198L9.9912 14H7.85126L7.18614 12.0769ZM6.6367 10.4575L5.17634 6.2355L3.71597 10.4575H6.6367ZM17.0735 8.82366C17.6422 8.9297 18.1098 9.21406 18.4761 9.67675C18.8423 10.1394 19.0255 10.6696 19.0255 11.2672C19.0255 11.807 18.8905 12.2842 18.6206 12.6987C18.3604 13.1035 17.9796 13.4216 17.4784 13.653C16.9771 13.8843 16.3843 14 15.6999 14H11.3477V3.90759H15.5119C16.1963 3.90759 16.7843 4.01844 17.276 4.24015C17.7772 4.46186 18.1531 4.77031 18.4038 5.16553C18.664 5.56074 18.7942 6.00897 18.7942 6.51022C18.7942 7.09822 18.6351 7.58983 18.317 7.98504C18.0085 8.38025 17.5941 8.6598 17.0735 8.82366ZM13.372 8.07179H15.2228C15.7047 8.07179 16.0759 7.96576 16.3361 7.7537C16.5964 7.53199 16.7265 7.21871 16.7265 6.81386C16.7265 6.40901 16.5964 6.09573 16.3361 5.87402C16.0759 5.65232 15.7047 5.54146 15.2228 5.54146H13.372V8.07179ZM15.4107 12.3517C15.9023 12.3517 16.2831 12.236 16.553 12.0047C16.8325 11.7733 16.9723 11.4456 16.9723 11.0214C16.9723 10.5877 16.8277 10.2503 16.5385 10.0093C16.2494 9.75868 15.859 9.63337 15.3674 9.63337H13.372V12.3517H15.4107ZM25.3235 14.1012C24.3789 14.1012 23.5113 13.8795 22.7209 13.4361C21.9305 12.9927 21.3039 12.3806 20.8412 11.5998C20.3785 10.8094 20.1472 9.91773 20.1472 8.92488C20.1472 7.94166 20.3785 7.05966 20.8412 6.27887C21.3039 5.48845 21.9305 4.87153 22.7209 4.42812C23.5113 3.98471 24.3789 3.763 25.3235 3.763C26.2778 3.763 27.1454 3.98471 27.9262 4.42812C28.7166 4.87153 29.3383 5.48845 29.7914 6.27887C30.2541 7.05966 30.4854 7.94166 30.4854 8.92488C30.4854 9.91773 30.2541 10.8094 29.7914 11.5998C29.3383 12.3806 28.7166 12.9927 27.9262 13.4361C27.1357 13.8795 26.2682 14.1012 25.3235 14.1012ZM25.3235 12.2938C25.9308 12.2938 26.4658 12.1589 26.9285 11.889C27.3912 11.6094 27.7527 11.2142 28.0129 10.7033C28.2732 10.1925 28.4033 9.59963 28.4033 8.92488C28.4033 8.25012 28.2732 7.66212 28.0129 7.16088C27.7527 6.64999 27.3912 6.2596 26.9285 5.98969C26.4658 5.71979 25.9308 5.58484 25.3235 5.58484C24.7163 5.58484 24.1765 5.71979 23.7041 5.98969C23.2414 6.2596 22.88 6.64999 22.6197 7.16088C22.3594 7.66212 22.2293 8.25012 22.2293 8.92488C22.2293 9.59963 22.3594 10.1925 22.6197 10.7033C22.88 11.2142 23.2414 11.6094 23.7041 11.889C24.1765 12.1589 24.7163 12.2938 25.3235 12.2938ZM33.9868 3.90759V10.1539C33.9868 10.8383 34.1651 11.3636 34.5217 11.7299C34.8784 12.0866 35.3796 12.2649 36.0255 12.2649C36.681 12.2649 37.187 12.0866 37.5437 11.7299C37.9003 11.3636 38.0787 10.8383 38.0787 10.1539V3.90759H40.1174V10.1394C40.1174 10.9973 39.9294 11.7251 39.5535 12.3228C39.1872 12.9108 38.6908 13.3542 38.0642 13.653C37.4473 13.9518 36.7581 14.1012 35.9966 14.1012C35.2447 14.1012 34.5603 13.9518 33.9434 13.653C33.3361 13.3542 32.8541 12.9108 32.4975 12.3228C32.1408 11.7251 31.9625 10.9973 31.9625 10.1394V3.90759H33.9868ZM48.9412 3.90759V5.54146H46.2519V14H44.2276V5.54146H41.5382V3.90759H48.9412ZM64.8669 3.90759V14H62.8426V7.4356L60.1387 14H58.6061L55.8878 7.4356V14H53.8635V3.90759H56.1625L59.3724 11.4118L62.5823 3.90759H64.8669ZM68.8925 5.54146V8.07179H72.2903V9.67675H68.8925V12.3517H72.7241V14H66.8682V3.89313H72.7241V5.54146H68.8925Z" fill="white"/>
<path d="M1.344 25.4238V30.9998H0.616V25.4238H1.344ZM8.01356 29.7598H5.58156L5.13356 30.9998H4.36556L6.38156 25.4558H7.22156L9.22956 30.9998H8.46156L8.01356 29.7598ZM7.80556 29.1678L6.79756 26.3518L5.78956 29.1678H7.80556ZM15.3802 26.5358C15.7215 26.5358 16.0255 26.6078 16.2922 26.7518C16.5589 26.8904 16.7695 27.1011 16.9242 27.3838C17.0789 27.6664 17.1562 28.0104 17.1562 28.4158V30.9998H16.4362V28.5198C16.4362 28.0824 16.3269 27.7491 16.1082 27.5198C15.8949 27.2851 15.6042 27.1678 15.2362 27.1678C14.8575 27.1678 14.5562 27.2904 14.3322 27.5358C14.1082 27.7758 13.9962 28.1251 13.9962 28.5838V30.9998H13.2762V28.5198C13.2762 28.0824 13.1669 27.7491 12.9482 27.5198C12.7349 27.2851 12.4442 27.1678 12.0762 27.1678C11.6975 27.1678 11.3962 27.2904 11.1722 27.5358C10.9482 27.7758 10.8362 28.1251 10.8362 28.5838V30.9998H10.1082V26.6158H10.8362V27.2478C10.9802 27.0184 11.1722 26.8424 11.4122 26.7198C11.6575 26.5971 11.9269 26.5358 12.2202 26.5358C12.5882 26.5358 12.9135 26.6184 13.1962 26.7838C13.4789 26.9491 13.6895 27.1918 13.8282 27.5118C13.9509 27.2024 14.1535 26.9624 14.4362 26.7918C14.7189 26.6211 15.0335 26.5358 15.3802 26.5358ZM26.1392 25.4638V30.9998H25.4112V26.8718L23.5712 30.9998H23.0592L21.2112 26.8638V30.9998H20.4832V25.4638H21.2672L23.3152 30.0398L25.3632 25.4638H26.1392ZM29.2858 31.0718C28.8751 31.0718 28.5018 30.9784 28.1658 30.7918C27.8351 30.6051 27.5738 30.3411 27.3818 29.9998C27.1951 29.6531 27.1018 29.2531 27.1018 28.7998C27.1018 28.3518 27.1978 27.9571 27.3898 27.6158C27.5871 27.2691 27.8538 27.0051 28.1898 26.8238C28.5258 26.6371 28.9018 26.5438 29.3178 26.5438C29.7338 26.5438 30.1098 26.6371 30.4458 26.8238C30.7818 27.0051 31.0458 27.2664 31.2378 27.6078C31.4351 27.9491 31.5338 28.3464 31.5338 28.7998C31.5338 29.2531 31.4325 29.6531 31.2298 29.9998C31.0325 30.3411 30.7631 30.6051 30.4218 30.7918C30.0805 30.9784 29.7018 31.0718 29.2858 31.0718ZM29.2858 30.4318C29.5471 30.4318 29.7925 30.3704 30.0218 30.2478C30.2511 30.1251 30.4351 29.9411 30.5738 29.6958C30.7178 29.4504 30.7898 29.1518 30.7898 28.7998C30.7898 28.4478 30.7205 28.1491 30.5818 27.9038C30.4431 27.6584 30.2618 27.4771 30.0378 27.3598C29.8138 27.2371 29.5711 27.1758 29.3098 27.1758C29.0431 27.1758 28.7978 27.2371 28.5738 27.3598C28.3551 27.4771 28.1791 27.6584 28.0458 27.9038C27.9125 28.1491 27.8458 28.4478 27.8458 28.7998C27.8458 29.1571 27.9098 29.4584 28.0378 29.7038C28.1711 29.9491 28.3471 30.1331 28.5658 30.2558C28.7845 30.3731 29.0245 30.4318 29.2858 30.4318ZM34.043 31.0718C33.707 31.0718 33.4057 31.0158 33.139 30.9038C32.8723 30.7864 32.6617 30.6264 32.507 30.4238C32.3523 30.2158 32.267 29.9784 32.251 29.7118H33.003C33.0243 29.9304 33.1257 30.1091 33.307 30.2478C33.4937 30.3864 33.7363 30.4558 34.035 30.4558C34.3123 30.4558 34.531 30.3944 34.691 30.2718C34.851 30.1491 34.931 29.9944 34.931 29.8078C34.931 29.6158 34.8457 29.4744 34.675 29.3838C34.5043 29.2878 34.2403 29.1944 33.883 29.1038C33.5577 29.0184 33.291 28.9331 33.083 28.8478C32.8803 28.7571 32.7043 28.6264 32.555 28.4558C32.411 28.2798 32.339 28.0504 32.339 27.7678C32.339 27.5438 32.4057 27.3384 32.539 27.1518C32.6723 26.9651 32.8617 26.8184 33.107 26.7118C33.3523 26.5998 33.6323 26.5438 33.947 26.5438C34.4323 26.5438 34.8243 26.6664 35.123 26.9118C35.4217 27.1571 35.5817 27.4931 35.603 27.9198H34.875C34.859 27.6904 34.7657 27.5064 34.595 27.3678C34.4297 27.2291 34.2057 27.1598 33.923 27.1598C33.6617 27.1598 33.4537 27.2158 33.299 27.3278C33.1443 27.4398 33.067 27.5864 33.067 27.7678C33.067 27.9118 33.1123 28.0318 33.203 28.1278C33.299 28.2184 33.4163 28.2931 33.555 28.3518C33.699 28.4051 33.8963 28.4664 34.147 28.5358C34.4617 28.6211 34.7177 28.7064 34.915 28.7918C35.1123 28.8718 35.2803 28.9944 35.419 29.1598C35.563 29.3251 35.6377 29.5411 35.643 29.8078C35.643 30.0478 35.5763 30.2638 35.443 30.4558C35.3097 30.6478 35.1203 30.7998 34.875 30.9118C34.635 31.0184 34.3577 31.0718 34.043 31.0718ZM37.5587 27.2158V29.7998C37.5587 30.0131 37.604 30.1651 37.6947 30.2558C37.7854 30.3411 37.9427 30.3838 38.1667 30.3838H38.7027V30.9998H38.0467C37.6414 30.9998 37.3374 30.9064 37.1347 30.7198C36.932 30.5331 36.8307 30.2264 36.8307 29.7998V27.2158H36.2627V26.6158H36.8307V25.5118H37.5587V26.6158H38.7027V27.2158H37.5587ZM40.3128 25.0798V30.9998H39.5848V25.0798H40.3128ZM45.3295 26.6158L42.6895 33.0638H41.9375L42.8015 30.9518L41.0335 26.6158H41.8415L43.2175 30.1678L44.5775 26.6158H45.3295ZM51.4901 29.7598H49.0581L48.6101 30.9998H47.8421L49.8581 25.4558H50.6981L52.7061 30.9998H51.9381L51.4901 29.7598ZM51.2821 29.1678L50.2741 26.3518L49.2661 29.1678H51.2821ZM59.4456 27.0558C59.4456 27.5198 59.2856 27.9064 58.9656 28.2158C58.6509 28.5198 58.1682 28.6718 57.5176 28.6718H56.4456V30.9998H55.7176V25.4238H57.5176C58.1469 25.4238 58.6242 25.5758 58.9496 25.8798C59.2802 26.1838 59.4456 26.5758 59.4456 27.0558ZM57.5176 28.0718C57.9229 28.0718 58.2216 27.9838 58.4136 27.8078C58.6056 27.6318 58.7016 27.3811 58.7016 27.0558C58.7016 26.3678 58.3069 26.0238 57.5176 26.0238H56.4456V28.0718H57.5176ZM61.0784 27.3278C61.2064 27.0771 61.3877 26.8824 61.6224 26.7438C61.8624 26.6051 62.153 26.5358 62.4944 26.5358V27.2878H62.3024C61.4864 27.2878 61.0784 27.7304 61.0784 28.6158V30.9998H60.3504V26.6158H61.0784V27.3278ZM65.2468 31.0718C64.8361 31.0718 64.4628 30.9784 64.1268 30.7918C63.7961 30.6051 63.5348 30.3411 63.3428 29.9998C63.1561 29.6531 63.0628 29.2531 63.0628 28.7998C63.0628 28.3518 63.1588 27.9571 63.3508 27.6158C63.5481 27.2691 63.8148 27.0051 64.1508 26.8238C64.4868 26.6371 64.8628 26.5438 65.2788 26.5438C65.6948 26.5438 66.0708 26.6371 66.4068 26.8238C66.7428 27.0051 67.0068 27.2664 67.1988 27.6078C67.3961 27.9491 67.4948 28.3464 67.4948 28.7998C67.4948 29.2531 67.3934 29.6531 67.1908 29.9998C66.9934 30.3411 66.7241 30.6051 66.3828 30.7918C66.0414 30.9784 65.6628 31.0718 65.2468 31.0718ZM65.2468 30.4318C65.5081 30.4318 65.7534 30.3704 65.9828 30.2478C66.2121 30.1251 66.3961 29.9411 66.5348 29.6958C66.6788 29.4504 66.7508 29.1518 66.7508 28.7998C66.7508 28.4478 66.6814 28.1491 66.5428 27.9038C66.4041 27.6584 66.2228 27.4771 65.9988 27.3598C65.7748 27.2371 65.5321 27.1758 65.2708 27.1758C65.0041 27.1758 64.7588 27.2371 64.5348 27.3598C64.3161 27.4771 64.1401 27.6584 64.0068 27.9038C63.8734 28.1491 63.8068 28.4478 63.8068 28.7998C63.8068 29.1571 63.8708 29.4584 63.9988 29.7038C64.1321 29.9491 64.3081 30.1331 64.5268 30.2558C64.7454 30.3731 64.9854 30.4318 65.2468 30.4318ZM70.2599 26.5438C70.6386 26.5438 70.9693 26.6264 71.2519 26.7918C71.5399 26.9571 71.7533 27.1651 71.8919 27.4158V26.6158H72.6279V31.0958C72.6279 31.4958 72.5426 31.8504 72.3719 32.1598C72.2013 32.4744 71.9559 32.7198 71.6359 32.8958C71.3213 33.0718 70.9533 33.1598 70.5319 33.1598C69.9559 33.1598 69.4759 33.0238 69.0919 32.7518C68.7079 32.4798 68.4813 32.1091 68.4119 31.6398H69.1319C69.2119 31.9064 69.3773 32.1198 69.6279 32.2798C69.8786 32.4451 70.1799 32.5278 70.5319 32.5278C70.9319 32.5278 71.2573 32.4024 71.5079 32.1518C71.7639 31.9011 71.8919 31.5491 71.8919 31.0958V30.1758C71.7479 30.4318 71.5346 30.6451 71.2519 30.8158C70.9693 30.9864 70.6386 31.0718 70.2599 31.0718C69.8706 31.0718 69.5159 30.9758 69.1959 30.7838C68.8813 30.5918 68.6333 30.3224 68.4519 29.9758C68.2706 29.6291 68.1799 29.2344 68.1799 28.7918C68.1799 28.3438 68.2706 27.9518 68.4519 27.6158C68.6333 27.2744 68.8813 27.0104 69.1959 26.8238C69.5159 26.6371 69.8706 26.5438 70.2599 26.5438ZM71.8919 28.7998C71.8919 28.4691 71.8253 28.1811 71.6919 27.9358C71.5586 27.6904 71.3773 27.5038 71.1479 27.3758C70.9239 27.2424 70.6759 27.1758 70.4039 27.1758C70.1319 27.1758 69.8839 27.2398 69.6599 27.3678C69.4359 27.4958 69.2573 27.6824 69.1239 27.9278C68.9906 28.1731 68.9239 28.4611 68.9239 28.7918C68.9239 29.1278 68.9906 29.4211 69.1239 29.6718C69.2573 29.9171 69.4359 30.1064 69.6599 30.2398C69.8839 30.3678 70.1319 30.4318 70.4039 30.4318C70.6759 30.4318 70.9239 30.3678 71.1479 30.2398C71.3773 30.1064 71.5586 29.9171 71.6919 29.6718C71.8253 29.4211 71.8919 29.1304 71.8919 28.7998ZM74.5862 27.3278C74.7142 27.0771 74.8955 26.8824 75.1302 26.7438C75.3702 26.6051 75.6609 26.5358 76.0022 26.5358V27.2878H75.8102C74.9942 27.2878 74.5862 27.7304 74.5862 28.6158V30.9998H73.8582V26.6158H74.5862V27.3278ZM76.5706 28.7918C76.5706 28.3438 76.6612 27.9518 76.8426 27.6158C77.0239 27.2744 77.2719 27.0104 77.5866 26.8238C77.9066 26.6371 78.2612 26.5438 78.6506 26.5438C79.0346 26.5438 79.3679 26.6264 79.6506 26.7918C79.9332 26.9571 80.1439 27.1651 80.2826 27.4158V26.6158H81.0186V30.9998H80.2826V30.1838C80.1386 30.4398 79.9226 30.6531 79.6346 30.8238C79.3519 30.9891 79.0212 31.0718 78.6426 31.0718C78.2532 31.0718 77.9012 30.9758 77.5866 30.7838C77.2719 30.5918 77.0239 30.3224 76.8426 29.9758C76.6612 29.6291 76.5706 29.2344 76.5706 28.7918ZM80.2826 28.7998C80.2826 28.4691 80.2159 28.1811 80.0826 27.9358C79.9492 27.6904 79.7679 27.5038 79.5386 27.3758C79.3146 27.2424 79.0666 27.1758 78.7946 27.1758C78.5226 27.1758 78.2746 27.2398 78.0506 27.3678C77.8266 27.4958 77.6479 27.6824 77.5146 27.9278C77.3812 28.1731 77.3146 28.4611 77.3146 28.7918C77.3146 29.1278 77.3812 29.4211 77.5146 29.6718C77.6479 29.9171 77.8266 30.1064 78.0506 30.2398C78.2746 30.3678 78.5226 30.4318 78.7946 30.4318C79.0666 30.4318 79.3146 30.3678 79.5386 30.2398C79.7679 30.1064 79.9492 29.9171 80.0826 29.6718C80.2159 29.4211 80.2826 29.1304 80.2826 28.7998ZM87.5208 26.5358C87.8621 26.5358 88.1661 26.6078 88.4328 26.7518C88.6995 26.8904 88.9101 27.1011 89.0648 27.3838C89.2195 27.6664 89.2968 28.0104 89.2968 28.4158V30.9998H88.5768V28.5198C88.5768 28.0824 88.4675 27.7491 88.2488 27.5198C88.0355 27.2851 87.7448 27.1678 87.3768 27.1678C86.9981 27.1678 86.6968 27.2904 86.4728 27.5358C86.2488 27.7758 86.1368 28.1251 86.1368 28.5838V30.9998H85.4168V28.5198C85.4168 28.0824 85.3075 27.7491 85.0888 27.5198C84.8755 27.2851 84.5848 27.1678 84.2168 27.1678C83.8381 27.1678 83.5368 27.2904 83.3128 27.5358C83.0888 27.7758 82.9768 28.1251 82.9768 28.5838V30.9998H82.2488V26.6158H82.9768V27.2478C83.1208 27.0184 83.3128 26.8424 83.5528 26.7198C83.7981 26.5971 84.0675 26.5358 84.3608 26.5358C84.7288 26.5358 85.0541 26.6184 85.3368 26.7838C85.6195 26.9491 85.8301 27.1918 85.9688 27.5118C86.0915 27.2024 86.2941 26.9624 86.5768 26.7918C86.8595 26.6211 87.1741 26.5358 87.5208 26.5358ZM95.763 26.5358C96.1043 26.5358 96.4083 26.6078 96.675 26.7518C96.9417 26.8904 97.1523 27.1011 97.307 27.3838C97.4617 27.6664 97.539 28.0104 97.539 28.4158V30.9998H96.819V28.5198C96.819 28.0824 96.7097 27.7491 96.491 27.5198C96.2777 27.2851 95.987 27.1678 95.619 27.1678C95.2403 27.1678 94.939 27.2904 94.715 27.5358C94.491 27.7758 94.379 28.1251 94.379 28.5838V30.9998H93.659V28.5198C93.659 28.0824 93.5497 27.7491 93.331 27.5198C93.1177 27.2851 92.827 27.1678 92.459 27.1678C92.0803 27.1678 91.779 27.2904 91.555 27.5358C91.331 27.7758 91.219 28.1251 91.219 28.5838V30.9998H90.491V26.6158H91.219V27.2478C91.363 27.0184 91.555 26.8424 91.795 26.7198C92.0403 26.5971 92.3097 26.5358 92.603 26.5358C92.971 26.5358 93.2963 26.6184 93.579 26.7838C93.8617 26.9491 94.0723 27.1918 94.211 27.5118C94.3337 27.2024 94.5363 26.9624 94.819 26.7918C95.1017 26.6211 95.4163 26.5358 95.763 26.5358ZM102.733 28.6398C102.733 28.7784 102.725 28.9251 102.709 29.0798H99.2052C99.2319 29.5118 99.3785 29.8504 99.6452 30.0958C99.9172 30.3358 100.245 30.4558 100.629 30.4558C100.944 30.4558 101.205 30.3838 101.413 30.2398C101.627 30.0904 101.776 29.8931 101.861 29.6478H102.645C102.528 30.0691 102.293 30.4131 101.941 30.6798C101.589 30.9411 101.152 31.0718 100.629 31.0718C100.213 31.0718 99.8399 30.9784 99.5092 30.7918C99.1839 30.6051 98.9279 30.3411 98.7412 29.9998C98.5545 29.6531 98.4612 29.2531 98.4612 28.7998C98.4612 28.3464 98.5519 27.9491 98.7332 27.6078C98.9145 27.2664 99.1679 27.0051 99.4932 26.8238C99.8239 26.6371 100.203 26.5438 100.629 26.5438C101.045 26.5438 101.413 26.6344 101.733 26.8158C102.053 26.9971 102.299 27.2478 102.469 27.5678C102.645 27.8824 102.733 28.2398 102.733 28.6398ZM101.981 28.4878C101.981 28.2104 101.92 27.9731 101.797 27.7758C101.675 27.5731 101.507 27.4211 101.293 27.3198C101.085 27.2131 100.853 27.1598 100.597 27.1598C100.229 27.1598 99.9145 27.2771 99.6532 27.5118C99.3972 27.7464 99.2505 28.0718 99.2132 28.4878H101.981ZM104.422 27.3278C104.55 27.0771 104.731 26.8824 104.966 26.7438C105.206 26.6051 105.497 26.5358 105.838 26.5358V27.2878H105.646C104.83 27.2878 104.422 27.7304 104.422 28.6158V30.9998H103.694V26.6158H104.422V27.3278ZM107.431 29.9918L106.535 32.1438H106.046L106.631 29.9918H107.431ZM113.189 28.1278C113.392 28.1598 113.576 28.2424 113.741 28.3758C113.912 28.5091 114.045 28.6744 114.141 28.8718C114.243 29.0691 114.293 29.2798 114.293 29.5038C114.293 29.7864 114.221 30.0424 114.077 30.2718C113.933 30.4958 113.723 30.6744 113.445 30.8078C113.173 30.9358 112.851 30.9998 112.477 30.9998H110.397V25.4238H112.397C112.776 25.4238 113.099 25.4878 113.365 25.6158C113.632 25.7384 113.832 25.9064 113.965 26.1198C114.099 26.3331 114.165 26.5731 114.165 26.8398C114.165 27.1704 114.075 27.4451 113.893 27.6638C113.717 27.8771 113.483 28.0318 113.189 28.1278ZM111.125 27.8318H112.349C112.691 27.8318 112.955 27.7518 113.141 27.5918C113.328 27.4318 113.421 27.2104 113.421 26.9278C113.421 26.6451 113.328 26.4238 113.141 26.2638C112.955 26.1038 112.685 26.0238 112.333 26.0238H111.125V27.8318ZM112.413 30.3998C112.776 30.3998 113.059 30.3144 113.261 30.1438C113.464 29.9731 113.565 29.7358 113.565 29.4318C113.565 29.1224 113.459 28.8798 113.245 28.7038C113.032 28.5224 112.747 28.4318 112.389 28.4318H111.125V30.3998H112.413ZM119.192 26.6158V30.9998H118.464V30.3518C118.325 30.5758 118.13 30.7518 117.88 30.8798C117.634 31.0024 117.362 31.0638 117.064 31.0638C116.722 31.0638 116.416 30.9944 116.144 30.8558C115.872 30.7118 115.656 30.4984 115.496 30.2158C115.341 29.9331 115.264 29.5891 115.264 29.1838V26.6158H115.984V29.0878C115.984 29.5198 116.093 29.8531 116.312 30.0878C116.53 30.3171 116.829 30.4318 117.208 30.4318C117.597 30.4318 117.904 30.3118 118.128 30.0718C118.352 29.8318 118.464 29.4824 118.464 29.0238V26.6158H119.192ZM121.309 27.2158V29.7998C121.309 30.0131 121.354 30.1651 121.445 30.2558C121.535 30.3411 121.693 30.3838 121.917 30.3838H122.453V30.9998H121.797C121.391 30.9998 121.087 30.9064 120.885 30.7198C120.682 30.5331 120.581 30.2264 120.581 29.7998V27.2158H120.013V26.6158H120.581V25.5118H121.309V26.6158H122.453V27.2158H121.309ZM126.196 25.4238V30.9998H125.468V25.4238H126.196ZM2.352 36.4238C2.96 36.4238 3.48533 36.5384 3.928 36.7678C4.376 36.9918 4.71733 37.3144 4.952 37.7358C5.192 38.1571 5.312 38.6531 5.312 39.2238C5.312 39.7944 5.192 40.2904 4.952 40.7118C4.71733 41.1278 4.376 41.4478 3.928 41.6718C3.48533 41.8904 2.96 41.9998 2.352 41.9998H0.616V36.4238H2.352ZM2.352 41.3998C3.072 41.3998 3.62133 41.2104 4 40.8318C4.37867 40.4478 4.568 39.9118 4.568 39.2238C4.568 38.5304 4.376 37.9891 3.992 37.5998C3.61333 37.2104 3.06667 37.0158 2.352 37.0158H1.344V41.3998H2.352ZM6.00025 39.7918C6.00025 39.3438 6.09092 38.9518 6.27225 38.6158C6.45358 38.2744 6.70158 38.0104 7.01625 37.8238C7.33625 37.6371 7.69092 37.5438 8.08025 37.5438C8.46425 37.5438 8.79758 37.6264 9.08025 37.7918C9.36292 37.9571 9.57358 38.1651 9.71225 38.4158V37.6158H10.4483V41.9998H9.71225V41.1838C9.56825 41.4398 9.35225 41.6531 9.06425 41.8238C8.78158 41.9891 8.45092 42.0718 8.07225 42.0718C7.68292 42.0718 7.33092 41.9758 7.01625 41.7838C6.70158 41.5918 6.45358 41.3224 6.27225 40.9758C6.09092 40.6291 6.00025 40.2344 6.00025 39.7918ZM9.71225 39.7998C9.71225 39.4691 9.64558 39.1811 9.51225 38.9358C9.37892 38.6904 9.19758 38.5038 8.96825 38.3758C8.74425 38.2424 8.49625 38.1758 8.22425 38.1758C7.95225 38.1758 7.70425 38.2398 7.48025 38.3678C7.25625 38.4958 7.07758 38.6824 6.94425 38.9278C6.81092 39.1731 6.74425 39.4611 6.74425 39.7918C6.74425 40.1278 6.81092 40.4211 6.94425 40.6718C7.07758 40.9171 7.25625 41.1064 7.48025 41.2398C7.70425 41.3678 7.95225 41.4318 8.22425 41.4318C8.49625 41.4318 8.74425 41.3678 8.96825 41.2398C9.19758 41.1064 9.37892 40.9171 9.51225 40.6718C9.64558 40.4211 9.71225 40.1304 9.71225 39.7998ZM12.4065 38.4318C12.5558 38.1704 12.7745 37.9571 13.0625 37.7918C13.3505 37.6264 13.6785 37.5438 14.0465 37.5438C14.4412 37.5438 14.7958 37.6371 15.1105 37.8238C15.4252 38.0104 15.6732 38.2744 15.8545 38.6158C16.0358 38.9518 16.1265 39.3438 16.1265 39.7918C16.1265 40.2344 16.0358 40.6291 15.8545 40.9758C15.6732 41.3224 15.4225 41.5918 15.1025 41.7838C14.7878 41.9758 14.4358 42.0718 14.0465 42.0718C13.6678 42.0718 13.3345 41.9891 13.0465 41.8238C12.7638 41.6584 12.5505 41.4478 12.4065 41.1918V41.9998H11.6785V36.0798H12.4065V38.4318ZM15.3825 39.7918C15.3825 39.4611 15.3158 39.1731 15.1825 38.9278C15.0492 38.6824 14.8678 38.4958 14.6385 38.3678C14.4145 38.2398 14.1665 38.1758 13.8945 38.1758C13.6278 38.1758 13.3798 38.2424 13.1505 38.3758C12.9265 38.5038 12.7452 38.6931 12.6065 38.9438C12.4732 39.1891 12.4065 39.4744 12.4065 39.7998C12.4065 40.1304 12.4732 40.4211 12.6065 40.6718C12.7452 40.9171 12.9265 41.1064 13.1505 41.2398C13.3798 41.3678 13.6278 41.4318 13.8945 41.4318C14.1665 41.4318 14.4145 41.3678 14.6385 41.2398C14.8678 41.1064 15.0492 40.9171 15.1825 40.6718C15.3158 40.4211 15.3825 40.1278 15.3825 39.7918ZM17.8128 38.4318C17.9621 38.1704 18.1808 37.9571 18.4688 37.7918C18.7568 37.6264 19.0848 37.5438 19.4528 37.5438C19.8474 37.5438 20.2021 37.6371 20.5168 37.8238C20.8314 38.0104 21.0794 38.2744 21.2608 38.6158C21.4421 38.9518 21.5328 39.3438 21.5328 39.7918C21.5328 40.2344 21.4421 40.6291 21.2608 40.9758C21.0794 41.3224 20.8287 41.5918 20.5087 41.7838C20.1941 41.9758 19.8421 42.0718 19.4528 42.0718C19.0741 42.0718 18.7408 41.9891 18.4528 41.8238C18.1701 41.6584 17.9568 41.4478 17.8128 41.1918V41.9998H17.0848V36.0798H17.8128V38.4318ZM20.7888 39.7918C20.7888 39.4611 20.7221 39.1731 20.5888 38.9278C20.4554 38.6824 20.2741 38.4958 20.0448 38.3678C19.8208 38.2398 19.5728 38.1758 19.3008 38.1758C19.0341 38.1758 18.7861 38.2424 18.5568 38.3758C18.3328 38.5038 18.1514 38.6931 18.0128 38.9438C17.8794 39.1891 17.8128 39.4744 17.8128 39.7998C17.8128 40.1304 17.8794 40.4211 18.0128 40.6718C18.1514 40.9171 18.3328 41.1064 18.5568 41.2398C18.7861 41.3678 19.0341 41.4318 19.3008 41.4318C19.5728 41.4318 19.8208 41.3678 20.0448 41.2398C20.2741 41.1064 20.4554 40.9171 20.5888 40.6718C20.7221 40.4211 20.7888 40.1278 20.7888 39.7918ZM23.219 36.0798V41.9998H22.491V36.0798H23.219ZM28.4598 39.6398C28.4598 39.7784 28.4518 39.9251 28.4358 40.0798H24.9318C24.9584 40.5118 25.1051 40.8504 25.3718 41.0958C25.6438 41.3358 25.9718 41.4558 26.3558 41.4558C26.6704 41.4558 26.9318 41.3838 27.1398 41.2398C27.3531 41.0904 27.5024 40.8931 27.5878 40.6478H28.3718C28.2544 41.0691 28.0198 41.4131 27.6678 41.6798C27.3158 41.9411 26.8784 42.0718 26.3558 42.0718C25.9398 42.0718 25.5664 41.9784 25.2358 41.7918C24.9104 41.6051 24.6544 41.3411 24.4678 40.9998C24.2811 40.6531 24.1878 40.2531 24.1878 39.7998C24.1878 39.3464 24.2784 38.9491 24.4598 38.6078C24.6411 38.2664 24.8944 38.0051 25.2198 37.8238C25.5504 37.6371 25.9291 37.5438 26.3558 37.5438C26.7718 37.5438 27.1398 37.6344 27.4598 37.8158C27.7798 37.9971 28.0251 38.2478 28.1958 38.5678C28.3718 38.8824 28.4598 39.2398 28.4598 39.6398ZM27.7078 39.4878C27.7078 39.2104 27.6464 38.9731 27.5238 38.7758C27.4011 38.5731 27.2331 38.4211 27.0198 38.3198C26.8118 38.2131 26.5798 38.1598 26.3238 38.1598C25.9558 38.1598 25.6411 38.2771 25.3798 38.5118C25.1238 38.7464 24.9771 39.0718 24.9398 39.4878H27.7078ZM32.2815 36.4238V41.9998H31.5535V36.4238H32.2815ZM35.6583 37.5358C36.1916 37.5358 36.6236 37.6984 36.9543 38.0238C37.2849 38.3438 37.4503 38.8078 37.4503 39.4158V41.9998H36.7303V39.5198C36.7303 39.0824 36.6209 38.7491 36.4023 38.5198C36.1836 38.2851 35.8849 38.1678 35.5063 38.1678C35.1223 38.1678 34.8156 38.2878 34.5863 38.5278C34.3623 38.7678 34.2503 39.1171 34.2503 39.5758V41.9998H33.5223V37.6158H34.2503V38.2398C34.3943 38.0158 34.5889 37.8424 34.8343 37.7198C35.0849 37.5971 35.3596 37.5358 35.6583 37.5358ZM44.0683 40.7598H41.6363L41.1883 41.9998H40.4202L42.4363 36.4558H43.2763L45.2843 41.9998H44.5163L44.0683 40.7598ZM43.8603 40.1678L42.8523 37.3518L41.8443 40.1678H43.8603ZM55.3037 36.4238L53.6877 41.9998H52.8717L51.5757 37.5118L50.2317 41.9998L49.4237 42.0078L47.8637 36.4238H48.6397L49.8557 41.1518L51.1997 36.4238H52.0157L53.2957 41.1358L54.5197 36.4238H55.3037ZM56.4764 36.9038C56.3377 36.9038 56.2204 36.8558 56.1244 36.7598C56.0284 36.6638 55.9804 36.5464 55.9804 36.4078C55.9804 36.2691 56.0284 36.1518 56.1244 36.0558C56.2204 35.9598 56.3377 35.9118 56.4764 35.9118C56.6097 35.9118 56.7217 35.9598 56.8124 36.0558C56.9084 36.1518 56.9564 36.2691 56.9564 36.4078C56.9564 36.5464 56.9084 36.6638 56.8124 36.7598C56.7217 36.8558 56.6097 36.9038 56.4764 36.9038ZM56.8284 37.6158V41.9998H56.1004V37.6158H56.8284ZM57.7971 39.7918C57.7971 39.3438 57.8878 38.9518 58.0691 38.6158C58.2505 38.2744 58.4985 38.0104 58.8131 37.8238C59.1331 37.6371 59.4905 37.5438 59.8851 37.5438C60.2265 37.5438 60.5438 37.6238 60.8371 37.7838C61.1305 37.9384 61.3545 38.1438 61.5091 38.3998V36.0798H62.2451V41.9998H61.5091V41.1758C61.3651 41.4371 61.1518 41.6531 60.8691 41.8238C60.5865 41.9891 60.2558 42.0718 59.8771 42.0718C59.4878 42.0718 59.1331 41.9758 58.8131 41.7838C58.4985 41.5918 58.2505 41.3224 58.0691 40.9758C57.8878 40.6291 57.7971 40.2344 57.7971 39.7918ZM61.5091 39.7998C61.5091 39.4691 61.4425 39.1811 61.3091 38.9358C61.1758 38.6904 60.9945 38.5038 60.7651 38.3758C60.5411 38.2424 60.2931 38.1758 60.0211 38.1758C59.7491 38.1758 59.5011 38.2398 59.2771 38.3678C59.0531 38.4958 58.8745 38.6824 58.7411 38.9278C58.6078 39.1731 58.5411 39.4611 58.5411 39.7918C58.5411 40.1278 58.6078 40.4211 58.7411 40.6718C58.8745 40.9171 59.0531 41.1064 59.2771 41.2398C59.5011 41.3678 59.7491 41.4318 60.0211 41.4318C60.2931 41.4318 60.5411 41.3678 60.7651 41.2398C60.9945 41.1064 61.1758 40.9171 61.3091 40.6718C61.4425 40.4211 61.5091 40.1304 61.5091 39.7998ZM67.4754 39.6398C67.4754 39.7784 67.4674 39.9251 67.4514 40.0798H63.9474C63.974 40.5118 64.1207 40.8504 64.3874 41.0958C64.6594 41.3358 64.9874 41.4558 65.3714 41.4558C65.686 41.4558 65.9474 41.3838 66.1554 41.2398C66.3687 41.0904 66.518 40.8931 66.6034 40.6478H67.3874C67.27 41.0691 67.0354 41.4131 66.6834 41.6798C66.3314 41.9411 65.894 42.0718 65.3714 42.0718C64.9554 42.0718 64.582 41.9784 64.2514 41.7918C63.926 41.6051 63.67 41.3411 63.4834 40.9998C63.2967 40.6531 63.2034 40.2531 63.2034 39.7998C63.2034 39.3464 63.294 38.9491 63.4754 38.6078C63.6567 38.2664 63.91 38.0051 64.2354 37.8238C64.566 37.6371 64.9447 37.5438 65.3714 37.5438C65.7874 37.5438 66.1554 37.6344 66.4754 37.8158C66.7954 37.9971 67.0407 38.2478 67.2114 38.5678C67.3874 38.8824 67.4754 39.2398 67.4754 39.6398ZM66.7234 39.4878C66.7234 39.2104 66.662 38.9731 66.5394 38.7758C66.4167 38.5731 66.2487 38.4211 66.0354 38.3198C65.8274 38.2131 65.5954 38.1598 65.3394 38.1598C64.9714 38.1598 64.6567 38.2771 64.3954 38.5118C64.1394 38.7464 63.9927 39.0718 63.9554 39.4878H66.7234ZM73.5051 41.9998L72.1771 39.7198H71.2971V41.9998H70.5691V36.4238H72.3691C72.7905 36.4238 73.1451 36.4958 73.4331 36.6398C73.7265 36.7838 73.9451 36.9784 74.0891 37.2238C74.2331 37.4691 74.3051 37.7491 74.3051 38.0638C74.3051 38.4478 74.1931 38.7864 73.9691 39.0798C73.7505 39.3731 73.4198 39.5678 72.9771 39.6638L74.3771 41.9998H73.5051ZM71.2971 39.1358H72.3691C72.7638 39.1358 73.0598 39.0398 73.2571 38.8478C73.4545 38.6504 73.5531 38.3891 73.5531 38.0638C73.5531 37.7331 73.4545 37.4771 73.2571 37.2958C73.0651 37.1144 72.7691 37.0238 72.3691 37.0238H71.2971V39.1358ZM75.1643 39.7918C75.1643 39.3438 75.255 38.9518 75.4363 38.6158C75.6176 38.2744 75.8656 38.0104 76.1803 37.8238C76.5003 37.6371 76.855 37.5438 77.2443 37.5438C77.6283 37.5438 77.9616 37.6264 78.2443 37.7918C78.527 37.9571 78.7376 38.1651 78.8763 38.4158V37.6158H79.6123V41.9998H78.8763V41.1838C78.7323 41.4398 78.5163 41.6531 78.2283 41.8238C77.9456 41.9891 77.615 42.0718 77.2363 42.0718C76.847 42.0718 76.495 41.9758 76.1803 41.7838C75.8656 41.5918 75.6176 41.3224 75.4363 40.9758C75.255 40.6291 75.1643 40.2344 75.1643 39.7918ZM78.8763 39.7998C78.8763 39.4691 78.8096 39.1811 78.6763 38.9358C78.543 38.6904 78.3616 38.5038 78.1323 38.3758C77.9083 38.2424 77.6603 38.1758 77.3883 38.1758C77.1163 38.1758 76.8683 38.2398 76.6443 38.3678C76.4203 38.4958 76.2416 38.6824 76.1083 38.9278C75.975 39.1731 75.9083 39.4611 75.9083 39.7918C75.9083 40.1278 75.975 40.4211 76.1083 40.6718C76.2416 40.9171 76.4203 41.1064 76.6443 41.2398C76.8683 41.3678 77.1163 41.4318 77.3883 41.4318C77.6603 41.4318 77.9083 41.3678 78.1323 41.2398C78.3616 41.1064 78.543 40.9171 78.6763 40.6718C78.8096 40.4211 78.8763 40.1304 78.8763 39.7998ZM82.9786 37.5358C83.5119 37.5358 83.9439 37.6984 84.2746 38.0238C84.6052 38.3438 84.7706 38.8078 84.7706 39.4158V41.9998H84.0506V39.5198C84.0506 39.0824 83.9412 38.7491 83.7226 38.5198C83.5039 38.2851 83.2052 38.1678 82.8266 38.1678C82.4426 38.1678 82.1359 38.2878 81.9066 38.5278C81.6826 38.7678 81.5706 39.1171 81.5706 39.5758V41.9998H80.8426V37.6158H81.5706V38.2398C81.7146 38.0158 81.9092 37.8424 82.1546 37.7198C82.4052 37.5971 82.6799 37.5358 82.9786 37.5358ZM87.7678 37.5438C88.1464 37.5438 88.4771 37.6264 88.7598 37.7918C89.0478 37.9571 89.2611 38.1651 89.3998 38.4158V37.6158H90.1358V42.0958C90.1358 42.4958 90.0504 42.8504 89.8798 43.1598C89.7091 43.4744 89.4638 43.7198 89.1438 43.8958C88.8291 44.0718 88.4611 44.1598 88.0398 44.1598C87.4638 44.1598 86.9838 44.0238 86.5998 43.7518C86.2158 43.4798 85.9891 43.1091 85.9198 42.6398H86.6398C86.7198 42.9064 86.8851 43.1198 87.1358 43.2798C87.3864 43.4451 87.6878 43.5278 88.0398 43.5278C88.4398 43.5278 88.7651 43.4024 89.0158 43.1518C89.2718 42.9011 89.3998 42.5491 89.3998 42.0958V41.1758C89.2558 41.4318 89.0424 41.6451 88.7598 41.8158C88.4771 41.9864 88.1464 42.0718 87.7678 42.0718C87.3784 42.0718 87.0238 41.9758 86.7038 41.7838C86.3891 41.5918 86.1411 41.3224 85.9598 40.9758C85.7784 40.6291 85.6878 40.2344 85.6878 39.7918C85.6878 39.3438 85.7784 38.9518 85.9598 38.6158C86.1411 38.2744 86.3891 38.0104 86.7038 37.8238C87.0238 37.6371 87.3784 37.5438 87.7678 37.5438ZM89.3998 39.7998C89.3998 39.4691 89.3331 39.1811 89.1998 38.9358C89.0664 38.6904 88.8851 38.5038 88.6558 38.3758C88.4318 38.2424 88.1838 38.1758 87.9118 38.1758C87.6398 38.1758 87.3918 38.2398 87.1678 38.3678C86.9438 38.4958 86.7651 38.6824 86.6318 38.9278C86.4984 39.1731 86.4318 39.4611 86.4318 39.7918C86.4318 40.1278 86.4984 40.4211 86.6318 40.6718C86.7651 40.9171 86.9438 41.1064 87.1678 41.2398C87.3918 41.3678 87.6398 41.4318 87.9118 41.4318C88.1838 41.4318 88.4318 41.3678 88.6558 41.2398C88.8851 41.1064 89.0664 40.9171 89.1998 40.6718C89.3331 40.4211 89.3998 40.1304 89.3998 39.7998ZM95.366 39.6398C95.366 39.7784 95.358 39.9251 95.342 40.0798H91.838C91.8647 40.5118 92.0113 40.8504 92.278 41.0958C92.55 41.3358 92.878 41.4558 93.262 41.4558C93.5767 41.4558 93.838 41.3838 94.046 41.2398C94.2593 41.0904 94.4087 40.8931 94.494 40.6478H95.278C95.1607 41.0691 94.926 41.4131 94.574 41.6798C94.222 41.9411 93.7847 42.0718 93.262 42.0718C92.846 42.0718 92.4727 41.9784 92.142 41.7918C91.8167 41.6051 91.5607 41.3411 91.374 40.9998C91.1873 40.6531 91.094 40.2531 91.094 39.7998C91.094 39.3464 91.1847 38.9491 91.366 38.6078C91.5473 38.2664 91.8007 38.0051 92.126 37.8238C92.4567 37.6371 92.8353 37.5438 93.262 37.5438C93.678 37.5438 94.046 37.6344 94.366 37.8158C94.686 37.9971 94.9313 38.2478 95.102 38.5678C95.278 38.8824 95.366 39.2398 95.366 39.6398ZM94.614 39.4878C94.614 39.2104 94.5527 38.9731 94.43 38.7758C94.3073 38.5731 94.1393 38.4211 93.926 38.3198C93.718 38.2131 93.486 38.1598 93.23 38.1598C92.862 38.1598 92.5473 38.2771 92.286 38.5118C92.03 38.7464 91.8833 39.0718 91.846 39.4878H94.614ZM100.988 42.0558C100.47 42.0558 99.9984 41.9358 99.5718 41.6958C99.1451 41.4504 98.8064 41.1118 98.5558 40.6798C98.3104 40.2424 98.1878 39.7518 98.1878 39.2078C98.1878 38.6638 98.3104 38.1758 98.5558 37.7438C98.8064 37.3064 99.1451 36.9678 99.5718 36.7278C99.9984 36.4824 100.47 36.3598 100.988 36.3598C101.51 36.3598 101.985 36.4824 102.412 36.7278C102.838 36.9678 103.174 37.3038 103.42 37.7358C103.665 38.1678 103.788 38.6584 103.788 39.2078C103.788 39.7571 103.665 40.2478 103.42 40.6798C103.174 41.1118 102.838 41.4504 102.412 41.6958C101.985 41.9358 101.51 42.0558 100.988 42.0558ZM100.988 41.4238C101.377 41.4238 101.726 41.3331 102.036 41.1518C102.35 40.9704 102.596 40.7118 102.772 40.3758C102.953 40.0398 103.044 39.6504 103.044 39.2078C103.044 38.7598 102.953 38.3704 102.772 38.0398C102.596 37.7038 102.353 37.4451 102.044 37.2638C101.734 37.0824 101.382 36.9918 100.988 36.9918C100.593 36.9918 100.241 37.0824 99.9318 37.2638C99.6224 37.4451 99.3771 37.7038 99.1958 38.0398C99.0198 38.3704 98.9318 38.7598 98.9318 39.2078C98.9318 39.6504 99.0198 40.0398 99.1958 40.3758C99.3771 40.7118 99.6224 40.9704 99.9318 41.1518C100.246 41.3331 100.598 41.4238 100.988 41.4238ZM106.533 38.2158H105.613V41.9998H104.885V38.2158H104.317V37.6158H104.885V37.3038C104.885 36.8131 105.01 36.4558 105.261 36.2318C105.517 36.0024 105.925 35.8878 106.485 35.8878V36.4958C106.165 36.4958 105.938 36.5598 105.805 36.6878C105.677 36.8104 105.613 37.0158 105.613 37.3038V37.6158H106.533V38.2158ZM2.352 48.4238C2.96 48.4238 3.48533 48.5384 3.928 48.7678C4.376 48.9918 4.71733 49.3144 4.952 49.7358C5.192 50.1571 5.312 50.6531 5.312 51.2238C5.312 51.7944 5.192 52.2904 4.952 52.7118C4.71733 53.1278 4.376 53.4478 3.928 53.6718C3.48533 53.8904 2.96 53.9998 2.352 53.9998H0.616V48.4238H2.352ZM2.352 53.3998C3.072 53.3998 3.62133 53.2104 4 52.8318C4.37867 52.4478 4.568 51.9118 4.568 51.2238C4.568 50.5304 4.376 49.9891 3.992 49.5998C3.61333 49.2104 3.06667 49.0158 2.352 49.0158H1.344V53.3998H2.352ZM10.2723 51.6398C10.2723 51.7784 10.2643 51.9251 10.2483 52.0798H6.74425C6.77092 52.5118 6.91758 52.8504 7.18425 53.0958C7.45625 53.3358 7.78425 53.4558 8.16825 53.4558C8.48292 53.4558 8.74425 53.3838 8.95225 53.2398C9.16558 53.0904 9.31492 52.8931 9.40025 52.6478H10.1843C10.0669 53.0691 9.83225 53.4131 9.48025 53.6798C9.12825 53.9411 8.69092 54.0718 8.16825 54.0718C7.75225 54.0718 7.37892 53.9784 7.04825 53.7918C6.72292 53.6051 6.46692 53.3411 6.28025 52.9998C6.09358 52.6531 6.00025 52.2531 6.00025 51.7998C6.00025 51.3464 6.09092 50.9491 6.27225 50.6078C6.45358 50.2664 6.70692 50.0051 7.03225 49.8238C7.36292 49.6371 7.74158 49.5438 8.16825 49.5438C8.58425 49.5438 8.95225 49.6344 9.27225 49.8158C9.59225 49.9971 9.83758 50.2478 10.0083 50.5678C10.1843 50.8824 10.2723 51.2398 10.2723 51.6398ZM9.52025 51.4878C9.52025 51.2104 9.45892 50.9731 9.33625 50.7758C9.21358 50.5731 9.04558 50.4211 8.83225 50.3198C8.62425 50.2131 8.39225 50.1598 8.13625 50.1598C7.76825 50.1598 7.45358 50.2771 7.19225 50.5118C6.93625 50.7464 6.78958 51.0718 6.75225 51.4878H9.52025ZM12.8652 53.3278L14.2252 49.6158H15.0012L13.2812 53.9998H12.4332L10.7132 49.6158H11.4972L12.8652 53.3278ZM19.7176 51.6398C19.7176 51.7784 19.7096 51.9251 19.6936 52.0798H16.1896C16.2162 52.5118 16.3629 52.8504 16.6296 53.0958C16.9016 53.3358 17.2296 53.4558 17.6136 53.4558C17.9282 53.4558 18.1896 53.3838 18.3976 53.2398C18.6109 53.0904 18.7602 52.8931 18.8456 52.6478H19.6296C19.5122 53.0691 19.2776 53.4131 18.9256 53.6798C18.5736 53.9411 18.1362 54.0718 17.6136 54.0718C17.1976 54.0718 16.8242 53.9784 16.4936 53.7918C16.1682 53.6051 15.9122 53.3411 15.7256 52.9998C15.5389 52.6531 15.4456 52.2531 15.4456 51.7998C15.4456 51.3464 15.5362 50.9491 15.7176 50.6078C15.8989 50.2664 16.1522 50.0051 16.4776 49.8238C16.8082 49.6371 17.1869 49.5438 17.6136 49.5438C18.0296 49.5438 18.3976 49.6344 18.7176 49.8158C19.0376 49.9971 19.2829 50.2478 19.4536 50.5678C19.6296 50.8824 19.7176 51.2398 19.7176 51.6398ZM18.9656 51.4878C18.9656 51.2104 18.9042 50.9731 18.7816 50.7758C18.6589 50.5731 18.4909 50.4211 18.2776 50.3198C18.0696 50.2131 17.8376 50.1598 17.5816 50.1598C17.2136 50.1598 16.8989 50.2771 16.6376 50.5118C16.3816 50.7464 16.2349 51.0718 16.1976 51.4878H18.9656ZM21.4065 48.0798V53.9998H20.6785V48.0798H21.4065ZM24.5593 54.0718C24.1486 54.0718 23.7753 53.9784 23.4393 53.7918C23.1086 53.6051 22.8473 53.3411 22.6553 52.9998C22.4686 52.6531 22.3753 52.2531 22.3753 51.7998C22.3753 51.3518 22.4713 50.9571 22.6633 50.6158C22.8606 50.2691 23.1273 50.0051 23.4633 49.8238C23.7993 49.6371 24.1753 49.5438 24.5913 49.5438C25.0073 49.5438 25.3833 49.6371 25.7193 49.8238C26.0553 50.0051 26.3193 50.2664 26.5113 50.6078C26.7086 50.9491 26.8073 51.3464 26.8073 51.7998C26.8073 52.2531 26.7059 52.6531 26.5033 52.9998C26.3059 53.3411 26.0366 53.6051 25.6953 53.7918C25.3539 53.9784 24.9753 54.0718 24.5593 54.0718ZM24.5593 53.4318C24.8206 53.4318 25.0659 53.3704 25.2953 53.2478C25.5246 53.1251 25.7086 52.9411 25.8473 52.6958C25.9913 52.4504 26.0633 52.1518 26.0633 51.7998C26.0633 51.4478 25.9939 51.1491 25.8553 50.9038C25.7166 50.6584 25.5353 50.4771 25.3113 50.3598C25.0873 50.2371 24.8446 50.1758 24.5833 50.1758C24.3166 50.1758 24.0713 50.2371 23.8473 50.3598C23.6286 50.4771 23.4526 50.6584 23.3193 50.9038C23.1859 51.1491 23.1193 51.4478 23.1193 51.7998C23.1193 52.1571 23.1833 52.4584 23.3113 52.7038C23.4446 52.9491 23.6206 53.1331 23.8393 53.2558C24.0579 53.3731 24.2979 53.4318 24.5593 53.4318ZM28.4924 50.4238C28.6364 50.1731 28.8498 49.9651 29.1324 49.7998C29.4204 49.6291 29.7538 49.5438 30.1324 49.5438C30.5218 49.5438 30.8738 49.6371 31.1884 49.8238C31.5084 50.0104 31.7591 50.2744 31.9404 50.6158C32.1218 50.9518 32.2124 51.3438 32.2124 51.7918C32.2124 52.2344 32.1218 52.6291 31.9404 52.9758C31.7591 53.3224 31.5084 53.5918 31.1884 53.7838C30.8738 53.9758 30.5218 54.0718 30.1324 54.0718C29.7591 54.0718 29.4284 53.9891 29.1404 53.8238C28.8578 53.6531 28.6418 53.4424 28.4924 53.1918V56.0798H27.7644V49.6158H28.4924V50.4238ZM31.4684 51.7918C31.4684 51.4611 31.4018 51.1731 31.2684 50.9278C31.1351 50.6824 30.9538 50.4958 30.7244 50.3678C30.5004 50.2398 30.2524 50.1758 29.9804 50.1758C29.7138 50.1758 29.4658 50.2424 29.2364 50.3758C29.0124 50.5038 28.8311 50.6931 28.6924 50.9438C28.5591 51.1891 28.4924 51.4744 28.4924 51.7998C28.4924 52.1304 28.5591 52.4211 28.6924 52.6718C28.8311 52.9171 29.0124 53.1064 29.2364 53.2398C29.4658 53.3678 29.7138 53.4318 29.9804 53.4318C30.2524 53.4318 30.5004 53.3678 30.7244 53.2398C30.9538 53.1064 31.1351 52.9171 31.2684 52.6718C31.4018 52.4211 31.4684 52.1278 31.4684 51.7918ZM38.4427 49.5358C38.784 49.5358 39.088 49.6078 39.3547 49.7518C39.6214 49.8904 39.832 50.1011 39.9867 50.3838C40.1414 50.6664 40.2187 51.0104 40.2187 51.4158V53.9998H39.4987V51.5198C39.4987 51.0824 39.3894 50.7491 39.1707 50.5198C38.9574 50.2851 38.6667 50.1678 38.2987 50.1678C37.92 50.1678 37.6187 50.2904 37.3947 50.5358C37.1707 50.7758 37.0587 51.1251 37.0587 51.5838V53.9998H36.3387V51.5198C36.3387 51.0824 36.2294 50.7491 36.0107 50.5198C35.7974 50.2851 35.5067 50.1678 35.1387 50.1678C34.76 50.1678 34.4587 50.2904 34.2347 50.5358C34.0107 50.7758 33.8987 51.1251 33.8987 51.5838V53.9998H33.1707V49.6158H33.8987V50.2478C34.0427 50.0184 34.2347 49.8424 34.4747 49.7198C34.72 49.5971 34.9894 49.5358 35.2827 49.5358C35.6507 49.5358 35.976 49.6184 36.2587 49.7838C36.5414 49.9491 36.752 50.1918 36.8907 50.5118C37.0134 50.2024 37.216 49.9624 37.4987 49.7918C37.7814 49.6211 38.096 49.5358 38.4427 49.5358ZM45.4129 51.6398C45.4129 51.7784 45.4049 51.9251 45.3889 52.0798H41.8849C41.9115 52.5118 42.0582 52.8504 42.3249 53.0958C42.5969 53.3358 42.9249 53.4558 43.3089 53.4558C43.6235 53.4558 43.8849 53.3838 44.0929 53.2398C44.3062 53.0904 44.4555 52.8931 44.5409 52.6478H45.3249C45.2075 53.0691 44.9729 53.4131 44.6209 53.6798C44.2689 53.9411 43.8315 54.0718 43.3089 54.0718C42.8929 54.0718 42.5195 53.9784 42.1889 53.7918C41.8635 53.6051 41.6075 53.3411 41.4209 52.9998C41.2342 52.6531 41.1409 52.2531 41.1409 51.7998C41.1409 51.3464 41.2315 50.9491 41.4129 50.6078C41.5942 50.2664 41.8475 50.0051 42.1729 49.8238C42.5035 49.6371 42.8822 49.5438 43.3089 49.5438C43.7249 49.5438 44.0929 49.6344 44.4129 49.8158C44.7329 49.9971 44.9782 50.2478 45.1489 50.5678C45.3249 50.8824 45.4129 51.2398 45.4129 51.6398ZM44.6609 51.4878C44.6609 51.2104 44.5995 50.9731 44.4769 50.7758C44.3542 50.5731 44.1862 50.4211 43.9729 50.3198C43.7649 50.2131 43.5329 50.1598 43.2769 50.1598C42.9089 50.1598 42.5942 50.2771 42.3329 50.5118C42.0769 50.7464 41.9302 51.0718 41.8929 51.4878H44.6609ZM48.5098 49.5358C49.0431 49.5358 49.4751 49.6984 49.8058 50.0238C50.1365 50.3438 50.3018 50.8078 50.3018 51.4158V53.9998H49.5818V51.5198C49.5818 51.0824 49.4725 50.7491 49.2538 50.5198C49.0351 50.2851 48.7365 50.1678 48.3578 50.1678C47.9738 50.1678 47.6671 50.2878 47.4378 50.5278C47.2138 50.7678 47.1018 51.1171 47.1018 51.5758V53.9998H46.3738V49.6158H47.1018V50.2398C47.2458 50.0158 47.4405 49.8424 47.6858 49.7198C47.9365 49.5971 48.2111 49.5358 48.5098 49.5358ZM52.379 50.2158V52.7998C52.379 53.0131 52.4243 53.1651 52.515 53.2558C52.6057 53.3411 52.763 53.3838 52.987 53.3838H53.523V53.9998H52.867C52.4617 53.9998 52.1577 53.9064 51.955 53.7198C51.7523 53.5331 51.651 53.2264 51.651 52.7998V50.2158H51.083V49.6158H51.651V48.5118H52.379V49.6158H53.523V50.2158H52.379ZM59.8339 52.7598H57.4019L56.9539 53.9998H56.1859L58.2019 48.4558H59.0419L61.0499 53.9998H60.2819L59.8339 52.7598ZM59.6259 52.1678L58.6179 49.3518L57.6099 52.1678H59.6259ZM63.4805 54.0718C63.1445 54.0718 62.8432 54.0158 62.5765 53.9038C62.3098 53.7864 62.0992 53.6264 61.9445 53.4238C61.7898 53.2158 61.7045 52.9784 61.6885 52.7118H62.4405C62.4618 52.9304 62.5632 53.1091 62.7445 53.2478C62.9312 53.3864 63.1738 53.4558 63.4725 53.4558C63.7498 53.4558 63.9685 53.3944 64.1285 53.2718C64.2885 53.1491 64.3685 52.9944 64.3685 52.8078C64.3685 52.6158 64.2832 52.4744 64.1125 52.3838C63.9418 52.2878 63.6778 52.1944 63.3205 52.1038C62.9952 52.0184 62.7285 51.9331 62.5205 51.8478C62.3178 51.7571 62.1418 51.6264 61.9925 51.4558C61.8485 51.2798 61.7765 51.0504 61.7765 50.7678C61.7765 50.5438 61.8432 50.3384 61.9765 50.1518C62.1098 49.9651 62.2992 49.8184 62.5445 49.7118C62.7898 49.5998 63.0698 49.5438 63.3845 49.5438C63.8698 49.5438 64.2618 49.6664 64.5605 49.9118C64.8592 50.1571 65.0192 50.4931 65.0405 50.9198H64.3125C64.2965 50.6904 64.2032 50.5064 64.0325 50.3678C63.8672 50.2291 63.6432 50.1598 63.3605 50.1598C63.0992 50.1598 62.8912 50.2158 62.7365 50.3278C62.5818 50.4398 62.5045 50.5864 62.5045 50.7678C62.5045 50.9118 62.5498 51.0318 62.6405 51.1278C62.7365 51.2184 62.8538 51.2931 62.9925 51.3518C63.1365 51.4051 63.3338 51.4664 63.5845 51.5358C63.8992 51.6211 64.1552 51.7064 64.3525 51.7918C64.5498 51.8718 64.7178 51.9944 64.8565 52.1598C65.0005 52.3251 65.0752 52.5411 65.0805 52.8078C65.0805 53.0478 65.0138 53.2638 64.8805 53.4558C64.7472 53.6478 64.5578 53.7998 64.3125 53.9118C64.0725 54.0184 63.7952 54.0718 63.4805 54.0718ZM66.8362 50.4238C66.9802 50.1731 67.1935 49.9651 67.4762 49.7998C67.7642 49.6291 68.0975 49.5438 68.4762 49.5438C68.8655 49.5438 69.2175 49.6371 69.5322 49.8238C69.8522 50.0104 70.1029 50.2744 70.2842 50.6158C70.4655 50.9518 70.5562 51.3438 70.5562 51.7918C70.5562 52.2344 70.4655 52.6291 70.2842 52.9758C70.1029 53.3224 69.8522 53.5918 69.5322 53.7838C69.2175 53.9758 68.8655 54.0718 68.4762 54.0718C68.1029 54.0718 67.7722 53.9891 67.4842 53.8238C67.2015 53.6531 66.9855 53.4424 66.8362 53.1918V56.0798H66.1082V49.6158H66.8362V50.4238ZM69.8122 51.7918C69.8122 51.4611 69.7455 51.1731 69.6122 50.9278C69.4789 50.6824 69.2975 50.4958 69.0682 50.3678C68.8442 50.2398 68.5962 50.1758 68.3242 50.1758C68.0575 50.1758 67.8095 50.2424 67.5802 50.3758C67.3562 50.5038 67.1749 50.6931 67.0362 50.9438C66.9029 51.1891 66.8362 51.4744 66.8362 51.7998C66.8362 52.1304 66.9029 52.4211 67.0362 52.6718C67.1749 52.9171 67.3562 53.1064 67.5802 53.2398C67.8095 53.3678 68.0575 53.4318 68.3242 53.4318C68.5962 53.4318 68.8442 53.3678 69.0682 53.2398C69.2975 53.1064 69.4789 52.9171 69.6122 52.6718C69.7455 52.4211 69.8122 52.1278 69.8122 51.7918ZM75.5144 51.6398C75.5144 51.7784 75.5064 51.9251 75.4904 52.0798H71.9864C72.0131 52.5118 72.1598 52.8504 72.4264 53.0958C72.6984 53.3358 73.0264 53.4558 73.4104 53.4558C73.7251 53.4558 73.9864 53.3838 74.1944 53.2398C74.4078 53.0904 74.5571 52.8931 74.6424 52.6478H75.4264C75.3091 53.0691 75.0744 53.4131 74.7224 53.6798C74.3704 53.9411 73.9331 54.0718 73.4104 54.0718C72.9944 54.0718 72.6211 53.9784 72.2904 53.7918C71.9651 53.6051 71.7091 53.3411 71.5224 52.9998C71.3358 52.6531 71.2424 52.2531 71.2424 51.7998C71.2424 51.3464 71.3331 50.9491 71.5144 50.6078C71.6958 50.2664 71.9491 50.0051 72.2744 49.8238C72.6051 49.6371 72.9838 49.5438 73.4104 49.5438C73.8264 49.5438 74.1944 49.6344 74.5144 49.8158C74.8344 49.9971 75.0798 50.2478 75.2504 50.5678C75.4264 50.8824 75.5144 51.2398 75.5144 51.6398ZM74.7624 51.4878C74.7624 51.2104 74.7011 50.9731 74.5784 50.7758C74.4558 50.5731 74.2878 50.4211 74.0744 50.3198C73.8664 50.2131 73.6344 50.1598 73.3784 50.1598C73.0104 50.1598 72.6958 50.2771 72.4344 50.5118C72.1784 50.7464 72.0318 51.0718 71.9944 51.4878H74.7624ZM76.2034 51.7998C76.2034 51.3464 76.294 50.9518 76.4754 50.6158C76.6567 50.2744 76.9074 50.0104 77.2274 49.8238C77.5527 49.6371 77.9234 49.5438 78.3394 49.5438C78.878 49.5438 79.3207 49.6744 79.6674 49.9358C80.0194 50.1971 80.2514 50.5598 80.3634 51.0238H79.5794C79.5047 50.7571 79.358 50.5464 79.1394 50.3918C78.926 50.2371 78.6594 50.1598 78.3394 50.1598C77.9234 50.1598 77.5874 50.3038 77.3314 50.5918C77.0754 50.8744 76.9474 51.2771 76.9474 51.7998C76.9474 52.3278 77.0754 52.7358 77.3314 53.0238C77.5874 53.3118 77.9234 53.4558 78.3394 53.4558C78.6594 53.4558 78.926 53.3811 79.1394 53.2318C79.3527 53.0824 79.4994 52.8691 79.5794 52.5918H80.3634C80.246 53.0398 80.0114 53.3998 79.6594 53.6718C79.3074 53.9384 78.8674 54.0718 78.3394 54.0718C77.9234 54.0718 77.5527 53.9784 77.2274 53.7918C76.9074 53.6051 76.6567 53.3411 76.4754 52.9998C76.294 52.6584 76.2034 52.2584 76.2034 51.7998ZM82.2228 50.2158V52.7998C82.2228 53.0131 82.2681 53.1651 82.3588 53.2558C82.4494 53.3411 82.6068 53.3838 82.8307 53.3838H83.3668V53.9998H82.7108C82.3054 53.9998 82.0014 53.9064 81.7988 53.7198C81.5961 53.5331 81.4948 53.2264 81.4948 52.7998V50.2158H80.9268V49.6158H81.4948V48.5118H82.2228V49.6158H83.3668V50.2158H82.2228ZM85.8008 54.0718C85.4648 54.0718 85.1635 54.0158 84.8968 53.9038C84.6301 53.7864 84.4195 53.6264 84.2648 53.4238C84.1101 53.2158 84.0248 52.9784 84.0088 52.7118H84.7608C84.7821 52.9304 84.8835 53.1091 85.0648 53.2478C85.2515 53.3864 85.4941 53.4558 85.7928 53.4558C86.0701 53.4558 86.2888 53.3944 86.4488 53.2718C86.6088 53.1491 86.6888 52.9944 86.6888 52.8078C86.6888 52.6158 86.6035 52.4744 86.4328 52.3838C86.2621 52.2878 85.9981 52.1944 85.6408 52.1038C85.3155 52.0184 85.0488 51.9331 84.8408 51.8478C84.6381 51.7571 84.4621 51.6264 84.3128 51.4558C84.1688 51.2798 84.0968 51.0504 84.0968 50.7678C84.0968 50.5438 84.1635 50.3384 84.2968 50.1518C84.4301 49.9651 84.6195 49.8184 84.8648 49.7118C85.1101 49.5998 85.3901 49.5438 85.7048 49.5438C86.1901 49.5438 86.5821 49.6664 86.8808 49.9118C87.1795 50.1571 87.3395 50.4931 87.3608 50.9198H86.6328C86.6168 50.6904 86.5235 50.5064 86.3528 50.3678C86.1875 50.2291 85.9635 50.1598 85.6808 50.1598C85.4195 50.1598 85.2115 50.2158 85.0568 50.3278C84.9021 50.4398 84.8248 50.5864 84.8248 50.7678C84.8248 50.9118 84.8701 51.0318 84.9608 51.1278C85.0568 51.2184 85.1741 51.2931 85.3128 51.3518C85.4568 51.4051 85.6541 51.4664 85.9048 51.5358C86.2195 51.6211 86.4755 51.7064 86.6728 51.7918C86.8701 51.8718 87.0381 51.9944 87.1768 52.1598C87.3208 52.3251 87.3955 52.5411 87.4008 52.8078C87.4008 53.0478 87.3341 53.2638 87.2008 53.4558C87.0675 53.6478 86.8781 53.7998 86.6328 53.9118C86.3928 54.0184 86.1155 54.0718 85.8008 54.0718ZM89.3725 48.4238L89.2845 52.4238H88.6765L88.5885 48.4238H89.3725ZM89.0125 54.0478C88.8738 54.0478 88.7565 53.9998 88.6605 53.9038C88.5645 53.8078 88.5165 53.6904 88.5165 53.5518C88.5165 53.4131 88.5645 53.2958 88.6605 53.1998C88.7565 53.1038 88.8738 53.0558 89.0125 53.0558C89.1458 53.0558 89.2578 53.1038 89.3485 53.1998C89.4445 53.2958 89.4925 53.4131 89.4925 53.5518C89.4925 53.6904 89.4445 53.8078 89.3485 53.9038C89.2578 53.9998 89.1458 54.0478 89.0125 54.0478Z" fill="#9E9E9E"/>
</svg>
