<svg width="287" height="71" viewBox="0 0 287 71" fill="none" xmlns="http://www.w3.org/2000/svg">
<path d="M20.8048 5.974C21.1595 6.03 21.4815 6.17467 21.7708 6.408C22.0695 6.64133 22.3028 6.93067 22.4708 7.276C22.6482 7.62133 22.7368 7.99 22.7368 8.382C22.7368 8.87667 22.6108 9.32467 22.3588 9.726C22.1068 10.118 21.7382 10.4307 21.2528 10.664C20.7768 10.888 20.2122 11 19.5588 11H15.9188V1.242H19.4188C20.0815 1.242 20.6462 1.354 21.1128 1.578C21.5795 1.79267 21.9295 2.08667 22.1628 2.46C22.3962 2.83333 22.5128 3.25333 22.5128 3.72C22.5128 4.29867 22.3542 4.77933 22.0368 5.162C21.7288 5.53533 21.3182 5.806 20.8048 5.974ZM17.1928 5.456H19.3348C19.9322 5.456 20.3942 5.316 20.7208 5.036C21.0475 4.756 21.2108 4.36867 21.2108 3.874C21.2108 3.37933 21.0475 2.992 20.7208 2.712C20.3942 2.432 19.9228 2.292 19.3068 2.292H17.1928V5.456ZM19.4468 9.95C20.0815 9.95 20.5762 9.80067 20.9308 9.502C21.2855 9.20333 21.4628 8.788 21.4628 8.256C21.4628 7.71467 21.2762 7.29 20.9028 6.982C20.5295 6.66467 20.0302 6.506 19.4048 6.506H17.1928V9.95H19.4468ZM31.5048 6.87C31.5048 7.11267 31.4908 7.36933 31.4628 7.64H25.3308C25.3774 8.396 25.6341 8.98867 26.1008 9.418C26.5768 9.838 27.1508 10.048 27.8228 10.048C28.3734 10.048 28.8308 9.922 29.1948 9.67C29.5681 9.40867 29.8294 9.06333 29.9788 8.634H31.3508C31.1454 9.37133 30.7348 9.97333 30.1188 10.44C29.5028 10.8973 28.7374 11.126 27.8228 11.126C27.0948 11.126 26.4414 10.9627 25.8628 10.636C25.2934 10.3093 24.8454 9.84733 24.5188 9.25C24.1921 8.64333 24.0288 7.94333 24.0288 7.15C24.0288 6.35667 24.1874 5.66133 24.5048 5.064C24.8221 4.46667 25.2654 4.00933 25.8348 3.692C26.4134 3.36533 27.0761 3.202 27.8228 3.202C28.5508 3.202 29.1948 3.36067 29.7548 3.678C30.3148 3.99533 30.7441 4.434 31.0428 4.994C31.3508 5.54467 31.5048 6.17 31.5048 6.87ZM30.1888 6.604C30.1888 6.11867 30.0814 5.70333 29.8668 5.358C29.6521 5.00333 29.3581 4.73733 28.9848 4.56C28.6208 4.37333 28.2148 4.28 27.7668 4.28C27.1228 4.28 26.5721 4.48533 26.1148 4.896C25.6668 5.30667 25.4101 5.876 25.3448 6.604H30.1888ZM33.8444 2.082C33.6017 2.082 33.3964 1.998 33.2284 1.83C33.0604 1.662 32.9764 1.45667 32.9764 1.214C32.9764 0.971333 33.0604 0.766 33.2284 0.598C33.3964 0.43 33.6017 0.345999 33.8444 0.345999C34.0777 0.345999 34.2737 0.43 34.4324 0.598C34.6004 0.766 34.6844 0.971333 34.6844 1.214C34.6844 1.45667 34.6004 1.662 34.4324 1.83C34.2737 1.998 34.0777 2.082 33.8444 2.082ZM34.4604 3.328V11H33.1864V3.328H34.4604ZM40.3697 3.188C41.303 3.188 42.059 3.47267 42.6377 4.042C43.2164 4.602 43.5057 5.414 43.5057 6.478V11H42.2457V6.66C42.2457 5.89467 42.0544 5.31133 41.6717 4.91C41.289 4.49933 40.7664 4.294 40.1037 4.294C39.4317 4.294 38.895 4.504 38.4937 4.924C38.1017 5.344 37.9057 5.95533 37.9057 6.758V11H36.6317V3.328H37.9057V4.42C38.1577 4.028 38.4984 3.72467 38.9277 3.51C39.3664 3.29533 39.847 3.188 40.3697 3.188ZM48.7508 3.202C49.4135 3.202 49.9921 3.34667 50.4868 3.636C50.9908 3.92533 51.3641 4.28933 51.6068 4.728V3.328H52.8948V11.168C52.8948 11.868 52.7455 12.4887 52.4468 13.03C52.1481 13.5807 51.7188 14.01 51.1588 14.318C50.6081 14.626 49.9641 14.78 49.2268 14.78C48.2188 14.78 47.3788 14.542 46.7068 14.066C46.0348 13.59 45.6381 12.9413 45.5168 12.12H46.7768C46.9168 12.5867 47.2061 12.96 47.6448 13.24C48.0835 13.5293 48.6108 13.674 49.2268 13.674C49.9268 13.674 50.4961 13.4547 50.9348 13.016C51.3828 12.5773 51.6068 11.9613 51.6068 11.168V9.558C51.3548 10.006 50.9815 10.3793 50.4868 10.678C49.9921 10.9767 49.4135 11.126 48.7508 11.126C48.0695 11.126 47.4488 10.958 46.8888 10.622C46.3381 10.286 45.9041 9.81467 45.5868 9.208C45.2695 8.60133 45.1108 7.91067 45.1108 7.136C45.1108 6.352 45.2695 5.666 45.5868 5.078C45.9041 4.48067 46.3381 4.01867 46.8888 3.692C47.4488 3.36533 48.0695 3.202 48.7508 3.202ZM51.6068 7.15C51.6068 6.57133 51.4901 6.06733 51.2568 5.638C51.0235 5.20867 50.7061 4.882 50.3048 4.658C49.9128 4.42467 49.4788 4.308 49.0028 4.308C48.5268 4.308 48.0928 4.42 47.7008 4.644C47.3088 4.868 46.9961 5.19467 46.7628 5.624C46.5295 6.05333 46.4128 6.55733 46.4128 7.136C46.4128 7.724 46.5295 8.23733 46.7628 8.676C46.9961 9.10533 47.3088 9.43667 47.7008 9.67C48.0928 9.894 48.5268 10.006 49.0028 10.006C49.4788 10.006 49.9128 9.894 50.3048 9.67C50.7061 9.43667 51.0235 9.10533 51.2568 8.676C51.4901 8.23733 51.6068 7.72867 51.6068 7.15ZM58.3041 7.136C58.3041 6.352 58.4628 5.666 58.7801 5.078C59.0975 4.48067 59.5315 4.01867 60.0821 3.692C60.6421 3.36533 61.2628 3.202 61.9441 3.202C62.6161 3.202 63.1995 3.34667 63.6941 3.636C64.1888 3.92533 64.5575 4.28933 64.8001 4.728V3.328H66.0881V11H64.8001V9.572C64.5481 10.02 64.1701 10.3933 63.6661 10.692C63.1715 10.9813 62.5928 11.126 61.9301 11.126C61.2488 11.126 60.6328 10.958 60.0821 10.622C59.5315 10.286 59.0975 9.81467 58.7801 9.208C58.4628 8.60133 58.3041 7.91067 58.3041 7.136ZM64.8001 7.15C64.8001 6.57133 64.6835 6.06733 64.4501 5.638C64.2168 5.20867 63.8995 4.882 63.4981 4.658C63.1061 4.42467 62.6721 4.308 62.1961 4.308C61.7201 4.308 61.2861 4.42 60.8941 4.644C60.5021 4.868 60.1895 5.19467 59.9561 5.624C59.7228 6.05333 59.6061 6.55733 59.6061 7.136C59.6061 7.724 59.7228 8.23733 59.9561 8.676C60.1895 9.10533 60.5021 9.43667 60.8941 9.67C61.2861 9.894 61.7201 10.006 62.1961 10.006C62.6721 10.006 63.1061 9.894 63.4981 9.67C63.8995 9.43667 64.2168 9.10533 64.4501 8.676C64.6835 8.23733 64.8001 7.72867 64.8001 7.15ZM74.6895 11.126C74.1015 11.126 73.5742 11.028 73.1075 10.832C72.6408 10.6267 72.2722 10.3467 72.0015 9.992C71.7308 9.628 71.5815 9.21267 71.5535 8.746H72.8695C72.9068 9.12867 73.0842 9.44133 73.4015 9.684C73.7282 9.92667 74.1528 10.048 74.6755 10.048C75.1608 10.048 75.5435 9.94067 75.8235 9.726C76.1035 9.51133 76.2435 9.24067 76.2435 8.914C76.2435 8.578 76.0942 8.33067 75.7955 8.172C75.4968 8.004 75.0348 7.84067 74.4095 7.682C73.8402 7.53267 73.3735 7.38333 73.0095 7.234C72.6548 7.07533 72.3468 6.84667 72.0855 6.548C71.8335 6.24 71.7075 5.83867 71.7075 5.344C71.7075 4.952 71.8242 4.59267 72.0575 4.266C72.2908 3.93933 72.6222 3.68267 73.0515 3.496C73.4808 3.3 73.9708 3.202 74.5215 3.202C75.3708 3.202 76.0568 3.41667 76.5795 3.846C77.1022 4.27533 77.3822 4.86333 77.4195 5.61H76.1455C76.1175 5.20867 75.9542 4.88667 75.6555 4.644C75.3662 4.40133 74.9742 4.28 74.4795 4.28C74.0222 4.28 73.6582 4.378 73.3875 4.574C73.1168 4.77 72.9815 5.02667 72.9815 5.344C72.9815 5.596 73.0608 5.806 73.2195 5.974C73.3875 6.13267 73.5928 6.26333 73.8355 6.366C74.0875 6.45933 74.4328 6.56667 74.8715 6.688C75.4222 6.83733 75.8702 6.98667 76.2155 7.136C76.5608 7.276 76.8548 7.49067 77.0975 7.78C77.3495 8.06933 77.4802 8.44733 77.4895 8.914C77.4895 9.334 77.3728 9.712 77.1395 10.048C76.9062 10.384 76.5748 10.65 76.1455 10.846C75.7255 11.0327 75.2402 11.126 74.6895 11.126ZM82.634 11.126C81.9153 11.126 81.262 10.9627 80.674 10.636C80.0953 10.3093 79.638 9.84733 79.302 9.25C78.9753 8.64333 78.812 7.94333 78.812 7.15C78.812 6.366 78.98 5.67533 79.316 5.078C79.6613 4.47133 80.128 4.00933 80.716 3.692C81.304 3.36533 81.962 3.202 82.69 3.202C83.418 3.202 84.076 3.36533 84.664 3.692C85.252 4.00933 85.714 4.46667 86.05 5.064C86.3953 5.66133 86.568 6.35667 86.568 7.15C86.568 7.94333 86.3906 8.64333 86.036 9.25C85.6906 9.84733 85.2193 10.3093 84.622 10.636C84.0246 10.9627 83.362 11.126 82.634 11.126ZM82.634 10.006C83.0913 10.006 83.5206 9.89867 83.922 9.684C84.3233 9.46933 84.6453 9.14733 84.888 8.718C85.14 8.28867 85.266 7.766 85.266 7.15C85.266 6.534 85.1446 6.01133 84.902 5.582C84.6593 5.15267 84.342 4.83533 83.95 4.63C83.558 4.41533 83.1333 4.308 82.676 4.308C82.2093 4.308 81.78 4.41533 81.388 4.63C81.0053 4.83533 80.6973 5.15267 80.464 5.582C80.2306 6.01133 80.114 6.534 80.114 7.15C80.114 7.77533 80.226 8.30267 80.45 8.732C80.6833 9.16133 80.9913 9.48333 81.374 9.698C81.7566 9.90333 82.1766 10.006 82.634 10.006ZM89.517 0.64V11H88.243V0.64H89.517ZM95.0344 11.126C94.3157 11.126 93.6624 10.9627 93.0744 10.636C92.4957 10.3093 92.0384 9.84733 91.7024 9.25C91.3757 8.64333 91.2124 7.94333 91.2124 7.15C91.2124 6.366 91.3804 5.67533 91.7164 5.078C92.0617 4.47133 92.5284 4.00933 93.1164 3.692C93.7044 3.36533 94.3624 3.202 95.0904 3.202C95.8184 3.202 96.4764 3.36533 97.0644 3.692C97.6524 4.00933 98.1144 4.46667 98.4504 5.064C98.7957 5.66133 98.9684 6.35667 98.9684 7.15C98.9684 7.94333 98.791 8.64333 98.4364 9.25C98.091 9.84733 97.6197 10.3093 97.0224 10.636C96.425 10.9627 95.7624 11.126 95.0344 11.126ZM95.0344 10.006C95.4917 10.006 95.921 9.89867 96.3224 9.684C96.7237 9.46933 97.0457 9.14733 97.2884 8.718C97.5404 8.28867 97.6664 7.766 97.6664 7.15C97.6664 6.534 97.545 6.01133 97.3024 5.582C97.0597 5.15267 96.7424 4.83533 96.3504 4.63C95.9584 4.41533 95.5337 4.308 95.0764 4.308C94.6097 4.308 94.1804 4.41533 93.7884 4.63C93.4057 4.83533 93.0977 5.15267 92.8644 5.582C92.631 6.01133 92.5144 6.534 92.5144 7.15C92.5144 7.77533 92.6264 8.30267 92.8504 8.732C93.0837 9.16133 93.3917 9.48333 93.7744 9.698C94.157 9.90333 94.577 10.006 95.0344 10.006ZM103.9 7.136C103.9 6.352 104.059 5.666 104.376 5.078C104.693 4.48067 105.127 4.01867 105.678 3.692C106.238 3.36533 106.863 3.202 107.554 3.202C108.151 3.202 108.707 3.342 109.22 3.622C109.733 3.89267 110.125 4.252 110.396 4.7V0.64H111.684V11H110.396V9.558C110.144 10.0153 109.771 10.3933 109.276 10.692C108.781 10.9813 108.203 11.126 107.54 11.126C106.859 11.126 106.238 10.958 105.678 10.622C105.127 10.286 104.693 9.81467 104.376 9.208C104.059 8.60133 103.9 7.91067 103.9 7.136ZM110.396 7.15C110.396 6.57133 110.279 6.06733 110.046 5.638C109.813 5.20867 109.495 4.882 109.094 4.658C108.702 4.42467 108.268 4.308 107.792 4.308C107.316 4.308 106.882 4.42 106.49 4.644C106.098 4.868 105.785 5.19467 105.552 5.624C105.319 6.05333 105.202 6.55733 105.202 7.136C105.202 7.724 105.319 8.23733 105.552 8.676C105.785 9.10533 106.098 9.43667 106.49 9.67C106.882 9.894 107.316 10.006 107.792 10.006C108.268 10.006 108.702 9.894 109.094 9.67C109.495 9.43667 109.813 9.10533 110.046 8.676C110.279 8.23733 110.396 7.72867 110.396 7.15ZM120.837 6.87C120.837 7.11267 120.823 7.36933 120.795 7.64H114.663C114.709 8.396 114.966 8.98867 115.433 9.418C115.909 9.838 116.483 10.048 117.155 10.048C117.705 10.048 118.163 9.922 118.527 9.67C118.9 9.40867 119.161 9.06333 119.311 8.634H120.683C120.477 9.37133 120.067 9.97333 119.451 10.44C118.835 10.8973 118.069 11.126 117.155 11.126C116.427 11.126 115.773 10.9627 115.195 10.636C114.625 10.3093 114.177 9.84733 113.851 9.25C113.524 8.64333 113.361 7.94333 113.361 7.15C113.361 6.35667 113.519 5.66133 113.837 5.064C114.154 4.46667 114.597 4.00933 115.167 3.692C115.745 3.36533 116.408 3.202 117.155 3.202C117.883 3.202 118.527 3.36067 119.087 3.678C119.647 3.99533 120.076 4.434 120.375 4.994C120.683 5.54467 120.837 6.17 120.837 6.87ZM119.521 6.604C119.521 6.11867 119.413 5.70333 119.199 5.358C118.984 5.00333 118.69 4.73733 118.317 4.56C117.953 4.37333 117.547 4.28 117.099 4.28C116.455 4.28 115.904 4.48533 115.447 4.896C114.999 5.30667 114.742 5.876 114.677 6.604H119.521ZM125.374 9.824L127.754 3.328H129.112L126.102 11H124.618L121.608 3.328H122.98L125.374 9.824ZM137.366 6.87C137.366 7.11267 137.352 7.36933 137.324 7.64H131.192C131.239 8.396 131.495 8.98867 131.962 9.418C132.438 9.838 133.012 10.048 133.684 10.048C134.235 10.048 134.692 9.922 135.056 9.67C135.429 9.40867 135.691 9.06333 135.84 8.634H137.212C137.007 9.37133 136.596 9.97333 135.98 10.44C135.364 10.8973 134.599 11.126 133.684 11.126C132.956 11.126 132.303 10.9627 131.724 10.636C131.155 10.3093 130.707 9.84733 130.38 9.25C130.053 8.64333 129.89 7.94333 129.89 7.15C129.89 6.35667 130.049 5.66133 130.366 5.064C130.683 4.46667 131.127 4.00933 131.696 3.692C132.275 3.36533 132.937 3.202 133.684 3.202C134.412 3.202 135.056 3.36067 135.616 3.678C136.176 3.99533 136.605 4.434 136.904 4.994C137.212 5.54467 137.366 6.17 137.366 6.87ZM136.05 6.604C136.05 6.11867 135.943 5.70333 135.728 5.358C135.513 5.00333 135.219 4.73733 134.846 4.56C134.482 4.37333 134.076 4.28 133.628 4.28C132.984 4.28 132.433 4.48533 131.976 4.896C131.528 5.30667 131.271 5.876 131.206 6.604H136.05ZM140.322 0.64V11H139.048V0.64H140.322ZM145.839 11.126C145.12 11.126 144.467 10.9627 143.879 10.636C143.3 10.3093 142.843 9.84733 142.507 9.25C142.18 8.64333 142.017 7.94333 142.017 7.15C142.017 6.366 142.185 5.67533 142.521 5.078C142.866 4.47133 143.333 4.00933 143.921 3.692C144.509 3.36533 145.167 3.202 145.895 3.202C146.623 3.202 147.281 3.36533 147.869 3.692C148.457 4.00933 148.919 4.46667 149.255 5.064C149.6 5.66133 149.773 6.35667 149.773 7.15C149.773 7.94333 149.596 8.64333 149.241 9.25C148.896 9.84733 148.424 10.3093 147.827 10.636C147.23 10.9627 146.567 11.126 145.839 11.126ZM145.839 10.006C146.296 10.006 146.726 9.89867 147.127 9.684C147.528 9.46933 147.85 9.14733 148.093 8.718C148.345 8.28867 148.471 7.766 148.471 7.15C148.471 6.534 148.35 6.01133 148.107 5.582C147.864 5.15267 147.547 4.83533 147.155 4.63C146.763 4.41533 146.338 4.308 145.881 4.308C145.414 4.308 144.985 4.41533 144.593 4.63C144.21 4.83533 143.902 5.15267 143.669 5.582C143.436 6.01133 143.319 6.534 143.319 7.15C143.319 7.77533 143.431 8.30267 143.655 8.732C143.888 9.16133 144.196 9.48333 144.579 9.698C144.962 9.90333 145.382 10.006 145.839 10.006ZM152.722 4.742C152.974 4.30333 153.347 3.93933 153.842 3.65C154.346 3.35133 154.929 3.202 155.592 3.202C156.273 3.202 156.889 3.36533 157.44 3.692C158 4.01867 158.439 4.48067 158.756 5.078C159.073 5.666 159.232 6.352 159.232 7.136C159.232 7.91067 159.073 8.60133 158.756 9.208C158.439 9.81467 158 10.286 157.44 10.622C156.889 10.958 156.273 11.126 155.592 11.126C154.939 11.126 154.36 10.9813 153.856 10.692C153.361 10.3933 152.983 10.0247 152.722 9.586V14.64H151.448V3.328H152.722V4.742ZM157.93 7.136C157.93 6.55733 157.813 6.05333 157.58 5.624C157.347 5.19467 157.029 4.868 156.628 4.644C156.236 4.42 155.802 4.308 155.326 4.308C154.859 4.308 154.425 4.42467 154.024 4.658C153.632 4.882 153.315 5.21333 153.072 5.652C152.839 6.08133 152.722 6.58067 152.722 7.15C152.722 7.72867 152.839 8.23733 153.072 8.676C153.315 9.10533 153.632 9.43667 154.024 9.67C154.425 9.894 154.859 10.006 155.326 10.006C155.802 10.006 156.236 9.894 156.628 9.67C157.029 9.43667 157.347 9.10533 157.58 8.676C157.813 8.23733 157.93 7.724 157.93 7.136ZM167.909 6.87C167.909 7.11267 167.895 7.36933 167.867 7.64H161.735C161.782 8.396 162.038 8.98867 162.505 9.418C162.981 9.838 163.555 10.048 164.227 10.048C164.778 10.048 165.235 9.922 165.599 9.67C165.972 9.40867 166.234 9.06333 166.383 8.634H167.755C167.55 9.37133 167.139 9.97333 166.523 10.44C165.907 10.8973 165.142 11.126 164.227 11.126C163.499 11.126 162.846 10.9627 162.267 10.636C161.698 10.3093 161.25 9.84733 160.923 9.25C160.596 8.64333 160.433 7.94333 160.433 7.15C160.433 6.35667 160.592 5.66133 160.909 5.064C161.226 4.46667 161.67 4.00933 162.239 3.692C162.818 3.36533 163.48 3.202 164.227 3.202C164.955 3.202 165.599 3.36067 166.159 3.678C166.719 3.99533 167.148 4.434 167.447 4.994C167.755 5.54467 167.909 6.17 167.909 6.87ZM166.593 6.604C166.593 6.11867 166.486 5.70333 166.271 5.358C166.056 5.00333 165.762 4.73733 165.389 4.56C165.025 4.37333 164.619 4.28 164.171 4.28C163.527 4.28 162.976 4.48533 162.519 4.896C162.071 5.30667 161.814 5.876 161.749 6.604H166.593ZM170.865 4.574C171.089 4.13533 171.406 3.79467 171.817 3.552C172.237 3.30933 172.745 3.188 173.343 3.188V4.504H173.007C171.579 4.504 170.865 5.27867 170.865 6.828V11H169.591V3.328H170.865V4.574ZM182.354 3.188C182.932 3.188 183.455 3.314 183.922 3.566C184.388 3.80867 184.752 4.17733 185.014 4.672C185.284 5.16667 185.42 5.76867 185.42 6.478V11H184.16V6.66C184.16 5.89467 183.968 5.31133 183.586 4.91C183.203 4.49933 182.68 4.294 182.018 4.294C181.346 4.294 180.809 4.504 180.408 4.924C180.016 5.344 179.82 5.95533 179.82 6.758V11H178.546V0.64H179.82V4.42C180.072 4.028 180.417 3.72467 180.856 3.51C181.304 3.29533 181.803 3.188 182.354 3.188ZM187.025 7.136C187.025 6.352 187.184 5.666 187.501 5.078C187.818 4.48067 188.252 4.01867 188.803 3.692C189.363 3.36533 189.984 3.202 190.665 3.202C191.337 3.202 191.92 3.34667 192.415 3.636C192.91 3.92533 193.278 4.28933 193.521 4.728V3.328H194.809V11H193.521V9.572C193.269 10.02 192.891 10.3933 192.387 10.692C191.892 10.9813 191.314 11.126 190.651 11.126C189.97 11.126 189.354 10.958 188.803 10.622C188.252 10.286 187.818 9.81467 187.501 9.208C187.184 8.60133 187.025 7.91067 187.025 7.136ZM193.521 7.15C193.521 6.57133 193.404 6.06733 193.171 5.638C192.938 5.20867 192.62 4.882 192.219 4.658C191.827 4.42467 191.393 4.308 190.917 4.308C190.441 4.308 190.007 4.42 189.615 4.644C189.223 4.868 188.91 5.19467 188.677 5.624C188.444 6.05333 188.327 6.55733 188.327 7.136C188.327 7.724 188.444 8.23733 188.677 8.676C188.91 9.10533 189.223 9.43667 189.615 9.67C190.007 9.894 190.441 10.006 190.917 10.006C191.393 10.006 191.827 9.894 192.219 9.67C192.62 9.43667 192.938 9.10533 193.171 8.676C193.404 8.23733 193.521 7.72867 193.521 7.15ZM199.678 11.126C199.09 11.126 198.562 11.028 198.096 10.832C197.629 10.6267 197.26 10.3467 196.99 9.992C196.719 9.628 196.57 9.21267 196.542 8.746H197.858C197.895 9.12867 198.072 9.44133 198.39 9.684C198.716 9.92667 199.141 10.048 199.664 10.048C200.149 10.048 200.532 9.94067 200.812 9.726C201.092 9.51133 201.232 9.24067 201.232 8.914C201.232 8.578 201.082 8.33067 200.784 8.172C200.485 8.004 200.023 7.84067 199.398 7.682C198.828 7.53267 198.362 7.38333 197.998 7.234C197.643 7.07533 197.335 6.84667 197.074 6.548C196.822 6.24 196.696 5.83867 196.696 5.344C196.696 4.952 196.812 4.59267 197.046 4.266C197.279 3.93933 197.61 3.68267 198.04 3.496C198.469 3.3 198.959 3.202 199.51 3.202C200.359 3.202 201.045 3.41667 201.568 3.846C202.09 4.27533 202.37 4.86333 202.408 5.61H201.134C201.106 5.20867 200.942 4.88667 200.644 4.644C200.354 4.40133 199.962 4.28 199.468 4.28C199.01 4.28 198.646 4.378 198.376 4.574C198.105 4.77 197.97 5.02667 197.97 5.344C197.97 5.596 198.049 5.806 198.208 5.974C198.376 6.13267 198.581 6.26333 198.824 6.366C199.076 6.45933 199.421 6.56667 199.86 6.688C200.41 6.83733 200.858 6.98667 201.204 7.136C201.549 7.276 201.843 7.49067 202.086 7.78C202.338 8.06933 202.468 8.44733 202.478 8.914C202.478 9.334 202.361 9.712 202.128 10.048C201.894 10.384 201.563 10.65 201.134 10.846C200.714 11.0327 200.228 11.126 199.678 11.126ZM211.173 3.202C211.835 3.202 212.414 3.34667 212.909 3.636C213.413 3.92533 213.786 4.28933 214.029 4.728V3.328H215.317V11.168C215.317 11.868 215.167 12.4887 214.869 13.03C214.57 13.5807 214.141 14.01 213.581 14.318C213.03 14.626 212.386 14.78 211.649 14.78C210.641 14.78 209.801 14.542 209.129 14.066C208.457 13.59 208.06 12.9413 207.939 12.12H209.199C209.339 12.5867 209.628 12.96 210.067 13.24C210.505 13.5293 211.033 13.674 211.649 13.674C212.349 13.674 212.918 13.4547 213.357 13.016C213.805 12.5773 214.029 11.9613 214.029 11.168V9.558C213.777 10.006 213.403 10.3793 212.909 10.678C212.414 10.9767 211.835 11.126 211.173 11.126C210.491 11.126 209.871 10.958 209.311 10.622C208.76 10.286 208.326 9.81467 208.009 9.208C207.691 8.60133 207.533 7.91067 207.533 7.136C207.533 6.352 207.691 5.666 208.009 5.078C208.326 4.48067 208.76 4.01867 209.311 3.692C209.871 3.36533 210.491 3.202 211.173 3.202ZM214.029 7.15C214.029 6.57133 213.912 6.06733 213.679 5.638C213.445 5.20867 213.128 4.882 212.727 4.658C212.335 4.42467 211.901 4.308 211.425 4.308C210.949 4.308 210.515 4.42 210.123 4.644C209.731 4.868 209.418 5.19467 209.185 5.624C208.951 6.05333 208.835 6.55733 208.835 7.136C208.835 7.724 208.951 8.23733 209.185 8.676C209.418 9.10533 209.731 9.43667 210.123 9.67C210.515 9.894 210.949 10.006 211.425 10.006C211.901 10.006 212.335 9.894 212.727 9.67C213.128 9.43667 213.445 9.10533 213.679 8.676C213.912 8.23733 214.029 7.72867 214.029 7.15ZM218.128 2.082C217.885 2.082 217.68 1.998 217.512 1.83C217.344 1.662 217.26 1.45667 217.26 1.214C217.26 0.971333 217.344 0.766 217.512 0.598C217.68 0.43 217.885 0.345999 218.128 0.345999C218.361 0.345999 218.557 0.43 218.716 0.598C218.884 0.766 218.968 0.971333 218.968 1.214C218.968 1.45667 218.884 1.662 218.716 1.83C218.557 1.998 218.361 2.082 218.128 2.082ZM218.744 3.328V11H217.47V3.328H218.744ZM223.771 9.824L226.151 3.328H227.509L224.499 11H223.015L220.005 3.328H221.377L223.771 9.824ZM235.763 6.87C235.763 7.11267 235.749 7.36933 235.721 7.64H229.589C229.635 8.396 229.892 8.98867 230.359 9.418C230.835 9.838 231.409 10.048 232.081 10.048C232.631 10.048 233.089 9.922 233.453 9.67C233.826 9.40867 234.087 9.06333 234.237 8.634H235.609C235.403 9.37133 234.993 9.97333 234.377 10.44C233.761 10.8973 232.995 11.126 232.081 11.126C231.353 11.126 230.699 10.9627 230.121 10.636C229.551 10.3093 229.103 9.84733 228.777 9.25C228.45 8.64333 228.287 7.94333 228.287 7.15C228.287 6.35667 228.445 5.66133 228.763 5.064C229.08 4.46667 229.523 4.00933 230.093 3.692C230.671 3.36533 231.334 3.202 232.081 3.202C232.809 3.202 233.453 3.36067 234.013 3.678C234.573 3.99533 235.002 4.434 235.301 4.994C235.609 5.54467 235.763 6.17 235.763 6.87ZM234.447 6.604C234.447 6.11867 234.339 5.70333 234.125 5.358C233.91 5.00333 233.616 4.73733 233.243 4.56C232.879 4.37333 232.473 4.28 232.025 4.28C231.381 4.28 230.83 4.48533 230.373 4.896C229.925 5.30667 229.668 5.876 229.603 6.604H234.447ZM241.182 3.188C242.116 3.188 242.872 3.47267 243.45 4.042C244.029 4.602 244.318 5.414 244.318 6.478V11H243.058V6.66C243.058 5.89467 242.867 5.31133 242.484 4.91C242.102 4.49933 241.579 4.294 240.916 4.294C240.244 4.294 239.708 4.504 239.306 4.924C238.914 5.344 238.718 5.95533 238.718 6.758V11H237.444V3.328H238.718V4.42C238.97 4.028 239.311 3.72467 239.74 3.51C240.179 3.29533 240.66 3.188 241.182 3.188ZM259.358 3.188C259.955 3.188 260.487 3.314 260.954 3.566C261.42 3.80867 261.789 4.17733 262.06 4.672C262.33 5.16667 262.466 5.76867 262.466 6.478V11H261.206V6.66C261.206 5.89467 261.014 5.31133 260.632 4.91C260.258 4.49933 259.75 4.294 259.106 4.294C258.443 4.294 257.916 4.50867 257.524 4.938C257.132 5.358 256.936 5.96933 256.936 6.772V11H255.676V6.66C255.676 5.89467 255.484 5.31133 255.102 4.91C254.728 4.49933 254.22 4.294 253.576 4.294C252.913 4.294 252.386 4.50867 251.994 4.938C251.602 5.358 251.406 5.96933 251.406 6.772V11H250.132V3.328H251.406V4.434C251.658 4.03267 251.994 3.72467 252.414 3.51C252.843 3.29533 253.314 3.188 253.828 3.188C254.472 3.188 255.041 3.33267 255.536 3.622C256.03 3.91133 256.399 4.336 256.642 4.896C256.856 4.35467 257.211 3.93467 257.706 3.636C258.2 3.33733 258.751 3.188 259.358 3.188ZM271.556 6.87C271.556 7.11267 271.542 7.36933 271.514 7.64H265.382C265.428 8.396 265.685 8.98867 266.152 9.418C266.628 9.838 267.202 10.048 267.874 10.048C268.424 10.048 268.882 9.922 269.246 9.67C269.619 9.40867 269.88 9.06333 270.03 8.634H271.402C271.196 9.37133 270.786 9.97333 270.17 10.44C269.554 10.8973 268.788 11.126 267.874 11.126C267.146 11.126 266.492 10.9627 265.914 10.636C265.344 10.3093 264.896 9.84733 264.57 9.25C264.243 8.64333 264.08 7.94333 264.08 7.15C264.08 6.35667 264.238 5.66133 264.556 5.064C264.873 4.46667 265.316 4.00933 265.886 3.692C266.464 3.36533 267.127 3.202 267.874 3.202C268.602 3.202 269.246 3.36067 269.806 3.678C270.366 3.99533 270.795 4.434 271.094 4.994C271.402 5.54467 271.556 6.17 271.556 6.87ZM270.24 6.604C270.24 6.11867 270.132 5.70333 269.918 5.358C269.703 5.00333 269.409 4.73733 269.036 4.56C268.672 4.37333 268.266 4.28 267.818 4.28C267.174 4.28 266.623 4.48533 266.166 4.896C265.718 5.30667 265.461 5.876 265.396 6.604H270.24ZM7.7157 34.87C7.7157 35.1127 7.7017 35.3693 7.6737 35.64H1.5417C1.58836 36.396 1.84503 36.9887 2.3117 37.418C2.7877 37.838 3.3617 38.048 4.0337 38.048C4.58436 38.048 5.0417 37.922 5.4057 37.67C5.77903 37.4087 6.04036 37.0633 6.1897 36.634H7.5617C7.35636 37.3713 6.9457 37.9733 6.3297 38.44C5.7137 38.8973 4.94836 39.126 4.0337 39.126C3.3057 39.126 2.65236 38.9627 2.0737 38.636C1.50436 38.3093 1.05636 37.8473 0.729695 37.25C0.403029 36.6433 0.239695 35.9433 0.239695 35.15C0.239695 34.3567 0.398362 33.6613 0.715695 33.064C1.03303 32.4667 1.47636 32.0093 2.0457 31.692C2.62436 31.3653 3.28703 31.202 4.0337 31.202C4.7617 31.202 5.4057 31.3607 5.9657 31.678C6.5257 31.9953 6.95503 32.434 7.2537 32.994C7.5617 33.5447 7.7157 34.17 7.7157 34.87ZM6.3997 34.604C6.3997 34.1187 6.29236 33.7033 6.0777 33.358C5.86303 33.0033 5.56903 32.7373 5.1957 32.56C4.8317 32.3733 4.4257 32.28 3.9777 32.28C3.3337 32.28 2.78303 32.4853 2.3257 32.896C1.8777 33.3067 1.62103 33.876 1.5557 34.604H6.3997ZM13.4013 39L11.5813 36.144L9.83134 39H8.50134L10.9793 35.192L8.50134 31.328H9.94334L11.7633 34.17L13.4993 31.328H14.8293L12.3653 35.122L14.8433 39H13.4013ZM17.3706 32.742C17.6226 32.3033 17.9959 31.9393 18.4906 31.65C18.9946 31.3513 19.5779 31.202 20.2406 31.202C20.9219 31.202 21.5379 31.3653 22.0886 31.692C22.6486 32.0187 23.0872 32.4807 23.4046 33.078C23.7219 33.666 23.8806 34.352 23.8806 35.136C23.8806 35.9107 23.7219 36.6013 23.4046 37.208C23.0872 37.8147 22.6486 38.286 22.0886 38.622C21.5379 38.958 20.9219 39.126 20.2406 39.126C19.5872 39.126 19.0086 38.9813 18.5046 38.692C18.0099 38.3933 17.6319 38.0247 17.3706 37.586V42.64H16.0966V31.328H17.3706V32.742ZM22.5786 35.136C22.5786 34.5573 22.4619 34.0533 22.2286 33.624C21.9952 33.1947 21.6779 32.868 21.2766 32.644C20.8846 32.42 20.4506 32.308 19.9746 32.308C19.5079 32.308 19.0739 32.4247 18.6726 32.658C18.2806 32.882 17.9632 33.2133 17.7206 33.652C17.4872 34.0813 17.3706 34.5807 17.3706 35.15C17.3706 35.7287 17.4872 36.2373 17.7206 36.676C17.9632 37.1053 18.2806 37.4367 18.6726 37.67C19.0739 37.894 19.5079 38.006 19.9746 38.006C20.4506 38.006 20.8846 37.894 21.2766 37.67C21.6779 37.4367 21.9952 37.1053 22.2286 36.676C22.4619 36.2373 22.5786 35.724 22.5786 35.136ZM32.5575 34.87C32.5575 35.1127 32.5435 35.3693 32.5155 35.64H26.3835C26.4302 36.396 26.6868 36.9887 27.1535 37.418C27.6295 37.838 28.2035 38.048 28.8755 38.048C29.4262 38.048 29.8835 37.922 30.2475 37.67C30.6208 37.4087 30.8822 37.0633 31.0315 36.634H32.4035C32.1982 37.3713 31.7875 37.9733 31.1715 38.44C30.5555 38.8973 29.7902 39.126 28.8755 39.126C28.1475 39.126 27.4942 38.9627 26.9155 38.636C26.3462 38.3093 25.8982 37.8473 25.5715 37.25C25.2448 36.6433 25.0815 35.9433 25.0815 35.15C25.0815 34.3567 25.2402 33.6613 25.5575 33.064C25.8748 32.4667 26.3182 32.0093 26.8875 31.692C27.4662 31.3653 28.1288 31.202 28.8755 31.202C29.6035 31.202 30.2475 31.3607 30.8075 31.678C31.3675 31.9953 31.7968 32.434 32.0955 32.994C32.4035 33.5447 32.5575 34.17 32.5575 34.87ZM31.2415 34.604C31.2415 34.1187 31.1342 33.7033 30.9195 33.358C30.7048 33.0033 30.4108 32.7373 30.0375 32.56C29.6735 32.3733 29.2675 32.28 28.8195 32.28C28.1755 32.28 27.6248 32.4853 27.1675 32.896C26.7195 33.3067 26.4628 33.876 26.3975 34.604H31.2415ZM35.5131 32.574C35.7371 32.1353 36.0545 31.7947 36.4651 31.552C36.8851 31.3093 37.3938 31.188 37.9911 31.188V32.504H37.6551C36.2271 32.504 35.5131 33.2787 35.5131 34.828V39H34.2391V31.328H35.5131V32.574ZM40.1198 30.082C39.8771 30.082 39.6718 29.998 39.5038 29.83C39.3358 29.662 39.2518 29.4567 39.2518 29.214C39.2518 28.9713 39.3358 28.766 39.5038 28.598C39.6718 28.43 39.8771 28.346 40.1198 28.346C40.3531 28.346 40.5491 28.43 40.7078 28.598C40.8758 28.766 40.9598 28.9713 40.9598 29.214C40.9598 29.4567 40.8758 29.662 40.7078 29.83C40.5491 29.998 40.3531 30.082 40.1198 30.082ZM40.7358 31.328V39H39.4618V31.328H40.7358ZM49.9071 34.87C49.9071 35.1127 49.8931 35.3693 49.8651 35.64H43.7331C43.7798 36.396 44.0364 36.9887 44.5031 37.418C44.9791 37.838 45.5531 38.048 46.2251 38.048C46.7758 38.048 47.2331 37.922 47.5971 37.67C47.9704 37.4087 48.2318 37.0633 48.3811 36.634H49.7531C49.5478 37.3713 49.1371 37.9733 48.5211 38.44C47.9051 38.8973 47.1398 39.126 46.2251 39.126C45.4971 39.126 44.8438 38.9627 44.2651 38.636C43.6958 38.3093 43.2478 37.8473 42.9211 37.25C42.5944 36.6433 42.4311 35.9433 42.4311 35.15C42.4311 34.3567 42.5898 33.6613 42.9071 33.064C43.2244 32.4667 43.6678 32.0093 44.2371 31.692C44.8158 31.3653 45.4784 31.202 46.2251 31.202C46.9531 31.202 47.5971 31.3607 48.1571 31.678C48.7171 31.9953 49.1464 32.434 49.4451 32.994C49.7531 33.5447 49.9071 34.17 49.9071 34.87ZM48.5911 34.604C48.5911 34.1187 48.4838 33.7033 48.2691 33.358C48.0544 33.0033 47.7604 32.7373 47.3871 32.56C47.0231 32.3733 46.6171 32.28 46.1691 32.28C45.5251 32.28 44.9744 32.4853 44.5171 32.896C44.0691 33.3067 43.8124 33.876 43.7471 34.604H48.5911ZM55.3267 31.188C56.2601 31.188 57.0161 31.4727 57.5947 32.042C58.1734 32.602 58.4627 33.414 58.4627 34.478V39H57.2027V34.66C57.2027 33.8947 57.0114 33.3113 56.6287 32.91C56.2461 32.4993 55.7234 32.294 55.0607 32.294C54.3887 32.294 53.8521 32.504 53.4507 32.924C53.0587 33.344 52.8627 33.9553 52.8627 34.758V39H51.5887V31.328H52.8627V32.42C53.1147 32.028 53.4554 31.7247 53.8847 31.51C54.3234 31.2953 54.8041 31.188 55.3267 31.188ZM60.0678 35.15C60.0678 34.3567 60.2265 33.666 60.5438 33.078C60.8612 32.4807 61.2998 32.0187 61.8598 31.692C62.4292 31.3653 63.0778 31.202 63.8058 31.202C64.7485 31.202 65.5232 31.4307 66.1298 31.888C66.7458 32.3453 67.1518 32.98 67.3478 33.792H65.9758C65.8452 33.3253 65.5885 32.9567 65.2058 32.686C64.8325 32.4153 64.3658 32.28 63.8058 32.28C63.0778 32.28 62.4898 32.532 62.0418 33.036C61.5938 33.5307 61.3698 34.2353 61.3698 35.15C61.3698 36.074 61.5938 36.788 62.0418 37.292C62.4898 37.796 63.0778 38.048 63.8058 38.048C64.3658 38.048 64.8325 37.9173 65.2058 37.656C65.5792 37.3947 65.8358 37.0213 65.9758 36.536H67.3478C67.1425 37.32 66.7318 37.95 66.1158 38.426C65.4998 38.8927 64.7298 39.126 63.8058 39.126C63.0778 39.126 62.4292 38.9627 61.8598 38.636C61.2998 38.3093 60.8612 37.8473 60.5438 37.25C60.2265 36.6527 60.0678 35.9527 60.0678 35.15ZM76.0477 34.87C76.0477 35.1127 76.0337 35.3693 76.0057 35.64H69.8737C69.9204 36.396 70.1771 36.9887 70.6437 37.418C71.1197 37.838 71.6937 38.048 72.3657 38.048C72.9164 38.048 73.3737 37.922 73.7377 37.67C74.1111 37.4087 74.3724 37.0633 74.5217 36.634H75.8937C75.6884 37.3713 75.2777 37.9733 74.6617 38.44C74.0457 38.8973 73.2804 39.126 72.3657 39.126C71.6377 39.126 70.9844 38.9627 70.4057 38.636C69.8364 38.3093 69.3884 37.8473 69.0617 37.25C68.7351 36.6433 68.5717 35.9433 68.5717 35.15C68.5717 34.3567 68.7304 33.6613 69.0477 33.064C69.3651 32.4667 69.8084 32.0093 70.3777 31.692C70.9564 31.3653 71.6191 31.202 72.3657 31.202C73.0937 31.202 73.7377 31.3607 74.2977 31.678C74.8577 31.9953 75.2871 32.434 75.5857 32.994C75.8937 33.5447 76.0477 34.17 76.0477 34.87ZM74.7317 34.604C74.7317 34.1187 74.6244 33.7033 74.4097 33.358C74.1951 33.0033 73.9011 32.7373 73.5277 32.56C73.1637 32.3733 72.7577 32.28 72.3097 32.28C71.6657 32.28 71.1151 32.4853 70.6577 32.896C70.2097 33.3067 69.9531 33.876 69.8877 34.604H74.7317ZM82.1198 30.082C81.8771 30.082 81.6718 29.998 81.5038 29.83C81.3358 29.662 81.2518 29.4567 81.2518 29.214C81.2518 28.9713 81.3358 28.766 81.5038 28.598C81.6718 28.43 81.8771 28.346 82.1198 28.346C82.3531 28.346 82.5491 28.43 82.7078 28.598C82.8758 28.766 82.9598 28.9713 82.9598 29.214C82.9598 29.4567 82.8758 29.662 82.7078 29.83C82.5491 29.998 82.3531 30.082 82.1198 30.082ZM82.7358 31.328V39H81.4618V31.328H82.7358ZM88.6451 31.188C89.5784 31.188 90.3344 31.4727 90.9131 32.042C91.4918 32.602 91.7811 33.414 91.7811 34.478V39H90.5211V34.66C90.5211 33.8947 90.3298 33.3113 89.9471 32.91C89.5644 32.4993 89.0418 32.294 88.3791 32.294C87.7071 32.294 87.1704 32.504 86.7691 32.924C86.3771 33.344 86.1811 33.9553 86.1811 34.758V39H84.9071V31.328H86.1811V32.42C86.4331 32.028 86.7738 31.7247 87.2031 31.51C87.6418 31.2953 88.1224 31.188 88.6451 31.188ZM97.1186 35.136C97.1186 34.352 97.2773 33.666 97.5946 33.078C97.9119 32.4807 98.3459 32.0187 98.8966 31.692C99.4566 31.3653 100.077 31.202 100.759 31.202C101.431 31.202 102.014 31.3467 102.509 31.636C103.003 31.9253 103.372 32.2893 103.615 32.728V31.328H104.903V39H103.615V37.572C103.363 38.02 102.985 38.3933 102.481 38.692C101.986 38.9813 101.407 39.126 100.745 39.126C100.063 39.126 99.4473 38.958 98.8966 38.622C98.3459 38.286 97.9119 37.8147 97.5946 37.208C97.2773 36.6013 97.1186 35.9107 97.1186 35.136ZM103.615 35.15C103.615 34.5713 103.498 34.0673 103.265 33.638C103.031 33.2087 102.714 32.882 102.313 32.658C101.921 32.4247 101.487 32.308 101.011 32.308C100.535 32.308 100.101 32.42 99.7086 32.644C99.3166 32.868 99.0039 33.1947 98.7706 33.624C98.5373 34.0533 98.4206 34.5573 98.4206 35.136C98.4206 35.724 98.5373 36.2373 98.7706 36.676C99.0039 37.1053 99.3166 37.4367 99.7086 37.67C100.101 37.894 100.535 38.006 101.011 38.006C101.487 38.006 101.921 37.894 102.313 37.67C102.714 37.4367 103.031 37.1053 103.265 36.676C103.498 36.2373 103.615 35.7287 103.615 35.15ZM121.008 31.328L118.614 39H117.298L115.45 32.91L113.602 39H112.286L109.878 31.328H111.18L112.944 37.768L114.848 31.328H116.15L118.012 37.782L119.748 31.328H121.008ZM122.93 30.082C122.688 30.082 122.482 29.998 122.314 29.83C122.146 29.662 122.062 29.4567 122.062 29.214C122.062 28.9713 122.146 28.766 122.314 28.598C122.482 28.43 122.688 28.346 122.93 28.346C123.164 28.346 123.36 28.43 123.518 28.598C123.686 28.766 123.77 28.9713 123.77 29.214C123.77 29.4567 123.686 29.662 123.518 29.83C123.36 29.998 123.164 30.082 122.93 30.082ZM123.546 31.328V39H122.272V31.328H123.546ZM125.242 35.136C125.242 34.352 125.4 33.666 125.718 33.078C126.035 32.4807 126.469 32.0187 127.02 31.692C127.58 31.3653 128.205 31.202 128.896 31.202C129.493 31.202 130.048 31.342 130.562 31.622C131.075 31.8927 131.467 32.252 131.738 32.7V28.64H133.026V39H131.738V37.558C131.486 38.0153 131.112 38.3933 130.618 38.692C130.123 38.9813 129.544 39.126 128.882 39.126C128.2 39.126 127.58 38.958 127.02 38.622C126.469 38.286 126.035 37.8147 125.718 37.208C125.4 36.6013 125.242 35.9107 125.242 35.136ZM131.738 35.15C131.738 34.5713 131.621 34.0673 131.388 33.638C131.154 33.2087 130.837 32.882 130.436 32.658C130.044 32.4247 129.61 32.308 129.134 32.308C128.658 32.308 128.224 32.42 127.832 32.644C127.44 32.868 127.127 33.1947 126.894 33.624C126.66 34.0533 126.544 34.5573 126.544 35.136C126.544 35.724 126.66 36.2373 126.894 36.676C127.127 37.1053 127.44 37.4367 127.832 37.67C128.224 37.894 128.658 38.006 129.134 38.006C129.61 38.006 130.044 37.894 130.436 37.67C130.837 37.4367 131.154 37.1053 131.388 36.676C131.621 36.2373 131.738 35.7287 131.738 35.15ZM142.179 34.87C142.179 35.1127 142.165 35.3693 142.137 35.64H136.005C136.051 36.396 136.308 36.9887 136.775 37.418C137.251 37.838 137.825 38.048 138.497 38.048C139.047 38.048 139.505 37.922 139.869 37.67C140.242 37.4087 140.503 37.0633 140.653 36.634H142.025C141.819 37.3713 141.409 37.9733 140.793 38.44C140.177 38.8973 139.411 39.126 138.497 39.126C137.769 39.126 137.115 38.9627 136.537 38.636C135.967 38.3093 135.519 37.8473 135.193 37.25C134.866 36.6433 134.703 35.9433 134.703 35.15C134.703 34.3567 134.861 33.6613 135.179 33.064C135.496 32.4667 135.939 32.0093 136.509 31.692C137.087 31.3653 137.75 31.202 138.497 31.202C139.225 31.202 139.869 31.3607 140.429 31.678C140.989 31.9953 141.418 32.434 141.717 32.994C142.025 33.5447 142.179 34.17 142.179 34.87ZM140.863 34.604C140.863 34.1187 140.755 33.7033 140.541 33.358C140.326 33.0033 140.032 32.7373 139.659 32.56C139.295 32.3733 138.889 32.28 138.441 32.28C137.797 32.28 137.246 32.4853 136.789 32.896C136.341 33.3067 136.084 33.876 136.019 34.604H140.863ZM148.867 32.574C149.091 32.1353 149.408 31.7947 149.819 31.552C150.239 31.3093 150.747 31.188 151.345 31.188V32.504H151.009C149.581 32.504 148.867 33.2787 148.867 34.828V39H147.593V31.328H148.867V32.574ZM152.339 35.136C152.339 34.352 152.498 33.666 152.815 33.078C153.133 32.4807 153.567 32.0187 154.117 31.692C154.677 31.3653 155.298 31.202 155.979 31.202C156.651 31.202 157.235 31.3467 157.729 31.636C158.224 31.9253 158.593 32.2893 158.835 32.728V31.328H160.123V39H158.835V37.572C158.583 38.02 158.205 38.3933 157.701 38.692C157.207 38.9813 156.628 39.126 155.965 39.126C155.284 39.126 154.668 38.958 154.117 38.622C153.567 38.286 153.133 37.8147 152.815 37.208C152.498 36.6013 152.339 35.9107 152.339 35.136ZM158.835 35.15C158.835 34.5713 158.719 34.0673 158.485 33.638C158.252 33.2087 157.935 32.882 157.533 32.658C157.141 32.4247 156.707 32.308 156.231 32.308C155.755 32.308 155.321 32.42 154.929 32.644C154.537 32.868 154.225 33.1947 153.991 33.624C153.758 34.0533 153.641 34.5573 153.641 35.136C153.641 35.724 153.758 36.2373 153.991 36.676C154.225 37.1053 154.537 37.4367 154.929 37.67C155.321 37.894 155.755 38.006 156.231 38.006C156.707 38.006 157.141 37.894 157.533 37.67C157.935 37.4367 158.252 37.1053 158.485 36.676C158.719 36.2373 158.835 35.7287 158.835 35.15ZM166.014 31.188C166.948 31.188 167.704 31.4727 168.282 32.042C168.861 32.602 169.15 33.414 169.15 34.478V39H167.89V34.66C167.89 33.8947 167.699 33.3113 167.316 32.91C166.934 32.4993 166.411 32.294 165.748 32.294C165.076 32.294 164.54 32.504 164.138 32.924C163.746 33.344 163.55 33.9553 163.55 34.758V39H162.276V31.328H163.55V32.42C163.802 32.028 164.143 31.7247 164.572 31.51C165.011 31.2953 165.492 31.188 166.014 31.188ZM174.395 31.202C175.058 31.202 175.637 31.3467 176.131 31.636C176.635 31.9253 177.009 32.2893 177.251 32.728V31.328H178.539V39.168C178.539 39.868 178.39 40.4887 178.091 41.03C177.793 41.5807 177.363 42.01 176.803 42.318C176.253 42.626 175.609 42.78 174.871 42.78C173.863 42.78 173.023 42.542 172.351 42.066C171.679 41.59 171.283 40.9413 171.161 40.12H172.421C172.561 40.5867 172.851 40.96 173.289 41.24C173.728 41.5293 174.255 41.674 174.871 41.674C175.571 41.674 176.141 41.4547 176.579 41.016C177.027 40.5773 177.251 39.9613 177.251 39.168V37.558C176.999 38.006 176.626 38.3793 176.131 38.678C175.637 38.9767 175.058 39.126 174.395 39.126C173.714 39.126 173.093 38.958 172.533 38.622C171.983 38.286 171.549 37.8147 171.231 37.208C170.914 36.6013 170.755 35.9107 170.755 35.136C170.755 34.352 170.914 33.666 171.231 33.078C171.549 32.4807 171.983 32.0187 172.533 31.692C173.093 31.3653 173.714 31.202 174.395 31.202ZM177.251 35.15C177.251 34.5713 177.135 34.0673 176.901 33.638C176.668 33.2087 176.351 32.882 175.949 32.658C175.557 32.4247 175.123 32.308 174.647 32.308C174.171 32.308 173.737 32.42 173.345 32.644C172.953 32.868 172.641 33.1947 172.407 33.624C172.174 34.0533 172.057 34.5573 172.057 35.136C172.057 35.724 172.174 36.2373 172.407 36.676C172.641 37.1053 172.953 37.4367 173.345 37.67C173.737 37.894 174.171 38.006 174.647 38.006C175.123 38.006 175.557 37.894 175.949 37.67C176.351 37.4367 176.668 37.1053 176.901 36.676C177.135 36.2373 177.251 35.7287 177.251 35.15ZM187.692 34.87C187.692 35.1127 187.678 35.3693 187.65 35.64H181.518C181.565 36.396 181.822 36.9887 182.288 37.418C182.764 37.838 183.338 38.048 184.01 38.048C184.561 38.048 185.018 37.922 185.382 37.67C185.756 37.4087 186.017 37.0633 186.166 36.634H187.538C187.333 37.3713 186.922 37.9733 186.306 38.44C185.69 38.8973 184.925 39.126 184.01 39.126C183.282 39.126 182.629 38.9627 182.05 38.636C181.481 38.3093 181.033 37.8473 180.706 37.25C180.38 36.6433 180.216 35.9433 180.216 35.15C180.216 34.3567 180.375 33.6613 180.692 33.064C181.01 32.4667 181.453 32.0093 182.022 31.692C182.601 31.3653 183.264 31.202 184.01 31.202C184.738 31.202 185.382 31.3607 185.942 31.678C186.502 31.9953 186.932 32.434 187.23 32.994C187.538 33.5447 187.692 34.17 187.692 34.87ZM186.376 34.604C186.376 34.1187 186.269 33.7033 186.054 33.358C185.84 33.0033 185.546 32.7373 185.172 32.56C184.808 32.3733 184.402 32.28 183.954 32.28C183.31 32.28 182.76 32.4853 182.302 32.896C181.854 33.3067 181.598 33.876 181.532 34.604H186.376ZM196.452 39.126C195.734 39.126 195.08 38.9627 194.492 38.636C193.914 38.3093 193.456 37.8473 193.12 37.25C192.794 36.6433 192.63 35.9433 192.63 35.15C192.63 34.366 192.798 33.6753 193.134 33.078C193.48 32.4713 193.946 32.0093 194.534 31.692C195.122 31.3653 195.78 31.202 196.508 31.202C197.236 31.202 197.894 31.3653 198.482 31.692C199.07 32.0093 199.532 32.4667 199.868 33.064C200.214 33.6613 200.386 34.3567 200.386 35.15C200.386 35.9433 200.209 36.6433 199.854 37.25C199.509 37.8473 199.038 38.3093 198.44 38.636C197.843 38.9627 197.18 39.126 196.452 39.126ZM196.452 38.006C196.91 38.006 197.339 37.8987 197.74 37.684C198.142 37.4693 198.464 37.1473 198.706 36.718C198.958 36.2887 199.084 35.766 199.084 35.15C199.084 34.534 198.963 34.0113 198.72 33.582C198.478 33.1527 198.16 32.8353 197.768 32.63C197.376 32.4153 196.952 32.308 196.494 32.308C196.028 32.308 195.598 32.4153 195.206 32.63C194.824 32.8353 194.516 33.1527 194.282 33.582C194.049 34.0113 193.932 34.534 193.932 35.15C193.932 35.7753 194.044 36.3027 194.268 36.732C194.502 37.1613 194.81 37.4833 195.192 37.698C195.575 37.9033 195.995 38.006 196.452 38.006ZM205.183 32.378H203.573V39H202.299V32.378H201.305V31.328H202.299V30.782C202.299 29.9233 202.519 29.298 202.957 28.906C203.405 28.5047 204.119 28.304 205.099 28.304V29.368C204.539 29.368 204.143 29.48 203.909 29.704C203.685 29.9187 203.573 30.278 203.573 30.782V31.328H205.183V32.378ZM213.117 39.126C212.529 39.126 212.002 39.028 211.535 38.832C211.069 38.6267 210.7 38.3467 210.429 37.992C210.159 37.628 210.009 37.2127 209.981 36.746H211.297C211.335 37.1287 211.512 37.4413 211.829 37.684C212.156 37.9267 212.581 38.048 213.103 38.048C213.589 38.048 213.971 37.9407 214.251 37.726C214.531 37.5113 214.671 37.2407 214.671 36.914C214.671 36.578 214.522 36.3307 214.223 36.172C213.925 36.004 213.463 35.8407 212.837 35.682C212.268 35.5327 211.801 35.3833 211.437 35.234C211.083 35.0753 210.775 34.8467 210.513 34.548C210.261 34.24 210.135 33.8387 210.135 33.344C210.135 32.952 210.252 32.5927 210.485 32.266C210.719 31.9393 211.05 31.6827 211.479 31.496C211.909 31.3 212.399 31.202 212.949 31.202C213.799 31.202 214.485 31.4167 215.007 31.846C215.53 32.2753 215.81 32.8633 215.847 33.61H214.573C214.545 33.2087 214.382 32.8867 214.083 32.644C213.794 32.4013 213.402 32.28 212.907 32.28C212.45 32.28 212.086 32.378 211.815 32.574C211.545 32.77 211.409 33.0267 211.409 33.344C211.409 33.596 211.489 33.806 211.647 33.974C211.815 34.1327 212.021 34.2633 212.263 34.366C212.515 34.4593 212.861 34.5667 213.299 34.688C213.85 34.8373 214.298 34.9867 214.643 35.136C214.989 35.276 215.283 35.4907 215.525 35.78C215.777 36.0693 215.908 36.4473 215.917 36.914C215.917 37.334 215.801 37.712 215.567 38.048C215.334 38.384 215.003 38.65 214.573 38.846C214.153 39.0327 213.668 39.126 213.117 39.126ZM222 39L218.99 35.612V39H217.716V28.64H218.99V34.73L221.944 31.328H223.722L220.11 35.15L223.736 39H222ZM225.579 30.082C225.336 30.082 225.131 29.998 224.963 29.83C224.795 29.662 224.711 29.4567 224.711 29.214C224.711 28.9713 224.795 28.766 224.963 28.598C225.131 28.43 225.336 28.346 225.579 28.346C225.812 28.346 226.008 28.43 226.167 28.598C226.335 28.766 226.419 28.9713 226.419 29.214C226.419 29.4567 226.335 29.662 226.167 29.83C226.008 29.998 225.812 30.082 225.579 30.082ZM226.195 31.328V39H224.921V31.328H226.195ZM229.64 28.64V39H228.366V28.64H229.64ZM233.085 28.64V39H231.811V28.64H233.085ZM237.973 39.126C237.385 39.126 236.857 39.028 236.391 38.832C235.924 38.6267 235.555 38.3467 235.285 37.992C235.014 37.628 234.865 37.2127 234.837 36.746H236.153C236.19 37.1287 236.367 37.4413 236.685 37.684C237.011 37.9267 237.436 38.048 237.959 38.048C238.444 38.048 238.827 37.9407 239.107 37.726C239.387 37.5113 239.527 37.2407 239.527 36.914C239.527 36.578 239.377 36.3307 239.079 36.172C238.78 36.004 238.318 35.8407 237.693 35.682C237.123 35.5327 236.657 35.3833 236.293 35.234C235.938 35.0753 235.63 34.8467 235.369 34.548C235.117 34.24 234.991 33.8387 234.991 33.344C234.991 32.952 235.107 32.5927 235.341 32.266C235.574 31.9393 235.905 31.6827 236.335 31.496C236.764 31.3 237.254 31.202 237.805 31.202C238.654 31.202 239.34 31.4167 239.863 31.846C240.385 32.2753 240.665 32.8633 240.703 33.61H239.429C239.401 33.2087 239.237 32.8867 238.939 32.644C238.649 32.4013 238.257 32.28 237.763 32.28C237.305 32.28 236.941 32.378 236.671 32.574C236.4 32.77 236.265 33.0267 236.265 33.344C236.265 33.596 236.344 33.806 236.503 33.974C236.671 34.1327 236.876 34.2633 237.119 34.366C237.371 34.4593 237.716 34.5667 238.155 34.688C238.705 34.8373 239.153 34.9867 239.499 35.136C239.844 35.276 240.138 35.4907 240.381 35.78C240.633 36.0693 240.763 36.4473 240.773 36.914C240.773 37.334 240.656 37.712 240.423 38.048C240.189 38.384 239.858 38.65 239.429 38.846C239.009 39.0327 238.523 39.126 237.973 39.126ZM242.977 39.084C242.734 39.084 242.529 39 242.361 38.832C242.193 38.664 242.109 38.4587 242.109 38.216C242.109 37.9733 242.193 37.768 242.361 37.6C242.529 37.432 242.734 37.348 242.977 37.348C243.21 37.348 243.406 37.432 243.565 37.6C243.733 37.768 243.817 37.9733 243.817 38.216C243.817 38.4587 243.733 38.664 243.565 38.832C243.406 39 243.21 39.084 242.977 39.084ZM250.517 29.242V39H249.243V29.242H250.517ZM254.242 32.378V36.9C254.242 37.2733 254.322 37.5393 254.48 37.698C254.639 37.8473 254.914 37.922 255.306 37.922H256.244V39H255.096C254.387 39 253.855 38.8367 253.5 38.51C253.146 38.1833 252.968 37.6467 252.968 36.9V32.378H251.974V31.328H252.968V29.396H254.242V31.328H256.244V32.378H254.242ZM261.044 35.15C261.044 34.3567 261.203 33.666 261.52 33.078C261.838 32.4807 262.276 32.0187 262.836 31.692C263.406 31.3653 264.054 31.202 264.782 31.202C265.725 31.202 266.5 31.4307 267.106 31.888C267.722 32.3453 268.128 32.98 268.324 33.792H266.952C266.822 33.3253 266.565 32.9567 266.182 32.686C265.809 32.4153 265.342 32.28 264.782 32.28C264.054 32.28 263.466 32.532 263.018 33.036C262.57 33.5307 262.346 34.2353 262.346 35.15C262.346 36.074 262.57 36.788 263.018 37.292C263.466 37.796 264.054 38.048 264.782 38.048C265.342 38.048 265.809 37.9173 266.182 37.656C266.556 37.3947 266.812 37.0213 266.952 36.536H268.324C268.119 37.32 267.708 37.95 267.092 38.426C266.476 38.8927 265.706 39.126 264.782 39.126C264.054 39.126 263.406 38.9627 262.836 38.636C262.276 38.3093 261.838 37.8473 261.52 37.25C261.203 36.6527 261.044 35.9527 261.044 35.15ZM269.548 35.136C269.548 34.352 269.707 33.666 270.024 33.078C270.342 32.4807 270.776 32.0187 271.326 31.692C271.886 31.3653 272.507 31.202 273.188 31.202C273.86 31.202 274.444 31.3467 274.938 31.636C275.433 31.9253 275.802 32.2893 276.044 32.728V31.328H277.332V39H276.044V37.572C275.792 38.02 275.414 38.3933 274.91 38.692C274.416 38.9813 273.837 39.126 273.174 39.126C272.493 39.126 271.877 38.958 271.326 38.622C270.776 38.286 270.342 37.8147 270.024 37.208C269.707 36.6013 269.548 35.9107 269.548 35.136ZM276.044 35.15C276.044 34.5713 275.928 34.0673 275.694 33.638C275.461 33.2087 275.144 32.882 274.742 32.658C274.35 32.4247 273.916 32.308 273.44 32.308C272.964 32.308 272.53 32.42 272.138 32.644C271.746 32.868 271.434 33.1947 271.2 33.624C270.967 34.0533 270.85 34.5573 270.85 35.136C270.85 35.724 270.967 36.2373 271.2 36.676C271.434 37.1053 271.746 37.4367 272.138 37.67C272.53 37.894 272.964 38.006 273.44 38.006C273.916 38.006 274.35 37.894 274.742 37.67C275.144 37.4367 275.461 37.1053 275.694 36.676C275.928 36.2373 276.044 35.7287 276.044 35.15ZM283.223 31.188C284.157 31.188 284.913 31.4727 285.491 32.042C286.07 32.602 286.359 33.414 286.359 34.478V39H285.099V34.66C285.099 33.8947 284.908 33.3113 284.525 32.91C284.143 32.4993 283.62 32.294 282.957 32.294C282.285 32.294 281.749 32.504 281.347 32.924C280.955 33.344 280.759 33.9553 280.759 34.758V39H279.485V31.328H280.759V32.42C281.011 32.028 281.352 31.7247 281.781 31.51C282.22 31.2953 282.701 31.188 283.223 31.188ZM20.768 60.756C21.0293 60.2987 21.412 59.9253 21.916 59.636C22.42 59.3467 22.994 59.202 23.638 59.202C24.3287 59.202 24.9493 59.3653 25.5 59.692C26.0507 60.0187 26.4847 60.4807 26.802 61.078C27.1193 61.666 27.278 62.352 27.278 63.136C27.278 63.9107 27.1193 64.6013 26.802 65.208C26.4847 65.8147 26.046 66.286 25.486 66.622C24.9353 66.958 24.3193 67.126 23.638 67.126C22.9753 67.126 22.392 66.9813 21.888 66.692C21.3933 66.4027 21.02 66.034 20.768 65.586V67H19.494V56.64H20.768V60.756ZM25.976 63.136C25.976 62.5573 25.8593 62.0533 25.626 61.624C25.3927 61.1947 25.0753 60.868 24.674 60.644C24.282 60.42 23.848 60.308 23.372 60.308C22.9053 60.308 22.4713 60.4247 22.07 60.658C21.678 60.882 21.3607 61.2133 21.118 61.652C20.8847 62.0813 20.768 62.5807 20.768 63.15C20.768 63.7287 20.8847 64.2373 21.118 64.676C21.3607 65.1053 21.678 65.4367 22.07 65.67C22.4713 65.894 22.9053 66.006 23.372 66.006C23.848 66.006 24.282 65.894 24.674 65.67C25.0753 65.4367 25.3927 65.1053 25.626 64.676C25.8593 64.2373 25.976 63.724 25.976 63.136ZM35.955 62.87C35.955 63.1127 35.941 63.3693 35.913 63.64H29.781C29.8276 64.396 30.0843 64.9887 30.551 65.418C31.027 65.838 31.601 66.048 32.273 66.048C32.8236 66.048 33.281 65.922 33.645 65.67C34.0183 65.4087 34.2796 65.0633 34.429 64.634H35.801C35.5956 65.3713 35.185 65.9733 34.569 66.44C33.953 66.8973 33.1876 67.126 32.273 67.126C31.545 67.126 30.8916 66.9627 30.313 66.636C29.7436 66.3093 29.2956 65.8473 28.969 65.25C28.6423 64.6433 28.479 63.9433 28.479 63.15C28.479 62.3567 28.6376 61.6613 28.955 61.064C29.2723 60.4667 29.7156 60.0093 30.285 59.692C30.8636 59.3653 31.5263 59.202 32.273 59.202C33.001 59.202 33.645 59.3607 34.205 59.678C34.765 59.9953 35.1943 60.434 35.493 60.994C35.801 61.5447 35.955 62.17 35.955 62.87ZM34.639 62.604C34.639 62.1187 34.5316 61.7033 34.317 61.358C34.1023 61.0033 33.8083 60.7373 33.435 60.56C33.071 60.3733 32.665 60.28 32.217 60.28C31.573 60.28 31.0223 60.4853 30.565 60.896C30.117 61.3067 29.8603 61.876 29.795 62.604H34.639ZM40.893 63.136C40.893 62.352 41.0517 61.666 41.369 61.078C41.6863 60.4807 42.1203 60.0187 42.671 59.692C43.231 59.3653 43.8517 59.202 44.533 59.202C45.205 59.202 45.7883 59.3467 46.283 59.636C46.7777 59.9253 47.1463 60.2893 47.389 60.728V59.328H48.677V67H47.389V65.572C47.137 66.02 46.759 66.3933 46.255 66.692C45.7603 66.9813 45.1817 67.126 44.519 67.126C43.8377 67.126 43.2217 66.958 42.671 66.622C42.1203 66.286 41.6863 65.8147 41.369 65.208C41.0517 64.6013 40.893 63.9107 40.893 63.136ZM47.389 63.15C47.389 62.5713 47.2723 62.0673 47.039 61.638C46.8057 61.2087 46.4883 60.882 46.087 60.658C45.695 60.4247 45.261 60.308 44.785 60.308C44.309 60.308 43.875 60.42 43.483 60.644C43.091 60.868 42.7783 61.1947 42.545 61.624C42.3117 62.0533 42.195 62.5573 42.195 63.136C42.195 63.724 42.3117 64.2373 42.545 64.676C42.7783 65.1053 43.091 65.4367 43.483 65.67C43.875 65.894 44.309 66.006 44.785 66.006C45.261 66.006 45.695 65.894 46.087 65.67C46.4883 65.4367 46.8057 65.1053 47.039 64.676C47.2723 64.2373 47.389 63.7287 47.389 63.15ZM52.104 60.742C52.356 60.3033 52.7293 59.9393 53.224 59.65C53.728 59.3513 54.3113 59.202 54.974 59.202C55.6553 59.202 56.2713 59.3653 56.822 59.692C57.382 60.0187 57.8206 60.4807 58.138 61.078C58.4553 61.666 58.614 62.352 58.614 63.136C58.614 63.9107 58.4553 64.6013 58.138 65.208C57.8206 65.8147 57.382 66.286 56.822 66.622C56.2713 66.958 55.6553 67.126 54.974 67.126C54.3206 67.126 53.742 66.9813 53.238 66.692C52.7433 66.3933 52.3653 66.0247 52.104 65.586V70.64H50.83V59.328H52.104V60.742ZM57.312 63.136C57.312 62.5573 57.1953 62.0533 56.962 61.624C56.7286 61.1947 56.4113 60.868 56.01 60.644C55.618 60.42 55.184 60.308 54.708 60.308C54.2413 60.308 53.8073 60.4247 53.406 60.658C53.014 60.882 52.6966 61.2133 52.454 61.652C52.2206 62.0813 52.104 62.5807 52.104 63.15C52.104 63.7287 52.2206 64.2373 52.454 64.676C52.6966 65.1053 53.014 65.4367 53.406 65.67C53.8073 65.894 54.2413 66.006 54.708 66.006C55.184 66.006 55.618 65.894 56.01 65.67C56.4113 65.4367 56.7286 65.1053 56.962 64.676C57.1953 64.2373 57.312 63.724 57.312 63.136ZM61.5649 60.742C61.8169 60.3033 62.1902 59.9393 62.6849 59.65C63.1889 59.3513 63.7722 59.202 64.4349 59.202C65.1162 59.202 65.7322 59.3653 66.2829 59.692C66.8429 60.0187 67.2816 60.4807 67.5989 61.078C67.9162 61.666 68.0749 62.352 68.0749 63.136C68.0749 63.9107 67.9162 64.6013 67.5989 65.208C67.2816 65.8147 66.8429 66.286 66.2829 66.622C65.7322 66.958 65.1162 67.126 64.4349 67.126C63.7816 67.126 63.2029 66.9813 62.6989 66.692C62.2042 66.3933 61.8262 66.0247 61.5649 65.586V70.64H60.2909V59.328H61.5649V60.742ZM66.7729 63.136C66.7729 62.5573 66.6562 62.0533 66.4229 61.624C66.1896 61.1947 65.8722 60.868 65.4709 60.644C65.0789 60.42 64.6449 60.308 64.1689 60.308C63.7022 60.308 63.2682 60.4247 62.8669 60.658C62.4749 60.882 62.1576 61.2133 61.9149 61.652C61.6816 62.0813 61.5649 62.5807 61.5649 63.15C61.5649 63.7287 61.6816 64.2373 61.9149 64.676C62.1576 65.1053 62.4749 65.4367 62.8669 65.67C63.2682 65.894 63.7022 66.006 64.1689 66.006C64.6449 66.006 65.0789 65.894 65.4709 65.67C65.8722 65.4367 66.1896 65.1053 66.4229 64.676C66.6562 64.2373 66.7729 63.724 66.7729 63.136ZM71.0258 56.64V67H69.7518V56.64H71.0258ZM73.8551 58.082C73.6125 58.082 73.4071 57.998 73.2391 57.83C73.0711 57.662 72.9871 57.4567 72.9871 57.214C72.9871 56.9713 73.0711 56.766 73.2391 56.598C73.4071 56.43 73.6125 56.346 73.8551 56.346C74.0885 56.346 74.2845 56.43 74.4431 56.598C74.6111 56.766 74.6951 56.9713 74.6951 57.214C74.6951 57.4567 74.6111 57.662 74.4431 57.83C74.2845 57.998 74.0885 58.082 73.8551 58.082ZM74.4711 59.328V67H73.1971V59.328H74.4711ZM83.6425 62.87C83.6425 63.1127 83.6285 63.3693 83.6005 63.64H77.4685C77.5151 64.396 77.7718 64.9887 78.2385 65.418C78.7145 65.838 79.2885 66.048 79.9605 66.048C80.5111 66.048 80.9685 65.922 81.3325 65.67C81.7058 65.4087 81.9671 65.0633 82.1165 64.634H83.4885C83.2831 65.3713 82.8725 65.9733 82.2565 66.44C81.6405 66.8973 80.8751 67.126 79.9605 67.126C79.2325 67.126 78.5791 66.9627 78.0005 66.636C77.4311 66.3093 76.9831 65.8473 76.6565 65.25C76.3298 64.6433 76.1665 63.9433 76.1665 63.15C76.1665 62.3567 76.3251 61.6613 76.6425 61.064C76.9598 60.4667 77.4031 60.0093 77.9725 59.692C78.5511 59.3653 79.2138 59.202 79.9605 59.202C80.6885 59.202 81.3325 59.3607 81.8925 59.678C82.4525 59.9953 82.8818 60.434 83.1805 60.994C83.4885 61.5447 83.6425 62.17 83.6425 62.87ZM82.3265 62.604C82.3265 62.1187 82.2191 61.7033 82.0045 61.358C81.7898 61.0033 81.4958 60.7373 81.1225 60.56C80.7585 60.3733 80.3525 60.28 79.9045 60.28C79.2605 60.28 78.7098 60.4853 78.2525 60.896C77.8045 61.3067 77.5478 61.876 77.4825 62.604H82.3265ZM84.8481 63.136C84.8481 62.352 85.0068 61.666 85.3241 61.078C85.6414 60.4807 86.0754 60.0187 86.6261 59.692C87.1861 59.3653 87.8114 59.202 88.5021 59.202C89.0994 59.202 89.6548 59.342 90.1681 59.622C90.6814 59.8927 91.0734 60.252 91.3441 60.7V56.64H92.6321V67H91.3441V65.558C91.0921 66.0153 90.7188 66.3933 90.2241 66.692C89.7294 66.9813 89.1508 67.126 88.4881 67.126C87.8068 67.126 87.1861 66.958 86.6261 66.622C86.0754 66.286 85.6414 65.8147 85.3241 65.208C85.0068 64.6013 84.8481 63.9107 84.8481 63.136ZM91.3441 63.15C91.3441 62.5713 91.2274 62.0673 90.9941 61.638C90.7608 61.2087 90.4434 60.882 90.0421 60.658C89.6501 60.4247 89.2161 60.308 88.7401 60.308C88.2641 60.308 87.8301 60.42 87.4381 60.644C87.0461 60.868 86.7334 61.1947 86.5001 61.624C86.2668 62.0533 86.1501 62.5573 86.1501 63.136C86.1501 63.724 86.2668 64.2373 86.5001 64.676C86.7334 65.1053 87.0461 65.4367 87.4381 65.67C87.8301 65.894 88.2641 66.006 88.7401 66.006C89.2161 66.006 89.6501 65.894 90.0421 65.67C90.4434 65.4367 90.7608 65.1053 90.9941 64.676C91.2274 64.2373 91.3441 63.7287 91.3441 63.15ZM108.737 59.328L106.343 67H105.027L103.179 60.91L101.331 67H100.015L97.6075 59.328H98.9095L100.673 65.768L102.577 59.328H103.879L105.741 65.782L107.477 59.328H108.737ZM113.81 59.188C114.388 59.188 114.911 59.314 115.378 59.566C115.844 59.8087 116.208 60.1773 116.47 60.672C116.74 61.1667 116.876 61.7687 116.876 62.478V67H115.616V62.66C115.616 61.8947 115.424 61.3113 115.042 60.91C114.659 60.4993 114.136 60.294 113.474 60.294C112.802 60.294 112.265 60.504 111.864 60.924C111.472 61.344 111.276 61.9553 111.276 62.758V67H110.002V56.64H111.276V60.42C111.528 60.028 111.873 59.7247 112.312 59.51C112.76 59.2953 113.259 59.188 113.81 59.188ZM125.957 62.87C125.957 63.1127 125.943 63.3693 125.915 63.64H119.783C119.83 64.396 120.086 64.9887 120.553 65.418C121.029 65.838 121.603 66.048 122.275 66.048C122.826 66.048 123.283 65.922 123.647 65.67C124.02 65.4087 124.282 65.0633 124.431 64.634H125.803C125.598 65.3713 125.187 65.9733 124.571 66.44C123.955 66.8973 123.19 67.126 122.275 67.126C121.547 67.126 120.894 66.9627 120.315 66.636C119.746 66.3093 119.298 65.8473 118.971 65.25C118.644 64.6433 118.481 63.9433 118.481 63.15C118.481 62.3567 118.64 61.6613 118.957 61.064C119.274 60.4667 119.718 60.0093 120.287 59.692C120.866 59.3653 121.528 59.202 122.275 59.202C123.003 59.202 123.647 59.3607 124.207 59.678C124.767 59.9953 125.196 60.434 125.495 60.994C125.803 61.5447 125.957 62.17 125.957 62.87ZM124.641 62.604C124.641 62.1187 124.534 61.7033 124.319 61.358C124.104 61.0033 123.81 60.7373 123.437 60.56C123.073 60.3733 122.667 60.28 122.219 60.28C121.575 60.28 121.024 60.4853 120.567 60.896C120.119 61.3067 119.862 61.876 119.797 62.604H124.641ZM128.913 60.574C129.137 60.1353 129.454 59.7947 129.865 59.552C130.285 59.3093 130.793 59.188 131.391 59.188V60.504H131.055C129.627 60.504 128.913 61.2787 128.913 62.828V67H127.639V59.328H128.913V60.574ZM139.861 62.87C139.861 63.1127 139.847 63.3693 139.819 63.64H133.687C133.734 64.396 133.991 64.9887 134.457 65.418C134.933 65.838 135.507 66.048 136.179 66.048C136.73 66.048 137.187 65.922 137.551 65.67C137.925 65.4087 138.186 65.0633 138.335 64.634H139.707C139.502 65.3713 139.091 65.9733 138.475 66.44C137.859 66.8973 137.094 67.126 136.179 67.126C135.451 67.126 134.798 66.9627 134.219 66.636C133.65 66.3093 133.202 65.8473 132.875 65.25C132.549 64.6433 132.385 63.9433 132.385 63.15C132.385 62.3567 132.544 61.6613 132.861 61.064C133.179 60.4667 133.622 60.0093 134.191 59.692C134.77 59.3653 135.433 59.202 136.179 59.202C136.907 59.202 137.551 59.3607 138.111 59.678C138.671 59.9953 139.101 60.434 139.399 60.994C139.707 61.5447 139.861 62.17 139.861 62.87ZM138.545 62.604C138.545 62.1187 138.438 61.7033 138.223 61.358C138.009 61.0033 137.715 60.7373 137.341 60.56C136.977 60.3733 136.571 60.28 136.123 60.28C135.479 60.28 134.929 60.4853 134.471 60.896C134.023 61.3067 133.767 61.876 133.701 62.604H138.545ZM145.933 58.082C145.691 58.082 145.485 57.998 145.317 57.83C145.149 57.662 145.065 57.4567 145.065 57.214C145.065 56.9713 145.149 56.766 145.317 56.598C145.485 56.43 145.691 56.346 145.933 56.346C146.167 56.346 146.363 56.43 146.521 56.598C146.689 56.766 146.773 56.9713 146.773 57.214C146.773 57.4567 146.689 57.662 146.521 57.83C146.363 57.998 146.167 58.082 145.933 58.082ZM146.549 59.328V67H145.275V59.328H146.549ZM150.275 60.378V64.9C150.275 65.2733 150.354 65.5393 150.513 65.698C150.671 65.8473 150.947 65.922 151.339 65.922H152.277V67H151.129C150.419 67 149.887 66.8367 149.533 66.51C149.178 66.1833 149.001 65.6467 149.001 64.9V60.378H148.007V59.328H149.001V57.396H150.275V59.328H152.277V60.378H150.275ZM158.211 58.082C157.968 58.082 157.763 57.998 157.595 57.83C157.427 57.662 157.343 57.4567 157.343 57.214C157.343 56.9713 157.427 56.766 157.595 56.598C157.763 56.43 157.968 56.346 158.211 56.346C158.444 56.346 158.64 56.43 158.799 56.598C158.967 56.766 159.051 56.9713 159.051 57.214C159.051 57.4567 158.967 57.662 158.799 57.83C158.64 57.998 158.444 58.082 158.211 58.082ZM158.827 59.328V67H157.553V59.328H158.827ZM163.714 67.126C163.126 67.126 162.599 67.028 162.132 66.832C161.665 66.6267 161.297 66.3467 161.026 65.992C160.755 65.628 160.606 65.2127 160.578 64.746H161.894C161.931 65.1287 162.109 65.4413 162.426 65.684C162.753 65.9267 163.177 66.048 163.7 66.048C164.185 66.048 164.568 65.9407 164.848 65.726C165.128 65.5113 165.268 65.2407 165.268 64.914C165.268 64.578 165.119 64.3307 164.82 64.172C164.521 64.004 164.059 63.8407 163.434 63.682C162.865 63.5327 162.398 63.3833 162.034 63.234C161.679 63.0753 161.371 62.8467 161.11 62.548C160.858 62.24 160.732 61.8387 160.732 61.344C160.732 60.952 160.849 60.5927 161.082 60.266C161.315 59.9393 161.647 59.6827 162.076 59.496C162.505 59.3 162.995 59.202 163.546 59.202C164.395 59.202 165.081 59.4167 165.604 59.846C166.127 60.2753 166.407 60.8633 166.444 61.61H165.17C165.142 61.2087 164.979 60.8867 164.68 60.644C164.391 60.4013 163.999 60.28 163.504 60.28C163.047 60.28 162.683 60.378 162.412 60.574C162.141 60.77 162.006 61.0267 162.006 61.344C162.006 61.596 162.085 61.806 162.244 61.974C162.412 62.1327 162.617 62.2633 162.86 62.366C163.112 62.4593 163.457 62.5667 163.896 62.688C164.447 62.8373 164.895 62.9867 165.24 63.136C165.585 63.276 165.879 63.4907 166.122 63.78C166.374 64.0693 166.505 64.4473 166.514 64.914C166.514 65.334 166.397 65.712 166.164 66.048C165.931 66.384 165.599 66.65 165.17 66.846C164.75 67.0327 164.265 67.126 163.714 67.126ZM175.783 59.188C176.716 59.188 177.472 59.4727 178.051 60.042C178.629 60.602 178.919 61.414 178.919 62.478V67H177.659V62.66C177.659 61.8947 177.467 61.3113 177.085 60.91C176.702 60.4993 176.179 60.294 175.517 60.294C174.845 60.294 174.308 60.504 173.907 60.924C173.515 61.344 173.319 61.9553 173.319 62.758V67H172.045V59.328H173.319V60.42C173.571 60.028 173.911 59.7247 174.341 59.51C174.779 59.2953 175.26 59.188 175.783 59.188ZM188 62.87C188 63.1127 187.986 63.3693 187.958 63.64H181.826C181.873 64.396 182.129 64.9887 182.596 65.418C183.072 65.838 183.646 66.048 184.318 66.048C184.869 66.048 185.326 65.922 185.69 65.67C186.063 65.4087 186.325 65.0633 186.474 64.634H187.846C187.641 65.3713 187.23 65.9733 186.614 66.44C185.998 66.8973 185.233 67.126 184.318 67.126C183.59 67.126 182.937 66.9627 182.358 66.636C181.789 66.3093 181.341 65.8473 181.014 65.25C180.687 64.6433 180.524 63.9433 180.524 63.15C180.524 62.3567 180.683 61.6613 181 61.064C181.317 60.4667 181.761 60.0093 182.33 59.692C182.909 59.3653 183.571 59.202 184.318 59.202C185.046 59.202 185.69 59.3607 186.25 59.678C186.81 59.9953 187.239 60.434 187.538 60.994C187.846 61.5447 188 62.17 188 62.87ZM186.684 62.604C186.684 62.1187 186.577 61.7033 186.362 61.358C186.147 61.0033 185.853 60.7373 185.48 60.56C185.116 60.3733 184.71 60.28 184.262 60.28C183.618 60.28 183.067 60.4853 182.61 60.896C182.162 61.3067 181.905 61.876 181.84 62.604H186.684ZM196.682 62.87C196.682 63.1127 196.668 63.3693 196.64 63.64H190.508C190.554 64.396 190.811 64.9887 191.278 65.418C191.754 65.838 192.328 66.048 193 66.048C193.55 66.048 194.008 65.922 194.372 65.67C194.745 65.4087 195.006 65.0633 195.156 64.634H196.528C196.322 65.3713 195.912 65.9733 195.296 66.44C194.68 66.8973 193.914 67.126 193 67.126C192.272 67.126 191.618 66.9627 191.04 66.636C190.47 66.3093 190.022 65.8473 189.696 65.25C189.369 64.6433 189.206 63.9433 189.206 63.15C189.206 62.3567 189.364 61.6613 189.682 61.064C189.999 60.4667 190.442 60.0093 191.012 59.692C191.59 59.3653 192.253 59.202 193 59.202C193.728 59.202 194.372 59.3607 194.932 59.678C195.492 59.9953 195.921 60.434 196.22 60.994C196.528 61.5447 196.682 62.17 196.682 62.87ZM195.366 62.604C195.366 62.1187 195.258 61.7033 195.044 61.358C194.829 61.0033 194.535 60.7373 194.162 60.56C193.798 60.3733 193.392 60.28 192.944 60.28C192.3 60.28 191.749 60.4853 191.292 60.896C190.844 61.3067 190.587 61.876 190.522 62.604H195.366ZM197.887 63.136C197.887 62.352 198.046 61.666 198.363 61.078C198.68 60.4807 199.114 60.0187 199.665 59.692C200.225 59.3653 200.85 59.202 201.541 59.202C202.138 59.202 202.694 59.342 203.207 59.622C203.72 59.8927 204.112 60.252 204.383 60.7V56.64H205.671V67H204.383V65.558C204.131 66.0153 203.758 66.3933 203.263 66.692C202.768 66.9813 202.19 67.126 201.527 67.126C200.846 67.126 200.225 66.958 199.665 66.622C199.114 66.286 198.68 65.8147 198.363 65.208C198.046 64.6013 197.887 63.9107 197.887 63.136ZM204.383 63.15C204.383 62.5713 204.266 62.0673 204.033 61.638C203.8 61.2087 203.482 60.882 203.081 60.658C202.689 60.4247 202.255 60.308 201.779 60.308C201.303 60.308 200.869 60.42 200.477 60.644C200.085 60.868 199.772 61.1947 199.539 61.624C199.306 62.0533 199.189 62.5573 199.189 63.136C199.189 63.724 199.306 64.2373 199.539 64.676C199.772 65.1053 200.085 65.4367 200.477 65.67C200.869 65.894 201.303 66.006 201.779 66.006C202.255 66.006 202.689 65.894 203.081 65.67C203.482 65.4367 203.8 65.1053 204.033 64.676C204.266 64.2373 204.383 63.7287 204.383 63.15ZM214.824 62.87C214.824 63.1127 214.81 63.3693 214.782 63.64H208.65C208.697 64.396 208.953 64.9887 209.42 65.418C209.896 65.838 210.47 66.048 211.142 66.048C211.693 66.048 212.15 65.922 212.514 65.67C212.887 65.4087 213.149 65.0633 213.298 64.634H214.67C214.465 65.3713 214.054 65.9733 213.438 66.44C212.822 66.8973 212.057 67.126 211.142 67.126C210.414 67.126 209.761 66.9627 209.182 66.636C208.613 66.3093 208.165 65.8473 207.838 65.25C207.511 64.6433 207.348 63.9433 207.348 63.15C207.348 62.3567 207.507 61.6613 207.824 61.064C208.141 60.4667 208.585 60.0093 209.154 59.692C209.733 59.3653 210.395 59.202 211.142 59.202C211.87 59.202 212.514 59.3607 213.074 59.678C213.634 59.9953 214.063 60.434 214.362 60.994C214.67 61.5447 214.824 62.17 214.824 62.87ZM213.508 62.604C213.508 62.1187 213.401 61.7033 213.186 61.358C212.971 61.0033 212.677 60.7373 212.304 60.56C211.94 60.3733 211.534 60.28 211.086 60.28C210.442 60.28 209.891 60.4853 209.434 60.896C208.986 61.3067 208.729 61.876 208.664 62.604H213.508ZM216.03 63.136C216.03 62.352 216.188 61.666 216.506 61.078C216.823 60.4807 217.257 60.0187 217.808 59.692C218.368 59.3653 218.993 59.202 219.684 59.202C220.281 59.202 220.836 59.342 221.35 59.622C221.863 59.8927 222.255 60.252 222.526 60.7V56.64H223.814V67H222.526V65.558C222.274 66.0153 221.9 66.3933 221.406 66.692C220.911 66.9813 220.332 67.126 219.67 67.126C218.988 67.126 218.368 66.958 217.808 66.622C217.257 66.286 216.823 65.8147 216.506 65.208C216.188 64.6013 216.03 63.9107 216.03 63.136ZM222.526 63.15C222.526 62.5713 222.409 62.0673 222.176 61.638C221.942 61.2087 221.625 60.882 221.224 60.658C220.832 60.4247 220.398 60.308 219.922 60.308C219.446 60.308 219.012 60.42 218.62 60.644C218.228 60.868 217.915 61.1947 217.682 61.624C217.448 62.0533 217.332 62.5573 217.332 63.136C217.332 63.724 217.448 64.2373 217.682 64.676C217.915 65.1053 218.228 65.4367 218.62 65.67C219.012 65.894 219.446 66.006 219.922 66.006C220.398 66.006 220.832 65.894 221.224 65.67C221.625 65.4367 221.942 65.1053 222.176 64.676C222.409 64.2373 222.526 63.7287 222.526 63.15ZM238.925 59.188C239.522 59.188 240.054 59.314 240.521 59.566C240.988 59.8087 241.356 60.1773 241.627 60.672C241.898 61.1667 242.033 61.7687 242.033 62.478V67H240.773V62.66C240.773 61.8947 240.582 61.3113 240.199 60.91C239.826 60.4993 239.317 60.294 238.673 60.294C238.01 60.294 237.483 60.5087 237.091 60.938C236.699 61.358 236.503 61.9693 236.503 62.772V67H235.243V62.66C235.243 61.8947 235.052 61.3113 234.669 60.91C234.296 60.4993 233.787 60.294 233.143 60.294C232.48 60.294 231.953 60.5087 231.561 60.938C231.169 61.358 230.973 61.9693 230.973 62.772V67H229.699V59.328H230.973V60.434C231.225 60.0327 231.561 59.7247 231.981 59.51C232.41 59.2953 232.882 59.188 233.395 59.188C234.039 59.188 234.608 59.3327 235.103 59.622C235.598 59.9113 235.966 60.336 236.209 60.896C236.424 60.3547 236.778 59.9347 237.273 59.636C237.768 59.3373 238.318 59.188 238.925 59.188ZM247.469 67.126C246.75 67.126 246.097 66.9627 245.509 66.636C244.93 66.3093 244.473 65.8473 244.137 65.25C243.81 64.6433 243.647 63.9433 243.647 63.15C243.647 62.366 243.815 61.6753 244.151 61.078C244.496 60.4713 244.963 60.0093 245.551 59.692C246.139 59.3653 246.797 59.202 247.525 59.202C248.253 59.202 248.911 59.3653 249.499 59.692C250.087 60.0093 250.549 60.4667 250.885 61.064C251.23 61.6613 251.403 62.3567 251.403 63.15C251.403 63.9433 251.226 64.6433 250.871 65.25C250.526 65.8473 250.054 66.3093 249.457 66.636C248.86 66.9627 248.197 67.126 247.469 67.126ZM247.469 66.006C247.926 66.006 248.356 65.8987 248.757 65.684C249.158 65.4693 249.48 65.1473 249.723 64.718C249.975 64.2887 250.101 63.766 250.101 63.15C250.101 62.534 249.98 62.0113 249.737 61.582C249.494 61.1527 249.177 60.8353 248.785 60.63C248.393 60.4153 247.968 60.308 247.511 60.308C247.044 60.308 246.615 60.4153 246.223 60.63C245.84 60.8353 245.532 61.1527 245.299 61.582C245.066 62.0113 244.949 62.534 244.949 63.15C244.949 63.7753 245.061 64.3027 245.285 64.732C245.518 65.1613 245.826 65.4833 246.209 65.698C246.592 65.9033 247.012 66.006 247.469 66.006ZM255.794 67.126C255.206 67.126 254.679 67.028 254.212 66.832C253.745 66.6267 253.377 66.3467 253.106 65.992C252.835 65.628 252.686 65.2127 252.658 64.746H253.974C254.011 65.1287 254.189 65.4413 254.506 65.684C254.833 65.9267 255.257 66.048 255.78 66.048C256.265 66.048 256.648 65.9407 256.928 65.726C257.208 65.5113 257.348 65.2407 257.348 64.914C257.348 64.578 257.199 64.3307 256.9 64.172C256.601 64.004 256.139 63.8407 255.514 63.682C254.945 63.5327 254.478 63.3833 254.114 63.234C253.759 63.0753 253.451 62.8467 253.19 62.548C252.938 62.24 252.812 61.8387 252.812 61.344C252.812 60.952 252.929 60.5927 253.162 60.266C253.395 59.9393 253.727 59.6827 254.156 59.496C254.585 59.3 255.075 59.202 255.626 59.202C256.475 59.202 257.161 59.4167 257.684 59.846C258.207 60.2753 258.487 60.8633 258.524 61.61H257.25C257.222 61.2087 257.059 60.8867 256.76 60.644C256.471 60.4013 256.079 60.28 255.584 60.28C255.127 60.28 254.763 60.378 254.492 60.574C254.221 60.77 254.086 61.0267 254.086 61.344C254.086 61.596 254.165 61.806 254.324 61.974C254.492 62.1327 254.697 62.2633 254.94 62.366C255.192 62.4593 255.537 62.5667 255.976 62.688C256.527 62.8373 256.975 62.9867 257.32 63.136C257.665 63.276 257.959 63.4907 258.202 63.78C258.454 64.0693 258.585 64.4473 258.594 64.914C258.594 65.334 258.477 65.712 258.244 66.048C258.011 66.384 257.679 66.65 257.25 66.846C256.83 67.0327 256.345 67.126 255.794 67.126ZM261.946 60.378V64.9C261.946 65.2733 262.026 65.5393 262.184 65.698C262.343 65.8473 262.618 65.922 263.01 65.922H263.948V67H262.8C262.091 67 261.559 66.8367 261.204 66.51C260.85 66.1833 260.672 65.6467 260.672 64.9V60.378H259.678V59.328H260.672V57.396H261.946V59.328H263.948V60.378H261.946ZM267.144 57.242L266.99 64.242H265.926L265.772 57.242H267.144ZM266.514 67.084C266.271 67.084 266.066 67 265.898 66.832C265.73 66.664 265.646 66.4587 265.646 66.216C265.646 65.9733 265.73 65.768 265.898 65.6C266.066 65.432 266.271 65.348 266.514 65.348C266.747 65.348 266.943 65.432 267.102 65.6C267.27 65.768 267.354 65.9733 267.354 66.216C267.354 66.4587 267.27 66.664 267.102 66.832C266.943 67 266.747 67.084 266.514 67.084Z" fill="#9E9E9E"/>
</svg>
