<svg width="64" height="16" viewBox="0 0 64 16" fill="none" xmlns="http://www.w3.org/2000/svg">
<path d="M7.34047 15.14C6.0338 15.14 4.8338 14.8333 3.74047 14.22C2.64714 13.6067 1.78047 12.76 1.14047 11.68C0.500469 10.5867 0.180469 9.35333 0.180469 7.98C0.180469 6.62 0.500469 5.4 1.14047 4.32C1.78047 3.22667 2.64714 2.37333 3.74047 1.76C4.8338 1.14667 6.0338 0.84 7.34047 0.84C8.66047 0.84 9.86047 1.14667 10.9405 1.76C12.0338 2.37333 12.8938 3.22667 13.5205 4.32C14.1605 5.4 14.4805 6.62 14.4805 7.98C14.4805 9.35333 14.1605 10.5867 13.5205 11.68C12.8938 12.76 12.0338 13.6067 10.9405 14.22C9.84714 14.8333 8.64714 15.14 7.34047 15.14ZM7.34047 12.64C8.18047 12.64 8.92047 12.4533 9.56047 12.08C10.2005 11.6933 10.7005 11.1467 11.0605 10.44C11.4205 9.73333 11.6005 8.91333 11.6005 7.98C11.6005 7.04667 11.4205 6.23333 11.0605 5.54C10.7005 4.83333 10.2005 4.29333 9.56047 3.92C8.92047 3.54667 8.18047 3.36 7.34047 3.36C6.50047 3.36 5.7538 3.54667 5.10047 3.92C4.46047 4.29333 3.96047 4.83333 3.60047 5.54C3.24047 6.23333 3.06047 7.04667 3.06047 7.98C3.06047 8.91333 3.24047 9.73333 3.60047 10.44C3.96047 11.1467 4.46047 11.6933 5.10047 12.08C5.7538 12.4533 6.50047 12.64 7.34047 12.64ZM26.0636 1.04V3.3H22.3436V15H19.5436V3.3H15.8236V1.04H26.0636ZM39.6866 1.04V15H36.8866V9.06H30.9066V15H28.1066V1.04H30.9066V6.78H36.8866V1.04H39.6866ZM45.2425 3.3V6.8H49.9425V9.02H45.2425V12.72H50.5425V15H42.4425V1.02H50.5425V3.3H45.2425ZM60.287 15L57.207 9.56H55.887V15H53.087V1.04H58.327C59.407 1.04 60.327 1.23333 61.087 1.62C61.847 1.99333 62.4137 2.50667 62.787 3.16C63.1737 3.8 63.367 4.52 63.367 5.32C63.367 6.24 63.1004 7.07333 62.567 7.82C62.0337 8.55333 61.2404 9.06 60.187 9.34L63.527 15H60.287ZM55.887 7.46H58.227C58.987 7.46 59.5537 7.28 59.927 6.92C60.3004 6.54667 60.487 6.03333 60.487 5.38C60.487 4.74 60.3004 4.24667 59.927 3.9C59.5537 3.54 58.987 3.36 58.227 3.36H55.887V7.46Z" fill="white"/>
</svg>
