<svg width="361" height="170" viewBox="0 0 361 170" fill="none" xmlns="http://www.w3.org/2000/svg">
<path d="M15.7514 46.3334C13.4334 46.3334 11.3377 45.9365 9.46434 45.1427C7.62269 44.3489 6.16207 43.2058 5.08248 41.7134C4.00289 40.221 3.44722 38.4588 3.41547 36.4266H10.5598C10.6551 37.792 11.1313 38.8715 11.9887 39.6654C12.8777 40.4592 14.0843 40.8561 15.6085 40.8561C17.1643 40.8561 18.3868 40.4909 19.2759 39.7606C20.165 38.9986 20.6095 38.0142 20.6095 36.8076C20.6095 35.8233 20.3078 35.0136 19.7045 34.3786C19.1012 33.7435 18.3392 33.2513 17.4184 32.9021C16.5293 32.521 15.2909 32.1082 13.7033 31.6637C11.5441 31.0287 9.78186 30.4095 8.4165 29.8062C7.08289 29.1711 5.92392 28.2344 4.93959 26.9961C3.98702 25.726 3.51073 24.0431 3.51073 21.9474C3.51073 19.9788 4.00289 18.2641 4.98722 16.8035C5.97155 15.3429 7.35279 14.2315 9.13094 13.4695C10.9091 12.6757 12.9412 12.2788 15.2274 12.2788C18.6567 12.2788 21.4351 13.1202 23.5625 14.8031C25.7217 16.4542 26.9124 18.7722 27.1347 21.7569H19.7998C19.7363 20.6138 19.2441 19.6771 18.3233 18.9468C17.4342 18.1847 16.2435 17.8037 14.7511 17.8037C13.4493 17.8037 12.4015 18.1371 11.6076 18.8039C10.8456 19.4707 10.4645 20.4392 10.4645 21.7093C10.4645 22.5983 10.7503 23.3445 11.3219 23.9478C11.9252 24.5194 12.6555 24.9957 13.5128 25.3767C14.4019 25.726 15.6402 26.1388 17.2278 26.615C19.387 27.2501 21.1493 27.8851 22.5147 28.5202C23.88 29.1553 25.0549 30.1078 26.0392 31.3779C27.0235 32.648 27.5157 34.315 27.5157 36.379C27.5157 38.1571 27.0553 39.8082 26.1344 41.3324C25.2136 42.8565 23.8641 44.079 22.086 44.9998C20.3078 45.8889 18.1963 46.3334 15.7514 46.3334ZM36.6783 16.4701C35.5034 16.4701 34.5191 16.1049 33.7253 15.3746C32.9632 14.6126 32.5822 13.6759 32.5822 12.5645C32.5822 11.4532 32.9632 10.5324 33.7253 9.80205C34.5191 9.03998 35.5034 8.65895 36.6783 8.65895C37.8531 8.65895 38.8216 9.03998 39.5837 9.80205C40.3775 10.5324 40.7744 11.4532 40.7744 12.5645C40.7744 13.6759 40.3775 14.6126 39.5837 15.3746C38.8216 16.1049 37.8531 16.4701 36.6783 16.4701ZM39.9647 19.6136V46H33.2966V19.6136H39.9647ZM54.3162 25.0909V37.8555C54.3162 38.7445 54.5226 39.3955 54.9354 39.8082C55.3799 40.1893 56.1103 40.3798 57.1263 40.3798H60.2222V46H56.0309C50.4107 46 47.6006 43.2693 47.6006 37.8078V25.0909H44.4571V19.6136H47.6006V13.0884H54.3162V19.6136H60.2222V25.0909H54.3162ZM89.5471 32.2353C89.5471 33.1878 89.4836 34.0451 89.3566 34.8072H70.0669C70.2256 36.7124 70.8924 38.2047 72.0673 39.2843C73.2421 40.3639 74.6869 40.9037 76.4015 40.9037C78.8782 40.9037 80.6405 39.84 81.6883 37.7126H88.8803C88.1182 40.2528 86.6576 42.3485 84.4984 43.9996C82.3393 45.619 79.6879 46.4287 76.5444 46.4287C74.0042 46.4287 71.718 45.873 69.6859 44.7616C67.6854 43.6186 66.1137 42.015 64.9706 39.9511C63.8593 37.8872 63.3036 35.5058 63.3036 32.8068C63.3036 30.0761 63.8593 27.6788 64.9706 25.6148C66.0819 23.5509 67.6378 21.9633 69.6382 20.8519C71.6386 19.7406 73.9407 19.1849 76.5444 19.1849C79.0529 19.1849 81.2914 19.7247 83.2601 20.8043C85.2605 21.8839 86.8005 23.4239 87.8801 25.4243C88.9914 27.393 89.5471 29.6633 89.5471 32.2353ZM82.6409 30.3301C82.6092 28.6155 81.99 27.2501 80.7834 26.234C79.5768 25.1862 78.1003 24.6623 76.3539 24.6623C74.7028 24.6623 73.3056 25.1703 72.1626 26.1864C71.0512 27.1707 70.3685 28.552 70.1145 30.3301H82.6409ZM112.431 12.755V46H105.763V12.755H112.431ZM133.641 19.2326C136.785 19.2326 139.325 20.2328 141.262 22.2332C143.199 24.2018 144.167 26.9643 144.167 30.5206V46H137.499V31.4256C137.499 29.3299 136.975 27.7264 135.928 26.615C134.88 25.472 133.451 24.9004 131.641 24.9004C129.799 24.9004 128.339 25.472 127.259 26.615C126.211 27.7264 125.687 29.3299 125.687 31.4256V46H119.019V19.6136H125.687V22.9C126.576 21.7569 127.704 20.8678 129.069 20.2328C130.466 19.566 131.99 19.2326 133.641 19.2326ZM162.606 25.0909H157.986V46H151.223V25.0909H148.222V19.6136H151.223V18.28C151.223 15.0412 152.144 12.6598 153.985 11.1357C155.827 9.61153 158.605 8.8971 162.32 8.99236V14.6126C160.701 14.5808 159.574 14.8507 158.939 15.4223C158.304 15.9938 157.986 17.0258 157.986 18.5181V19.6136H162.606V25.0909ZM178.644 46.4287C176.104 46.4287 173.818 45.873 171.785 44.7616C169.753 43.6186 168.15 42.015 166.975 39.9511C165.832 37.8872 165.26 35.5058 165.26 32.8068C165.26 30.1078 165.848 27.7264 167.023 25.6625C168.229 23.5985 169.864 22.0109 171.928 20.8996C173.992 19.7565 176.294 19.1849 178.835 19.1849C181.375 19.1849 183.677 19.7565 185.741 20.8996C187.805 22.0109 189.424 23.5985 190.599 25.6625C191.805 27.7264 192.409 30.1078 192.409 32.8068C192.409 35.5058 191.79 37.8872 190.551 39.9511C189.345 42.015 187.693 43.6186 185.598 44.7616C183.534 45.873 181.216 46.4287 178.644 46.4287ZM178.644 40.6179C179.851 40.6179 180.978 40.3322 182.026 39.7606C183.105 39.1573 183.963 38.2682 184.598 37.0934C185.233 35.9186 185.55 34.4897 185.55 32.8068C185.55 30.2983 184.883 28.3773 183.55 27.0437C182.248 25.6783 180.644 24.9957 178.739 24.9957C176.834 24.9957 175.231 25.6783 173.929 27.0437C172.659 28.3773 172.024 30.2983 172.024 32.8068C172.024 35.3153 172.643 37.2522 173.881 38.6175C175.151 39.9511 176.739 40.6179 178.644 40.6179Z" fill="white"/>
<path d="M9.084 96.242V97.278H6.424V106H5.15V97.278H2.476V96.242H9.084ZM14.4602 98.188C15.0389 98.188 15.5616 98.314 16.0282 98.566C16.4949 98.8087 16.8589 99.1773 17.1202 99.672C17.3909 100.167 17.5262 100.769 17.5262 101.478V106H16.2662V101.66C16.2662 100.895 16.0749 100.311 15.6922 99.91C15.3096 99.4993 14.7869 99.294 14.1242 99.294C13.4522 99.294 12.9156 99.504 12.5142 99.924C12.1222 100.344 11.9262 100.955 11.9262 101.758V106H10.6522V95.64H11.9262V99.42C12.1782 99.028 12.5236 98.7247 12.9622 98.51C13.4102 98.2953 13.9096 98.188 14.4602 98.188ZM26.6073 101.87C26.6073 102.113 26.5933 102.369 26.5653 102.64H20.4333C20.48 103.396 20.7366 103.989 21.2033 104.418C21.6793 104.838 22.2533 105.048 22.9253 105.048C23.476 105.048 23.9333 104.922 24.2973 104.67C24.6706 104.409 24.932 104.063 25.0813 103.634H26.4533C26.248 104.371 25.8373 104.973 25.2213 105.44C24.6053 105.897 23.84 106.126 22.9253 106.126C22.1973 106.126 21.544 105.963 20.9653 105.636C20.396 105.309 19.948 104.847 19.6213 104.25C19.2946 103.643 19.1313 102.943 19.1313 102.15C19.1313 101.357 19.29 100.661 19.6073 100.064C19.9246 99.4667 20.368 99.0093 20.9373 98.692C21.516 98.3653 22.1786 98.202 22.9253 98.202C23.6533 98.202 24.2973 98.3607 24.8573 98.678C25.4173 98.9953 25.8466 99.434 26.1453 99.994C26.4533 100.545 26.6073 101.17 26.6073 101.87ZM25.2913 101.604C25.2913 101.119 25.184 100.703 24.9693 100.358C24.7546 100.003 24.4606 99.7373 24.0873 99.56C23.7233 99.3733 23.3173 99.28 22.8693 99.28C22.2253 99.28 21.6746 99.4853 21.2173 99.896C20.7693 100.307 20.5126 100.876 20.4473 101.604H25.2913ZM39.0214 101.87C39.0214 102.113 39.0074 102.369 38.9794 102.64H32.8474C32.894 103.396 33.1507 103.989 33.6174 104.418C34.0934 104.838 34.6674 105.048 35.3394 105.048C35.89 105.048 36.3474 104.922 36.7114 104.67C37.0847 104.409 37.346 104.063 37.4954 103.634H38.8674C38.662 104.371 38.2514 104.973 37.6354 105.44C37.0194 105.897 36.254 106.126 35.3394 106.126C34.6114 106.126 33.958 105.963 33.3794 105.636C32.81 105.309 32.362 104.847 32.0354 104.25C31.7087 103.643 31.5454 102.943 31.5454 102.15C31.5454 101.357 31.704 100.661 32.0214 100.064C32.3387 99.4667 32.782 99.0093 33.3514 98.692C33.93 98.3653 34.5927 98.202 35.3394 98.202C36.0674 98.202 36.7114 98.3607 37.2714 98.678C37.8314 98.9953 38.2607 99.434 38.5594 99.994C38.8674 100.545 39.0214 101.17 39.0214 101.87ZM37.7054 101.604C37.7054 101.119 37.598 100.703 37.3834 100.358C37.1687 100.003 36.8747 99.7373 36.5014 99.56C36.1374 99.3733 35.7314 99.28 35.2834 99.28C34.6394 99.28 34.0887 99.4853 33.6314 99.896C33.1834 100.307 32.9267 100.876 32.8614 101.604H37.7054ZM44.441 98.188C45.3743 98.188 46.1303 98.4727 46.709 99.042C47.2877 99.602 47.577 100.414 47.577 101.478V106H46.317V101.66C46.317 100.895 46.1257 100.311 45.743 99.91C45.3603 99.4993 44.8377 99.294 44.175 99.294C43.503 99.294 42.9663 99.504 42.565 99.924C42.173 100.344 41.977 100.955 41.977 101.758V106H40.703V98.328H41.977V99.42C42.229 99.028 42.5697 98.7247 42.999 98.51C43.4377 98.2953 43.9183 98.188 44.441 98.188ZM51.2121 99.378V103.9C51.2121 104.273 51.2914 104.539 51.4501 104.698C51.6087 104.847 51.8841 104.922 52.2761 104.922H53.2141V106H52.0661C51.3567 106 50.8247 105.837 50.4701 105.51C50.1154 105.183 49.9381 104.647 49.9381 103.9V99.378H48.9441V98.328H49.9381V96.396H51.2121V98.328H53.2141V99.378H51.2121ZM55.4157 97.082C55.173 97.082 54.9677 96.998 54.7997 96.83C54.6317 96.662 54.5477 96.4567 54.5477 96.214C54.5477 95.9713 54.6317 95.766 54.7997 95.598C54.9677 95.43 55.173 95.346 55.4157 95.346C55.649 95.346 55.845 95.43 56.0037 95.598C56.1717 95.766 56.2557 95.9713 56.2557 96.214C56.2557 96.4567 56.1717 96.662 56.0037 96.83C55.845 96.998 55.649 97.082 55.4157 97.082ZM56.0317 98.328V106H54.7577V98.328H56.0317ZM59.477 99.574C59.701 99.1353 60.0183 98.7947 60.429 98.552C60.849 98.3093 61.3577 98.188 61.955 98.188V99.504H61.619C60.191 99.504 59.477 100.279 59.477 101.828V106H58.203V98.328H59.477V99.574ZM70.4257 101.87C70.4257 102.113 70.4117 102.369 70.3837 102.64H64.2517C64.2983 103.396 64.555 103.989 65.0217 104.418C65.4977 104.838 66.0717 105.048 66.7437 105.048C67.2943 105.048 67.7517 104.922 68.1157 104.67C68.489 104.409 68.7503 104.063 68.8997 103.634H70.2717C70.0663 104.371 69.6557 104.973 69.0397 105.44C68.4237 105.897 67.6583 106.126 66.7437 106.126C66.0157 106.126 65.3623 105.963 64.7837 105.636C64.2143 105.309 63.7663 104.847 63.4397 104.25C63.113 103.643 62.9497 102.943 62.9497 102.15C62.9497 101.357 63.1083 100.661 63.4257 100.064C63.743 99.4667 64.1863 99.0093 64.7557 98.692C65.3343 98.3653 65.997 98.202 66.7437 98.202C67.4717 98.202 68.1157 98.3607 68.6757 98.678C69.2357 98.9953 69.665 99.434 69.9637 99.994C70.2717 100.545 70.4257 101.17 70.4257 101.87ZM69.1097 101.604C69.1097 101.119 69.0023 100.703 68.7877 100.358C68.573 100.003 68.279 99.7373 67.9057 99.56C67.5417 99.3733 67.1357 99.28 66.6877 99.28C66.0437 99.28 65.493 99.4853 65.0357 99.896C64.5877 100.307 64.331 100.876 64.2657 101.604H69.1097ZM78.5557 106.126C77.9677 106.126 77.4404 106.028 76.9737 105.832C76.5071 105.627 76.1384 105.347 75.8677 104.992C75.5971 104.628 75.4477 104.213 75.4197 103.746H76.7357C76.7731 104.129 76.9504 104.441 77.2677 104.684C77.5944 104.927 78.0191 105.048 78.5417 105.048C79.0271 105.048 79.4097 104.941 79.6897 104.726C79.9697 104.511 80.1097 104.241 80.1097 103.914C80.1097 103.578 79.9604 103.331 79.6617 103.172C79.3631 103.004 78.9011 102.841 78.2757 102.682C77.7064 102.533 77.2397 102.383 76.8757 102.234C76.5211 102.075 76.2131 101.847 75.9517 101.548C75.6997 101.24 75.5737 100.839 75.5737 100.344C75.5737 99.952 75.6904 99.5927 75.9237 99.266C76.1571 98.9393 76.4884 98.6827 76.9177 98.496C77.3471 98.3 77.8371 98.202 78.3877 98.202C79.2371 98.202 79.9231 98.4167 80.4457 98.846C80.9684 99.2753 81.2484 99.8633 81.2857 100.61H80.0117C79.9837 100.209 79.8204 99.8867 79.5217 99.644C79.2324 99.4013 78.8404 99.28 78.3457 99.28C77.8884 99.28 77.5244 99.378 77.2537 99.574C76.9831 99.77 76.8477 100.027 76.8477 100.344C76.8477 100.596 76.9271 100.806 77.0857 100.974C77.2537 101.133 77.4591 101.263 77.7017 101.366C77.9537 101.459 78.2991 101.567 78.7377 101.688C79.2884 101.837 79.7364 101.987 80.0817 102.136C80.4271 102.276 80.7211 102.491 80.9637 102.78C81.2157 103.069 81.3464 103.447 81.3557 103.914C81.3557 104.334 81.2391 104.712 81.0057 105.048C80.7724 105.384 80.4411 105.65 80.0117 105.846C79.5917 106.033 79.1064 106.126 78.5557 106.126ZM83.8122 97.082C83.5695 97.082 83.3642 96.998 83.1962 96.83C83.0282 96.662 82.9442 96.4567 82.9442 96.214C82.9442 95.9713 83.0282 95.766 83.1962 95.598C83.3642 95.43 83.5695 95.346 83.8122 95.346C84.0455 95.346 84.2415 95.43 84.4002 95.598C84.5682 95.766 84.6522 95.9713 84.6522 96.214C84.6522 96.4567 84.5682 96.662 84.4002 96.83C84.2415 96.998 84.0455 97.082 83.8122 97.082ZM84.4282 98.328V106H83.1542V98.328H84.4282ZM88.1535 99.378V103.9C88.1535 104.273 88.2328 104.539 88.3915 104.698C88.5502 104.847 88.8255 104.922 89.2175 104.922H90.1555V106H89.0075C88.2982 106 87.7662 105.837 87.4115 105.51C87.0568 105.183 86.8795 104.647 86.8795 103.9V99.378H85.8855V98.328H86.8795V96.396H88.1535V98.328H90.1555V99.378H88.1535ZM98.6991 101.87C98.6991 102.113 98.6851 102.369 98.6571 102.64H92.5251C92.5718 103.396 92.8284 103.989 93.2951 104.418C93.7711 104.838 94.3451 105.048 95.0171 105.048C95.5678 105.048 96.0251 104.922 96.3891 104.67C96.7624 104.409 97.0238 104.063 97.1731 103.634H98.5451C98.3398 104.371 97.9291 104.973 97.3131 105.44C96.6971 105.897 95.9318 106.126 95.0171 106.126C94.2891 106.126 93.6358 105.963 93.0571 105.636C92.4878 105.309 92.0398 104.847 91.7131 104.25C91.3864 103.643 91.2231 102.943 91.2231 102.15C91.2231 101.357 91.3818 100.661 91.6991 100.064C92.0164 99.4667 92.4598 99.0093 93.0291 98.692C93.6078 98.3653 94.2704 98.202 95.0171 98.202C95.7451 98.202 96.3891 98.3607 96.9491 98.678C97.5091 98.9953 97.9384 99.434 98.2371 99.994C98.5451 100.545 98.6991 101.17 98.6991 101.87ZM97.3831 101.604C97.3831 101.119 97.2758 100.703 97.0611 100.358C96.8464 100.003 96.5524 99.7373 96.1791 99.56C95.8151 99.3733 95.4091 99.28 94.9611 99.28C94.3171 99.28 93.7664 99.4853 93.3091 99.896C92.8611 100.307 92.6044 100.876 92.5391 101.604H97.3831ZM114.333 98.328L111.939 106H110.623L108.775 99.91L106.927 106H105.611L103.203 98.328H104.505L106.269 104.768L108.173 98.328H109.475L111.337 104.782L113.073 98.328H114.333ZM115.122 102.136C115.122 101.352 115.28 100.666 115.598 100.078C115.915 99.4807 116.349 99.0187 116.9 98.692C117.46 98.3653 118.08 98.202 118.762 98.202C119.434 98.202 120.017 98.3467 120.512 98.636C121.006 98.9253 121.375 99.2893 121.618 99.728V98.328H122.906V106H121.618V104.572C121.366 105.02 120.988 105.393 120.484 105.692C119.989 105.981 119.41 106.126 118.748 106.126C118.066 106.126 117.45 105.958 116.9 105.622C116.349 105.286 115.915 104.815 115.598 104.208C115.28 103.601 115.122 102.911 115.122 102.136ZM121.618 102.15C121.618 101.571 121.501 101.067 121.268 100.638C121.034 100.209 120.717 99.882 120.316 99.658C119.924 99.4247 119.49 99.308 119.014 99.308C118.538 99.308 118.104 99.42 117.712 99.644C117.32 99.868 117.007 100.195 116.774 100.624C116.54 101.053 116.424 101.557 116.424 102.136C116.424 102.724 116.54 103.237 116.774 103.676C117.007 104.105 117.32 104.437 117.712 104.67C118.104 104.894 118.538 105.006 119.014 105.006C119.49 105.006 119.924 104.894 120.316 104.67C120.717 104.437 121.034 104.105 121.268 103.676C121.501 103.237 121.618 102.729 121.618 102.15ZM127.774 106.126C127.186 106.126 126.659 106.028 126.192 105.832C125.726 105.627 125.357 105.347 125.086 104.992C124.816 104.628 124.666 104.213 124.638 103.746H125.954C125.992 104.129 126.169 104.441 126.486 104.684C126.813 104.927 127.238 105.048 127.76 105.048C128.246 105.048 128.628 104.941 128.908 104.726C129.188 104.511 129.328 104.241 129.328 103.914C129.328 103.578 129.179 103.331 128.88 103.172C128.582 103.004 128.12 102.841 127.494 102.682C126.925 102.533 126.458 102.383 126.094 102.234C125.74 102.075 125.432 101.847 125.17 101.548C124.918 101.24 124.792 100.839 124.792 100.344C124.792 99.952 124.909 99.5927 125.142 99.266C125.376 98.9393 125.707 98.6827 126.136 98.496C126.566 98.3 127.056 98.202 127.606 98.202C128.456 98.202 129.142 98.4167 129.664 98.846C130.187 99.2753 130.467 99.8633 130.504 100.61H129.23C129.202 100.209 129.039 99.8867 128.74 99.644C128.451 99.4013 128.059 99.28 127.564 99.28C127.107 99.28 126.743 99.378 126.472 99.574C126.202 99.77 126.066 100.027 126.066 100.344C126.066 100.596 126.146 100.806 126.304 100.974C126.472 101.133 126.678 101.263 126.92 101.366C127.172 101.459 127.518 101.567 127.956 101.688C128.507 101.837 128.955 101.987 129.3 102.136C129.646 102.276 129.94 102.491 130.182 102.78C130.434 103.069 130.565 103.447 130.574 103.914C130.574 104.334 130.458 104.712 130.224 105.048C129.991 105.384 129.66 105.65 129.23 105.846C128.81 106.033 128.325 106.126 127.774 106.126ZM137.379 99.756C137.641 99.2987 138.023 98.9253 138.527 98.636C139.031 98.3467 139.605 98.202 140.249 98.202C140.94 98.202 141.561 98.3653 142.111 98.692C142.662 99.0187 143.096 99.4807 143.413 100.078C143.731 100.666 143.889 101.352 143.889 102.136C143.889 102.911 143.731 103.601 143.413 104.208C143.096 104.815 142.657 105.286 142.097 105.622C141.547 105.958 140.931 106.126 140.249 106.126C139.587 106.126 139.003 105.981 138.499 105.692C138.005 105.403 137.631 105.034 137.379 104.586V106H136.105V95.64H137.379V99.756ZM142.587 102.136C142.587 101.557 142.471 101.053 142.237 100.624C142.004 100.195 141.687 99.868 141.285 99.644C140.893 99.42 140.459 99.308 139.983 99.308C139.517 99.308 139.083 99.4247 138.681 99.658C138.289 99.882 137.972 100.213 137.729 100.652C137.496 101.081 137.379 101.581 137.379 102.15C137.379 102.729 137.496 103.237 137.729 103.676C137.972 104.105 138.289 104.437 138.681 104.67C139.083 104.894 139.517 105.006 139.983 105.006C140.459 105.006 140.893 104.894 141.285 104.67C141.687 104.437 142.004 104.105 142.237 103.676C142.471 103.237 142.587 102.724 142.587 102.136ZM152.37 98.328V106H151.096V104.866C150.854 105.258 150.513 105.566 150.074 105.79C149.645 106.005 149.169 106.112 148.646 106.112C148.049 106.112 147.512 105.991 147.036 105.748C146.56 105.496 146.182 105.123 145.902 104.628C145.632 104.133 145.496 103.531 145.496 102.822V98.328H146.756V102.654C146.756 103.41 146.948 103.993 147.33 104.404C147.713 104.805 148.236 105.006 148.898 105.006C149.58 105.006 150.116 104.796 150.508 104.376C150.9 103.956 151.096 103.345 151.096 102.542V98.328H152.37ZM155.179 97.082C154.937 97.082 154.731 96.998 154.563 96.83C154.395 96.662 154.311 96.4567 154.311 96.214C154.311 95.9713 154.395 95.766 154.563 95.598C154.731 95.43 154.937 95.346 155.179 95.346C155.413 95.346 155.609 95.43 155.767 95.598C155.935 95.766 156.019 95.9713 156.019 96.214C156.019 96.4567 155.935 96.662 155.767 96.83C155.609 96.998 155.413 97.082 155.179 97.082ZM155.795 98.328V106H154.521V98.328H155.795ZM159.241 95.64V106H157.967V95.64H159.241ZM162.966 99.378V103.9C162.966 104.273 163.045 104.539 163.204 104.698C163.363 104.847 163.638 104.922 164.03 104.922H164.968V106H163.82C163.111 106 162.579 105.837 162.224 105.51C161.869 105.183 161.692 104.647 161.692 103.9V99.378H160.698V98.328H161.692V96.396H162.966V98.328H164.968V99.378H162.966ZM169.768 102.136C169.768 101.352 169.927 100.666 170.244 100.078C170.561 99.4807 170.995 99.0187 171.546 98.692C172.106 98.3653 172.727 98.202 173.408 98.202C174.08 98.202 174.663 98.3467 175.158 98.636C175.653 98.9253 176.021 99.2893 176.264 99.728V98.328H177.552V106H176.264V104.572C176.012 105.02 175.634 105.393 175.13 105.692C174.635 105.981 174.057 106.126 173.394 106.126C172.713 106.126 172.097 105.958 171.546 105.622C170.995 105.286 170.561 104.815 170.244 104.208C169.927 103.601 169.768 102.911 169.768 102.136ZM176.264 102.15C176.264 101.571 176.147 101.067 175.914 100.638C175.681 100.209 175.363 99.882 174.962 99.658C174.57 99.4247 174.136 99.308 173.66 99.308C173.184 99.308 172.75 99.42 172.358 99.644C171.966 99.868 171.653 100.195 171.42 100.624C171.187 101.053 171.07 101.557 171.07 102.136C171.07 102.724 171.187 103.237 171.42 103.676C171.653 104.105 171.966 104.437 172.358 104.67C172.75 104.894 173.184 105.006 173.66 105.006C174.136 105.006 174.57 104.894 174.962 104.67C175.363 104.437 175.681 104.105 175.914 103.676C176.147 103.237 176.264 102.729 176.264 102.15ZM183.443 98.188C184.376 98.188 185.132 98.4727 185.711 99.042C186.29 99.602 186.579 100.414 186.579 101.478V106H185.319V101.66C185.319 100.895 185.128 100.311 184.745 99.91C184.362 99.4993 183.84 99.294 183.177 99.294C182.505 99.294 181.968 99.504 181.567 99.924C181.175 100.344 180.979 100.955 180.979 101.758V106H179.705V98.328H180.979V99.42C181.231 99.028 181.572 98.7247 182.001 98.51C182.44 98.2953 182.92 98.188 183.443 98.188ZM188.184 102.136C188.184 101.352 188.343 100.666 188.66 100.078C188.977 99.4807 189.411 99.0187 189.962 98.692C190.522 98.3653 191.147 98.202 191.838 98.202C192.435 98.202 192.991 98.342 193.504 98.622C194.017 98.8927 194.409 99.252 194.68 99.7V95.64H195.968V106H194.68V104.558C194.428 105.015 194.055 105.393 193.56 105.692C193.065 105.981 192.487 106.126 191.824 106.126C191.143 106.126 190.522 105.958 189.962 105.622C189.411 105.286 188.977 104.815 188.66 104.208C188.343 103.601 188.184 102.911 188.184 102.136ZM194.68 102.15C194.68 101.571 194.563 101.067 194.33 100.638C194.097 100.209 193.779 99.882 193.378 99.658C192.986 99.4247 192.552 99.308 192.076 99.308C191.6 99.308 191.166 99.42 190.774 99.644C190.382 99.868 190.069 100.195 189.836 100.624C189.603 101.053 189.486 101.557 189.486 102.136C189.486 102.724 189.603 103.237 189.836 103.676C190.069 104.105 190.382 104.437 190.774 104.67C191.166 104.894 191.6 105.006 192.076 105.006C192.552 105.006 192.986 104.894 193.378 104.67C193.779 104.437 194.097 104.105 194.33 103.676C194.563 103.237 194.68 102.729 194.68 102.15ZM204.569 106.126C203.981 106.126 203.454 106.028 202.987 105.832C202.521 105.627 202.152 105.347 201.881 104.992C201.611 104.628 201.461 104.213 201.433 103.746H202.749C202.787 104.129 202.964 104.441 203.281 104.684C203.608 104.927 204.033 105.048 204.555 105.048C205.041 105.048 205.423 104.941 205.703 104.726C205.983 104.511 206.123 104.241 206.123 103.914C206.123 103.578 205.974 103.331 205.675 103.172C205.377 103.004 204.915 102.841 204.289 102.682C203.72 102.533 203.253 102.383 202.889 102.234C202.535 102.075 202.227 101.847 201.965 101.548C201.713 101.24 201.587 100.839 201.587 100.344C201.587 99.952 201.704 99.5927 201.937 99.266C202.171 98.9393 202.502 98.6827 202.931 98.496C203.361 98.3 203.851 98.202 204.401 98.202C205.251 98.202 205.937 98.4167 206.459 98.846C206.982 99.2753 207.262 99.8633 207.299 100.61H206.025C205.997 100.209 205.834 99.8867 205.535 99.644C205.246 99.4013 204.854 99.28 204.359 99.28C203.902 99.28 203.538 99.378 203.267 99.574C202.997 99.77 202.861 100.027 202.861 100.344C202.861 100.596 202.941 100.806 203.099 100.974C203.267 101.133 203.473 101.263 203.715 101.366C203.967 101.459 204.313 101.567 204.751 101.688C205.302 101.837 205.75 101.987 206.095 102.136C206.441 102.276 206.735 102.491 206.977 102.78C207.229 103.069 207.36 103.447 207.369 103.914C207.369 104.334 207.253 104.712 207.019 105.048C206.786 105.384 206.455 105.65 206.025 105.846C205.605 106.033 205.12 106.126 204.569 106.126ZM216.168 101.87C216.168 102.113 216.154 102.369 216.126 102.64H209.994C210.041 103.396 210.297 103.989 210.764 104.418C211.24 104.838 211.814 105.048 212.486 105.048C213.037 105.048 213.494 104.922 213.858 104.67C214.231 104.409 214.493 104.063 214.642 103.634H216.014C215.809 104.371 215.398 104.973 214.782 105.44C214.166 105.897 213.401 106.126 212.486 106.126C211.758 106.126 211.105 105.963 210.526 105.636C209.957 105.309 209.509 104.847 209.182 104.25C208.855 103.643 208.692 102.943 208.692 102.15C208.692 101.357 208.851 100.661 209.168 100.064C209.485 99.4667 209.929 99.0093 210.498 98.692C211.077 98.3653 211.739 98.202 212.486 98.202C213.214 98.202 213.858 98.3607 214.418 98.678C214.978 98.9953 215.407 99.434 215.706 99.994C216.014 100.545 216.168 101.17 216.168 101.87ZM214.852 101.604C214.852 101.119 214.745 100.703 214.53 100.358C214.315 100.003 214.021 99.7373 213.648 99.56C213.284 99.3733 212.878 99.28 212.43 99.28C211.786 99.28 211.235 99.4853 210.778 99.896C210.33 100.307 210.073 100.876 210.008 101.604H214.852ZM219.403 99.378V103.9C219.403 104.273 219.483 104.539 219.641 104.698C219.8 104.847 220.075 104.922 220.467 104.922H221.405V106H220.257C219.548 106 219.016 105.837 218.661 105.51C218.307 105.183 218.129 104.647 218.129 103.9V99.378H217.135V98.328H218.129V96.396H219.403V98.328H221.405V99.378H219.403ZM229.753 98.328V106H228.479V104.866C228.236 105.258 227.896 105.566 227.457 105.79C227.028 106.005 226.552 106.112 226.029 106.112C225.432 106.112 224.895 105.991 224.419 105.748C223.943 105.496 223.565 105.123 223.285 104.628C223.014 104.133 222.879 103.531 222.879 102.822V98.328H224.139V102.654C224.139 103.41 224.33 103.993 224.713 104.404C225.096 104.805 225.618 105.006 226.281 105.006C226.962 105.006 227.499 104.796 227.891 104.376C228.283 103.956 228.479 103.345 228.479 102.542V98.328H229.753ZM233.178 99.742C233.43 99.3033 233.804 98.9393 234.298 98.65C234.802 98.3513 235.386 98.202 236.048 98.202C236.73 98.202 237.346 98.3653 237.896 98.692C238.456 99.0187 238.895 99.4807 239.212 100.078C239.53 100.666 239.688 101.352 239.688 102.136C239.688 102.911 239.53 103.601 239.212 104.208C238.895 104.815 238.456 105.286 237.896 105.622C237.346 105.958 236.73 106.126 236.048 106.126C235.395 106.126 234.816 105.981 234.312 105.692C233.818 105.393 233.44 105.025 233.178 104.586V109.64H231.904V98.328H233.178V99.742ZM238.386 102.136C238.386 101.557 238.27 101.053 238.036 100.624C237.803 100.195 237.486 99.868 237.084 99.644C236.692 99.42 236.258 99.308 235.782 99.308C235.316 99.308 234.882 99.4247 234.48 99.658C234.088 99.882 233.771 100.213 233.528 100.652C233.295 101.081 233.178 101.581 233.178 102.15C233.178 102.729 233.295 103.237 233.528 103.676C233.771 104.105 234.088 104.437 234.48 104.67C234.882 104.894 235.316 105.006 235.782 105.006C236.258 105.006 236.692 104.894 237.084 104.67C237.486 104.437 237.803 104.105 238.036 103.676C238.27 103.237 238.386 102.724 238.386 102.136ZM246.372 99.756C246.633 99.2987 247.016 98.9253 247.52 98.636C248.024 98.3467 248.598 98.202 249.242 98.202C249.932 98.202 250.553 98.3653 251.104 98.692C251.654 99.0187 252.088 99.4807 252.406 100.078C252.723 100.666 252.882 101.352 252.882 102.136C252.882 102.911 252.723 103.601 252.406 104.208C252.088 104.815 251.65 105.286 251.09 105.622C250.539 105.958 249.923 106.126 249.242 106.126C248.579 106.126 247.996 105.981 247.492 105.692C246.997 105.403 246.624 105.034 246.372 104.586V106H245.098V95.64H246.372V99.756ZM251.58 102.136C251.58 101.557 251.463 101.053 251.23 100.624C250.996 100.195 250.679 99.868 250.278 99.644C249.886 99.42 249.452 99.308 248.976 99.308C248.509 99.308 248.075 99.4247 247.674 99.658C247.282 99.882 246.964 100.213 246.722 100.652C246.488 101.081 246.372 101.581 246.372 102.15C246.372 102.729 246.488 103.237 246.722 103.676C246.964 104.105 247.282 104.437 247.674 104.67C248.075 104.894 248.509 105.006 248.976 105.006C249.452 105.006 249.886 104.894 250.278 104.67C250.679 104.437 250.996 104.105 251.23 103.676C251.463 103.237 251.58 102.724 251.58 102.136ZM261.166 98.328L256.546 109.612H255.23L256.742 105.916L253.648 98.328H255.062L257.47 104.544L259.85 98.328H261.166ZM275.406 98.188C276.003 98.188 276.535 98.314 277.002 98.566C277.468 98.8087 277.837 99.1773 278.108 99.672C278.378 100.167 278.514 100.769 278.514 101.478V106H277.254V101.66C277.254 100.895 277.062 100.311 276.68 99.91C276.306 99.4993 275.798 99.294 275.154 99.294C274.491 99.294 273.964 99.5087 273.572 99.938C273.18 100.358 272.984 100.969 272.984 101.772V106H271.724V101.66C271.724 100.895 271.532 100.311 271.15 99.91C270.776 99.4993 270.268 99.294 269.624 99.294C268.961 99.294 268.434 99.5087 268.042 99.938C267.65 100.358 267.454 100.969 267.454 101.772V106H266.18V98.328H267.454V99.434C267.706 99.0327 268.042 98.7247 268.462 98.51C268.891 98.2953 269.362 98.188 269.876 98.188C270.52 98.188 271.089 98.3327 271.584 98.622C272.078 98.9113 272.447 99.336 272.69 99.896C272.904 99.3547 273.259 98.9347 273.754 98.636C274.248 98.3373 274.799 98.188 275.406 98.188ZM287.603 101.87C287.603 102.113 287.589 102.369 287.561 102.64H281.429C281.476 103.396 281.733 103.989 282.199 104.418C282.675 104.838 283.249 105.048 283.921 105.048C284.472 105.048 284.929 104.922 285.293 104.67C285.667 104.409 285.928 104.063 286.077 103.634H287.449C287.244 104.371 286.833 104.973 286.217 105.44C285.601 105.897 284.836 106.126 283.921 106.126C283.193 106.126 282.54 105.963 281.961 105.636C281.392 105.309 280.944 104.847 280.617 104.25C280.291 103.643 280.127 102.943 280.127 102.15C280.127 101.357 280.286 100.661 280.603 100.064C280.921 99.4667 281.364 99.0093 281.933 98.692C282.512 98.3653 283.175 98.202 283.921 98.202C284.649 98.202 285.293 98.3607 285.853 98.678C286.413 98.9953 286.843 99.434 287.141 99.994C287.449 100.545 287.603 101.17 287.603 101.87ZM286.287 101.604C286.287 101.119 286.18 100.703 285.965 100.358C285.751 100.003 285.457 99.7373 285.083 99.56C284.719 99.3733 284.313 99.28 283.865 99.28C283.221 99.28 282.671 99.4853 282.213 99.896C281.765 100.307 281.509 100.876 281.443 101.604H286.287ZM289.691 106.084C289.448 106.084 289.243 106 289.075 105.832C288.907 105.664 288.823 105.459 288.823 105.216C288.823 104.973 288.907 104.768 289.075 104.6C289.243 104.432 289.448 104.348 289.691 104.348C289.924 104.348 290.12 104.432 290.279 104.6C290.447 104.768 290.531 104.973 290.531 105.216C290.531 105.459 290.447 105.664 290.279 105.832C290.12 106 289.924 106.084 289.691 106.084ZM303.475 96.242V106H302.201V101.576H297.231V106H295.957V96.242H297.231V100.526H302.201V96.242H303.475ZM312.65 101.87C312.65 102.113 312.636 102.369 312.608 102.64H306.476C306.523 103.396 306.78 103.989 307.246 104.418C307.722 104.838 308.296 105.048 308.968 105.048C309.519 105.048 309.976 104.922 310.34 104.67C310.714 104.409 310.975 104.063 311.124 103.634H312.496C312.291 104.371 311.88 104.973 311.264 105.44C310.648 105.897 309.883 106.126 308.968 106.126C308.24 106.126 307.587 105.963 307.008 105.636C306.439 105.309 305.991 104.847 305.664 104.25C305.338 103.643 305.174 102.943 305.174 102.15C305.174 101.357 305.333 100.661 305.65 100.064C305.968 99.4667 306.411 99.0093 306.98 98.692C307.559 98.3653 308.222 98.202 308.968 98.202C309.696 98.202 310.34 98.3607 310.9 98.678C311.46 98.9953 311.89 99.434 312.188 99.994C312.496 100.545 312.65 101.17 312.65 101.87ZM311.334 101.604C311.334 101.119 311.227 100.703 311.012 100.358C310.798 100.003 310.504 99.7373 310.13 99.56C309.766 99.3733 309.36 99.28 308.912 99.28C308.268 99.28 307.718 99.4853 307.26 99.896C306.812 100.307 306.556 100.876 306.49 101.604H311.334ZM315.606 99.574C315.83 99.1353 316.147 98.7947 316.558 98.552C316.978 98.3093 317.487 98.188 318.084 98.188V99.504H317.748C316.32 99.504 315.606 100.279 315.606 101.828V106H314.332V98.328H315.606V99.574ZM326.555 101.87C326.555 102.113 326.541 102.369 326.513 102.64H320.381C320.427 103.396 320.684 103.989 321.151 104.418C321.627 104.838 322.201 105.048 322.873 105.048C323.423 105.048 323.881 104.922 324.245 104.67C324.618 104.409 324.879 104.063 325.029 103.634H326.401C326.195 104.371 325.785 104.973 325.169 105.44C324.553 105.897 323.787 106.126 322.873 106.126C322.145 106.126 321.491 105.963 320.913 105.636C320.343 105.309 319.895 104.847 319.569 104.25C319.242 103.643 319.079 102.943 319.079 102.15C319.079 101.357 319.237 100.661 319.555 100.064C319.872 99.4667 320.315 99.0093 320.885 98.692C321.463 98.3653 322.126 98.202 322.873 98.202C323.601 98.202 324.245 98.3607 324.805 98.678C325.365 98.9953 325.794 99.434 326.093 99.994C326.401 100.545 326.555 101.17 326.555 101.87ZM325.239 101.604C325.239 101.119 325.131 100.703 324.917 100.358C324.702 100.003 324.408 99.7373 324.035 99.56C323.671 99.3733 323.265 99.28 322.817 99.28C322.173 99.28 321.622 99.4853 321.165 99.896C320.717 100.307 320.46 100.876 320.395 101.604H325.239ZM331.493 102.136C331.493 101.352 331.651 100.666 331.969 100.078C332.286 99.4807 332.72 99.0187 333.271 98.692C333.831 98.3653 334.451 98.202 335.133 98.202C335.805 98.202 336.388 98.3467 336.883 98.636C337.377 98.9253 337.746 99.2893 337.989 99.728V98.328H339.277V106H337.989V104.572C337.737 105.02 337.359 105.393 336.855 105.692C336.36 105.981 335.781 106.126 335.119 106.126C334.437 106.126 333.821 105.958 333.271 105.622C332.72 105.286 332.286 104.815 331.969 104.208C331.651 103.601 331.493 102.911 331.493 102.136ZM337.989 102.15C337.989 101.571 337.872 101.067 337.639 100.638C337.405 100.209 337.088 99.882 336.687 99.658C336.295 99.4247 335.861 99.308 335.385 99.308C334.909 99.308 334.475 99.42 334.083 99.644C333.691 99.868 333.378 100.195 333.145 100.624C332.911 101.053 332.795 101.557 332.795 102.136C332.795 102.724 332.911 103.237 333.145 103.676C333.378 104.105 333.691 104.437 334.083 104.67C334.475 104.894 334.909 105.006 335.385 105.006C335.861 105.006 336.295 104.894 336.687 104.67C337.088 104.437 337.405 104.105 337.639 103.676C337.872 103.237 337.989 102.729 337.989 102.15ZM342.704 99.574C342.928 99.1353 343.245 98.7947 343.656 98.552C344.076 98.3093 344.584 98.188 345.182 98.188V99.504H344.846C343.418 99.504 342.704 100.279 342.704 101.828V106H341.43V98.328H342.704V99.574ZM353.652 101.87C353.652 102.113 353.638 102.369 353.61 102.64H347.478C347.525 103.396 347.782 103.989 348.248 104.418C348.724 104.838 349.298 105.048 349.97 105.048C350.521 105.048 350.978 104.922 351.342 104.67C351.716 104.409 351.977 104.063 352.126 103.634H353.498C353.293 104.371 352.882 104.973 352.266 105.44C351.65 105.897 350.885 106.126 349.97 106.126C349.242 106.126 348.589 105.963 348.01 105.636C347.441 105.309 346.993 104.847 346.666 104.25C346.34 103.643 346.176 102.943 346.176 102.15C346.176 101.357 346.335 100.661 346.652 100.064C346.97 99.4667 347.413 99.0093 347.982 98.692C348.561 98.3653 349.224 98.202 349.97 98.202C350.698 98.202 351.342 98.3607 351.902 98.678C352.462 98.9953 352.892 99.434 353.19 99.994C353.498 100.545 353.652 101.17 353.652 101.87ZM352.336 101.604C352.336 101.119 352.229 100.703 352.014 100.358C351.8 100.003 351.506 99.7373 351.132 99.56C350.768 99.3733 350.362 99.28 349.914 99.28C349.27 99.28 348.72 99.4853 348.262 99.896C347.814 100.307 347.558 100.876 347.492 101.604H352.336ZM4.632 127.378V131.9C4.632 132.273 4.71133 132.539 4.87 132.698C5.02867 132.847 5.304 132.922 5.696 132.922H6.634V134H5.486C4.77667 134 4.24467 133.837 3.89 133.51C3.53533 133.183 3.358 132.647 3.358 131.9V127.378H2.364V126.328H3.358V124.396H4.632V126.328H6.634V127.378H4.632ZM11.9856 126.188C12.5643 126.188 13.0869 126.314 13.5536 126.566C14.0203 126.809 14.3843 127.177 14.6456 127.672C14.9163 128.167 15.0516 128.769 15.0516 129.478V134H13.7916V129.66C13.7916 128.895 13.6003 128.311 13.2176 127.91C12.8349 127.499 12.3123 127.294 11.6496 127.294C10.9776 127.294 10.4409 127.504 10.0396 127.924C9.64761 128.344 9.45161 128.955 9.45161 129.758V134H8.17761V123.64H9.45161V127.42C9.70361 127.028 10.0489 126.725 10.4876 126.51C10.9356 126.295 11.4349 126.188 11.9856 126.188ZM24.1327 129.87C24.1327 130.113 24.1187 130.369 24.0907 130.64H17.9587C18.0054 131.396 18.262 131.989 18.7287 132.418C19.2047 132.838 19.7787 133.048 20.4507 133.048C21.0014 133.048 21.4587 132.922 21.8227 132.67C22.196 132.409 22.4574 132.063 22.6067 131.634H23.9787C23.7734 132.371 23.3627 132.973 22.7467 133.44C22.1307 133.897 21.3654 134.126 20.4507 134.126C19.7227 134.126 19.0694 133.963 18.4907 133.636C17.9214 133.309 17.4734 132.847 17.1467 132.25C16.82 131.643 16.6567 130.943 16.6567 130.15C16.6567 129.357 16.8154 128.661 17.1327 128.064C17.45 127.467 17.8934 127.009 18.4627 126.692C19.0414 126.365 19.704 126.202 20.4507 126.202C21.1787 126.202 21.8227 126.361 22.3827 126.678C22.9427 126.995 23.372 127.434 23.6707 127.994C23.9787 128.545 24.1327 129.17 24.1327 129.87ZM22.8167 129.604C22.8167 129.119 22.7094 128.703 22.4947 128.358C22.28 128.003 21.986 127.737 21.6127 127.56C21.2487 127.373 20.8427 127.28 20.3947 127.28C19.7507 127.28 19.2 127.485 18.7427 127.896C18.2947 128.307 18.038 128.876 17.9727 129.604H22.8167ZM31.1008 127.378V131.9C31.1008 132.273 31.1801 132.539 31.3388 132.698C31.4974 132.847 31.7728 132.922 32.1647 132.922H33.1028V134H31.9548C31.2454 134 30.7134 133.837 30.3588 133.51C30.0041 133.183 29.8268 132.647 29.8268 131.9V127.378H28.8328V126.328H29.8268V124.396H31.1008V126.328H33.1028V127.378H31.1008ZM37.9924 134.126C37.2737 134.126 36.6204 133.963 36.0324 133.636C35.4537 133.309 34.9964 132.847 34.6604 132.25C34.3337 131.643 34.1704 130.943 34.1704 130.15C34.1704 129.366 34.3384 128.675 34.6744 128.078C35.0197 127.471 35.4864 127.009 36.0744 126.692C36.6624 126.365 37.3204 126.202 38.0484 126.202C38.7764 126.202 39.4344 126.365 40.0224 126.692C40.6104 127.009 41.0724 127.467 41.4084 128.064C41.7537 128.661 41.9264 129.357 41.9264 130.15C41.9264 130.943 41.749 131.643 41.3944 132.25C41.049 132.847 40.5777 133.309 39.9804 133.636C39.383 133.963 38.7204 134.126 37.9924 134.126ZM37.9924 133.006C38.4497 133.006 38.879 132.899 39.2804 132.684C39.6817 132.469 40.0037 132.147 40.2464 131.718C40.4984 131.289 40.6244 130.766 40.6244 130.15C40.6244 129.534 40.503 129.011 40.2604 128.582C40.0177 128.153 39.7004 127.835 39.3084 127.63C38.9164 127.415 38.4917 127.308 38.0344 127.308C37.5677 127.308 37.1384 127.415 36.7464 127.63C36.3637 127.835 36.0557 128.153 35.8224 128.582C35.589 129.011 35.4724 129.534 35.4724 130.15C35.4724 130.775 35.5844 131.303 35.8084 131.732C36.0417 132.161 36.3497 132.483 36.7324 132.698C37.115 132.903 37.535 133.006 37.9924 133.006ZM46.9474 134.126C46.2288 134.126 45.5754 133.963 44.9874 133.636C44.4088 133.309 43.9514 132.847 43.6154 132.25C43.2888 131.643 43.1254 130.943 43.1254 130.15C43.1254 129.366 43.2934 128.675 43.6294 128.078C43.9748 127.471 44.4414 127.009 45.0294 126.692C45.6174 126.365 46.2754 126.202 47.0034 126.202C47.7314 126.202 48.3894 126.365 48.9774 126.692C49.5654 127.009 50.0274 127.467 50.3634 128.064C50.7088 128.661 50.8814 129.357 50.8814 130.15C50.8814 130.943 50.7041 131.643 50.3494 132.25C50.0041 132.847 49.5328 133.309 48.9354 133.636C48.3381 133.963 47.6754 134.126 46.9474 134.126ZM46.9474 133.006C47.4048 133.006 47.8341 132.899 48.2354 132.684C48.6368 132.469 48.9588 132.147 49.2014 131.718C49.4534 131.289 49.5794 130.766 49.5794 130.15C49.5794 129.534 49.4581 129.011 49.2154 128.582C48.9728 128.153 48.6554 127.835 48.2634 127.63C47.8714 127.415 47.4468 127.308 46.9894 127.308C46.5228 127.308 46.0934 127.415 45.7014 127.63C45.3188 127.835 45.0108 128.153 44.7774 128.582C44.5441 129.011 44.4274 129.534 44.4274 130.15C44.4274 130.775 44.5394 131.303 44.7634 131.732C44.9968 132.161 45.3048 132.483 45.6874 132.698C46.0701 132.903 46.4901 133.006 46.9474 133.006ZM53.8305 123.64V134H52.5565V123.64H53.8305ZM58.7178 134.126C58.1298 134.126 57.6025 134.028 57.1358 133.832C56.6692 133.627 56.3005 133.347 56.0298 132.992C55.7592 132.628 55.6098 132.213 55.5818 131.746H56.8978C56.9352 132.129 57.1125 132.441 57.4298 132.684C57.7565 132.927 58.1812 133.048 58.7038 133.048C59.1892 133.048 59.5718 132.941 59.8518 132.726C60.1318 132.511 60.2718 132.241 60.2718 131.914C60.2718 131.578 60.1225 131.331 59.8238 131.172C59.5252 131.004 59.0632 130.841 58.4378 130.682C57.8685 130.533 57.4018 130.383 57.0378 130.234C56.6832 130.075 56.3752 129.847 56.1138 129.548C55.8618 129.24 55.7358 128.839 55.7358 128.344C55.7358 127.952 55.8525 127.593 56.0858 127.266C56.3192 126.939 56.6505 126.683 57.0798 126.496C57.5092 126.3 57.9992 126.202 58.5498 126.202C59.3992 126.202 60.0852 126.417 60.6078 126.846C61.1305 127.275 61.4105 127.863 61.4478 128.61H60.1738C60.1458 128.209 59.9825 127.887 59.6838 127.644C59.3945 127.401 59.0025 127.28 58.5078 127.28C58.0505 127.28 57.6865 127.378 57.4158 127.574C57.1452 127.77 57.0098 128.027 57.0098 128.344C57.0098 128.596 57.0892 128.806 57.2478 128.974C57.4158 129.133 57.6212 129.263 57.8638 129.366C58.1158 129.459 58.4612 129.567 58.8998 129.688C59.4505 129.837 59.8985 129.987 60.2438 130.136C60.5892 130.276 60.8832 130.491 61.1258 130.78C61.3778 131.069 61.5085 131.447 61.5178 131.914C61.5178 132.334 61.4012 132.712 61.1678 133.048C60.9345 133.384 60.6032 133.65 60.1738 133.846C59.7538 134.033 59.2685 134.126 58.7178 134.126ZM68.3227 124.242V134H67.0487V124.242H68.3227ZM81.0304 126.328V134H79.7564V132.866C79.5138 133.258 79.1731 133.566 78.7344 133.79C78.3051 134.005 77.8291 134.112 77.3064 134.112C76.7091 134.112 76.1724 133.991 75.6964 133.748C75.2204 133.496 74.8424 133.123 74.5624 132.628C74.2918 132.133 74.1564 131.531 74.1564 130.822V126.328H75.4164V130.654C75.4164 131.41 75.6078 131.993 75.9904 132.404C76.3731 132.805 76.8958 133.006 77.5584 133.006C78.2398 133.006 78.7764 132.796 79.1684 132.376C79.5604 131.956 79.7564 131.345 79.7564 130.542V126.328H81.0304ZM85.8975 134.126C85.3095 134.126 84.7822 134.028 84.3155 133.832C83.8488 133.627 83.4802 133.347 83.2095 132.992C82.9388 132.628 82.7895 132.213 82.7615 131.746H84.0775C84.1148 132.129 84.2922 132.441 84.6095 132.684C84.9362 132.927 85.3608 133.048 85.8835 133.048C86.3688 133.048 86.7515 132.941 87.0315 132.726C87.3115 132.511 87.4515 132.241 87.4515 131.914C87.4515 131.578 87.3022 131.331 87.0035 131.172C86.7048 131.004 86.2428 130.841 85.6175 130.682C85.0482 130.533 84.5815 130.383 84.2175 130.234C83.8628 130.075 83.5548 129.847 83.2935 129.548C83.0415 129.24 82.9155 128.839 82.9155 128.344C82.9155 127.952 83.0322 127.593 83.2655 127.266C83.4988 126.939 83.8302 126.683 84.2595 126.496C84.6888 126.3 85.1788 126.202 85.7295 126.202C86.5788 126.202 87.2648 126.417 87.7875 126.846C88.3102 127.275 88.5902 127.863 88.6275 128.61H87.3535C87.3255 128.209 87.1622 127.887 86.8635 127.644C86.5742 127.401 86.1822 127.28 85.6875 127.28C85.2302 127.28 84.8662 127.378 84.5955 127.574C84.3248 127.77 84.1895 128.027 84.1895 128.344C84.1895 128.596 84.2688 128.806 84.4275 128.974C84.5955 129.133 84.8008 129.263 85.0435 129.366C85.2955 129.459 85.6408 129.567 86.0795 129.688C86.6302 129.837 87.0782 129.987 87.4235 130.136C87.7688 130.276 88.0628 130.491 88.3055 130.78C88.5575 131.069 88.6882 131.447 88.6975 131.914C88.6975 132.334 88.5808 132.712 88.3475 133.048C88.1142 133.384 87.7828 133.65 87.3535 133.846C86.9335 134.033 86.4482 134.126 85.8975 134.126ZM97.496 129.87C97.496 130.113 97.482 130.369 97.454 130.64H91.322C91.3686 131.396 91.6253 131.989 92.092 132.418C92.568 132.838 93.142 133.048 93.814 133.048C94.3646 133.048 94.822 132.922 95.186 132.67C95.5593 132.409 95.8206 132.063 95.97 131.634H97.342C97.1366 132.371 96.726 132.973 96.11 133.44C95.494 133.897 94.7286 134.126 93.814 134.126C93.086 134.126 92.4326 133.963 91.854 133.636C91.2846 133.309 90.8366 132.847 90.51 132.25C90.1833 131.643 90.02 130.943 90.02 130.15C90.02 129.357 90.1786 128.661 90.496 128.064C90.8133 127.467 91.2566 127.009 91.826 126.692C92.4046 126.365 93.0673 126.202 93.814 126.202C94.542 126.202 95.186 126.361 95.746 126.678C96.306 126.995 96.7353 127.434 97.034 127.994C97.342 128.545 97.496 129.17 97.496 129.87ZM96.18 129.604C96.18 129.119 96.0726 128.703 95.858 128.358C95.6433 128.003 95.3493 127.737 94.976 127.56C94.612 127.373 94.206 127.28 93.758 127.28C93.114 127.28 92.5633 127.485 92.106 127.896C91.658 128.307 91.4013 128.876 91.336 129.604H96.18ZM98.7016 130.136C98.7016 129.352 98.8603 128.666 99.1776 128.078C99.4949 127.481 99.9289 127.019 100.48 126.692C101.04 126.365 101.665 126.202 102.356 126.202C102.953 126.202 103.508 126.342 104.022 126.622C104.535 126.893 104.927 127.252 105.198 127.7V123.64H106.486V134H105.198V132.558C104.946 133.015 104.572 133.393 104.078 133.692C103.583 133.981 103.004 134.126 102.342 134.126C101.66 134.126 101.04 133.958 100.48 133.622C99.9289 133.286 99.4949 132.815 99.1776 132.208C98.8603 131.601 98.7016 130.911 98.7016 130.136ZM105.198 130.15C105.198 129.571 105.081 129.067 104.848 128.638C104.614 128.209 104.297 127.882 103.896 127.658C103.504 127.425 103.07 127.308 102.594 127.308C102.118 127.308 101.684 127.42 101.292 127.644C100.9 127.868 100.587 128.195 100.354 128.624C100.12 129.053 100.004 129.557 100.004 130.136C100.004 130.724 100.12 131.237 100.354 131.676C100.587 132.105 100.9 132.437 101.292 132.67C101.684 132.894 102.118 133.006 102.594 133.006C103.07 133.006 103.504 132.894 103.896 132.67C104.297 132.437 104.614 132.105 104.848 131.676C105.081 131.237 105.198 130.729 105.198 130.15ZM113.925 127.378V131.9C113.925 132.273 114.004 132.539 114.163 132.698C114.322 132.847 114.597 132.922 114.989 132.922H115.927V134H114.779C114.07 134 113.538 133.837 113.183 133.51C112.828 133.183 112.651 132.647 112.651 131.9V127.378H111.657V126.328H112.651V124.396H113.925V126.328H115.927V127.378H113.925ZM120.817 134.126C120.098 134.126 119.445 133.963 118.857 133.636C118.278 133.309 117.821 132.847 117.485 132.25C117.158 131.643 116.995 130.943 116.995 130.15C116.995 129.366 117.163 128.675 117.499 128.078C117.844 127.471 118.311 127.009 118.899 126.692C119.487 126.365 120.145 126.202 120.873 126.202C121.601 126.202 122.259 126.365 122.847 126.692C123.435 127.009 123.897 127.467 124.233 128.064C124.578 128.661 124.751 129.357 124.751 130.15C124.751 130.943 124.573 131.643 124.219 132.25C123.873 132.847 123.402 133.309 122.805 133.636C122.207 133.963 121.545 134.126 120.817 134.126ZM120.817 133.006C121.274 133.006 121.703 132.899 122.105 132.684C122.506 132.469 122.828 132.147 123.071 131.718C123.323 131.289 123.449 130.766 123.449 130.15C123.449 129.534 123.327 129.011 123.085 128.582C122.842 128.153 122.525 127.835 122.133 127.63C121.741 127.415 121.316 127.308 120.859 127.308C120.392 127.308 119.963 127.415 119.571 127.63C119.188 127.835 118.88 128.153 118.647 128.582C118.413 129.011 118.297 129.534 118.297 130.15C118.297 130.775 118.409 131.303 118.633 131.732C118.866 132.161 119.174 132.483 119.557 132.698C119.939 132.903 120.359 133.006 120.817 133.006ZM129.682 130.15C129.682 129.357 129.841 128.666 130.158 128.078C130.475 127.481 130.914 127.019 131.474 126.692C132.043 126.365 132.692 126.202 133.42 126.202C134.363 126.202 135.137 126.431 135.744 126.888C136.36 127.345 136.766 127.98 136.962 128.792H135.59C135.459 128.325 135.203 127.957 134.82 127.686C134.447 127.415 133.98 127.28 133.42 127.28C132.692 127.28 132.104 127.532 131.656 128.036C131.208 128.531 130.984 129.235 130.984 130.15C130.984 131.074 131.208 131.788 131.656 132.292C132.104 132.796 132.692 133.048 133.42 133.048C133.98 133.048 134.447 132.917 134.82 132.656C135.193 132.395 135.45 132.021 135.59 131.536H136.962C136.757 132.32 136.346 132.95 135.73 133.426C135.114 133.893 134.344 134.126 133.42 134.126C132.692 134.126 132.043 133.963 131.474 133.636C130.914 133.309 130.475 132.847 130.158 132.25C129.841 131.653 129.682 130.953 129.682 130.15ZM139.936 127.574C140.16 127.135 140.477 126.795 140.888 126.552C141.308 126.309 141.817 126.188 142.414 126.188V127.504H142.078C140.65 127.504 139.936 128.279 139.936 129.828V134H138.662V126.328H139.936V127.574ZM150.885 129.87C150.885 130.113 150.871 130.369 150.843 130.64H144.711C144.757 131.396 145.014 131.989 145.481 132.418C145.957 132.838 146.531 133.048 147.203 133.048C147.753 133.048 148.211 132.922 148.575 132.67C148.948 132.409 149.209 132.063 149.359 131.634H150.731C150.525 132.371 150.115 132.973 149.499 133.44C148.883 133.897 148.117 134.126 147.203 134.126C146.475 134.126 145.821 133.963 145.243 133.636C144.673 133.309 144.225 132.847 143.899 132.25C143.572 131.643 143.409 130.943 143.409 130.15C143.409 129.357 143.567 128.661 143.885 128.064C144.202 127.467 144.645 127.009 145.215 126.692C145.793 126.365 146.456 126.202 147.203 126.202C147.931 126.202 148.575 126.361 149.135 126.678C149.695 126.995 150.124 127.434 150.423 127.994C150.731 128.545 150.885 129.17 150.885 129.87ZM149.569 129.604C149.569 129.119 149.461 128.703 149.247 128.358C149.032 128.003 148.738 127.737 148.365 127.56C148.001 127.373 147.595 127.28 147.147 127.28C146.503 127.28 145.952 127.485 145.495 127.896C145.047 128.307 144.79 128.876 144.725 129.604H149.569ZM152.09 130.136C152.09 129.352 152.249 128.666 152.566 128.078C152.884 127.481 153.318 127.019 153.868 126.692C154.428 126.365 155.049 126.202 155.73 126.202C156.402 126.202 156.986 126.347 157.48 126.636C157.975 126.925 158.344 127.289 158.586 127.728V126.328H159.874V134H158.586V132.572C158.334 133.02 157.956 133.393 157.452 133.692C156.958 133.981 156.379 134.126 155.716 134.126C155.035 134.126 154.419 133.958 153.868 133.622C153.318 133.286 152.884 132.815 152.566 132.208C152.249 131.601 152.09 130.911 152.09 130.136ZM158.586 130.15C158.586 129.571 158.47 129.067 158.236 128.638C158.003 128.209 157.686 127.882 157.284 127.658C156.892 127.425 156.458 127.308 155.982 127.308C155.506 127.308 155.072 127.42 154.68 127.644C154.288 127.868 153.976 128.195 153.742 128.624C153.509 129.053 153.392 129.557 153.392 130.136C153.392 130.724 153.509 131.237 153.742 131.676C153.976 132.105 154.288 132.437 154.68 132.67C155.072 132.894 155.506 133.006 155.982 133.006C156.458 133.006 156.892 132.894 157.284 132.67C157.686 132.437 158.003 132.105 158.236 131.676C158.47 131.237 158.586 130.729 158.586 130.15ZM163.581 127.378V131.9C163.581 132.273 163.661 132.539 163.819 132.698C163.978 132.847 164.253 132.922 164.645 132.922H165.583V134H164.435C163.726 134 163.194 133.837 162.839 133.51C162.485 133.183 162.307 132.647 162.307 131.9V127.378H161.313V126.328H162.307V124.396H163.581V126.328H165.583V127.378H163.581ZM174.127 129.87C174.127 130.113 174.113 130.369 174.085 130.64H167.953C167.999 131.396 168.256 131.989 168.723 132.418C169.199 132.838 169.773 133.048 170.445 133.048C170.995 133.048 171.453 132.922 171.817 132.67C172.19 132.409 172.451 132.063 172.601 131.634H173.973C173.767 132.371 173.357 132.973 172.741 133.44C172.125 133.897 171.359 134.126 170.445 134.126C169.717 134.126 169.063 133.963 168.485 133.636C167.915 133.309 167.467 132.847 167.141 132.25C166.814 131.643 166.651 130.943 166.651 130.15C166.651 129.357 166.809 128.661 167.127 128.064C167.444 127.467 167.887 127.009 168.457 126.692C169.035 126.365 169.698 126.202 170.445 126.202C171.173 126.202 171.817 126.361 172.377 126.678C172.937 126.995 173.366 127.434 173.665 127.994C173.973 128.545 174.127 129.17 174.127 129.87ZM172.811 129.604C172.811 129.119 172.703 128.703 172.489 128.358C172.274 128.003 171.98 127.737 171.607 127.56C171.243 127.373 170.837 127.28 170.389 127.28C169.745 127.28 169.194 127.485 168.737 127.896C168.289 128.307 168.032 128.876 167.967 129.604H172.811ZM181.095 127.378V131.9C181.095 132.273 181.174 132.539 181.333 132.698C181.492 132.847 181.767 132.922 182.159 132.922H183.097V134H181.949C181.24 134 180.708 133.837 180.353 133.51C179.998 133.183 179.821 132.647 179.821 131.9V127.378H178.827V126.328H179.821V124.396H181.095V126.328H183.097V127.378H181.095ZM188.449 126.188C189.027 126.188 189.55 126.314 190.017 126.566C190.483 126.809 190.847 127.177 191.109 127.672C191.379 128.167 191.515 128.769 191.515 129.478V134H190.255V129.66C190.255 128.895 190.063 128.311 189.681 127.91C189.298 127.499 188.775 127.294 188.113 127.294C187.441 127.294 186.904 127.504 186.503 127.924C186.111 128.344 185.915 128.955 185.915 129.758V134H184.641V123.64H185.915V127.42C186.167 127.028 186.512 126.725 186.951 126.51C187.399 126.295 187.898 126.188 188.449 126.188ZM194.254 125.082C194.011 125.082 193.806 124.998 193.638 124.83C193.47 124.662 193.386 124.457 193.386 124.214C193.386 123.971 193.47 123.766 193.638 123.598C193.806 123.43 194.011 123.346 194.254 123.346C194.487 123.346 194.683 123.43 194.842 123.598C195.01 123.766 195.094 123.971 195.094 124.214C195.094 124.457 195.01 124.662 194.842 124.83C194.683 124.998 194.487 125.082 194.254 125.082ZM194.87 126.328V134H193.596V126.328H194.87ZM199.757 134.126C199.169 134.126 198.642 134.028 198.175 133.832C197.708 133.627 197.34 133.347 197.069 132.992C196.798 132.628 196.649 132.213 196.621 131.746H197.937C197.974 132.129 198.152 132.441 198.469 132.684C198.796 132.927 199.22 133.048 199.743 133.048C200.228 133.048 200.611 132.941 200.891 132.726C201.171 132.511 201.311 132.241 201.311 131.914C201.311 131.578 201.162 131.331 200.863 131.172C200.564 131.004 200.102 130.841 199.477 130.682C198.908 130.533 198.441 130.383 198.077 130.234C197.722 130.075 197.414 129.847 197.153 129.548C196.901 129.24 196.775 128.839 196.775 128.344C196.775 127.952 196.892 127.593 197.125 127.266C197.358 126.939 197.69 126.683 198.119 126.496C198.548 126.3 199.038 126.202 199.589 126.202C200.438 126.202 201.124 126.417 201.647 126.846C202.17 127.275 202.45 127.863 202.487 128.61H201.213C201.185 128.209 201.022 127.887 200.723 127.644C200.434 127.401 200.042 127.28 199.547 127.28C199.09 127.28 198.726 127.378 198.455 127.574C198.184 127.77 198.049 128.027 198.049 128.344C198.049 128.596 198.128 128.806 198.287 128.974C198.455 129.133 198.66 129.263 198.903 129.366C199.155 129.459 199.5 129.567 199.939 129.688C200.49 129.837 200.938 129.987 201.283 130.136C201.628 130.276 201.922 130.491 202.165 130.78C202.417 131.069 202.548 131.447 202.557 131.914C202.557 132.334 202.44 132.712 202.207 133.048C201.974 133.384 201.642 133.65 201.213 133.846C200.793 134.033 200.308 134.126 199.757 134.126ZM210.804 134.126C210.216 134.126 209.688 134.028 209.222 133.832C208.755 133.627 208.386 133.347 208.116 132.992C207.845 132.628 207.696 132.213 207.668 131.746H208.984C209.021 132.129 209.198 132.441 209.516 132.684C209.842 132.927 210.267 133.048 210.79 133.048C211.275 133.048 211.658 132.941 211.938 132.726C212.218 132.511 212.358 132.241 212.358 131.914C212.358 131.578 212.208 131.331 211.91 131.172C211.611 131.004 211.149 130.841 210.524 130.682C209.954 130.533 209.488 130.383 209.124 130.234C208.769 130.075 208.461 129.847 208.2 129.548C207.948 129.24 207.822 128.839 207.822 128.344C207.822 127.952 207.938 127.593 208.172 127.266C208.405 126.939 208.736 126.683 209.166 126.496C209.595 126.3 210.085 126.202 210.636 126.202C211.485 126.202 212.171 126.417 212.694 126.846C213.216 127.275 213.496 127.863 213.534 128.61H212.26C212.232 128.209 212.068 127.887 211.77 127.644C211.48 127.401 211.088 127.28 210.594 127.28C210.136 127.28 209.772 127.378 209.502 127.574C209.231 127.77 209.096 128.027 209.096 128.344C209.096 128.596 209.175 128.806 209.334 128.974C209.502 129.133 209.707 129.263 209.95 129.366C210.202 129.459 210.547 129.567 210.986 129.688C211.536 129.837 211.984 129.987 212.33 130.136C212.675 130.276 212.969 130.491 213.212 130.78C213.464 131.069 213.594 131.447 213.604 131.914C213.604 132.334 213.487 132.712 213.254 133.048C213.02 133.384 212.689 133.65 212.26 133.846C211.84 134.033 211.354 134.126 210.804 134.126ZM216.06 125.082C215.818 125.082 215.612 124.998 215.444 124.83C215.276 124.662 215.192 124.457 215.192 124.214C215.192 123.971 215.276 123.766 215.444 123.598C215.612 123.43 215.818 123.346 216.06 123.346C216.294 123.346 216.49 123.43 216.648 123.598C216.816 123.766 216.9 123.971 216.9 124.214C216.9 124.457 216.816 124.662 216.648 124.83C216.49 124.998 216.294 125.082 216.06 125.082ZM216.676 126.328V134H215.402V126.328H216.676ZM220.402 127.378V131.9C220.402 132.273 220.481 132.539 220.64 132.698C220.798 132.847 221.074 132.922 221.466 132.922H222.404V134H221.256C220.546 134 220.014 133.837 219.66 133.51C219.305 133.183 219.128 132.647 219.128 131.9V127.378H218.134V126.328H219.128V124.396H220.402V126.328H222.404V127.378H220.402ZM230.947 129.87C230.947 130.113 230.933 130.369 230.905 130.64H224.773C224.82 131.396 225.076 131.989 225.543 132.418C226.019 132.838 226.593 133.048 227.265 133.048C227.816 133.048 228.273 132.922 228.637 132.67C229.01 132.409 229.272 132.063 229.421 131.634H230.793C230.588 132.371 230.177 132.973 229.561 133.44C228.945 133.897 228.18 134.126 227.265 134.126C226.537 134.126 225.884 133.963 225.305 133.636C224.736 133.309 224.288 132.847 223.961 132.25C223.634 131.643 223.471 130.943 223.471 130.15C223.471 129.357 223.63 128.661 223.947 128.064C224.264 127.467 224.708 127.009 225.277 126.692C225.856 126.365 226.518 126.202 227.265 126.202C227.993 126.202 228.637 126.361 229.197 126.678C229.757 126.995 230.186 127.434 230.485 127.994C230.793 128.545 230.947 129.17 230.947 129.87ZM229.631 129.604C229.631 129.119 229.524 128.703 229.309 128.358C229.094 128.003 228.8 127.737 228.427 127.56C228.063 127.373 227.657 127.28 227.209 127.28C226.565 127.28 226.014 127.485 225.557 127.896C225.109 128.307 224.852 128.876 224.787 129.604H229.631ZM234.281 124.242L234.127 131.242H233.063L232.909 124.242H234.281ZM233.651 134.084C233.408 134.084 233.203 134 233.035 133.832C232.867 133.664 232.783 133.459 232.783 133.216C232.783 132.973 232.867 132.768 233.035 132.6C233.203 132.432 233.408 132.348 233.651 132.348C233.884 132.348 234.08 132.432 234.239 132.6C234.407 132.768 234.491 132.973 234.491 133.216C234.491 133.459 234.407 133.664 234.239 133.832C234.08 134 233.884 134.084 233.651 134.084ZM11.142 152.242L7.46 162H5.99L2.308 152.242H3.666L6.732 160.656L9.798 152.242H11.142ZM13.1969 153.082C12.9543 153.082 12.7489 152.998 12.5809 152.83C12.4129 152.662 12.3289 152.457 12.3289 152.214C12.3289 151.971 12.4129 151.766 12.5809 151.598C12.7489 151.43 12.9543 151.346 13.1969 151.346C13.4303 151.346 13.6263 151.43 13.7849 151.598C13.9529 151.766 14.0369 151.971 14.0369 152.214C14.0369 152.457 13.9529 152.662 13.7849 152.83C13.6263 152.998 13.4303 153.082 13.1969 153.082ZM13.8129 154.328V162H12.5389V154.328H13.8129ZM17.5383 155.378V159.9C17.5383 160.273 17.6176 160.539 17.7763 160.698C17.9349 160.847 18.2103 160.922 18.6022 160.922H19.5403V162H18.3923C17.6829 162 17.1509 161.837 16.7963 161.51C16.4416 161.183 16.2643 160.647 16.2643 159.9V155.378H15.2703V154.328H16.2643V152.396H17.5383V154.328H19.5403V155.378H17.5383ZM28.0839 157.87C28.0839 158.113 28.0699 158.369 28.0419 158.64H21.9099C21.9565 159.396 22.2132 159.989 22.6799 160.418C23.1559 160.838 23.7299 161.048 24.4019 161.048C24.9525 161.048 25.4099 160.922 25.7739 160.67C26.1472 160.409 26.4085 160.063 26.5579 159.634H27.9299C27.7245 160.371 27.3139 160.973 26.6979 161.44C26.0819 161.897 25.3165 162.126 24.4019 162.126C23.6739 162.126 23.0205 161.963 22.4419 161.636C21.8725 161.309 21.4245 160.847 21.0979 160.25C20.7712 159.643 20.6079 158.943 20.6079 158.15C20.6079 157.357 20.7665 156.661 21.0839 156.064C21.4012 155.467 21.8445 155.009 22.4139 154.692C22.9925 154.365 23.6552 154.202 24.4019 154.202C25.1299 154.202 25.7739 154.361 26.3339 154.678C26.8939 154.995 27.3232 155.434 27.6219 155.994C27.9299 156.545 28.0839 157.17 28.0839 157.87ZM26.7679 157.604C26.7679 157.119 26.6605 156.703 26.4459 156.358C26.2312 156.003 25.9372 155.737 25.5639 155.56C25.1999 155.373 24.7939 155.28 24.3459 155.28C23.7019 155.28 23.1512 155.485 22.6939 155.896C22.2459 156.307 21.9892 156.876 21.9239 157.604H26.7679ZM37.0455 157.422H34.0635V160.446H32.8735V157.422H29.9055V156.344H32.8735V153.306H34.0635V156.344H37.0455V157.422ZM44.4601 162L42.1361 158.01H40.5961V162H39.3221V152.242H42.4721C43.2095 152.242 43.8301 152.368 44.3341 152.62C44.8475 152.872 45.2301 153.213 45.4821 153.642C45.7341 154.071 45.8601 154.561 45.8601 155.112C45.8601 155.784 45.6641 156.377 45.2721 156.89C44.8895 157.403 44.3108 157.744 43.5361 157.912L45.9861 162H44.4601ZM40.5961 156.988H42.4721C43.1628 156.988 43.6808 156.82 44.0261 156.484C44.3715 156.139 44.5441 155.681 44.5441 155.112C44.5441 154.533 44.3715 154.085 44.0261 153.768C43.6901 153.451 43.1721 153.292 42.4721 153.292H40.5961V156.988ZM54.8397 157.87C54.8397 158.113 54.8257 158.369 54.7977 158.64H48.6657C48.7124 159.396 48.9691 159.989 49.4357 160.418C49.9117 160.838 50.4857 161.048 51.1577 161.048C51.7084 161.048 52.1657 160.922 52.5297 160.67C52.9031 160.409 53.1644 160.063 53.3137 159.634H54.6857C54.4804 160.371 54.0697 160.973 53.4537 161.44C52.8377 161.897 52.0724 162.126 51.1577 162.126C50.4297 162.126 49.7764 161.963 49.1977 161.636C48.6284 161.309 48.1804 160.847 47.8537 160.25C47.5271 159.643 47.3637 158.943 47.3637 158.15C47.3637 157.357 47.5224 156.661 47.8397 156.064C48.1571 155.467 48.6004 155.009 49.1697 154.692C49.7484 154.365 50.4111 154.202 51.1577 154.202C51.8857 154.202 52.5297 154.361 53.0897 154.678C53.6497 154.995 54.0791 155.434 54.3777 155.994C54.6857 156.545 54.8397 157.17 54.8397 157.87ZM53.5237 157.604C53.5237 157.119 53.4164 156.703 53.2017 156.358C52.9871 156.003 52.6931 155.737 52.3197 155.56C51.9557 155.373 51.5497 155.28 51.1017 155.28C50.4577 155.28 49.9071 155.485 49.4497 155.896C49.0017 156.307 48.7451 156.876 48.6797 157.604H53.5237ZM56.0454 158.136C56.0454 157.352 56.204 156.666 56.5214 156.078C56.8387 155.481 57.2727 155.019 57.8234 154.692C58.3834 154.365 59.004 154.202 59.6854 154.202C60.3574 154.202 60.9407 154.347 61.4354 154.636C61.93 154.925 62.2987 155.289 62.5414 155.728V154.328H63.8294V162H62.5414V160.572C62.2894 161.02 61.9114 161.393 61.4074 161.692C60.9127 161.981 60.334 162.126 59.6714 162.126C58.99 162.126 58.374 161.958 57.8234 161.622C57.2727 161.286 56.8387 160.815 56.5214 160.208C56.204 159.601 56.0454 158.911 56.0454 158.136ZM62.5414 158.15C62.5414 157.571 62.4247 157.067 62.1914 156.638C61.958 156.209 61.6407 155.882 61.2394 155.658C60.8474 155.425 60.4134 155.308 59.9374 155.308C59.4614 155.308 59.0274 155.42 58.6354 155.644C58.2434 155.868 57.9307 156.195 57.6974 156.624C57.464 157.053 57.3474 157.557 57.3474 158.136C57.3474 158.724 57.464 159.237 57.6974 159.676C57.9307 160.105 58.2434 160.437 58.6354 160.67C59.0274 160.894 59.4614 161.006 59.9374 161.006C60.4134 161.006 60.8474 160.894 61.2394 160.67C61.6407 160.437 61.958 160.105 62.1914 159.676C62.4247 159.237 62.5414 158.729 62.5414 158.15ZM65.5063 158.15C65.5063 157.357 65.665 156.666 65.9823 156.078C66.2996 155.481 66.7383 155.019 67.2983 154.692C67.8676 154.365 68.5163 154.202 69.2443 154.202C70.187 154.202 70.9616 154.431 71.5683 154.888C72.1843 155.345 72.5903 155.98 72.7863 156.792H71.4143C71.2836 156.325 71.027 155.957 70.6443 155.686C70.271 155.415 69.8043 155.28 69.2443 155.28C68.5163 155.28 67.9283 155.532 67.4803 156.036C67.0323 156.531 66.8083 157.235 66.8083 158.15C66.8083 159.074 67.0323 159.788 67.4803 160.292C67.9283 160.796 68.5163 161.048 69.2443 161.048C69.8043 161.048 70.271 160.917 70.6443 160.656C71.0176 160.395 71.2743 160.021 71.4143 159.536H72.7863C72.581 160.32 72.1703 160.95 71.5543 161.426C70.9383 161.893 70.1683 162.126 69.2443 162.126C68.5163 162.126 67.8676 161.963 67.2983 161.636C66.7383 161.309 66.2996 160.847 65.9823 160.25C65.665 159.653 65.5063 158.953 65.5063 158.15ZM76.0402 155.378V159.9C76.0402 160.273 76.1195 160.539 76.2782 160.698C76.4369 160.847 76.7122 160.922 77.1042 160.922H78.0422V162H76.8942C76.1849 162 75.6529 161.837 75.2982 161.51C74.9435 161.183 74.7662 160.647 74.7662 159.9V155.378H73.7722V154.328H74.7662V152.396H76.0402V154.328H78.0422V155.378H76.0402ZM86.8658 157.422H83.8838V160.446H82.6938V157.422H79.7258V156.344H82.6938V153.306H83.8838V156.344H86.8658V157.422ZM94.0285 156.974C94.3831 157.03 94.7051 157.175 94.9945 157.408C95.2931 157.641 95.5265 157.931 95.6945 158.276C95.8718 158.621 95.9605 158.99 95.9605 159.382C95.9605 159.877 95.8345 160.325 95.5825 160.726C95.3305 161.118 94.9618 161.431 94.4765 161.664C94.0005 161.888 93.4358 162 92.7825 162H89.1425V152.242H92.6425C93.3051 152.242 93.8698 152.354 94.3365 152.578C94.8031 152.793 95.1531 153.087 95.3865 153.46C95.6198 153.833 95.7365 154.253 95.7365 154.72C95.7365 155.299 95.5778 155.779 95.2605 156.162C94.9525 156.535 94.5418 156.806 94.0285 156.974ZM90.4165 156.456H92.5585C93.1558 156.456 93.6178 156.316 93.9445 156.036C94.2711 155.756 94.4345 155.369 94.4345 154.874C94.4345 154.379 94.2711 153.992 93.9445 153.712C93.6178 153.432 93.1465 153.292 92.5305 153.292H90.4165V156.456ZM92.6705 160.95C93.3051 160.95 93.7998 160.801 94.1545 160.502C94.5091 160.203 94.6865 159.788 94.6865 159.256C94.6865 158.715 94.4998 158.29 94.1265 157.982C93.7531 157.665 93.2538 157.506 92.6285 157.506H90.4165V160.95H92.6705ZM101.074 162.126C100.356 162.126 99.7024 161.963 99.1144 161.636C98.5357 161.309 98.0784 160.847 97.7424 160.25C97.4157 159.643 97.2524 158.943 97.2524 158.15C97.2524 157.366 97.4204 156.675 97.7564 156.078C98.1017 155.471 98.5684 155.009 99.1564 154.692C99.7444 154.365 100.402 154.202 101.13 154.202C101.858 154.202 102.516 154.365 103.104 154.692C103.692 155.009 104.154 155.467 104.49 156.064C104.836 156.661 105.008 157.357 105.008 158.15C105.008 158.943 104.831 159.643 104.476 160.25C104.131 160.847 103.66 161.309 103.062 161.636C102.465 161.963 101.802 162.126 101.074 162.126ZM101.074 161.006C101.532 161.006 101.961 160.899 102.362 160.684C102.764 160.469 103.086 160.147 103.328 159.718C103.58 159.289 103.706 158.766 103.706 158.15C103.706 157.534 103.585 157.011 103.342 156.582C103.1 156.153 102.782 155.835 102.39 155.63C101.998 155.415 101.574 155.308 101.116 155.308C100.65 155.308 100.22 155.415 99.8284 155.63C99.4457 155.835 99.1377 156.153 98.9044 156.582C98.6711 157.011 98.5544 157.534 98.5544 158.15C98.5544 158.775 98.6664 159.303 98.8904 159.732C99.1237 160.161 99.4317 160.483 99.8144 160.698C100.197 160.903 100.617 161.006 101.074 161.006ZM110.029 162.126C109.311 162.126 108.657 161.963 108.069 161.636C107.491 161.309 107.033 160.847 106.697 160.25C106.371 159.643 106.207 158.943 106.207 158.15C106.207 157.366 106.375 156.675 106.711 156.078C107.057 155.471 107.523 155.009 108.111 154.692C108.699 154.365 109.357 154.202 110.085 154.202C110.813 154.202 111.471 154.365 112.059 154.692C112.647 155.009 113.109 155.467 113.445 156.064C113.791 156.661 113.963 157.357 113.963 158.15C113.963 158.943 113.786 159.643 113.431 160.25C113.086 160.847 112.615 161.309 112.017 161.636C111.42 161.963 110.757 162.126 110.029 162.126ZM110.029 161.006C110.487 161.006 110.916 160.899 111.317 160.684C111.719 160.469 112.041 160.147 112.283 159.718C112.535 159.289 112.661 158.766 112.661 158.15C112.661 157.534 112.54 157.011 112.297 156.582C112.055 156.153 111.737 155.835 111.345 155.63C110.953 155.415 110.529 155.308 110.071 155.308C109.605 155.308 109.175 155.415 108.783 155.63C108.401 155.835 108.093 156.153 107.859 156.582C107.626 157.011 107.509 157.534 107.509 158.15C107.509 158.775 107.621 159.303 107.845 159.732C108.079 160.161 108.387 160.483 108.769 160.698C109.152 160.903 109.572 161.006 110.029 161.006ZM117.193 155.378V159.9C117.193 160.273 117.272 160.539 117.431 160.698C117.589 160.847 117.865 160.922 118.257 160.922H119.195V162H118.047C117.337 162 116.805 161.837 116.451 161.51C116.096 161.183 115.919 160.647 115.919 159.9V155.378H114.925V154.328H115.919V152.396H117.193V154.328H119.195V155.378H117.193ZM123.454 162.126C122.866 162.126 122.339 162.028 121.872 161.832C121.405 161.627 121.037 161.347 120.766 160.992C120.495 160.628 120.346 160.213 120.318 159.746H121.634C121.671 160.129 121.849 160.441 122.166 160.684C122.493 160.927 122.917 161.048 123.44 161.048C123.925 161.048 124.308 160.941 124.588 160.726C124.868 160.511 125.008 160.241 125.008 159.914C125.008 159.578 124.859 159.331 124.56 159.172C124.261 159.004 123.799 158.841 123.174 158.682C122.605 158.533 122.138 158.383 121.774 158.234C121.419 158.075 121.111 157.847 120.85 157.548C120.598 157.24 120.472 156.839 120.472 156.344C120.472 155.952 120.589 155.593 120.822 155.266C121.055 154.939 121.387 154.683 121.816 154.496C122.245 154.3 122.735 154.202 123.286 154.202C124.135 154.202 124.821 154.417 125.344 154.846C125.867 155.275 126.147 155.863 126.184 156.61H124.91C124.882 156.209 124.719 155.887 124.42 155.644C124.131 155.401 123.739 155.28 123.244 155.28C122.787 155.28 122.423 155.378 122.152 155.574C121.881 155.77 121.746 156.027 121.746 156.344C121.746 156.596 121.825 156.806 121.984 156.974C122.152 157.133 122.357 157.263 122.6 157.366C122.852 157.459 123.197 157.567 123.636 157.688C124.187 157.837 124.635 157.987 124.98 158.136C125.325 158.276 125.619 158.491 125.862 158.78C126.114 159.069 126.245 159.447 126.254 159.914C126.254 160.334 126.137 160.712 125.904 161.048C125.671 161.384 125.339 161.65 124.91 161.846C124.49 162.033 124.005 162.126 123.454 162.126ZM129.607 155.378V159.9C129.607 160.273 129.686 160.539 129.845 160.698C130.003 160.847 130.279 160.922 130.671 160.922H131.609V162H130.461C129.751 162 129.219 161.837 128.865 161.51C128.51 161.183 128.333 160.647 128.333 159.9V155.378H127.339V154.328H128.333V152.396H129.607V154.328H131.609V155.378H129.607ZM134.426 155.574C134.65 155.135 134.968 154.795 135.378 154.552C135.798 154.309 136.307 154.188 136.904 154.188V155.504H136.568C135.14 155.504 134.426 156.279 134.426 157.828V162H133.152V154.328H134.426V155.574ZM137.899 158.136C137.899 157.352 138.058 156.666 138.375 156.078C138.692 155.481 139.126 155.019 139.677 154.692C140.237 154.365 140.858 154.202 141.539 154.202C142.211 154.202 142.794 154.347 143.289 154.636C143.784 154.925 144.152 155.289 144.395 155.728V154.328H145.683V162H144.395V160.572C144.143 161.02 143.765 161.393 143.261 161.692C142.766 161.981 142.188 162.126 141.525 162.126C140.844 162.126 140.228 161.958 139.677 161.622C139.126 161.286 138.692 160.815 138.375 160.208C138.058 159.601 137.899 158.911 137.899 158.136ZM144.395 158.15C144.395 157.571 144.278 157.067 144.045 156.638C143.812 156.209 143.494 155.882 143.093 155.658C142.701 155.425 142.267 155.308 141.791 155.308C141.315 155.308 140.881 155.42 140.489 155.644C140.097 155.868 139.784 156.195 139.551 156.624C139.318 157.053 139.201 157.557 139.201 158.136C139.201 158.724 139.318 159.237 139.551 159.676C139.784 160.105 140.097 160.437 140.489 160.67C140.881 160.894 141.315 161.006 141.791 161.006C142.267 161.006 142.701 160.894 143.093 160.67C143.494 160.437 143.812 160.105 144.045 159.676C144.278 159.237 144.395 158.729 144.395 158.15ZM149.11 155.742C149.362 155.303 149.735 154.939 150.23 154.65C150.734 154.351 151.317 154.202 151.98 154.202C152.661 154.202 153.277 154.365 153.828 154.692C154.388 155.019 154.826 155.481 155.144 156.078C155.461 156.666 155.62 157.352 155.62 158.136C155.62 158.911 155.461 159.601 155.144 160.208C154.826 160.815 154.388 161.286 153.828 161.622C153.277 161.958 152.661 162.126 151.98 162.126C151.326 162.126 150.748 161.981 150.244 161.692C149.749 161.393 149.371 161.025 149.11 160.586V165.64H147.836V154.328H149.11V155.742ZM154.318 158.136C154.318 157.557 154.201 157.053 153.968 156.624C153.734 156.195 153.417 155.868 153.016 155.644C152.624 155.42 152.19 155.308 151.714 155.308C151.247 155.308 150.813 155.425 150.412 155.658C150.02 155.882 149.702 156.213 149.46 156.652C149.226 157.081 149.11 157.581 149.11 158.15C149.11 158.729 149.226 159.237 149.46 159.676C149.702 160.105 150.02 160.437 150.412 160.67C150.813 160.894 151.247 161.006 151.714 161.006C152.19 161.006 152.624 160.894 153.016 160.67C153.417 160.437 153.734 160.105 153.968 159.676C154.201 159.237 154.318 158.724 154.318 158.136Z" fill="#9E9E9E"/>
</svg>
