<svg width="119" height="16" viewBox="0 0 119 16" fill="none" xmlns="http://www.w3.org/2000/svg">
<path d="M3.37633 1.04V9.68C3.37633 10.6267 3.623 11.3533 4.11633 11.86C4.60966 12.3533 5.303 12.6 6.19633 12.6C7.103 12.6 7.80299 12.3533 8.29633 11.86C8.78966 11.3533 9.03633 10.6267 9.03633 9.68V1.04H11.8563V9.66C11.8563 10.8467 11.5963 11.8533 11.0763 12.68C10.5697 13.4933 9.883 14.1067 9.01633 14.52C8.163 14.9333 7.20966 15.14 6.15633 15.14C5.11633 15.14 4.16966 14.9333 3.31633 14.52C2.47633 14.1067 1.80966 13.4933 1.31633 12.68C0.822995 11.8533 0.576328 10.8467 0.576328 9.66V1.04H3.37633ZM17.3616 1.04V15H14.5616V1.04H17.3616ZM29.7737 1.04C31.2403 1.04 32.527 1.32667 33.6337 1.9C34.7537 2.47333 35.6137 3.29333 36.2137 4.36C36.827 5.41333 37.1337 6.64 37.1337 8.04C37.1337 9.44 36.827 10.6667 36.2137 11.72C35.6137 12.76 34.7537 13.5667 33.6337 14.14C32.527 14.7133 31.2403 15 29.7737 15H24.8937V1.04H29.7737ZM29.6737 12.62C31.1403 12.62 32.2737 12.22 33.0737 11.42C33.8737 10.62 34.2737 9.49333 34.2737 8.04C34.2737 6.58667 33.8737 5.45333 33.0737 4.64C32.2737 3.81333 31.1403 3.4 29.6737 3.4H27.6937V12.62H29.6737ZM42.0296 3.3V6.8H46.7296V9.02H42.0296V12.72H47.3296V15H39.2296V1.02H47.3296V3.3H42.0296ZM54.6941 15.14C53.7208 15.14 52.8408 14.9733 52.0541 14.64C51.2808 14.3067 50.6675 13.8267 50.2141 13.2C49.7608 12.5733 49.5275 11.8333 49.5141 10.98H52.5141C52.5541 11.5533 52.7541 12.0067 53.1141 12.34C53.4875 12.6733 53.9941 12.84 54.6341 12.84C55.2875 12.84 55.8008 12.6867 56.1741 12.38C56.5475 12.06 56.7341 11.6467 56.7341 11.14C56.7341 10.7267 56.6075 10.3867 56.3541 10.12C56.1008 9.85333 55.7808 9.64667 55.3941 9.5C55.0208 9.34 54.5008 9.16667 53.8341 8.98C52.9275 8.71333 52.1875 8.45333 51.6141 8.2C51.0541 7.93333 50.5675 7.54 50.1541 7.02C49.7541 6.48667 49.5541 5.78 49.5541 4.9C49.5541 4.07333 49.7608 3.35333 50.1741 2.74C50.5875 2.12667 51.1675 1.66 51.9141 1.34C52.6608 1.00667 53.5141 0.84 54.4741 0.84C55.9141 0.84 57.0808 1.19333 57.9741 1.9C58.8808 2.59333 59.3808 3.56667 59.4741 4.82H56.3941C56.3675 4.34 56.1608 3.94667 55.7741 3.64C55.4008 3.32 54.9008 3.16 54.2741 3.16C53.7275 3.16 53.2875 3.3 52.9541 3.58C52.6341 3.86 52.4741 4.26667 52.4741 4.8C52.4741 5.17333 52.5941 5.48667 52.8341 5.74C53.0875 5.98 53.3941 6.18 53.7541 6.34C54.1275 6.48667 54.6475 6.66 55.3141 6.86C56.2208 7.12667 56.9608 7.39333 57.5341 7.66C58.1075 7.92667 58.6008 8.32667 59.0141 8.86C59.4275 9.39333 59.6341 10.0933 59.6341 10.96C59.6341 11.7067 59.4408 12.4 59.0541 13.04C58.6675 13.68 58.1008 14.1933 57.3541 14.58C56.6075 14.9533 55.7208 15.14 54.6941 15.14ZM64.8616 1.04V15H62.0616V1.04H64.8616ZM77.348 5.24C77.028 4.65333 76.588 4.20667 76.028 3.9C75.468 3.59333 74.8147 3.44 74.068 3.44C73.2414 3.44 72.508 3.62667 71.868 4C71.228 4.37333 70.728 4.90667 70.368 5.6C70.008 6.29333 69.828 7.09333 69.828 8C69.828 8.93333 70.008 9.74667 70.368 10.44C70.7414 11.1333 71.2547 11.6667 71.908 12.04C72.5614 12.4133 73.3214 12.6 74.188 12.6C75.2547 12.6 76.128 12.32 76.808 11.76C77.488 11.1867 77.9347 10.3933 78.148 9.38H73.348V7.24H80.908V9.68C80.7214 10.6533 80.3214 11.5533 79.708 12.38C79.0947 13.2067 78.3014 13.8733 77.328 14.38C76.368 14.8733 75.288 15.12 74.088 15.12C72.7414 15.12 71.5214 14.82 70.428 14.22C69.348 13.6067 68.4947 12.76 67.868 11.68C67.2547 10.6 66.948 9.37333 66.948 8C66.948 6.62667 67.2547 5.4 67.868 4.32C68.4947 3.22667 69.348 2.38 70.428 1.78C71.5214 1.16667 72.7347 0.86 74.068 0.86C75.6414 0.86 77.008 1.24667 78.168 2.02C79.328 2.78 80.128 3.85333 80.568 5.24H77.348ZM94.9196 15H92.1196L85.7796 5.42V15H82.9796V1.02H85.7796L92.1196 10.62V1.02H94.9196V15ZM100.487 3.3V6.8H105.187V9.02H100.487V12.72H105.787V15H97.6866V1.02H105.787V3.3H100.487ZM115.531 15L112.451 9.56H111.131V15H108.331V1.04H113.571C114.651 1.04 115.571 1.23333 116.331 1.62C117.091 1.99333 117.658 2.50667 118.031 3.16C118.418 3.8 118.611 4.52 118.611 5.32C118.611 6.24 118.345 7.07333 117.811 7.82C117.278 8.55333 116.485 9.06 115.431 9.34L118.771 15H115.531ZM111.131 7.46H113.471C114.231 7.46 114.798 7.28 115.171 6.92C115.545 6.54667 115.731 6.03333 115.731 5.38C115.731 4.74 115.545 4.24667 115.171 3.9C114.798 3.54 114.231 3.36 113.471 3.36H111.131V7.46Z" fill="white"/>
</svg>
