<svg width="306" height="205" viewBox="0 0 306 205" fill="none" xmlns="http://www.w3.org/2000/svg">
<g clip-path="url(#clip0_502_101)">
<path d="M238.985 11.1936C237.364 10.4248 235.689 9.69255 234.022 9.01525L234.705 7.32202C236.399 8.00847 238.102 8.75898 239.76 9.53695L238.985 11.1844V11.1936Z" fill="url(#paint0_linear_502_101)"/>
<path d="M295.251 86.4097C292.008 65.5967 282.5 46.66 267.765 31.6406C261.581 25.3344 254.586 19.8703 246.973 15.4038L247.883 13.8296C255.634 18.3784 262.756 23.9341 269.058 30.3592C284.058 45.6532 293.739 64.9377 297.045 86.126L295.251 86.4097Z" fill="url(#paint1_linear_502_101)"/>
<path d="M117.867 162.614C105.254 145.526 98.5142 125.272 98.3594 104.029H100.172C100.317 124.869 106.938 144.758 119.315 161.525L117.858 162.614H117.867Z" fill="url(#paint2_linear_502_101)"/>
<path d="M117.512 47.7492L116.028 46.7059C117.075 45.1957 118.177 43.6946 119.306 42.2485L120.736 43.3743C119.625 44.793 118.55 46.2665 117.521 47.7492H117.512Z" fill="url(#paint3_linear_502_101)"/>
<path d="M134.479 29.032L133.313 27.6408C143.723 18.8177 155.617 12.3742 168.659 8.48438L169.178 10.2325C156.373 14.0492 144.697 20.3736 134.479 29.032Z" fill="url(#paint4_linear_502_101)"/>
<path d="M206.673 6.8095C203.531 6.47086 200.334 6.28781 197.174 6.26035C196.136 6.26035 195.098 6.26035 194.068 6.2878L194.023 4.46644C195.079 4.43898 196.136 4.42983 197.192 4.43898C200.416 4.46644 203.677 4.64949 206.873 4.99729L206.682 6.8095H206.673Z" fill="url(#paint5_linear_502_101)"/>
<path d="M237.765 15.6784C236.144 14.9005 234.477 14.1499 232.82 13.4727L233.512 11.7886C235.197 12.4842 236.9 13.2438 238.548 14.0401L237.765 15.6876V15.6784Z" fill="url(#paint6_linear_502_101)"/>
<path d="M291.416 92.2949C289.249 70.7314 279.714 50.3394 264.55 34.8715C257.209 27.3846 248.739 21.1883 239.386 16.4656L240.197 14.8364C249.732 19.6415 258.357 25.9568 265.843 33.5901C281.289 49.3509 291.016 70.1365 293.22 92.1119L291.416 92.2949Z" fill="url(#paint7_linear_502_101)"/>
<path d="M119.88 157.59C109.998 143.339 104.197 126.654 103.095 109.337L104.907 109.218C105.982 126.196 111.674 142.561 121.364 156.546L119.88 157.59Z" fill="url(#paint8_linear_502_101)"/>
<path d="M287.145 95.8736C285.715 74.1636 276.544 53.6435 261.326 38.1115C252.255 28.8491 241.527 21.7558 229.45 17.0422L230.106 15.3398C242.419 20.145 253.357 27.3755 262.619 36.8302C278.138 52.6825 287.491 73.6053 288.958 95.7546L287.145 95.8736Z" fill="url(#paint9_linear_502_101)"/>
<path d="M288.748 110.527L286.945 110.353C287.109 108.559 287.227 106.729 287.291 104.926L289.103 104.99C289.04 106.829 288.921 108.687 288.748 110.518V110.527Z" fill="url(#paint10_linear_502_101)"/>
<path d="M123.295 154.505C114.206 141.216 108.814 125.711 107.685 109.657L109.497 109.529C110.599 125.263 115.891 140.456 124.789 153.471L123.295 154.505Z" fill="url(#paint11_linear_502_101)"/>
<path d="M158.932 23.9706L158.149 22.3231C160.353 21.2614 162.63 20.2821 164.916 19.4126L165.562 21.115C163.322 21.9662 161.1 22.9272 158.932 23.9706Z" fill="url(#paint12_linear_502_101)"/>
<path d="M167.256 20.4927L166.646 18.772C167.22 18.5615 167.803 18.3602 168.386 18.168L168.959 19.8978C168.386 20.09 167.821 20.2822 167.256 20.4927Z" fill="url(#paint13_linear_502_101)"/>
<path d="M284.495 106.262L282.683 106.17C282.746 104.971 282.774 103.763 282.783 102.592C282.974 79.5545 274.213 57.8079 258.102 41.3516C242.911 25.8287 222.602 16.6578 200.917 15.5321L201.008 13.7107C223.148 14.8548 243.876 24.2179 259.395 40.0702C275.843 56.8744 284.786 79.0877 284.595 102.601C284.586 103.8 284.55 105.035 284.486 106.262H284.495Z" fill="url(#paint14_linear_502_101)"/>
<path d="M127.011 151.869C120.891 142.9 116.565 132.987 114.151 122.389L115.918 121.986C118.277 132.356 122.512 142.058 128.505 150.835L127.011 151.869Z" fill="url(#paint15_linear_502_101)"/>
<path d="M114.16 122.389C113.823 120.897 113.514 119.368 113.259 117.849L115.044 117.538C115.299 119.021 115.599 120.512 115.927 121.977L114.16 122.38V122.389Z" fill="url(#paint16_linear_502_101)"/>
<path d="M278.138 97.8231C277.155 77.8063 268.894 58.897 254.887 44.5732C239.569 28.904 219.068 20.1724 197.165 19.9802H196.354V18.1497H197.183C219.569 18.351 240.525 27.2748 256.181 43.2919C270.497 57.936 278.94 77.2663 279.951 97.7224L278.138 97.8139V97.8231Z" fill="url(#paint17_linear_502_101)"/>
<path d="M129.005 146.579C123.732 138.168 120.08 128.96 118.14 119.222L119.916 118.865C121.811 128.383 125.381 137.38 130.535 145.609L128.996 146.579H129.005Z" fill="url(#paint18_linear_502_101)"/>
<path d="M203.859 24.9134C201.646 24.7029 199.396 24.5839 197.165 24.5565C195.207 24.5382 193.221 24.5931 191.263 24.7304L191.145 22.909C193.149 22.7717 195.18 22.7168 197.183 22.7351C199.46 22.7534 201.764 22.8815 204.032 23.0921L203.859 24.9043V24.9134Z" fill="url(#paint19_linear_502_101)"/>
<path d="M272.282 87.2426C269.404 72.3147 262.273 58.6865 251.663 47.8223C239.404 35.2649 223.057 27.2015 205.644 25.1147L205.862 23.3025C223.685 25.4442 240.415 33.6907 252.965 46.5409C263.83 57.6614 271.125 71.6191 274.067 86.8948L272.282 87.2426Z" fill="url(#paint20_linear_502_101)"/>
<path d="M129.616 138.442C127.084 133.5 125.08 128.283 123.668 122.91L125.426 122.444C126.81 127.679 128.759 132.777 131.237 137.6L129.625 138.433L129.616 138.442Z" fill="url(#paint21_linear_502_101)"/>
<path d="M175.17 32.3179L174.642 30.5698C176.391 30.0389 178.194 29.5538 179.988 29.1511L180.389 30.9267C178.64 31.3203 176.882 31.7871 175.17 32.3088V32.3179Z" fill="url(#paint22_linear_502_101)"/>
<path d="M205.425 29.691C202.693 29.3524 199.915 29.1693 197.165 29.1419C194.533 29.1144 191.874 29.2334 189.26 29.4897L189.078 27.6775C191.755 27.412 194.478 27.2931 197.174 27.3205C199.997 27.348 202.839 27.5402 205.635 27.888L205.416 29.7002L205.425 29.691Z" fill="url(#paint23_linear_502_101)"/>
<path d="M265.743 79.9296C262.328 69.1387 256.344 59.1532 248.448 51.0531C237.438 39.768 222.793 32.272 207.201 29.9381L207.465 28.135C223.44 30.5238 238.448 38.212 249.732 49.7809C257.829 58.0823 263.958 68.3149 267.464 79.3804L265.734 79.9296H265.743Z" fill="url(#paint24_linear_502_101)"/>
<path d="M132.466 133.893C131.164 131.102 130.034 128.201 129.096 125.272L130.827 124.713C131.738 127.569 132.84 130.397 134.115 133.115L132.475 133.893H132.466Z" fill="url(#paint25_linear_502_101)"/>
<path d="M171.145 38.569L170.48 36.8758C173.905 35.512 177.457 34.4137 181.045 33.5991L181.446 35.3747C177.948 36.1619 174.488 37.2327 171.145 38.5598V38.569Z" fill="url(#paint26_linear_502_101)"/>
<path d="M202.884 34.0201C200.99 33.8371 199.068 33.7364 197.165 33.7181C195.48 33.6998 193.786 33.7456 192.11 33.8554L191.992 32.034C193.713 31.9242 195.452 31.8784 197.174 31.8967C199.123 31.915 201.099 32.0249 203.048 32.2079L202.875 34.0201H202.884Z" fill="url(#paint27_linear_502_101)"/>
<path d="M240.443 49.8267C230.762 41.6351 219.004 36.3174 206.454 34.4503L206.718 32.6472C219.605 34.5601 231.663 40.0151 241.608 48.4263L240.443 49.8175V49.8267Z" fill="url(#paint28_linear_502_101)"/>
<path d="M242.465 51.6116C242.246 51.4102 242.018 51.2089 241.8 51.0075L243.002 49.6438C243.23 49.8452 243.457 50.0557 243.685 50.2662L242.465 51.6116Z" fill="url(#paint29_linear_502_101)"/>
<path d="M261.262 80.8815C258.047 70.9509 252.501 61.7617 245.224 54.2931C244.332 53.3779 243.403 52.4809 242.465 51.6206L243.685 50.2751C244.651 51.1629 245.607 52.0874 246.518 53.0209C253.986 60.6908 259.678 70.1271 262.984 80.3231L261.262 80.8906V80.8815Z" fill="url(#paint30_linear_502_101)"/>
<path d="M238.011 157.91L236.946 156.436C239.359 154.679 241.672 152.739 243.84 150.661L245.088 151.979C242.866 154.111 240.479 156.107 238.002 157.919L238.011 157.91Z" fill="url(#paint31_linear_502_101)"/>
<path d="M203.85 170.751L203.695 168.939C209.059 168.463 214.369 167.328 219.478 165.571L220.07 167.291C214.824 169.103 209.369 170.266 203.859 170.751H203.85Z" fill="url(#paint32_linear_502_101)"/>
<path d="M176.801 41.388L176.245 39.649C179.169 38.7063 182.183 37.9558 185.207 37.4341L185.516 39.228C182.575 39.7405 179.651 40.4636 176.801 41.388Z" fill="url(#paint33_linear_502_101)"/>
<path d="M243.995 59.6657C243.348 58.9335 242.674 58.2105 242.009 57.524C230.133 45.3144 214.204 38.4866 197.165 38.2944C193.877 38.2578 190.544 38.4775 187.283 38.9534L187.019 37.1503C190.371 36.6652 193.786 36.4364 197.183 36.473C214.705 36.6744 231.089 43.6944 243.302 56.2518C243.995 56.9566 244.678 57.6979 245.352 58.4576L243.995 59.6749V59.6657Z" fill="url(#paint34_linear_502_101)"/>
<path d="M256.609 81.3209C254.268 74.4656 250.798 68.1046 246.308 62.4208L247.729 61.2859C252.346 67.1344 255.916 73.6694 258.33 80.726L256.618 81.3209H256.609Z" fill="url(#paint35_linear_502_101)"/>
<path d="M258.139 86.5104C257.847 85.348 257.519 84.1765 257.164 83.0324L258.894 82.4924C259.259 83.664 259.596 84.863 259.896 86.0619L258.139 86.5013V86.5104Z" fill="url(#paint36_linear_502_101)"/>
<path d="M237.438 152.61L236.317 151.183C238.02 149.828 239.669 148.373 241.226 146.844C243.512 144.602 245.643 142.158 247.565 139.577L249.022 140.666C247.046 143.311 244.851 145.828 242.501 148.144C240.907 149.709 239.204 151.21 237.447 152.61H237.438Z" fill="url(#paint37_linear_502_101)"/>
<path d="M201.746 166.312L201.637 164.491C209.451 164.015 217.01 162.083 224.123 158.743L224.888 160.39C217.575 163.832 209.788 165.818 201.746 166.312Z" fill="url(#paint38_linear_502_101)"/>
<path d="M223.858 49.6072C215.662 45.3054 206.427 42.9807 197.165 42.8708C190.252 42.7793 183.422 43.9051 176.874 46.1932L176.272 44.4726C183.021 42.1112 190.034 40.9488 197.183 41.0495C206.727 41.1685 216.245 43.5664 224.696 47.9963L223.858 49.6163V49.6072Z" fill="url(#paint39_linear_502_101)"/>
<path d="M251.108 79.6093C248.239 72.5618 244.095 66.2191 238.785 60.7641C234.842 56.7095 230.352 53.2498 225.434 50.4766L226.317 48.884C231.39 51.7396 236.017 55.3092 240.079 59.4919C245.543 65.1208 249.814 71.6557 252.774 78.9229L251.099 79.6093H251.108Z" fill="url(#paint40_linear_502_101)"/>
<path d="M254.586 91.7092C253.967 88.1671 253.011 84.6617 251.763 81.2935L253.466 80.6528C254.759 84.1308 255.743 87.7461 256.381 91.398L254.596 91.7183L254.586 91.7092Z" fill="url(#paint41_linear_502_101)"/>
<path d="M239.878 144.3L238.594 143.009C239.013 142.579 239.432 142.149 239.842 141.71L241.172 142.954C240.753 143.403 240.325 143.851 239.887 144.291L239.878 144.3Z" fill="url(#paint42_linear_502_101)"/>
<path d="M200.17 161.809L200.097 159.987C209.66 159.612 219.077 156.802 227.31 151.86L228.239 153.425C219.742 158.523 210.033 161.424 200.161 161.809H200.17Z" fill="url(#paint43_linear_502_101)"/>
<path d="M171.564 53.4237L170.744 51.7946C171.291 51.5108 171.846 51.2454 172.411 50.98L173.176 52.6366C172.638 52.8929 172.101 53.1491 171.564 53.4237Z" fill="url(#paint44_linear_502_101)"/>
<path d="M216.718 51.346C210.47 48.8474 203.895 47.5294 197.165 47.447C191.29 47.3646 185.462 48.2341 179.852 50.0189L179.305 48.2799C185.097 46.4311 191.108 45.5433 197.192 45.6165C204.15 45.708 210.944 47.0626 217.401 49.6528L216.727 51.346H216.718Z" fill="url(#paint45_linear_502_101)"/>
<path d="M243.439 74.3557C241.244 70.6031 238.594 67.116 235.561 63.9949C231.909 60.2332 227.747 57.0206 223.185 54.4488L224.068 52.8562C228.786 55.5105 233.093 58.8328 236.864 62.7227C239.988 65.9536 242.729 69.5506 245.006 73.4313L243.439 74.3557Z" fill="url(#paint46_linear_502_101)"/>
<path d="M250.434 94.6288C249.632 88.6613 247.856 82.9043 245.161 77.5134L246.782 76.6897C249.569 82.2636 251.408 88.2128 252.237 94.3817L250.443 94.6288H250.434Z" fill="url(#paint47_linear_502_101)"/>
<path d="M199.132 157.269L199.096 155.448C212.392 155.146 225.006 149.847 234.614 140.538L235.871 141.847C225.935 151.476 212.893 156.958 199.141 157.269H199.132Z" fill="url(#paint48_linear_502_101)"/>
<path d="M246.126 97.0358C245.033 85.8788 240.142 75.2893 232.346 67.2258C223.048 57.6064 210.552 52.2064 197.165 52.0142C187.301 51.8586 177.684 54.6227 169.342 59.9495L168.367 58.4119C177.01 52.8837 186.992 50.0372 197.192 50.1928C211.062 50.3942 224.013 55.9864 233.649 65.9536C241.736 74.3191 246.809 85.2931 247.938 96.8528L246.135 97.0358H246.126Z" fill="url(#paint49_linear_502_101)"/>
<path d="M247.547 109.868L245.752 109.584C246.117 107.278 246.317 104.925 246.354 102.582C246.363 101.933 246.354 101.283 246.344 100.633L248.157 100.587C248.175 101.264 248.175 101.933 248.166 102.61C248.129 105.035 247.92 107.479 247.547 109.868Z" fill="url(#paint50_linear_502_101)"/>
<path d="M198.64 152.702L198.613 150.881C210.962 150.698 222.665 145.81 231.554 137.133C232.647 136.072 233.703 134.937 234.687 133.774L236.071 134.955C235.042 136.163 233.949 137.344 232.82 138.442C223.594 147.448 211.454 152.51 198.64 152.702Z" fill="url(#paint51_linear_502_101)"/>
<path d="M171.336 64.1049L170.344 62.5764C173.978 60.1967 177.921 58.3204 182.056 57.0024L182.602 58.7414C178.622 60.0045 174.834 61.8076 171.336 64.1049Z" fill="url(#paint52_linear_502_101)"/>
<path d="M191.318 56.8834L191.118 55.0712C192.338 54.9339 193.586 54.8424 194.824 54.7966L194.888 56.618C193.704 56.6546 192.502 56.7461 191.327 56.8834H191.318Z" fill="url(#paint53_linear_502_101)"/>
<path d="M203.786 57.1856C201.609 56.8286 199.378 56.6273 197.165 56.5998H196.673L196.682 54.7693H197.192C199.496 54.8059 201.809 55.0164 204.077 55.3825L203.786 57.1856Z" fill="url(#paint54_linear_502_101)"/>
<path d="M221.909 64.3885C216.937 61.0203 211.427 58.7047 205.543 57.5057L205.908 55.7209C212.028 56.9657 217.756 59.382 222.929 62.8783L221.918 64.3885H221.909Z" fill="url(#paint55_linear_502_101)"/>
<path d="M241.709 98.9214C241.016 88.2678 236.545 78.1633 229.122 70.466C227.765 69.0656 226.308 67.7293 224.787 66.512L225.916 65.0842C227.501 66.3473 229.022 67.7293 230.425 69.1937C238.148 77.2023 242.792 87.7186 243.521 98.8024L241.709 98.9214Z" fill="url(#paint56_linear_502_101)"/>
<path d="M241.044 117.181L239.332 116.577C240.898 112.065 241.727 107.36 241.8 102.573C241.809 101.951 241.8 101.329 241.8 100.706L243.612 100.66C243.63 101.31 243.63 101.951 243.612 102.601C243.53 107.58 242.665 112.476 241.044 117.172V117.181Z" fill="url(#paint57_linear_502_101)"/>
<path d="M197.921 148.126C197.666 148.126 197.411 148.126 197.165 148.126C196.436 148.116 195.708 148.08 194.979 148.034L195.097 146.213C195.799 146.258 196.491 146.286 197.192 146.295C208.859 146.506 219.924 142.085 228.339 133.884C230.279 131.99 232.064 129.912 233.631 127.697L235.106 128.75C233.476 131.056 231.627 133.225 229.605 135.193C221.017 143.549 209.797 148.116 197.921 148.116V148.126Z" fill="url(#paint58_linear_502_101)"/>
<path d="M159.105 84.6798L157.475 83.8744C158.022 82.7578 158.614 81.6503 159.251 80.5886L160.808 81.5222C160.198 82.5381 159.624 83.5998 159.105 84.6707V84.6798Z" fill="url(#paint59_linear_502_101)"/>
<path d="M161.755 80.012L160.244 79.0052C160.581 78.4835 160.936 77.9709 161.3 77.4675L162.775 78.5384C162.429 79.0235 162.092 79.5177 161.765 80.012H161.755Z" fill="url(#paint60_linear_502_101)"/>
<path d="M168.713 71.8845L167.502 70.5299C170.271 68.0221 173.349 65.8895 176.664 64.178L177.493 65.798C174.323 67.4363 171.373 69.4865 168.713 71.8845Z" fill="url(#paint61_linear_502_101)"/>
<path d="M201.691 61.5055C201.099 61.4323 200.516 61.3682 199.915 61.3133L200.07 59.4919C200.689 59.5469 201.308 59.6109 201.919 59.6933L201.691 61.5055Z" fill="url(#paint62_linear_502_101)"/>
<path d="M210.343 63.5923C209.223 63.1896 208.085 62.8326 206.937 62.5306L207.401 60.7642C208.595 61.0845 209.788 61.4506 210.953 61.8716L210.343 63.5923Z" fill="url(#paint63_linear_502_101)"/>
<path d="M197.921 143.559C197.666 143.559 197.411 143.559 197.156 143.559C196.618 143.549 196.09 143.531 195.562 143.495L195.662 141.673C196.172 141.701 196.673 141.719 197.183 141.728C207.629 141.911 217.556 137.985 225.115 130.663C232.747 123.258 237.055 113.291 237.246 102.582C237.438 91.7732 233.403 81.5132 225.899 73.706C224.879 72.6443 223.786 71.6192 222.647 70.6765L223.804 69.2761C224.988 70.2646 226.126 71.3263 227.201 72.4429C235.042 80.607 239.259 91.3247 239.059 102.619C238.858 113.813 234.359 124.237 226.372 131.981C218.649 139.467 208.567 143.568 197.912 143.568L197.921 143.559Z" fill="url(#paint64_linear_502_101)"/>
<path d="M159.451 100.862L157.639 100.743C158.276 90.867 162.52 81.6687 169.578 74.8317C176.591 68.0404 185.789 64.1689 195.48 63.9309L195.525 65.7523C186.29 65.9811 177.52 69.6787 170.835 76.1496C164.096 82.6663 160.052 91.4436 159.451 100.862Z" fill="url(#paint65_linear_502_101)"/>
<path d="M227.073 82.5474C225.798 80.543 224.323 78.6576 222.675 76.9369C220.625 74.7952 218.312 72.9097 215.808 71.3263L216.773 69.7795C219.405 71.4362 221.837 73.4223 223.986 75.6738C225.716 77.4769 227.265 79.463 228.603 81.5681L227.073 82.5474Z" fill="url(#paint66_linear_502_101)"/>
<path d="M229.605 87.2519C229.131 86.1719 228.585 85.101 228.002 84.0668L229.578 83.1606C230.197 84.2498 230.761 85.3756 231.262 86.5013L229.605 87.2427V87.2519Z" fill="url(#paint67_linear_502_101)"/>
<path d="M198.576 138.973L198.54 137.152C207.274 136.987 215.571 133.527 221.9 127.423C228.676 120.888 232.501 112.064 232.693 102.582C232.775 98.5003 232.164 94.4732 230.88 90.5925L232.601 90.0159C233.949 94.0888 234.587 98.3356 234.505 102.619C234.305 112.586 230.279 121.867 223.157 128.741C216.491 135.175 207.766 138.808 198.576 138.982V138.973Z" fill="url(#paint68_linear_502_101)"/>
<path d="M162.375 107.653C162.165 105.978 162.083 104.266 162.12 102.573C162.32 93.2101 166.109 84.5152 172.803 78.0717C179.424 71.7015 188.094 68.3059 197.201 68.5072C198.64 68.5347 200.097 68.6628 201.527 68.8825L201.254 70.6856C199.897 70.4751 198.522 70.3561 197.156 70.3286C188.531 70.1456 180.325 73.3581 174.059 79.3897C167.721 85.4945 164.123 93.741 163.932 102.619C163.896 104.221 163.978 105.841 164.178 107.433L162.375 107.653Z" fill="url(#paint69_linear_502_101)"/>
<path d="M198.413 134.397L198.385 132.575C205.963 132.456 213.176 129.473 218.686 124.182C224.596 118.508 227.957 110.838 228.139 102.573C228.33 94.2077 225.243 86.2541 219.46 80.1676C215.871 76.3967 211.363 73.5411 206.409 71.912L206.973 70.1821C212.201 71.9028 216.973 74.9232 220.762 78.9046C226.882 85.3388 230.143 93.7592 229.942 102.61C229.742 111.36 226.19 119.487 219.924 125.491C214.077 131.102 206.436 134.26 198.394 134.388L198.413 134.397Z" fill="url(#paint70_linear_502_101)"/>
<path d="M197.921 129.83C197.666 129.83 197.411 129.83 197.156 129.82H196.919L196.983 127.99H197.201C204.014 128.2 210.498 125.684 215.471 120.942C220.525 116.137 223.403 109.612 223.594 102.573C223.786 95.4342 221.172 88.6246 216.245 83.4076C211.245 78.1174 204.469 75.0971 197.156 74.9049C189.742 74.7218 182.684 77.4585 177.275 82.6297C171.792 87.8741 168.668 94.9674 168.486 102.619C168.404 105.996 168.905 109.346 169.98 112.559L168.258 113.135C167.111 109.721 166.583 106.161 166.665 102.573C166.865 94.4365 170.18 86.8856 176.018 81.3025C181.774 75.8018 189.296 72.8638 197.192 73.0835C204.988 73.2849 212.21 76.5066 217.547 82.1537C222.811 87.7277 225.598 94.9948 225.398 102.628C225.197 110.152 222.11 117.135 216.709 122.279C211.573 127.175 204.915 129.839 197.912 129.839L197.921 129.83Z" fill="url(#paint71_linear_502_101)"/>
<path d="M197.921 125.253C197.666 125.253 197.402 125.253 197.146 125.244C196.126 125.207 195.097 125.107 194.096 124.933L194.405 123.139C195.334 123.295 196.281 123.395 197.21 123.432C202.802 123.624 208.139 121.592 212.256 117.712C216.445 113.767 218.858 108.385 219.041 102.573C219.232 96.6514 217.092 90.9951 213.021 86.6384C208.877 82.2086 203.239 79.6733 197.156 79.4811C190.954 79.2889 185.043 81.5587 180.498 85.8696C175.881 90.2445 173.231 96.1937 173.048 102.628C172.967 105.566 173.404 108.467 174.36 111.259L172.648 111.854C171.619 108.861 171.145 105.74 171.236 102.573C171.436 95.6629 174.287 89.2561 179.26 84.5425C184.159 79.9021 190.544 77.4584 197.219 77.6597C203.795 77.8611 209.879 80.6069 214.35 85.3845C218.749 90.089 221.062 96.212 220.862 102.619C220.662 108.925 218.048 114.755 213.503 119.029C209.223 123.057 203.722 125.253 197.93 125.253H197.921Z" fill="url(#paint72_linear_502_101)"/>
<path d="M197.884 120.677C197.638 120.677 197.383 120.677 197.137 120.659C195.334 120.586 193.558 120.238 191.864 119.625L192.474 117.904C193.995 118.453 195.598 118.764 197.219 118.837C201.509 119.03 205.835 117.428 209.041 114.453C212.319 111.415 214.305 107.076 214.487 102.546C214.669 97.9145 212.957 93.2925 209.797 89.8511C206.563 86.3365 201.955 84.2222 197.146 84.0392C192.238 83.8561 187.338 85.6958 183.713 89.0914C179.952 92.606 177.784 97.4111 177.602 102.61C177.493 105.841 178.176 109.099 179.597 112.019L177.966 112.824C176.418 109.63 175.662 106.079 175.781 102.546C175.981 96.8528 178.358 91.5992 182.475 87.7551C186.454 84.0392 191.819 82.0165 197.21 82.2178C202.492 82.4192 207.565 84.7439 211.126 88.6063C214.614 92.3955 216.5 97.5027 216.299 102.61C216.099 107.616 213.904 112.421 210.27 115.78C206.9 118.901 202.42 120.659 197.884 120.659V120.677Z" fill="url(#paint73_linear_502_101)"/>
<path d="M197.884 116.11C197.629 116.11 197.374 116.11 197.119 116.092C193.631 115.89 190.325 114.288 188.039 111.698C185.826 109.181 184.67 105.85 184.879 102.546C185.079 99.3423 186.555 96.3127 188.923 94.2351C191.218 92.2215 194.241 91.1873 197.229 91.3978C200.116 91.5991 202.839 92.9629 204.697 95.1321C206.491 97.228 207.392 99.9738 207.174 102.674C206.964 105.273 205.735 107.717 203.786 109.364C201.919 110.948 199.469 111.735 197.083 111.515C194.797 111.305 192.657 110.179 191.236 108.431C189.87 106.765 189.214 104.596 189.433 102.5C189.642 100.495 190.644 98.6558 192.174 97.4294C193.622 96.267 195.489 95.7361 197.283 95.9649C198.977 96.1846 200.516 97.0724 201.518 98.3995C202.456 99.6534 202.857 101.237 202.62 102.729C202.402 104.129 201.627 105.383 200.507 106.161C199.46 106.884 198.176 107.159 196.983 106.902C195.881 106.664 194.924 105.996 194.378 105.063C193.868 104.202 193.74 103.195 194.032 102.299C194.296 101.475 194.879 100.825 195.626 100.514C196.318 100.23 197.074 100.285 197.657 100.66C198.23 101.026 198.549 101.658 198.476 102.28C198.394 102.967 197.83 103.488 197.174 103.488V101.667C196.892 101.667 196.7 101.868 196.673 102.07C196.664 102.152 196.682 102.207 196.7 102.216C196.618 102.161 196.473 102.143 196.309 102.216C196.063 102.317 195.862 102.555 195.762 102.857C195.635 103.26 195.699 103.726 195.944 104.138C196.236 104.632 196.755 104.989 197.365 105.118C198.076 105.273 198.841 105.099 199.478 104.66C200.198 104.166 200.689 103.351 200.835 102.436C200.999 101.42 200.717 100.349 200.079 99.4887C199.378 98.546 198.276 97.9236 197.065 97.768C195.753 97.6033 194.387 97.9968 193.312 98.848C192.165 99.7633 191.409 101.164 191.245 102.683C191.072 104.303 191.582 105.969 192.639 107.268C193.759 108.641 195.444 109.529 197.256 109.694C199.168 109.877 201.127 109.236 202.629 107.964C204.214 106.628 205.216 104.642 205.38 102.518C205.553 100.294 204.806 98.0334 203.331 96.3127C201.782 94.5097 199.524 93.3747 197.11 93.21C194.597 93.027 192.056 93.9056 190.125 95.5988C188.121 97.3653 186.864 99.9372 186.701 102.655C186.518 105.474 187.511 108.33 189.405 110.49C191.373 112.723 194.223 114.096 197.229 114.27C200.334 114.444 203.467 113.337 205.826 111.222C208.258 109.035 209.751 105.877 209.924 102.546C210.106 99.1226 208.877 95.6721 206.555 93.091C204.168 90.4368 200.726 88.8076 197.119 88.6337C193.404 88.4415 189.688 89.8052 186.91 92.3497C184.05 94.9582 182.311 98.7107 182.138 102.637C182.019 105.182 182.557 107.753 183.686 110.06L182.056 110.865C180.799 108.284 180.198 105.41 180.325 102.555C180.526 98.1524 182.484 93.9331 185.69 91.0042C188.823 88.1395 193.012 86.611 197.21 86.8123C201.29 87.0137 205.188 88.8534 207.902 91.8737C210.544 94.8117 211.937 98.7382 211.737 102.646C211.536 106.454 209.824 110.069 207.028 112.577C204.505 114.847 201.209 116.11 197.875 116.11H197.884Z" fill="url(#paint74_linear_502_101)"/>
<path d="M115.499 167.044C101.346 148.675 93.6506 125.784 93.8146 102.582V101.722L95.636 101.749V102.591C95.463 125.381 103.031 147.878 116.938 165.927L115.499 167.044Z" fill="url(#paint75_linear_502_101)"/>
<path d="M110.545 50.1105L108.997 49.1586C109.315 48.6369 109.643 48.1152 109.971 47.5935L111.501 48.5728C111.182 49.0854 110.854 49.5979 110.545 50.1105Z" fill="url(#paint76_linear_502_101)"/>
<path d="M112.485 47.0445L110.973 46.0377C111.647 45.0126 112.348 43.9875 113.058 42.999L114.534 44.0607C113.842 45.0401 113.15 46.0468 112.485 47.0445Z" fill="url(#paint77_linear_502_101)"/>
<path d="M115.59 42.5963L114.133 41.5071C115.59 39.5393 117.129 37.5989 118.723 35.741L120.098 36.9308C118.532 38.7613 117.02 40.6651 115.59 42.5963Z" fill="url(#paint78_linear_502_101)"/>
<path d="M130.271 26.634L129.078 25.2611C141.073 14.7448 155.563 7.07489 170.972 3.09351L171.427 4.85996C156.291 8.76812 142.056 16.3007 130.271 26.634Z" fill="url(#paint79_linear_502_101)"/>
<path d="M235.115 4.53044C233.448 3.8623 231.736 3.23077 230.033 2.65416L230.616 0.924316C232.346 1.51008 234.095 2.15992 235.789 2.83721L235.124 4.53044H235.115Z" fill="url(#paint80_linear_502_101)"/>
<path d="M244.96 9.06118C243.895 8.50287 242.811 7.95372 241.727 7.44117L242.51 5.7937C243.612 6.32455 244.714 6.88286 245.798 7.45032L244.96 9.07033V9.06118Z" fill="url(#paint81_linear_502_101)"/>
<path d="M300.032 87.5996C296.981 65.4045 286.672 44.381 270.989 28.4005C264.213 21.4995 256.526 15.5777 248.129 10.7909L249.022 9.20752C257.565 14.0767 265.388 20.0991 272.273 27.1192C288.229 43.3742 298.721 64.7638 301.817 87.3524L300.023 87.5996H300.032Z" fill="url(#paint82_linear_502_101)"/>
<path d="M113.295 171.62C97.6215 152.125 89.0879 127.606 89.2518 102.582C89.2518 102.216 89.2518 101.859 89.2609 101.493L91.0733 101.53C91.0733 101.887 91.0642 102.244 91.0642 102.601C90.9003 127.203 99.2881 151.311 114.698 170.476L113.286 171.62H113.295Z" fill="url(#paint83_linear_502_101)"/>
<path d="M91.6199 92.478L89.8167 92.2949C89.935 91.0868 90.0899 89.8512 90.2538 88.6248L92.0479 88.8719C91.884 90.08 91.7383 91.2882 91.6199 92.478Z" fill="url(#paint84_linear_502_101)"/>
<path d="M103.733 52.8289L102.139 51.9594C105.618 45.461 109.78 39.3105 114.507 33.6633L115.891 34.8349C111.246 40.3813 107.157 46.4312 103.733 52.8197V52.8289Z" fill="url(#paint85_linear_502_101)"/>
<path d="M130.025 20.8587L128.878 19.4492C139.652 10.6352 151.838 4.09109 165.116 0.0090332L165.644 1.74803C152.593 5.76602 140.608 12.2003 130.025 20.8587Z" fill="url(#paint86_linear_502_101)"/>
<path d="M305.296 94.3817C303.511 68.3517 292.473 43.7678 274.204 25.1697C269.022 19.8887 263.275 15.1202 257.137 11.0015L258.148 9.48218C264.395 13.6741 270.233 18.5158 275.497 23.8792C294.067 42.7885 305.296 67.7843 307.109 94.2536L305.296 94.3817Z" fill="url(#paint87_linear_502_101)"/>
<path d="M109.771 174.522C93.4412 154.212 84.5343 128.667 84.7073 102.592C84.7073 101.438 84.7437 100.276 84.7802 99.1228L86.5925 99.1869C86.547 100.322 86.5288 101.457 86.5197 102.592C86.3557 128.246 95.1079 153.389 111.182 173.369L109.771 174.513V174.522Z" fill="url(#paint88_linear_502_101)"/>
<path d="M87.0935 91.9471L85.2903 91.7641C85.4178 90.5468 85.5635 89.3203 85.7274 88.103L87.5216 88.3501C87.3576 89.5491 87.221 90.7481 87.0935 91.9563V91.9471Z" fill="url(#paint89_linear_502_101)"/>
<path d="M96.5469 57.0664L94.8984 56.3068C95.1534 55.7485 95.4085 55.1901 95.6726 54.6318L97.3119 55.419C97.0478 55.9681 96.8019 56.5173 96.5469 57.0664Z" fill="url(#paint90_linear_502_101)"/>
<path d="M98.1043 53.7898L96.4832 52.9752C101.41 43.0355 107.758 33.9104 115.344 25.8469L116.665 27.1008C109.197 35.0361 102.958 44.0148 98.1134 53.7898H98.1043Z" fill="url(#paint91_linear_502_101)"/>
<path d="M121.792 21.9846L120.563 20.6483C121.009 20.2273 121.465 19.8154 121.92 19.4036L123.131 20.7581C122.685 21.1609 122.239 21.5727 121.792 21.9846Z" fill="url(#paint92_linear_502_101)"/>
<path d="M131.546 13.9028L130.472 12.4292C137.129 7.52345 144.351 3.34986 151.919 0.0366211L152.648 1.71155C145.198 4.96987 138.104 9.07024 131.546 13.9028Z" fill="url(#paint93_linear_502_101)"/>
<path d="M311.908 103.699L310.096 103.671C310.096 103.315 310.105 102.948 310.105 102.591C310.296 72.2231 298.693 43.5755 277.428 21.9296C272.701 17.1153 267.51 12.7038 262.018 8.8139L263.065 7.32202C268.648 11.2759 273.921 15.7607 278.73 20.6482C300.333 42.6419 312.127 71.7472 311.935 102.601C311.935 102.967 311.935 103.333 311.926 103.699H311.908Z" fill="url(#paint94_linear_502_101)"/>
<path d="M106.975 178.32C89.507 157.04 79.9716 130.141 80.1446 102.592V101.612L81.9661 101.64V102.61C81.784 129.738 91.1645 156.217 108.368 177.167L106.966 178.329L106.975 178.32Z" fill="url(#paint95_linear_502_101)"/>
<path d="M82.8494 88.9541L81.0461 88.7253C81.119 88.1121 81.201 87.508 81.292 86.8948L83.0862 87.151C83.0042 87.746 82.9223 88.35 82.8494 88.9541Z" fill="url(#paint96_linear_502_101)"/>
<path d="M90.6635 59.1898L88.9878 58.4942C93.9149 46.4952 100.736 35.4846 109.27 25.7554L110.636 26.9635C102.239 36.5463 95.5269 47.383 90.6726 59.199L90.6635 59.1898Z" fill="url(#paint97_linear_502_101)"/>
<path d="M111.829 25.6089L110.49 24.3825C111.893 22.8357 113.35 21.3072 114.834 19.8336C115.955 18.717 117.111 17.6187 118.277 16.5479L119.497 17.8933C118.35 18.9367 117.211 20.0258 116.109 21.1242C114.652 22.5703 113.213 24.0713 111.838 25.5998L111.829 25.6089Z" fill="url(#paint98_linear_502_101)"/>
<path d="M130.772 8.82302L129.734 7.33114C133.231 4.86909 136.892 2.57179 140.636 0.512451L141.51 2.11416C137.831 4.14603 134.215 6.40673 130.772 8.83217V8.82302Z" fill="url(#paint99_linear_502_101)"/>
<path d="M314.649 100.093C314.194 69.4408 302.118 40.5369 280.652 18.6896C274.641 12.5757 267.956 7.1116 260.779 2.44377L261.763 0.915283C269.049 5.65633 275.834 11.2028 281.936 17.4083C303.739 39.585 315.997 68.9374 316.462 100.065L314.649 100.093Z" fill="url(#paint100_linear_502_101)"/>
<path d="M104.598 182.585C97.8583 174.613 92.1571 165.79 87.6399 156.372L89.2701 155.585C93.7145 164.866 99.3337 173.561 105.973 181.414L104.589 182.595L104.598 182.585Z" fill="url(#paint101_linear_502_101)"/>
<path d="M82.6856 144.465C78.1319 131.669 75.7549 118.288 75.6001 104.715L77.4125 104.697C77.5673 118.078 79.917 131.248 84.3978 143.861L82.6856 144.474V144.465Z" fill="url(#paint102_linear_502_101)"/>
<path d="M78.3323 88.3775L76.5291 88.1487C76.6839 86.9314 76.8478 85.7141 77.0391 84.4968L78.8332 84.7806C78.6511 85.9795 78.478 87.1785 78.3323 88.3775Z" fill="url(#paint103_linear_502_101)"/>
<path d="M82.9587 67.116L81.2283 66.5669C86.2555 50.5773 94.3337 36.0612 105.253 23.4124L106.62 24.6113C95.8638 37.068 87.904 51.3736 82.9496 67.116H82.9587Z" fill="url(#paint104_linear_502_101)"/>
<path d="M107.822 23.2386L106.474 22.0213C108.122 20.1724 109.853 18.3419 111.61 16.5938C113.313 14.9005 115.099 13.2348 116.902 11.6514L118.095 13.0243C116.319 14.5894 114.57 16.2277 112.885 17.8934C111.146 19.6141 109.443 21.4172 107.822 23.2386Z" fill="url(#paint105_linear_502_101)"/>
<path d="M123.668 8.40202L122.557 6.9559C125.444 4.70436 128.477 2.56266 131.555 0.585693L132.53 2.12333C129.497 4.07284 126.51 6.17793 123.668 8.39286V8.40202Z" fill="url(#paint106_linear_502_101)"/>
<path d="M320.943 106.582L319.13 106.509C319.176 105.191 319.212 103.873 319.212 102.582C319.404 69.7704 306.854 38.8254 283.867 15.4497C279.768 11.2852 275.333 7.37708 270.688 3.84418L271.781 2.38892C276.499 5.97674 280.998 9.93981 285.151 14.1683C308.475 37.8919 321.216 69.2944 321.025 102.592C321.025 103.9 320.988 105.237 320.934 106.582H320.943Z" fill="url(#paint107_linear_502_101)"/>
<path d="M102.968 187.683C97.6944 181.716 92.9586 175.226 88.8967 168.38L90.4541 167.447C94.4613 174.192 99.1243 180.599 104.325 186.475L102.968 187.683Z" fill="url(#paint108_linear_502_101)"/>
<path d="M75.3541 136.218C75.1993 135.623 75.0445 135.028 74.8896 134.433L76.6474 133.985C76.7931 134.571 76.9479 135.156 77.1027 135.742L75.3541 136.218Z" fill="url(#paint109_linear_502_101)"/>
<path d="M74.4526 132.64C73.469 128.466 72.6857 124.201 72.1211 119.954L73.9152 119.716C74.4708 123.899 75.2358 128.109 76.2103 132.219L74.4435 132.64H74.4526Z" fill="url(#paint110_linear_502_101)"/>
<path d="M71.092 107.095C71.0556 105.868 71.0374 104.642 71.0374 103.406H72.8497C72.8497 104.614 72.8679 105.831 72.9044 107.04L71.092 107.095Z" fill="url(#paint111_linear_502_101)"/>
<path d="M74.1521 85.2931L72.3579 85.0277C72.449 84.4236 72.5401 83.8104 72.6402 83.2063L74.4344 83.4992C74.3433 84.0941 74.2431 84.6982 74.1612 85.2931H74.1521Z" fill="url(#paint112_linear_502_101)"/>
<path d="M75.0536 79.9206L73.2686 79.5819C76.274 63.7662 82.1573 48.8658 90.7638 35.2925L92.2938 36.2718C83.8149 49.6438 78.0044 64.3337 75.0445 79.9206H75.0536Z" fill="url(#paint113_linear_502_101)"/>
<path d="M100.773 24.4923L99.3701 23.3391C99.7526 22.8631 100.144 22.3872 100.536 21.9204L101.929 23.0919C101.538 23.5587 101.155 24.0255 100.773 24.4923Z" fill="url(#paint114_linear_502_101)"/>
<path d="M106.738 17.6737L105.417 16.4198C106.383 15.3947 107.385 14.3604 108.396 13.3628C109.989 11.7794 111.656 10.2143 113.323 8.72241L114.525 10.0862C112.876 11.5597 111.237 13.0974 109.671 14.6625C108.678 15.6509 107.694 16.6577 106.738 17.6737Z" fill="url(#paint115_linear_502_101)"/>
<path d="M115.882 8.88721L114.698 7.50517C117.694 4.90583 120.854 2.42548 124.087 0.128174L125.135 1.62005C121.947 3.88989 118.832 6.33364 115.882 8.89637V8.88721Z" fill="url(#paint116_linear_502_101)"/>
<path d="M322.819 86.2998C319.404 58.4851 306.717 32.1805 287.091 12.2278C285.442 10.5529 283.739 8.91455 282.018 7.34946L283.238 5.99487C284.987 7.58743 286.717 9.2532 288.384 10.9464C308.293 31.1828 321.171 57.8627 324.622 86.0802L322.819 86.2998Z" fill="url(#paint117_linear_502_101)"/>
<path d="M111.565 202.657C111.1 202.254 110.645 201.851 110.19 201.44L111.401 200.085C111.847 200.488 112.303 200.89 112.758 201.284L111.565 202.657Z" fill="url(#paint118_linear_502_101)"/>
<path d="M103.578 195.06C97.6215 188.901 92.2391 182.128 87.5852 174.925L89.1061 173.936C93.6962 181.038 98.9967 187.72 104.871 193.797L103.569 195.069L103.578 195.06Z" fill="url(#paint119_linear_502_101)"/>
<path d="M66.4836 103.461V102.591C66.5019 99.8182 66.602 97.0175 66.7933 94.2534L68.6057 94.3816C68.4144 97.109 68.3142 99.8731 68.296 102.601V103.461H66.4836Z" fill="url(#paint120_linear_502_101)"/>
<path d="M71.5017 74.6119L69.7349 74.2092C73.0044 59.7572 78.6418 46.0649 86.4833 33.5259L88.0224 34.4961C80.2903 46.8612 74.7257 60.3613 71.5017 74.6119Z" fill="url(#paint121_linear_502_101)"/>
<path d="M95.2809 24.0805L93.8511 22.9639C95.7181 20.5476 97.6944 18.1588 99.7253 15.8889L101.073 17.1062C99.0696 19.3486 97.1297 21.7008 95.2809 24.0805Z" fill="url(#paint122_linear_502_101)"/>
<path d="M102.285 15.7517L100.946 14.5161C102.312 13.0242 103.733 11.5507 105.163 10.1229C108.496 6.80963 112.048 3.65198 115.709 0.723145L116.838 2.15095C113.222 5.03402 109.725 8.15506 106.438 11.4225C105.026 12.8229 103.623 14.2873 102.275 15.7517H102.285Z" fill="url(#paint123_linear_502_101)"/>
<path d="M327.418 86.4189C324.094 58.0824 311.425 31.1189 291.753 10.4889L293.065 9.22583C313.01 30.1395 325.842 57.4784 329.221 86.2084L327.418 86.4189Z" fill="url(#paint124_linear_502_101)"/>
<path d="M107.321 205C105.208 203.105 103.132 201.128 101.137 199.106C97.3939 195.307 93.842 191.244 90.5725 187.024L92.0024 185.908C95.2264 190.063 98.7327 194.072 102.421 197.824C104.388 199.82 106.438 201.778 108.523 203.645L107.312 205.009L107.321 205Z" fill="url(#paint125_linear_502_101)"/>
<path d="M63.797 99.5344L61.9846 99.4795C62.103 95.1961 62.4309 90.8669 62.95 86.6201L64.7533 86.8489C64.2341 91.0408 63.9154 95.3059 63.797 99.5344Z" fill="url(#paint126_linear_502_101)"/>
<path d="M66.9024 74.31L65.1265 73.9165C68.4506 58.8421 74.2611 44.5641 82.3849 31.4758L83.924 32.4369C75.9096 45.3512 70.1719 59.437 66.8933 74.31H66.9024Z" fill="url(#paint127_linear_502_101)"/>
<path d="M87.9313 26.3778L86.4468 25.3344C89.2427 21.3256 92.2937 17.4265 95.5177 13.7563L96.8838 14.9645C93.7144 18.5889 90.6999 22.433 87.9404 26.3869L87.9313 26.3778Z" fill="url(#paint128_linear_502_101)"/>
<path d="M99.2972 12.2552L97.9675 11.0105C98.3865 10.562 98.8054 10.1135 99.2243 9.66504L100.536 10.9281C100.117 11.3674 99.707 11.8067 99.2972 12.2552Z" fill="url(#paint129_linear_502_101)"/>
<path d="M101.802 9.62853L100.509 8.35631C100.982 7.86207 101.465 7.37698 101.957 6.90105C104.07 4.8051 106.283 2.74577 108.523 0.787109L109.707 2.16915C107.494 4.10035 105.308 6.12308 103.223 8.20072C102.74 8.67665 102.266 9.15259 101.793 9.63768L101.802 9.62853Z" fill="url(#paint130_linear_502_101)"/>
<path d="M331.844 85.0186C328.374 57.0024 316.571 31.1189 297.691 10.1686L299.039 8.94214C318.165 30.1762 330.132 56.4075 333.647 84.7989L331.844 85.0277V85.0186Z" fill="url(#paint131_linear_502_101)"/>
<path d="M59.3253 97.1824L57.5129 97.1C57.6222 94.6654 57.7953 92.1851 58.0321 89.7505L59.8353 89.9244C59.6076 92.3315 59.4346 94.7753 59.3253 97.1824Z" fill="url(#paint132_linear_502_101)"/>
<path d="M62.367 73.7699L60.5911 73.3855C65.2813 51.7762 75.1537 31.3201 89.1152 14.2505L90.5178 15.4129C76.7293 32.2628 66.9935 52.4443 62.367 73.7699Z" fill="url(#paint133_linear_502_101)"/>
<path d="M91.6744 14.0127L90.29 12.832C92.9585 9.66523 95.7909 6.57165 98.7325 3.65197L99.1879 3.19434L100.454 4.49401L99.9985 4.94248C97.1023 7.82555 94.2973 10.8734 91.6652 14.0036L91.6744 14.0127Z" fill="url(#paint134_linear_502_101)"/>
<path d="M332.345 64.2513C327.144 45.3786 318.283 28.0985 305.997 12.8869L307.409 11.7336C319.849 27.1375 328.829 44.6464 334.093 63.7662L332.345 64.2513Z" fill="url(#paint135_linear_502_101)"/>
<path d="M54.899 94.638L53.0867 94.5281C53.2324 92.0844 53.4419 89.6132 53.7151 87.1877L55.5183 87.3891C55.2542 89.7871 55.0447 92.2217 54.899 94.638Z" fill="url(#paint136_linear_502_101)"/>
<path d="M57.1395 76.5982L55.3545 76.2596C60.2907 50.1381 72.2759 25.9111 89.9988 6.20557L91.3467 7.43201C73.8424 26.8904 62.012 50.8062 57.1395 76.5982Z" fill="url(#paint137_linear_502_101)"/>
<path d="M50.391 93.7592L48.5786 93.6402C50.5367 63.2353 61.5019 34.551 80.2904 10.6719L81.7111 11.8068C63.1595 35.3931 52.3308 63.7295 50.391 93.7684V93.7592Z" fill="url(#paint138_linear_502_101)"/>
<path d="M82.8494 10.3791L81.4377 9.23501C82.2028 8.28314 82.986 7.34042 83.7783 6.39771L85.1626 7.57839C84.3794 8.5028 83.6053 9.43637 82.8494 10.3791Z" fill="url(#paint139_linear_502_101)"/>
<path d="M45.8919 92.7524L44.0796 92.6243C46.1743 62.2926 57.0211 33.5351 75.4453 9.45459L76.8842 10.5621C58.6787 34.3588 47.9593 62.7777 45.8828 92.7433L45.8919 92.7524Z" fill="url(#paint140_linear_502_101)"/>
<path d="M78.0042 9.13433L76.5835 8.00856C77.3394 7.04754 78.1044 6.08652 78.8877 5.1438L80.2902 6.30618C79.5161 7.23974 78.7602 8.18246 78.0134 9.13433H78.0042Z" fill="url(#paint141_linear_502_101)"/>
<path d="M41.9119 86.2084L40.1086 86.0071C42.8408 60.9839 51.593 36.6654 65.427 15.6968L66.9389 16.7036C53.2687 37.4342 44.6077 61.4689 41.9119 86.2084Z" fill="url(#paint142_linear_502_101)"/>
<path d="M67.9407 15.1933L66.438 14.1682C67.458 12.6581 68.5236 11.1387 69.6073 9.65601L71.0736 10.736C70.0081 12.2096 68.9516 13.7106 67.9407 15.1933Z" fill="url(#paint143_linear_502_101)"/>
<path d="M37.4585 85.0277L35.6553 84.8172C35.7919 83.5999 35.9467 82.3826 36.1106 81.1653L37.9048 81.4124C37.7409 82.6114 37.5951 83.8195 37.4585 85.0277Z" fill="url(#paint144_linear_502_101)"/>
<path d="M38.4421 77.8155L36.6479 77.5318C40.2545 54.8791 48.3782 33.6542 60.8097 14.4246L62.3306 15.413C50.0448 34.423 42.0031 55.4191 38.433 77.8155H38.4421Z" fill="url(#paint145_linear_502_101)"/>
<path d="M33.7426 78.3646L31.9485 78.09C35.3728 55.4373 43.2234 34.0935 55.2724 14.6533L56.8115 15.6143C44.8991 34.844 37.1306 55.959 33.7426 78.3646Z" fill="url(#paint146_linear_502_101)"/>
<path d="M29.6261 75.2527L27.8411 74.9506C27.9412 74.3466 28.0414 73.7425 28.1507 73.1384L29.9358 73.4588C29.8265 74.0537 29.7263 74.6578 29.6261 75.2527Z" fill="url(#paint147_linear_502_101)"/>
<path d="M30.9742 68.0953L29.1982 67.72C33.1235 49.0304 40.0633 31.2378 49.8173 14.8455L51.3746 15.779C41.7208 31.9974 34.8539 49.5979 30.9742 68.0953Z" fill="url(#paint148_linear_502_101)"/>
<path d="M28.2692 59.6475L26.5115 59.1899C26.6663 58.595 26.8211 58.0001 26.9759 57.4143L28.7246 57.8902C28.5697 58.476 28.4149 59.0618 28.2601 59.6475H28.2692Z" fill="url(#paint149_linear_502_101)"/>
<path d="M35.6552 37.1961L33.9795 36.5096C37.1944 28.5835 41.0195 20.8221 45.3454 13.4451L46.9119 14.3695C42.6315 21.6641 38.8428 29.3431 35.6552 37.1961Z" fill="url(#paint150_linear_502_101)"/>
<path d="M33.4329 30.762L31.7754 30.0298C34.2344 24.4375 37.003 18.9093 39.9993 13.6008L41.5749 14.5069C38.6059 19.7605 35.8646 25.2338 33.4329 30.7711V30.762Z" fill="url(#paint151_linear_502_101)"/>
<path d="M29.0889 29.3158L27.4314 28.5836C29.8722 22.9913 32.6226 17.454 35.6007 12.1272L37.1854 13.0242C34.2346 18.2961 31.5115 23.7785 29.098 29.3158H29.0889Z" fill="url(#paint152_linear_502_101)"/>
<path d="M24.0434 29.5172L22.3767 28.8033C24.5169 23.7419 26.8939 18.7171 29.4622 13.8662L31.0651 14.7174C28.5242 19.5225 26.1654 24.5015 24.0434 29.508V29.5172Z" fill="url(#paint153_linear_502_101)"/>
<path d="M17.6774 33.0866L15.9834 32.4276C18.1874 26.7347 20.6919 21.0875 23.4241 15.6326L25.0452 16.4471C22.3403 21.8563 19.8631 27.4486 17.6774 33.0866Z" fill="url(#paint154_linear_502_101)"/>
<path d="M12.0944 34.9812L10.3914 34.3497C12.2766 29.1968 14.4077 24.053 16.7119 19.074L18.3603 19.8428C16.0743 24.776 13.9705 29.874 12.1035 34.9812H12.0944Z" fill="url(#paint155_linear_502_101)"/>
<path d="M7.19485 35.1551L5.48267 34.5419C5.69213 33.9652 5.8925 33.3886 6.10196 32.812L7.80504 33.4435C7.59557 34.011 7.3861 34.5876 7.18574 35.1551H7.19485Z" fill="url(#paint156_linear_502_101)"/>
<path d="M8.4425 31.7322L6.74854 31.0915C7.60463 28.8125 8.51536 26.5152 9.45342 24.2637L11.1292 24.9684C10.2002 27.2017 9.28948 29.4807 8.4425 31.7413V31.7322Z" fill="url(#paint157_linear_502_101)"/>
<path d="M12.5589 21.6186L10.9014 20.8864C11.1473 20.328 11.3932 19.7697 11.6482 19.2114L13.3057 19.9619C13.0598 20.5202 12.8139 21.0694 12.568 21.6277L12.5589 21.6186Z" fill="url(#paint158_linear_502_101)"/>
<path d="M1.72129 37.0406L0 36.4548C0.191254 35.8782 0.391616 35.2924 0.591977 34.7158L2.30416 35.3107C2.1038 35.8874 1.91254 36.464 1.72129 37.0314V37.0406Z" fill="url(#paint159_linear_502_101)"/>
</g>
<defs>
<linearGradient id="paint0_linear_502_101" x1="234.022" y1="7.76197" x2="239.957" y2="8.14698" gradientUnits="userSpaceOnUse">
<stop stop-color="#EB7724"/>
<stop offset="1" stop-color="#FFC700"/>
</linearGradient>
<linearGradient id="paint1_linear_502_101" x1="246.973" y1="22.0773" x2="298.94" y2="23.6466" gradientUnits="userSpaceOnUse">
<stop stop-color="#EB7724"/>
<stop offset="1" stop-color="#FFC700"/>
</linearGradient>
<linearGradient id="paint2_linear_502_101" x1="98.3594" y1="110.686" x2="120.123" y2="111.027" gradientUnits="userSpaceOnUse">
<stop stop-color="#EB7724"/>
<stop offset="1" stop-color="#FFC700"/>
</linearGradient>
<linearGradient id="paint3_linear_502_101" x1="116.028" y1="42.8736" x2="120.912" y2="43.0566" gradientUnits="userSpaceOnUse">
<stop stop-color="#EB7724"/>
<stop offset="1" stop-color="#FFC700"/>
</linearGradient>
<linearGradient id="paint4_linear_502_101" x1="133.313" y1="10.8193" x2="170.353" y2="13.6492" gradientUnits="userSpaceOnUse">
<stop stop-color="#EB7724"/>
<stop offset="1" stop-color="#FFC700"/>
</linearGradient>
<linearGradient id="paint5_linear_502_101" x1="194.023" y1="4.70531" x2="206.662" y2="7.70007" gradientUnits="userSpaceOnUse">
<stop stop-color="#EB7724"/>
<stop offset="1" stop-color="#FFC700"/>
</linearGradient>
<linearGradient id="paint6_linear_502_101" x1="232.82" y1="12.2316" x2="238.746" y2="12.6128" gradientUnits="userSpaceOnUse">
<stop stop-color="#EB7724"/>
<stop offset="1" stop-color="#FFC700"/>
</linearGradient>
<linearGradient id="paint7_linear_502_101" x1="239.386" y1="23.6385" x2="295.257" y2="25.3381" gradientUnits="userSpaceOnUse">
<stop stop-color="#EB7724"/>
<stop offset="1" stop-color="#FFC700"/>
</linearGradient>
<linearGradient id="paint8_linear_502_101" x1="103.095" y1="114.715" x2="122.068" y2="115.028" gradientUnits="userSpaceOnUse">
<stop stop-color="#EB7724"/>
<stop offset="1" stop-color="#FFC700"/>
</linearGradient>
<linearGradient id="paint9_linear_502_101" x1="229.45" y1="24.4914" x2="291.202" y2="26.4886" gradientUnits="userSpaceOnUse">
<stop stop-color="#EB7724"/>
<stop offset="1" stop-color="#FFC700"/>
</linearGradient>
<linearGradient id="paint10_linear_502_101" x1="286.945" y1="105.562" x2="289.186" y2="105.6" gradientUnits="userSpaceOnUse">
<stop stop-color="#EB7724"/>
<stop offset="1" stop-color="#FFC700"/>
</linearGradient>
<linearGradient id="paint11_linear_502_101" x1="107.685" y1="114.64" x2="125.447" y2="114.936" gradientUnits="userSpaceOnUse">
<stop stop-color="#EB7724"/>
<stop offset="1" stop-color="#FFC700"/>
</linearGradient>
<linearGradient id="paint12_linear_502_101" x1="158.149" y1="19.9306" x2="165.811" y2="20.476" gradientUnits="userSpaceOnUse">
<stop stop-color="#EB7724"/>
<stop offset="1" stop-color="#FFC700"/>
</linearGradient>
<linearGradient id="paint13_linear_502_101" x1="166.646" y1="18.4321" x2="169.044" y2="18.5366" gradientUnits="userSpaceOnUse">
<stop stop-color="#EB7724"/>
<stop offset="1" stop-color="#FFC700"/>
</linearGradient>
<linearGradient id="paint14_linear_502_101" x1="200.917" y1="24.2279" x2="287.709" y2="27.6628" gradientUnits="userSpaceOnUse">
<stop stop-color="#EB7724"/>
<stop offset="1" stop-color="#FFC700"/>
</linearGradient>
<linearGradient id="paint15_linear_502_101" x1="114.151" y1="125.382" x2="129.055" y2="125.695" gradientUnits="userSpaceOnUse">
<stop stop-color="#EB7724"/>
<stop offset="1" stop-color="#FFC700"/>
</linearGradient>
<linearGradient id="paint16_linear_502_101" x1="113.259" y1="118.089" x2="116.029" y2="118.156" gradientUnits="userSpaceOnUse">
<stop stop-color="#EB7724"/>
<stop offset="1" stop-color="#FFC700"/>
</linearGradient>
<linearGradient id="paint17_linear_502_101" x1="196.354" y1="27.2035" x2="283.011" y2="31.1833" gradientUnits="userSpaceOnUse">
<stop stop-color="#EB7724"/>
<stop offset="1" stop-color="#FFC700"/>
</linearGradient>
<linearGradient id="paint18_linear_502_101" x1="118.14" y1="122.014" x2="131.011" y2="122.266" gradientUnits="userSpaceOnUse">
<stop stop-color="#EB7724"/>
<stop offset="1" stop-color="#FFC700"/>
</linearGradient>
<linearGradient id="paint19_linear_502_101" x1="191.145" y1="22.9796" x2="203.693" y2="26.2238" gradientUnits="userSpaceOnUse">
<stop stop-color="#EB7724"/>
<stop offset="1" stop-color="#FFC700"/>
</linearGradient>
<linearGradient id="paint20_linear_502_101" x1="205.644" y1="30.5684" x2="276.566" y2="33.8904" gradientUnits="userSpaceOnUse">
<stop stop-color="#EB7724"/>
<stop offset="1" stop-color="#FFC700"/>
</linearGradient>
<linearGradient id="paint21_linear_502_101" x1="123.668" y1="124.262" x2="131.527" y2="124.424" gradientUnits="userSpaceOnUse">
<stop stop-color="#EB7724"/>
<stop offset="1" stop-color="#FFC700"/>
</linearGradient>
<linearGradient id="paint22_linear_502_101" x1="174.642" y1="29.511" x2="180.574" y2="29.9822" gradientUnits="userSpaceOnUse">
<stop stop-color="#EB7724"/>
<stop offset="1" stop-color="#FFC700"/>
</linearGradient>
<linearGradient id="paint23_linear_502_101" x1="189.078" y1="27.5875" x2="204.822" y2="32.3745" gradientUnits="userSpaceOnUse">
<stop stop-color="#EB7724"/>
<stop offset="1" stop-color="#FFC700"/>
</linearGradient>
<linearGradient id="paint24_linear_502_101" x1="207.201" y1="34.0208" x2="269.641" y2="37.2007" gradientUnits="userSpaceOnUse">
<stop stop-color="#EB7724"/>
<stop offset="1" stop-color="#FFC700"/>
</linearGradient>
<linearGradient id="paint25_linear_502_101" x1="129.096" y1="125.757" x2="134.306" y2="125.881" gradientUnits="userSpaceOnUse">
<stop stop-color="#EB7724"/>
<stop offset="1" stop-color="#FFC700"/>
</linearGradient>
<linearGradient id="paint26_linear_502_101" x1="170.48" y1="34.1639" x2="181.766" y2="35.2538" gradientUnits="userSpaceOnUse">
<stop stop-color="#EB7724"/>
<stop offset="1" stop-color="#FFC700"/>
</linearGradient>
<linearGradient id="paint27_linear_502_101" x1="191.992" y1="32.1346" x2="202.912" y2="34.6188" gradientUnits="userSpaceOnUse">
<stop stop-color="#EB7724"/>
<stop offset="1" stop-color="#FFC700"/>
</linearGradient>
<linearGradient id="paint28_linear_502_101" x1="206.454" y1="34.5994" x2="242.682" y2="37.8443" gradientUnits="userSpaceOnUse">
<stop stop-color="#EB7724"/>
<stop offset="1" stop-color="#FFC700"/>
</linearGradient>
<linearGradient id="paint29_linear_502_101" x1="241.8" y1="49.8674" x2="243.755" y2="49.9494" gradientUnits="userSpaceOnUse">
<stop stop-color="#EB7724"/>
<stop offset="1" stop-color="#FFC700"/>
</linearGradient>
<linearGradient id="paint30_linear_502_101" x1="242.465" y1="53.7542" x2="263.761" y2="54.3789" gradientUnits="userSpaceOnUse">
<stop stop-color="#EB7724"/>
<stop offset="1" stop-color="#FFC700"/>
</linearGradient>
<linearGradient id="paint31_linear_502_101" x1="236.946" y1="151.486" x2="245.383" y2="151.9" gradientUnits="userSpaceOnUse">
<stop stop-color="#EB7724"/>
<stop offset="1" stop-color="#FFC700"/>
</linearGradient>
<linearGradient id="paint32_linear_502_101" x1="203.695" y1="166.159" x2="220.386" y2="168.469" gradientUnits="userSpaceOnUse">
<stop stop-color="#EB7724"/>
<stop offset="1" stop-color="#FFC700"/>
</linearGradient>
<linearGradient id="paint33_linear_502_101" x1="176.245" y1="37.8834" x2="185.776" y2="38.8616" gradientUnits="userSpaceOnUse">
<stop stop-color="#EB7724"/>
<stop offset="1" stop-color="#FFC700"/>
</linearGradient>
<linearGradient id="paint34_linear_502_101" x1="187.019" y1="39.1062" x2="246.89" y2="45.6937" gradientUnits="userSpaceOnUse">
<stop stop-color="#EB7724"/>
<stop offset="1" stop-color="#FFC700"/>
</linearGradient>
<linearGradient id="paint35_linear_502_101" x1="246.308" y1="63.5626" x2="258.788" y2="63.8904" gradientUnits="userSpaceOnUse">
<stop stop-color="#EB7724"/>
<stop offset="1" stop-color="#FFC700"/>
</linearGradient>
<linearGradient id="paint36_linear_502_101" x1="257.164" y1="82.949" x2="260" y2="83.0334" gradientUnits="userSpaceOnUse">
<stop stop-color="#EB7724"/>
<stop offset="1" stop-color="#FFC700"/>
</linearGradient>
<linearGradient id="paint37_linear_502_101" x1="236.317" y1="141.058" x2="249.491" y2="141.62" gradientUnits="userSpaceOnUse">
<stop stop-color="#EB7724"/>
<stop offset="1" stop-color="#FFC700"/>
</linearGradient>
<linearGradient id="paint38_linear_502_101" x1="201.637" y1="159.603" x2="225.361" y2="162.793" gradientUnits="userSpaceOnUse">
<stop stop-color="#EB7724"/>
<stop offset="1" stop-color="#FFC700"/>
</linearGradient>
<linearGradient id="paint39_linear_502_101" x1="176.272" y1="42.0176" x2="223.677" y2="53.738" gradientUnits="userSpaceOnUse">
<stop stop-color="#EB7724"/>
<stop offset="1" stop-color="#FFC700"/>
</linearGradient>
<linearGradient id="paint40_linear_502_101" x1="225.434" y1="52.3755" x2="253.792" y2="53.48" gradientUnits="userSpaceOnUse">
<stop stop-color="#EB7724"/>
<stop offset="1" stop-color="#FFC700"/>
</linearGradient>
<linearGradient id="paint41_linear_502_101" x1="251.763" y1="81.9103" x2="256.558" y2="81.9979" gradientUnits="userSpaceOnUse">
<stop stop-color="#EB7724"/>
<stop offset="1" stop-color="#FFC700"/>
</linearGradient>
<linearGradient id="paint42_linear_502_101" x1="238.594" y1="142.004" x2="241.267" y2="142.12" gradientUnits="userSpaceOnUse">
<stop stop-color="#EB7724"/>
<stop offset="1" stop-color="#FFC700"/>
</linearGradient>
<linearGradient id="paint43_linear_502_101" x1="200.097" y1="152.99" x2="228.889" y2="156.555" gradientUnits="userSpaceOnUse">
<stop stop-color="#EB7724"/>
<stop offset="1" stop-color="#FFC700"/>
</linearGradient>
<linearGradient id="paint44_linear_502_101" x1="170.744" y1="51.2577" x2="173.265" y2="51.3675" gradientUnits="userSpaceOnUse">
<stop stop-color="#EB7724"/>
<stop offset="1" stop-color="#FFC700"/>
</linearGradient>
<linearGradient id="paint45_linear_502_101" x1="179.305" y1="46.2639" x2="215.793" y2="56.8754" gradientUnits="userSpaceOnUse">
<stop stop-color="#EB7724"/>
<stop offset="1" stop-color="#FFC700"/>
</linearGradient>
<linearGradient id="paint46_linear_502_101" x1="223.185" y1="55.2993" x2="245.808" y2="56.3044" gradientUnits="userSpaceOnUse">
<stop stop-color="#EB7724"/>
<stop offset="1" stop-color="#FFC700"/>
</linearGradient>
<linearGradient id="paint47_linear_502_101" x1="245.161" y1="78.7282" x2="252.509" y2="78.8551" gradientUnits="userSpaceOnUse">
<stop stop-color="#EB7724"/>
<stop offset="1" stop-color="#FFC700"/>
</linearGradient>
<linearGradient id="paint48_linear_502_101" x1="199.096" y1="142.44" x2="236.948" y2="146.081" gradientUnits="userSpaceOnUse">
<stop stop-color="#EB7724"/>
<stop offset="1" stop-color="#FFC700"/>
</linearGradient>
<linearGradient id="paint49_linear_502_101" x1="168.367" y1="55.5105" x2="250.571" y2="61.6218" gradientUnits="userSpaceOnUse">
<stop stop-color="#EB7724"/>
<stop offset="1" stop-color="#FFC700"/>
</linearGradient>
<linearGradient id="paint50_linear_502_101" x1="245.752" y1="101.642" x2="248.265" y2="101.67" gradientUnits="userSpaceOnUse">
<stop stop-color="#EB7724"/>
<stop offset="1" stop-color="#FFC700"/>
</linearGradient>
<linearGradient id="paint51_linear_502_101" x1="198.613" y1="135.925" x2="237.235" y2="139.271" gradientUnits="userSpaceOnUse">
<stop stop-color="#EB7724"/>
<stop offset="1" stop-color="#FFC700"/>
</linearGradient>
<linearGradient id="paint52_linear_502_101" x1="170.344" y1="57.8095" x2="183.006" y2="58.7661" gradientUnits="userSpaceOnUse">
<stop stop-color="#EB7724"/>
<stop offset="1" stop-color="#FFC700"/>
</linearGradient>
<linearGradient id="paint53_linear_502_101" x1="191.118" y1="55.0338" x2="195.01" y2="55.3416" gradientUnits="userSpaceOnUse">
<stop stop-color="#EB7724"/>
<stop offset="1" stop-color="#FFC700"/>
</linearGradient>
<linearGradient id="paint54_linear_502_101" x1="196.673" y1="55.0439" x2="204.228" y2="56.0573" gradientUnits="userSpaceOnUse">
<stop stop-color="#EB7724"/>
<stop offset="1" stop-color="#FFC700"/>
</linearGradient>
<linearGradient id="paint55_linear_502_101" x1="205.543" y1="56.7059" x2="223.466" y2="58.2795" gradientUnits="userSpaceOnUse">
<stop stop-color="#EB7724"/>
<stop offset="1" stop-color="#FFC700"/>
</linearGradient>
<linearGradient id="paint56_linear_502_101" x1="224.787" y1="68.9294" x2="244.236" y2="69.4007" gradientUnits="userSpaceOnUse">
<stop stop-color="#EB7724"/>
<stop offset="1" stop-color="#FFC700"/>
</linearGradient>
<linearGradient id="paint57_linear_502_101" x1="239.332" y1="102.538" x2="243.792" y2="102.588" gradientUnits="userSpaceOnUse">
<stop stop-color="#EB7724"/>
<stop offset="1" stop-color="#FFC700"/>
</linearGradient>
<linearGradient id="paint58_linear_502_101" x1="194.979" y1="130.018" x2="236.357" y2="133.576" gradientUnits="userSpaceOnUse">
<stop stop-color="#EB7724"/>
<stop offset="1" stop-color="#FFC700"/>
</linearGradient>
<linearGradient id="paint59_linear_502_101" x1="157.475" y1="81.0535" x2="160.933" y2="81.1769" gradientUnits="userSpaceOnUse">
<stop stop-color="#EB7724"/>
<stop offset="1" stop-color="#FFC700"/>
</linearGradient>
<linearGradient id="paint60_linear_502_101" x1="160.244" y1="77.7567" x2="162.869" y2="77.871" gradientUnits="userSpaceOnUse">
<stop stop-color="#EB7724"/>
<stop offset="1" stop-color="#FFC700"/>
</linearGradient>
<linearGradient id="paint61_linear_502_101" x1="167.502" y1="65.0537" x2="177.847" y2="65.6407" gradientUnits="userSpaceOnUse">
<stop stop-color="#EB7724"/>
<stop offset="1" stop-color="#FFC700"/>
</linearGradient>
<linearGradient id="paint62_linear_502_101" x1="199.915" y1="59.7208" x2="201.992" y2="59.8112" gradientUnits="userSpaceOnUse">
<stop stop-color="#EB7724"/>
<stop offset="1" stop-color="#FFC700"/>
</linearGradient>
<linearGradient id="paint63_linear_502_101" x1="206.937" y1="61.0855" x2="211.093" y2="61.3439" gradientUnits="userSpaceOnUse">
<stop stop-color="#EB7724"/>
<stop offset="1" stop-color="#FFC700"/>
</linearGradient>
<linearGradient id="paint64_linear_502_101" x1="195.562" y1="77.7184" x2="240.724" y2="78.8759" gradientUnits="userSpaceOnUse">
<stop stop-color="#EB7724"/>
<stop offset="1" stop-color="#FFC700"/>
</linearGradient>
<linearGradient id="paint65_linear_502_101" x1="157.639" y1="68.1276" x2="196.916" y2="69.8913" gradientUnits="userSpaceOnUse">
<stop stop-color="#EB7724"/>
<stop offset="1" stop-color="#FFC700"/>
</linearGradient>
<linearGradient id="paint66_linear_502_101" x1="215.808" y1="71.2304" x2="229.074" y2="71.8124" gradientUnits="userSpaceOnUse">
<stop stop-color="#EB7724"/>
<stop offset="1" stop-color="#FFC700"/>
</linearGradient>
<linearGradient id="paint67_linear_502_101" x1="228.002" y1="83.6256" x2="231.385" y2="83.7436" gradientUnits="userSpaceOnUse">
<stop stop-color="#EB7724"/>
<stop offset="1" stop-color="#FFC700"/>
</linearGradient>
<linearGradient id="paint68_linear_502_101" x1="198.54" y1="95.5802" x2="235.869" y2="96.7806" gradientUnits="userSpaceOnUse">
<stop stop-color="#EB7724"/>
<stop offset="1" stop-color="#FFC700"/>
</linearGradient>
<linearGradient id="paint69_linear_502_101" x1="162.111" y1="72.9481" x2="202.977" y2="74.7488" gradientUnits="userSpaceOnUse">
<stop stop-color="#EB7724"/>
<stop offset="1" stop-color="#FFC700"/>
</linearGradient>
<linearGradient id="paint70_linear_502_101" x1="198.385" y1="77.4793" x2="231.16" y2="78.1844" gradientUnits="userSpaceOnUse">
<stop stop-color="#EB7724"/>
<stop offset="1" stop-color="#FFC700"/>
</linearGradient>
<linearGradient id="paint71_linear_502_101" x1="166.656" y1="79.5228" x2="227.562" y2="82.2819" gradientUnits="userSpaceOnUse">
<stop stop-color="#EB7724"/>
<stop offset="1" stop-color="#FFC700"/>
</linearGradient>
<linearGradient id="paint72_linear_502_101" x1="171.225" y1="83.0579" x2="222.693" y2="85.4074" gradientUnits="userSpaceOnUse">
<stop stop-color="#EB7724"/>
<stop offset="1" stop-color="#FFC700"/>
</linearGradient>
<linearGradient id="paint73_linear_502_101" x1="175.769" y1="86.576" x2="217.797" y2="88.5148" gradientUnits="userSpaceOnUse">
<stop stop-color="#EB7724"/>
<stop offset="1" stop-color="#FFC700"/>
</linearGradient>
<linearGradient id="paint74_linear_502_101" x1="180.309" y1="90.1259" x2="212.904" y2="91.6564" gradientUnits="userSpaceOnUse">
<stop stop-color="#EB7724"/>
<stop offset="1" stop-color="#FFC700"/>
</linearGradient>
<linearGradient id="paint75_linear_502_101" x1="93.812" y1="109.145" x2="117.83" y2="109.517" gradientUnits="userSpaceOnUse">
<stop stop-color="#EB7724"/>
<stop offset="1" stop-color="#FFC700"/>
</linearGradient>
<linearGradient id="paint76_linear_502_101" x1="108.997" y1="47.8795" x2="111.593" y2="47.9926" gradientUnits="userSpaceOnUse">
<stop stop-color="#EB7724"/>
<stop offset="1" stop-color="#FFC700"/>
</linearGradient>
<linearGradient id="paint77_linear_502_101" x1="110.973" y1="43.4587" x2="114.667" y2="43.601" gradientUnits="userSpaceOnUse">
<stop stop-color="#EB7724"/>
<stop offset="1" stop-color="#FFC700"/>
</linearGradient>
<linearGradient id="paint78_linear_502_101" x1="114.133" y1="36.52" x2="120.321" y2="36.7557" gradientUnits="userSpaceOnUse">
<stop stop-color="#EB7724"/>
<stop offset="1" stop-color="#FFC700"/>
</linearGradient>
<linearGradient id="paint79_linear_502_101" x1="129.078" y1="5.76856" x2="172.799" y2="9.21132" gradientUnits="userSpaceOnUse">
<stop stop-color="#EB7724"/>
<stop offset="1" stop-color="#FFC700"/>
</linearGradient>
<linearGradient id="paint80_linear_502_101" x1="230.033" y1="1.3341" x2="235.983" y2="1.7498" gradientUnits="userSpaceOnUse">
<stop stop-color="#EB7724"/>
<stop offset="1" stop-color="#FFC700"/>
</linearGradient>
<linearGradient id="paint81_linear_502_101" x1="241.727" y1="6.16605" x2="245.944" y2="6.39535" gradientUnits="userSpaceOnUse">
<stop stop-color="#EB7724"/>
<stop offset="1" stop-color="#FFC700"/>
</linearGradient>
<linearGradient id="paint82_linear_502_101" x1="248.129" y1="18.1157" x2="303.85" y2="19.7861" gradientUnits="userSpaceOnUse">
<stop stop-color="#EB7724"/>
<stop offset="1" stop-color="#FFC700"/>
</linearGradient>
<linearGradient id="paint83_linear_502_101" x1="89.2495" y1="109.462" x2="115.678" y2="109.882" gradientUnits="userSpaceOnUse">
<stop stop-color="#EB7724"/>
<stop offset="1" stop-color="#FFC700"/>
</linearGradient>
<linearGradient id="paint84_linear_502_101" x1="89.8167" y1="89.0626" x2="92.133" y2="89.1213" gradientUnits="userSpaceOnUse">
<stop stop-color="#EB7724"/>
<stop offset="1" stop-color="#FFC700"/>
</linearGradient>
<linearGradient id="paint85_linear_502_101" x1="102.139" y1="35.8412" x2="116.41" y2="36.2895" gradientUnits="userSpaceOnUse">
<stop stop-color="#EB7724"/>
<stop offset="1" stop-color="#FFC700"/>
</linearGradient>
<linearGradient id="paint86_linear_502_101" x1="128.878" y1="2.37831" x2="166.844" y2="5.3088" gradientUnits="userSpaceOnUse">
<stop stop-color="#EB7724"/>
<stop offset="1" stop-color="#FFC700"/>
</linearGradient>
<linearGradient id="paint87_linear_502_101" x1="257.137" y1="19.1299" x2="309.013" y2="20.4664" gradientUnits="userSpaceOnUse">
<stop stop-color="#EB7724"/>
<stop offset="1" stop-color="#FFC700"/>
</linearGradient>
<linearGradient id="paint88_linear_502_101" x1="84.7048" y1="107.691" x2="112.203" y2="108.114" gradientUnits="userSpaceOnUse">
<stop stop-color="#EB7724"/>
<stop offset="1" stop-color="#FFC700"/>
</linearGradient>
<linearGradient id="paint89_linear_502_101" x1="85.2903" y1="88.5409" x2="87.6067" y2="88.5996" gradientUnits="userSpaceOnUse">
<stop stop-color="#EB7724"/>
<stop offset="1" stop-color="#FFC700"/>
</linearGradient>
<linearGradient id="paint90_linear_502_101" x1="94.8984" y1="54.9085" x2="97.4008" y2="55.0171" gradientUnits="userSpaceOnUse">
<stop stop-color="#EB7724"/>
<stop offset="1" stop-color="#FFC700"/>
</linearGradient>
<linearGradient id="paint91_linear_502_101" x1="96.4832" y1="29.0223" x2="117.427" y2="29.6844" gradientUnits="userSpaceOnUse">
<stop stop-color="#EB7724"/>
<stop offset="1" stop-color="#FFC700"/>
</linearGradient>
<linearGradient id="paint92_linear_502_101" x1="120.563" y1="19.6969" x2="123.226" y2="19.8128" gradientUnits="userSpaceOnUse">
<stop stop-color="#EB7724"/>
<stop offset="1" stop-color="#FFC700"/>
</linearGradient>
<linearGradient id="paint93_linear_502_101" x1="130.472" y1="1.61232" x2="153.396" y2="3.21712" gradientUnits="userSpaceOnUse">
<stop stop-color="#EB7724"/>
<stop offset="1" stop-color="#FFC700"/>
</linearGradient>
<linearGradient id="paint94_linear_502_101" x1="262.018" y1="18.2739" x2="313.848" y2="19.449" gradientUnits="userSpaceOnUse">
<stop stop-color="#EB7724"/>
<stop offset="1" stop-color="#FFC700"/>
</linearGradient>
<linearGradient id="paint95_linear_502_101" x1="80.1423" y1="110.33" x2="109.456" y2="110.802" gradientUnits="userSpaceOnUse">
<stop stop-color="#EB7724"/>
<stop offset="1" stop-color="#FFC700"/>
</linearGradient>
<linearGradient id="paint96_linear_502_101" x1="81.0461" y1="87.1288" x2="83.1614" y2="87.2205" gradientUnits="userSpaceOnUse">
<stop stop-color="#EB7724"/>
<stop offset="1" stop-color="#FFC700"/>
</linearGradient>
<linearGradient id="paint97_linear_502_101" x1="88.9878" y1="29.5558" x2="111.458" y2="30.1924" gradientUnits="userSpaceOnUse">
<stop stop-color="#EB7724"/>
<stop offset="1" stop-color="#FFC700"/>
</linearGradient>
<linearGradient id="paint98_linear_502_101" x1="110.49" y1="17.5775" x2="119.829" y2="17.9839" gradientUnits="userSpaceOnUse">
<stop stop-color="#EB7724"/>
<stop offset="1" stop-color="#FFC700"/>
</linearGradient>
<linearGradient id="paint99_linear_502_101" x1="129.734" y1="1.45787" x2="141.92" y2="2.21284" gradientUnits="userSpaceOnUse">
<stop stop-color="#EB7724"/>
<stop offset="1" stop-color="#FFC700"/>
</linearGradient>
<linearGradient id="paint100_linear_502_101" x1="260.779" y1="12.1855" x2="318.587" y2="13.6061" gradientUnits="userSpaceOnUse">
<stop stop-color="#EB7724"/>
<stop offset="1" stop-color="#FFC700"/>
</linearGradient>
<linearGradient id="paint101_linear_502_101" x1="87.6399" y1="158.654" x2="106.667" y2="159.22" gradientUnits="userSpaceOnUse">
<stop stop-color="#EB7724"/>
<stop offset="1" stop-color="#FFC700"/>
</linearGradient>
<linearGradient id="paint102_linear_502_101" x1="75.6001" y1="109.217" x2="84.7383" y2="109.305" gradientUnits="userSpaceOnUse">
<stop stop-color="#EB7724"/>
<stop offset="1" stop-color="#FFC700"/>
</linearGradient>
<linearGradient id="paint103_linear_502_101" x1="76.5291" y1="84.9378" x2="78.921" y2="85" gradientUnits="userSpaceOnUse">
<stop stop-color="#EB7724"/>
<stop offset="1" stop-color="#FFC700"/>
</linearGradient>
<linearGradient id="paint104_linear_502_101" x1="81.2283" y1="28.3787" x2="107.588" y2="29.049" gradientUnits="userSpaceOnUse">
<stop stop-color="#EB7724"/>
<stop offset="1" stop-color="#FFC700"/>
</linearGradient>
<linearGradient id="paint105_linear_502_101" x1="106.474" y1="12.9681" x2="118.522" y2="13.497" gradientUnits="userSpaceOnUse">
<stop stop-color="#EB7724"/>
<stop offset="1" stop-color="#FFC700"/>
</linearGradient>
<linearGradient id="paint106_linear_502_101" x1="122.557" y1="1.47391" x2="132.885" y2="2.05064" gradientUnits="userSpaceOnUse">
<stop stop-color="#EB7724"/>
<stop offset="1" stop-color="#FFC700"/>
</linearGradient>
<linearGradient id="paint107_linear_502_101" x1="270.688" y1="14.2291" x2="322.956" y2="15.3344" gradientUnits="userSpaceOnUse">
<stop stop-color="#EB7724"/>
<stop offset="1" stop-color="#FFC700"/>
</linearGradient>
<linearGradient id="paint108_linear_502_101" x1="88.8967" y1="169.746" x2="104.905" y2="170.281" gradientUnits="userSpaceOnUse">
<stop stop-color="#EB7724"/>
<stop offset="1" stop-color="#FFC700"/>
</linearGradient>
<linearGradient id="paint109_linear_502_101" x1="74.8896" y1="134.239" x2="77.1843" y2="134.338" gradientUnits="userSpaceOnUse">
<stop stop-color="#EB7724"/>
<stop offset="1" stop-color="#FFC700"/>
</linearGradient>
<linearGradient id="paint110_linear_502_101" x1="72.1211" y1="121.185" x2="76.3681" y2="121.243" gradientUnits="userSpaceOnUse">
<stop stop-color="#EB7724"/>
<stop offset="1" stop-color="#FFC700"/>
</linearGradient>
<linearGradient id="paint111_linear_502_101" x1="71.0374" y1="103.825" x2="72.9758" y2="103.868" gradientUnits="userSpaceOnUse">
<stop stop-color="#EB7724"/>
<stop offset="1" stop-color="#FFC700"/>
</linearGradient>
<linearGradient id="paint112_linear_502_101" x1="72.3579" y1="83.4434" x2="74.5109" y2="83.5372" gradientUnits="userSpaceOnUse">
<stop stop-color="#EB7724"/>
<stop offset="1" stop-color="#FFC700"/>
</linearGradient>
<linearGradient id="paint113_linear_502_101" x1="73.2686" y1="40.3639" x2="93.025" y2="40.7325" gradientUnits="userSpaceOnUse">
<stop stop-color="#EB7724"/>
<stop offset="1" stop-color="#FFC700"/>
</linearGradient>
<linearGradient id="paint114_linear_502_101" x1="99.3701" y1="22.2127" x2="102.024" y2="22.3282" gradientUnits="userSpaceOnUse">
<stop stop-color="#EB7724"/>
<stop offset="1" stop-color="#FFC700"/>
</linearGradient>
<linearGradient id="paint115_linear_502_101" x1="105.417" y1="9.7396" x2="114.859" y2="10.1601" gradientUnits="userSpaceOnUse">
<stop stop-color="#EB7724"/>
<stop offset="1" stop-color="#FFC700"/>
</linearGradient>
<linearGradient id="paint116_linear_502_101" x1="114.698" y1="1.12456" x2="125.51" y2="1.68791" gradientUnits="userSpaceOnUse">
<stop stop-color="#EB7724"/>
<stop offset="1" stop-color="#FFC700"/>
</linearGradient>
<linearGradient id="paint117_linear_502_101" x1="282.018" y1="15.1204" x2="326.251" y2="16.1476" gradientUnits="userSpaceOnUse">
<stop stop-color="#EB7724"/>
<stop offset="1" stop-color="#FFC700"/>
</linearGradient>
<linearGradient id="paint118_linear_502_101" x1="110.19" y1="200.377" x2="112.853" y2="200.494" gradientUnits="userSpaceOnUse">
<stop stop-color="#EB7724"/>
<stop offset="1" stop-color="#FFC700"/>
</linearGradient>
<linearGradient id="paint119_linear_502_101" x1="87.5852" y1="176.338" x2="105.519" y2="176.98" gradientUnits="userSpaceOnUse">
<stop stop-color="#EB7724"/>
<stop offset="1" stop-color="#FFC700"/>
</linearGradient>
<linearGradient id="paint120_linear_502_101" x1="66.4836" y1="95.2997" x2="68.6878" y2="95.322" gradientUnits="userSpaceOnUse">
<stop stop-color="#EB7724"/>
<stop offset="1" stop-color="#FFC700"/>
</linearGradient>
<linearGradient id="paint121_linear_502_101" x1="69.7349" y1="38.1947" x2="88.7247" y2="38.5647" gradientUnits="userSpaceOnUse">
<stop stop-color="#EB7724"/>
<stop offset="1" stop-color="#FFC700"/>
</linearGradient>
<linearGradient id="paint122_linear_502_101" x1="93.8511" y1="16.8198" x2="101.342" y2="17.1089" gradientUnits="userSpaceOnUse">
<stop stop-color="#EB7724"/>
<stop offset="1" stop-color="#FFC700"/>
</linearGradient>
<linearGradient id="paint123_linear_502_101" x1="100.946" y1="2.43094" x2="117.419" y2="3.19344" gradientUnits="userSpaceOnUse">
<stop stop-color="#EB7724"/>
<stop offset="1" stop-color="#FFC700"/>
</linearGradient>
<linearGradient id="paint124_linear_502_101" x1="291.753" y1="17.9978" x2="330.657" y2="18.8243" gradientUnits="userSpaceOnUse">
<stop stop-color="#EB7724"/>
<stop offset="1" stop-color="#FFC700"/>
</linearGradient>
<linearGradient id="paint125_linear_502_101" x1="90.5725" y1="188.078" x2="109.188" y2="188.844" gradientUnits="userSpaceOnUse">
<stop stop-color="#EB7724"/>
<stop offset="1" stop-color="#FFC700"/>
</linearGradient>
<linearGradient id="paint126_linear_502_101" x1="61.9846" y1="88.0877" x2="64.8604" y2="88.1146" gradientUnits="userSpaceOnUse">
<stop stop-color="#EB7724"/>
<stop offset="1" stop-color="#FFC700"/>
</linearGradient>
<linearGradient id="paint127_linear_502_101" x1="65.1265" y1="36.3434" x2="84.6461" y2="36.7183" gradientUnits="userSpaceOnUse">
<stop stop-color="#EB7724"/>
<stop offset="1" stop-color="#FFC700"/>
</linearGradient>
<linearGradient id="paint128_linear_502_101" x1="86.4468" y1="15.1916" x2="97.2745" y2="15.5833" gradientUnits="userSpaceOnUse">
<stop stop-color="#EB7724"/>
<stop offset="1" stop-color="#FFC700"/>
</linearGradient>
<linearGradient id="paint129_linear_502_101" x1="97.9675" y1="9.95938" x2="100.63" y2="10.0749" gradientUnits="userSpaceOnUse">
<stop stop-color="#EB7724"/>
<stop offset="1" stop-color="#FFC700"/>
</linearGradient>
<linearGradient id="paint130_linear_502_101" x1="100.509" y1="1.79286" x2="110.044" y2="2.22664" gradientUnits="userSpaceOnUse">
<stop stop-color="#EB7724"/>
<stop offset="1" stop-color="#FFC700"/>
</linearGradient>
<linearGradient id="paint131_linear_502_101" x1="297.691" y1="17.5882" x2="335.026" y2="18.3605" gradientUnits="userSpaceOnUse">
<stop stop-color="#EB7724"/>
<stop offset="1" stop-color="#FFC700"/>
</linearGradient>
<linearGradient id="paint132_linear_502_101" x1="57.5129" y1="90.595" x2="59.925" y2="90.628" gradientUnits="userSpaceOnUse">
<stop stop-color="#EB7724"/>
<stop offset="1" stop-color="#FFC700"/>
</linearGradient>
<linearGradient id="paint133_linear_502_101" x1="60.5911" y1="21.0141" x2="91.6638" y2="21.6979" gradientUnits="userSpaceOnUse">
<stop stop-color="#EB7724"/>
<stop offset="1" stop-color="#FFC700"/>
</linearGradient>
<linearGradient id="paint134_linear_502_101" x1="90.29" y1="4.4237" x2="100.83" y2="4.85714" gradientUnits="userSpaceOnUse">
<stop stop-color="#EB7724"/>
<stop offset="1" stop-color="#FFC700"/>
</linearGradient>
<linearGradient id="paint135_linear_502_101" x1="305.997" y1="17.7016" x2="335.167" y2="18.3846" gradientUnits="userSpaceOnUse">
<stop stop-color="#EB7724"/>
<stop offset="1" stop-color="#FFC700"/>
</linearGradient>
<linearGradient id="paint136_linear_502_101" x1="53.0867" y1="88.0344" x2="55.6122" y2="88.0704" gradientUnits="userSpaceOnUse">
<stop stop-color="#EB7724"/>
<stop offset="1" stop-color="#FFC700"/>
</linearGradient>
<linearGradient id="paint137_linear_502_101" x1="55.3545" y1="14.2047" x2="92.7244" y2="15.0411" gradientUnits="userSpaceOnUse">
<stop stop-color="#EB7724"/>
<stop offset="1" stop-color="#FFC700"/>
</linearGradient>
<linearGradient id="paint138_linear_502_101" x1="48.5786" y1="20.1147" x2="82.9861" y2="20.7152" gradientUnits="userSpaceOnUse">
<stop stop-color="#EB7724"/>
<stop offset="1" stop-color="#FFC700"/>
</linearGradient>
<linearGradient id="paint139_linear_502_101" x1="81.4377" y1="6.85014" x2="85.3007" y2="7.00833" gradientUnits="userSpaceOnUse">
<stop stop-color="#EB7724"/>
<stop offset="1" stop-color="#FFC700"/>
</linearGradient>
<linearGradient id="paint140_linear_502_101" x1="44.0796" y1="18.9203" x2="78.1468" y2="19.5075" gradientUnits="userSpaceOnUse">
<stop stop-color="#EB7724"/>
<stop offset="1" stop-color="#FFC700"/>
</linearGradient>
<linearGradient id="paint141_linear_502_101" x1="76.5835" y1="5.59727" x2="80.4276" y2="5.75356" gradientUnits="userSpaceOnUse">
<stop stop-color="#EB7724"/>
<stop offset="1" stop-color="#FFC700"/>
</linearGradient>
<linearGradient id="paint142_linear_502_101" x1="40.1086" y1="23.7095" x2="67.9721" y2="24.1735" gradientUnits="userSpaceOnUse">
<stop stop-color="#EB7724"/>
<stop offset="1" stop-color="#FFC700"/>
</linearGradient>
<linearGradient id="paint143_linear_502_101" x1="66.438" y1="10.2852" x2="71.247" y2="10.4615" gradientUnits="userSpaceOnUse">
<stop stop-color="#EB7724"/>
<stop offset="1" stop-color="#FFC700"/>
</linearGradient>
<linearGradient id="paint144_linear_502_101" x1="35.6553" y1="81.6042" x2="37.9905" y2="81.6637" gradientUnits="userSpaceOnUse">
<stop stop-color="#EB7724"/>
<stop offset="1" stop-color="#FFC700"/>
</linearGradient>
<linearGradient id="paint145_linear_502_101" x1="36.6479" y1="21.6281" x2="63.3187" y2="22.101" gradientUnits="userSpaceOnUse">
<stop stop-color="#EB7724"/>
<stop offset="1" stop-color="#FFC700"/>
</linearGradient>
<linearGradient id="paint146_linear_502_101" x1="31.9485" y1="21.8932" x2="57.7686" y2="22.3343" gradientUnits="userSpaceOnUse">
<stop stop-color="#EB7724"/>
<stop offset="1" stop-color="#FFC700"/>
</linearGradient>
<linearGradient id="paint147_linear_502_101" x1="27.8411" y1="73.3787" x2="30.0129" y2="73.4729" gradientUnits="userSpaceOnUse">
<stop stop-color="#EB7724"/>
<stop offset="1" stop-color="#FFC700"/>
</linearGradient>
<linearGradient id="paint148_linear_502_101" x1="29.1982" y1="20.8966" x2="52.2273" y2="21.3164" gradientUnits="userSpaceOnUse">
<stop stop-color="#EB7724"/>
<stop offset="1" stop-color="#FFC700"/>
</linearGradient>
<linearGradient id="paint149_linear_502_101" x1="26.5115" y1="57.6681" x2="28.8061" y2="57.7676" gradientUnits="userSpaceOnUse">
<stop stop-color="#EB7724"/>
<stop offset="1" stop-color="#FFC700"/>
</linearGradient>
<linearGradient id="paint150_linear_502_101" x1="33.9795" y1="16.144" x2="47.406" y2="16.464" gradientUnits="userSpaceOnUse">
<stop stop-color="#EB7724"/>
<stop offset="1" stop-color="#FFC700"/>
</linearGradient>
<linearGradient id="paint151_linear_502_101" x1="31.7754" y1="15.552" x2="41.9487" y2="15.8061" gradientUnits="userSpaceOnUse">
<stop stop-color="#EB7724"/>
<stop offset="1" stop-color="#FFC700"/>
</linearGradient>
<linearGradient id="paint152_linear_502_101" x1="27.4314" y1="14.0804" x2="37.5575" y2="14.332" gradientUnits="userSpaceOnUse">
<stop stop-color="#EB7724"/>
<stop offset="1" stop-color="#FFC700"/>
</linearGradient>
<linearGradient id="paint153_linear_502_101" x1="22.3767" y1="15.6447" x2="31.3969" y2="15.8639" gradientUnits="userSpaceOnUse">
<stop stop-color="#EB7724"/>
<stop offset="1" stop-color="#FFC700"/>
</linearGradient>
<linearGradient id="paint154_linear_502_101" x1="15.9834" y1="17.616" x2="25.3919" y2="17.8298" gradientUnits="userSpaceOnUse">
<stop stop-color="#EB7724"/>
<stop offset="1" stop-color="#FFC700"/>
</linearGradient>
<linearGradient id="paint155_linear_502_101" x1="10.3914" y1="20.8816" x2="18.6655" y2="21.063" gradientUnits="userSpaceOnUse">
<stop stop-color="#EB7724"/>
<stop offset="1" stop-color="#FFC700"/>
</linearGradient>
<linearGradient id="paint156_linear_502_101" x1="5.48267" y1="33.0783" x2="7.89061" y2="33.1827" gradientUnits="userSpaceOnUse">
<stop stop-color="#EB7724"/>
<stop offset="1" stop-color="#FFC700"/>
</linearGradient>
<linearGradient id="paint157_linear_502_101" x1="6.74854" y1="25.1134" x2="11.2961" y2="25.23" gradientUnits="userSpaceOnUse">
<stop stop-color="#EB7724"/>
<stop offset="1" stop-color="#FFC700"/>
</linearGradient>
<linearGradient id="paint158_linear_502_101" x1="10.9014" y1="19.486" x2="13.3943" y2="19.5946" gradientUnits="userSpaceOnUse">
<stop stop-color="#EB7724"/>
<stop offset="1" stop-color="#FFC700"/>
</linearGradient>
<linearGradient id="paint159_linear_502_101" x1="-5.67514e-09" y1="34.98" x2="2.38905" y2="35.0836" gradientUnits="userSpaceOnUse">
<stop stop-color="#EB7724"/>
<stop offset="1" stop-color="#FFC700"/>
</linearGradient>
<clipPath id="clip0_502_101">
<rect width="306" height="205" fill="white"/>
</clipPath>
</defs>
</svg>
